<?xml version="1.0" encoding="UTF-8"?>
<svg id="Layer_1" data-name="Layer 1" xmlns="http://www.w3.org/2000/svg" version="1.1" viewBox="0 0 3549.812 1818.198">
  <polygon points="1774.907 0 1774.907 909.1 0 909.1 0 0 1774.907 0 1774.907 0" fill="#111827" fill-rule="evenodd" stroke-width="0"/>
  <polygon points="1774.907 909.1 1774.907 1818.198 0 1818.198 0 909.1 1774.907 909.1 1774.907 909.1" fill="#111827" fill-rule="evenodd" stroke-width="0"/>
  <polygon points="3549.812 0 3549.812 909.1 1774.907 909.1 1774.907 0 3549.812 0 3549.812 0" fill="#111827" fill-rule="evenodd" stroke-width="0"/>
  <polygon points="3549.812 909.1 3549.812 1818.198 1774.907 1818.198 1774.907 909.1 3549.812 909.1 3549.812 909.1" fill="#111827" fill-rule="evenodd" stroke-width="0"/>
  <polygon points="1299.737 411.259 1299.737 454.549 1158.772 454.549 1158.772 411.259 1299.737 411.259 1299.737 411.259" fill="#1f2937" fill-rule="evenodd" opacity=".6" stroke-width="0"/>
  <polygon points="1299.737 1320.358 1299.737 1363.647 1158.772 1363.647 1158.772 1320.358 1299.737 1320.358 1299.737 1320.358" fill="#1f2937" fill-rule="evenodd" opacity=".6" stroke-width="0"/>
  <polygon points="3074.647 411.259 3074.647 454.549 2933.678 454.549 2933.678 411.259 3074.647 411.259 3074.647 411.259" fill="#1f2937" fill-rule="evenodd" opacity=".6" stroke-width="0"/>
  <polygon points="3074.647 1320.358 3074.647 1363.647 2933.678 1363.647 2933.678 1320.358 3074.647 1320.358 3074.647 1320.358" fill="#1f2937" fill-rule="evenodd" opacity=".6" stroke-width="0"/>
  <path d="M1515.164,21.646v43.29h-151.516c-23.725,0-43.291,19.567-43.291,43.291s19.565,43.291,43.291,43.291h86.58v43.289h-86.58c-47.621,0-86.581-38.961-86.581-86.581h0c0-47.619,38.96-86.581,86.581-86.581h151.516Z" fill="#1f2937" fill-rule="evenodd" opacity=".6" stroke-width="0"/>
  <path d="M1515.164,930.744v43.289h-151.516c-23.725,0-43.291,19.568-43.291,43.293s19.565,43.289,43.291,43.289h86.58v43.29h-86.58c-47.621,0-86.581-38.96-86.581-86.579h0c0-47.619,38.96-86.582,86.581-86.582h151.516Z" fill="#1f2937" fill-rule="evenodd" opacity=".6" stroke-width="0"/>
  <path d="M3290.069,21.646v43.29h-151.515c-23.723,0-43.292,19.567-43.292,43.291s19.569,43.291,43.292,43.291h86.579v43.289h-86.579c-47.617,0-86.58-38.961-86.58-86.581h0c0-47.619,38.963-86.581,86.58-86.581h151.515Z" fill="#1f2937" fill-rule="evenodd" opacity=".6" stroke-width="0"/>
  <path d="M3290.069,930.744v43.289h-151.515c-23.723,0-43.292,19.568-43.292,43.293s19.569,43.289,43.292,43.289h86.579v43.29h-86.579c-47.617,0-86.58-38.96-86.58-86.579h0c0-47.619,38.963-86.582,86.58-86.582h151.515Z" fill="#1f2937" fill-rule="evenodd" opacity=".6" stroke-width="0"/>
  <path d="M1753.262,197.513v-110.932c0-35.715-29.221-64.936-64.936-64.936h0c-35.715,0-64.937,29.221-64.937,64.936v21.645h43.291v-21.645c0-11.82,9.826-21.646,21.645-21.646s21.646,9.826,21.646,21.646v110.932h43.29Z" fill="#1f2937" fill-rule="evenodd" opacity=".6" stroke-width="0"/>
  <path d="M1753.262,1106.612v-110.933c0-35.715-29.221-64.936-64.936-64.936h0c-35.715,0-64.937,29.221-64.937,64.936v21.647h43.291v-21.647c0-11.82,9.826-21.646,21.645-21.646s21.646,9.826,21.646,21.646v110.933h43.29Z" fill="#1f2937" fill-rule="evenodd" opacity=".6" stroke-width="0"/>
  <path d="M3528.169,197.513v-110.932c0-35.715-29.223-64.936-64.935-64.936h0c-35.714,0-64.936,29.221-64.936,64.936v21.645h43.293v-21.645c0-11.82,9.826-21.646,21.644-21.646s21.644,9.826,21.644,21.646v110.932h43.292Z" fill="#1f2937" fill-rule="evenodd" opacity=".6" stroke-width="0"/>
  <path d="M3528.169,1106.612v-110.933c0-35.715-29.223-64.936-64.935-64.936h0c-35.714,0-64.936,29.221-64.936,64.936v21.647h43.293v-21.647c0-11.82,9.826-21.646,21.644-21.646s21.644,9.826,21.644,21.646v110.933h43.292Z" fill="#1f2937" fill-rule="evenodd" opacity=".6" stroke-width="0"/>
  <path d="M1666.681,108.226v21.645c0,35.715-29.221,64.936-64.936,64.936h0c-35.715,0-64.935-29.221-64.935-64.936v-21.645h43.291v21.645c0,11.82,9.825,21.646,21.645,21.646s21.645-9.826,21.645-21.646v-21.645h43.291Z" fill="#1f2937" fill-rule="evenodd" opacity=".6" stroke-width="0"/>
  <path d="M1666.681,1017.326v21.645c0,35.713-29.221,64.934-64.936,64.934h0c-35.715,0-64.935-29.221-64.935-64.934v-21.645h43.291v21.645c0,11.817,9.825,21.644,21.645,21.644s21.645-9.826,21.645-21.644v-21.645h43.291Z" fill="#1f2937" fill-rule="evenodd" opacity=".6" stroke-width="0"/>
  <path d="M3441.59,108.226v21.645c0,35.715-29.224,64.936-64.936,64.936h0c-35.717,0-64.935-29.221-64.935-64.936v-21.645h43.288v21.645c0,11.82,9.826,21.646,21.647,21.646s21.644-9.826,21.644-21.646v-21.645h43.293Z" fill="#1f2937" fill-rule="evenodd" opacity=".6" stroke-width="0"/>
  <path d="M3441.59,1017.326v21.645c0,35.713-29.224,64.934-64.936,64.934h0c-35.717,0-64.935-29.221-64.935-64.934v-21.645h43.288v21.645c0,11.817,9.826,21.644,21.647,21.644s21.644-9.826,21.644-21.644v-21.645h43.293Z" fill="#1f2937" fill-rule="evenodd" opacity=".6" stroke-width="0"/>
  <path d="M1580.101,108.226v-21.645c0-35.715-29.222-64.936-64.936-64.936h0c-35.715,0-64.936,29.221-64.936,64.936v108.226h43.29v-108.226c0-11.82,9.826-21.646,21.646-21.646s21.646,9.826,21.646,21.646v21.645h43.291Z" fill="#1f2937" fill-rule="evenodd" opacity=".6" stroke-width="0"/>
  <path d="M1580.101,1017.326v-21.647c0-35.715-29.222-64.936-64.936-64.936h0c-35.715,0-64.936,29.221-64.936,64.936v108.226h43.29v-108.226c0-11.82,9.826-21.646,21.646-21.646s21.646,9.826,21.646,21.646v21.647h43.291Z" fill="#1f2937" fill-rule="evenodd" opacity=".6" stroke-width="0"/>
  <path d="M3355.006,108.226v-21.645c0-35.715-29.219-64.936-64.937-64.936h0c-35.713,0-64.935,29.221-64.935,64.936v108.226h43.292v-108.226c0-11.82,9.826-21.646,21.643-21.646s21.649,9.826,21.649,21.646v21.645h43.288Z" fill="#1f2937" fill-rule="evenodd" opacity=".6" stroke-width="0"/>
  <path d="M3355.006,1017.326v-21.647c0-35.715-29.219-64.936-64.937-64.936h0c-35.713,0-64.935,29.221-64.935,64.936v108.226h43.292v-108.226c0-11.82,9.826-21.646,21.643-21.646s21.649,9.826,21.649,21.646v21.647h43.288Z" fill="#1f2937" fill-rule="evenodd" opacity=".6" stroke-width="0"/>
  <path d="M1753.262,194.807v21.645c0,35.715-29.221,64.936-64.936,64.936h0c-35.715,0-64.937-29.221-64.937-64.936v-21.645h43.291v21.645c0,11.819,9.826,21.646,21.645,21.646s21.646-9.827,21.646-21.646v-21.645h43.29Z" fill="#1f2937" fill-rule="evenodd" opacity=".6" stroke-width="0"/>
  <path d="M1666.681,194.807v21.645c0,35.715-29.221,64.936-64.936,64.936h0c-35.715,0-64.935-29.221-64.935-64.936v-21.645h43.291v21.645c0,11.819,9.825,21.646,21.645,21.646s21.645-9.827,21.645-21.646v-21.645h43.291Z" fill="#1f2937" fill-rule="evenodd" opacity=".6" stroke-width="0"/>
  <path d="M1580.101,194.807v21.645c0,35.715-29.222,64.936-64.936,64.936h0c-35.715,0-64.936-29.221-64.936-64.936v-21.645h43.29v21.645c0,11.819,9.826,21.646,21.646,21.646s21.646-9.827,21.646-21.646v-21.645h43.291Z" fill="#1f2937" fill-rule="evenodd" opacity=".6" stroke-width="0"/>
  <path d="M1753.262,1103.905v21.646c0,35.714-29.221,64.935-64.936,64.935h0c-35.715,0-64.937-29.221-64.937-64.935v-21.646h43.291v21.646c0,11.819,9.826,21.646,21.645,21.646s21.646-9.826,21.646-21.646v-21.646h43.29Z" fill="#1f2937" fill-rule="evenodd" opacity=".6" stroke-width="0"/>
  <path d="M1666.681,1103.905v21.646c0,35.714-29.221,64.935-64.936,64.935h0c-35.715,0-64.935-29.221-64.935-64.935v-21.646h43.291v21.646c0,11.819,9.825,21.646,21.645,21.646s21.645-9.826,21.645-21.646v-21.646h43.291Z" fill="#1f2937" fill-rule="evenodd" opacity=".6" stroke-width="0"/>
  <path d="M1580.101,1103.905v21.646c0,35.714-29.222,64.935-64.936,64.935h0c-35.715,0-64.936-29.221-64.936-64.935v-21.646h43.29v21.646c0,11.819,9.826,21.646,21.646,21.646s21.646-9.826,21.646-21.646v-21.646h43.291Z" fill="#1f2937" fill-rule="evenodd" opacity=".6" stroke-width="0"/>
  <path d="M3528.169,194.807v21.645c0,35.715-29.223,64.936-64.935,64.936h0c-35.714,0-64.936-29.221-64.936-64.936v-21.645h43.293v21.645c0,11.819,9.826,21.646,21.644,21.646s21.644-9.827,21.644-21.646v-21.645h43.292Z" fill="#1f2937" fill-rule="evenodd" opacity=".6" stroke-width="0"/>
  <path d="M3441.59,194.807v21.645c0,35.715-29.224,64.936-64.936,64.936h0c-35.717,0-64.935-29.221-64.935-64.936v-21.645h43.288v21.645c0,11.819,9.826,21.646,21.647,21.646s21.644-9.827,21.644-21.646v-21.645h43.293Z" fill="#1f2937" fill-rule="evenodd" opacity=".6" stroke-width="0"/>
  <path d="M3355.006,194.807v21.645c0,35.715-29.219,64.936-64.937,64.936h0c-35.713,0-64.935-29.221-64.935-64.936v-21.645h43.292v21.645c0,11.819,9.826,21.646,21.643,21.646s21.649-9.827,21.649-21.646v-21.645h43.288Z" fill="#1f2937" fill-rule="evenodd" opacity=".6" stroke-width="0"/>
  <path d="M3528.169,1103.905v21.646c0,35.714-29.223,64.935-64.935,64.935h0c-35.714,0-64.936-29.221-64.936-64.935v-21.646h43.293v21.646c0,11.819,9.826,21.646,21.644,21.646s21.644-9.826,21.644-21.646v-21.646h43.292Z" fill="#1f2937" fill-rule="evenodd" opacity=".6" stroke-width="0"/>
  <path d="M3441.59,1103.905v21.646c0,35.714-29.224,64.935-64.936,64.935h0c-35.717,0-64.935-29.221-64.935-64.935v-21.646h43.288v21.646c0,11.819,9.826,21.646,21.647,21.646s21.644-9.826,21.644-21.646v-21.646h43.293Z" fill="#1f2937" fill-rule="evenodd" opacity=".6" stroke-width="0"/>
  <path d="M3355.006,1103.905v21.646c0,35.714-29.219,64.935-64.937,64.935h0c-35.713,0-64.935-29.221-64.935-64.935v-21.646h43.292v21.646c0,11.819,9.826,21.646,21.643,21.646s21.649-9.826,21.649-21.646v-21.646h43.288Z" fill="#1f2937" fill-rule="evenodd" opacity=".6" stroke-width="0"/>
  <path d="M1363.648,324.679v-43.291h-43.291c-23.725,0-43.29-19.566-43.29-43.29s19.565-43.291,43.29-43.291h173.161v-43.289h-173.161c-47.619,0-86.581,38.96-86.581,86.581h0c0,47.619,38.962,86.581,86.581,86.581h43.291Z" fill="#78350f" fill-rule="evenodd" opacity=".6" stroke-width="0"/>
  <path d="M1363.648,1233.777v-43.291h-43.291c-23.725,0-43.29-19.564-43.29-43.289s19.565-43.292,43.29-43.292h173.161v-43.29h-173.161c-47.619,0-86.581,38.963-86.581,86.582h0c0,47.619,38.962,86.58,86.581,86.58h43.291Z" fill="#78350f" fill-rule="evenodd" opacity=".6" stroke-width="0"/>
  <path d="M3138.555,324.679v-43.291h-43.292c-23.722,0-43.288-19.566-43.288-43.29s19.566-43.291,43.288-43.291h173.163v-43.289h-173.163c-47.617,0-86.579,38.96-86.579,86.581h0c0,47.619,38.962,86.581,86.579,86.581h43.292Z" fill="#78350f" fill-rule="evenodd" opacity=".6" stroke-width="0"/>
  <path d="M3138.555,1233.777v-43.291h-43.292c-23.722,0-43.288-19.564-43.288-43.289s19.566-43.292,43.288-43.292h173.163v-43.29h-173.163c-47.617,0-86.579,38.963-86.579,86.582h0c0,47.619,38.962,86.58,86.579,86.58h43.292Z" fill="#78350f" fill-rule="evenodd" opacity=".6" stroke-width="0"/>
  <polygon points="1471.874 411.259 1471.874 367.968 1753.262 367.968 1753.262 411.259 1471.874 411.259 1471.874 411.259" fill="#78350f" fill-rule="evenodd" opacity=".6" stroke-width="0"/>
  <polygon points="1471.874 1320.358 1471.874 1277.068 1753.262 1277.068 1753.262 1320.358 1471.874 1320.358 1471.874 1320.358" fill="#78350f" fill-rule="evenodd" opacity=".6" stroke-width="0"/>
  <polygon points="3246.782 411.259 3246.782 367.968 3528.169 367.968 3528.169 411.259 3246.782 411.259 3246.782 411.259" fill="#78350f" fill-rule="evenodd" opacity=".6" stroke-width="0"/>
  <polygon points="3246.782 1320.358 3246.782 1277.068 3528.169 1277.068 3528.169 1320.358 3246.782 1320.358 3246.782 1320.358" fill="#78350f" fill-rule="evenodd" opacity=".6" stroke-width="0"/>
  <path d="M1406.937,346.323c0,35.864,29.073,64.936,64.937,64.936s64.936-29.072,64.936-64.936-29.072-64.935-64.936-64.935-64.937,29.073-64.937,64.935h0Z" fill="#1f2937" fill-rule="evenodd" opacity=".6" stroke-width="0"/>
  <path d="M1406.937,1255.423c0,35.862,29.073,64.936,64.937,64.936s64.936-29.073,64.936-64.936-29.072-64.936-64.936-64.936-64.937,29.074-64.937,64.936h0Z" fill="#1f2937" fill-rule="evenodd" opacity=".6" stroke-width="0"/>
  <path d="M3181.846,346.323c0,35.864,29.071,64.936,64.936,64.936s64.936-29.072,64.936-64.936-29.075-64.935-64.936-64.935-64.936,29.073-64.936,64.935h0Z" fill="#1f2937" fill-rule="evenodd" opacity=".6" stroke-width="0"/>
  <path d="M3181.846,1255.423c0,35.862,29.071,64.936,64.936,64.936s64.936-29.073,64.936-64.936-29.075-64.936-64.936-64.936-64.936,29.074-64.936,64.936h0Z" fill="#1f2937" fill-rule="evenodd" opacity=".6" stroke-width="0"/>
  <path d="M1493.519,346.323c0,11.955-9.69,21.645-21.645,21.645s-21.646-9.69-21.646-21.645,9.691-21.645,21.646-21.645,21.645,9.69,21.645,21.645h0Z" fill="#111827" fill-rule="evenodd" stroke-width="0"/>
  <path d="M1493.519,1255.423c0,11.954-9.69,21.645-21.645,21.645s-21.646-9.691-21.646-21.645,9.691-21.645,21.646-21.645,21.645,9.691,21.645,21.645h0Z" fill="#111827" fill-rule="evenodd" stroke-width="0"/>
  <path d="M3268.426,346.323c0,11.955-9.691,21.645-21.644,21.645s-21.648-9.69-21.648-21.645,9.692-21.645,21.648-21.645,21.644,9.69,21.644,21.645h0Z" fill="#111827" fill-rule="evenodd" stroke-width="0"/>
  <path d="M3268.426,1255.423c0,11.954-9.691,21.645-21.644,21.645s-21.648-9.691-21.648-21.645,9.692-21.645,21.648-21.645,21.644,9.691,21.644,21.645h0Z" fill="#111827" fill-rule="evenodd" stroke-width="0"/>
  <path d="M1753.262,519.486c0,59.771-48.455,108.226-108.226,108.226s-108.226-48.455-108.226-108.226,48.454-108.226,108.226-108.226,108.226,48.455,108.226,108.226h0Z" fill="#1f2937" fill-rule="evenodd" opacity=".6" stroke-width="0"/>
  <path d="M1753.262,1428.584c0,59.77-48.455,108.226-108.226,108.226s-108.226-48.455-108.226-108.226,48.454-108.226,108.226-108.226,108.226,48.455,108.226,108.226h0Z" fill="#1f2937" fill-rule="evenodd" opacity=".6" stroke-width="0"/>
  <path d="M3528.169,519.486c0,59.771-48.454,108.226-108.228,108.226s-108.224-48.455-108.224-108.226,48.454-108.226,108.224-108.226,108.228,48.455,108.228,108.226h0Z" fill="#1f2937" fill-rule="evenodd" opacity=".6" stroke-width="0"/>
  <path d="M3528.169,1428.584c0,59.77-48.454,108.226-108.228,108.226s-108.224-48.455-108.224-108.226,48.454-108.226,108.224-108.226,108.228,48.455,108.228,108.226h0Z" fill="#1f2937" fill-rule="evenodd" opacity=".6" stroke-width="0"/>
  <path d="M1599.31,497.84h-127.436c-35.715,0-64.937,29.222-64.937,64.936h0c0,35.715,29.222,64.936,64.937,64.936h43.29c11.819,0,21.646,9.826,21.646,21.645s-9.826,21.645-21.646,21.645h-43.29c-35.715,0-64.937,29.222-64.937,64.935v.002c0,35.714,29.222,64.935,64.937,64.935h108.227v-43.291h-108.227c-11.819,0-21.646-9.827-21.646-21.646s9.826-21.644,21.646-21.644h43.29c35.715,0,64.936-29.221,64.936-64.936h0c0-35.714-29.222-64.935-64.936-64.935h-43.29c-11.819,0-21.646-9.826-21.646-21.646s9.826-21.645,21.646-21.645h127.436v-43.291h0Z" fill="#1f2937" fill-rule="evenodd" opacity=".6" stroke-width="0"/>
  <path d="M1599.31,1406.939h-127.436c-35.715,0-64.937,29.223-64.937,64.935h0c0,35.715,29.222,64.936,64.937,64.936h43.29c11.819,0,21.646,9.826,21.646,21.645s-9.826,21.644-21.646,21.644h-43.29c-35.715,0-64.937,29.223-64.937,64.935v.002c0,35.713,29.222,64.935,64.937,64.935h108.227v-43.292h-108.227c-11.819,0-21.646-9.826-21.646-21.645s9.826-21.644,21.646-21.644h43.29c35.715,0,64.936-29.221,64.936-64.935h0c0-35.715-29.222-64.936-64.936-64.936h-43.29c-11.819,0-21.646-9.826-21.646-21.645s9.826-21.644,21.646-21.644h127.436v-43.291h0Z" fill="#1f2937" fill-rule="evenodd" opacity=".6" stroke-width="0"/>
  <path d="M3374.215,497.84h-127.433c-35.718,0-64.936,29.222-64.936,64.936h0c0,35.715,29.219,64.936,64.936,64.936h43.287c11.822,0,21.649,9.826,21.649,21.645s-9.826,21.645-21.649,21.645h-43.287c-35.718,0-64.936,29.222-64.936,64.935v.002c0,35.714,29.219,64.935,64.936,64.935h108.224v-43.291h-108.224c-11.822,0-21.648-9.827-21.648-21.646s9.826-21.644,21.648-21.644h43.287c35.718,0,64.937-29.221,64.937-64.936h0c0-35.714-29.219-64.935-64.937-64.935h-43.287c-11.822,0-21.648-9.826-21.648-21.646s9.826-21.645,21.648-21.645h127.433v-43.291h0Z" fill="#1f2937" fill-rule="evenodd" opacity=".6" stroke-width="0"/>
  <path d="M3374.215,1406.939h-127.433c-35.718,0-64.936,29.223-64.936,64.935h0c0,35.715,29.219,64.936,64.936,64.936h43.287c11.822,0,21.649,9.826,21.649,21.645s-9.826,21.644-21.649,21.644h-43.287c-35.718,0-64.936,29.223-64.936,64.935v.002c0,35.713,29.219,64.935,64.936,64.935h108.224v-43.292h-108.224c-11.822,0-21.648-9.826-21.648-21.645s9.826-21.644,21.648-21.644h43.287c35.718,0,64.937-29.221,64.937-64.935h0c0-35.715-29.219-64.936-64.937-64.936h-43.287c-11.822,0-21.648-9.826-21.648-21.645s9.826-21.644,21.648-21.644h127.433v-43.291h0Z" fill="#1f2937" fill-rule="evenodd" opacity=".6" stroke-width="0"/>
  <path d="M1709.972,519.486c0,35.863-29.073,64.936-64.936,64.936s-64.936-29.073-64.936-64.936,29.071-64.937,64.936-64.937,64.936,29.073,64.936,64.937h0Z" fill="#111827" fill-rule="evenodd" stroke-width="0"/>
  <path d="M1709.972,1428.584c0,35.862-29.073,64.935-64.936,64.935s-64.936-29.073-64.936-64.935,29.071-64.937,64.936-64.937,64.936,29.074,64.936,64.937h0Z" fill="#111827" fill-rule="evenodd" stroke-width="0"/>
  <path d="M3484.877,519.486c0,35.863-29.071,64.936-64.936,64.936s-64.935-29.073-64.935-64.936,29.075-64.937,64.935-64.937,64.936,29.073,64.936,64.937h0Z" fill="#111827" fill-rule="evenodd" stroke-width="0"/>
  <path d="M3484.877,1428.584c0,35.862-29.071,64.935-64.936,64.935s-64.935-29.073-64.935-64.935,29.075-64.937,64.935-64.937,64.936,29.074,64.936,64.937h0Z" fill="#111827" fill-rule="evenodd" stroke-width="0"/>
  <path d="M1666.681,519.486c0,11.954-9.69,21.645-21.645,21.645s-21.646-9.691-21.646-21.645,9.692-21.646,21.646-21.646,21.645,9.69,21.645,21.646h0Z" fill="#78350f" fill-rule="evenodd" opacity=".6" stroke-width="0"/>
  <path d="M1666.681,1428.584c0,11.954-9.69,21.645-21.645,21.645s-21.646-9.691-21.646-21.645,9.692-21.645,21.646-21.645,21.645,9.691,21.645,21.645h0Z" fill="#78350f" fill-rule="evenodd" opacity=".6" stroke-width="0"/>
  <path d="M3441.59,519.486c0,11.954-9.692,21.645-21.648,21.645s-21.644-9.691-21.644-21.645,9.692-21.646,21.644-21.646,21.648,9.69,21.648,21.646h0Z" fill="#78350f" fill-rule="evenodd" opacity=".6" stroke-width="0"/>
  <path d="M3441.59,1428.584c0,11.954-9.692,21.645-21.648,21.645s-21.644-9.691-21.644-21.645,9.692-21.645,21.644-21.645,21.648,9.691,21.648,21.645h0Z" fill="#78350f" fill-rule="evenodd" opacity=".6" stroke-width="0"/>
  <path d="M974.034,194.807h-21.645c-35.715,0-64.936,29.221-64.936,64.936h0c0,35.715,29.221,64.936,64.936,64.936h21.645v-43.291h-21.645c-11.819,0-21.645-9.825-21.645-21.645s9.825-21.645,21.645-21.645h21.645v-43.291h0Z" fill="#1f2937" fill-rule="evenodd" opacity=".6" stroke-width="0"/>
  <path d="M974.034,281.388h-21.645c-35.715,0-64.936,29.222-64.936,64.935h0c0,35.715,29.221,64.936,64.936,64.936h21.645v-43.291h-21.645c-11.819,0-21.645-9.825-21.645-21.645s9.825-21.645,21.645-21.645h21.645v-43.291h0Z" fill="#1f2937" fill-rule="evenodd" opacity=".6" stroke-width="0"/>
  <path d="M974.034,367.968h-21.645c-35.715,0-64.936,29.222-64.936,64.936h0c0,35.715,29.221,64.935,64.936,64.935h21.645v-43.291h-21.645c-11.819,0-21.645-9.825-21.645-21.644s9.825-21.645,21.645-21.645h21.645v-43.291h0Z" fill="#1f2937" fill-rule="evenodd" opacity=".6" stroke-width="0"/>
  <path d="M974.034,1103.905h-21.645c-35.715,0-64.936,29.223-64.936,64.935h0c0,35.716,29.221,64.936,64.936,64.936h21.645v-43.291h-21.645c-11.819,0-21.645-9.826-21.645-21.645s9.825-21.644,21.645-21.644h21.645v-43.292h0Z" fill="#1f2937" fill-rule="evenodd" opacity=".6" stroke-width="0"/>
  <path d="M974.034,1190.486h-21.645c-35.715,0-64.936,29.221-64.936,64.936h0c0,35.715,29.221,64.936,64.936,64.936h21.645v-43.29h-21.645c-11.819,0-21.645-9.826-21.645-21.645s9.825-21.645,21.645-21.645h21.645v-43.291h0Z" fill="#1f2937" fill-rule="evenodd" opacity=".6" stroke-width="0"/>
  <path d="M974.034,1277.068h-21.645c-35.715,0-64.936,29.221-64.936,64.934h0c0,35.716,29.221,64.937,64.936,64.937h21.645v-43.291h-21.645c-11.819,0-21.645-9.825-21.645-21.645s9.825-21.643,21.645-21.643h21.645v-43.29h0Z" fill="#1f2937" fill-rule="evenodd" opacity=".6" stroke-width="0"/>
  <path d="M2748.94,194.807h-21.643c-35.713,0-64.937,29.221-64.937,64.936h0c0,35.715,29.224,64.936,64.937,64.936h21.643v-43.291h-21.643c-11.822,0-21.645-9.825-21.645-21.645s9.822-21.645,21.645-21.645h21.643v-43.291h0Z" fill="#1f2937" fill-rule="evenodd" opacity=".6" stroke-width="0"/>
  <path d="M2748.94,281.388h-21.643c-35.713,0-64.937,29.222-64.937,64.935h0c0,35.715,29.224,64.936,64.937,64.936h21.643v-43.291h-21.643c-11.822,0-21.645-9.825-21.645-21.645s9.822-21.645,21.645-21.645h21.643v-43.291h0Z" fill="#1f2937" fill-rule="evenodd" opacity=".6" stroke-width="0"/>
  <path d="M2748.94,367.968h-21.643c-35.713,0-64.937,29.222-64.937,64.936h0c0,35.715,29.224,64.935,64.937,64.935h21.643v-43.291h-21.643c-11.822,0-21.645-9.825-21.645-21.644s9.822-21.645,21.645-21.645h21.643v-43.291h0Z" fill="#1f2937" fill-rule="evenodd" opacity=".6" stroke-width="0"/>
  <path d="M2748.94,1103.905h-21.643c-35.713,0-64.937,29.223-64.937,64.935h0c0,35.716,29.224,64.936,64.937,64.936h21.643v-43.291h-21.643c-11.822,0-21.645-9.826-21.645-21.645s9.822-21.644,21.645-21.644h21.643v-43.292h0Z" fill="#1f2937" fill-rule="evenodd" opacity=".6" stroke-width="0"/>
  <path d="M2748.94,1190.486h-21.643c-35.713,0-64.937,29.221-64.937,64.936h0c0,35.715,29.224,64.936,64.937,64.936h21.643v-43.29h-21.643c-11.822,0-21.645-9.826-21.645-21.645s9.822-21.645,21.645-21.645h21.643v-43.291h0Z" fill="#1f2937" fill-rule="evenodd" opacity=".6" stroke-width="0"/>
  <path d="M2748.94,1277.068h-21.643c-35.713,0-64.937,29.221-64.937,64.934h0c0,35.716,29.224,64.937,64.937,64.937h21.643v-43.291h-21.643c-11.822,0-21.645-9.825-21.645-21.645s9.822-21.643,21.645-21.643h21.643v-43.29h0Z" fill="#1f2937" fill-rule="evenodd" opacity=".6" stroke-width="0"/>
  <polygon points="1233.776 281.388 1233.776 324.679 1017.324 324.679 1017.324 281.388 1233.776 281.388 1233.776 281.388" fill="#1f2937" fill-rule="evenodd" opacity=".6" stroke-width="0"/>
  <polygon points="1233.776 1190.486 1233.776 1233.777 1017.324 1233.777 1017.324 1190.486 1233.776 1190.486 1233.776 1190.486" fill="#1f2937" fill-rule="evenodd" opacity=".6" stroke-width="0"/>
  <polygon points="3008.684 281.388 3008.684 324.679 2792.232 324.679 2792.232 281.388 3008.684 281.388 3008.684 281.388" fill="#1f2937" fill-rule="evenodd" opacity=".6" stroke-width="0"/>
  <polygon points="3008.684 1190.486 3008.684 1233.777 2792.232 1233.777 2792.232 1190.486 3008.684 1190.486 3008.684 1190.486" fill="#1f2937" fill-rule="evenodd" opacity=".6" stroke-width="0"/>
  <path d="M1580.101,714.292v43.291h86.58c23.724,0,43.291,19.565,43.291,43.291s-19.567,43.29-43.291,43.29h-173.162v43.289h173.162c47.619,0,86.581-38.961,86.581-86.58h0c0-47.621-38.962-86.581-86.581-86.581h-86.58Z" fill="#1f2937" fill-rule="evenodd" opacity=".6" stroke-width="0"/>
  <path d="M1580.101,1623.391v43.29h86.58c23.724,0,43.291,19.565,43.291,43.292s-19.567,43.29-43.291,43.29h-173.162v43.29h173.162c47.619,0,86.581-38.961,86.581-86.58h0c0-47.621-38.962-86.582-86.581-86.582h-86.58Z" fill="#1f2937" fill-rule="evenodd" opacity=".6" stroke-width="0"/>
  <path d="M3355.006,714.292v43.291h86.584c23.721,0,43.287,19.565,43.287,43.291s-19.567,43.29-43.287,43.29h-173.164v43.289h173.164c47.617,0,86.579-38.961,86.579-86.58h0c0-47.621-38.962-86.581-86.579-86.581h-86.584Z" fill="#1f2937" fill-rule="evenodd" opacity=".6" stroke-width="0"/>
  <path d="M3355.006,1623.391v43.29h86.584c23.721,0,43.287,19.565,43.287,43.292s-19.567,43.29-43.287,43.29h-173.164v43.29h173.164c47.617,0,86.579-38.961,86.579-86.58h0c0-47.621-38.962-86.582-86.579-86.582h-86.584Z" fill="#1f2937" fill-rule="evenodd" opacity=".6" stroke-width="0"/>
  <polygon points="1147.196 671.001 1147.196 714.292 1190.486 714.292 1233.776 714.292 1233.776 757.583 1233.776 800.873 1277.067 800.873 1320.357 800.873 1320.357 844.164 1320.357 887.453 1363.648 887.453 1450.228 887.453 1450.228 844.164 1363.647 844.164 1363.648 800.873 1363.647 757.583 1320.357 757.583 1277.067 757.583 1277.067 714.292 1277.067 671.001 1190.486 671.001 1190.486 584.421 1147.196 584.421 1147.196 671.001 1147.196 671.001" fill="#78350f" fill-rule="evenodd" opacity=".6" stroke-width="0"/>
  <polygon points="1147.196 1580.1 1147.196 1623.391 1190.486 1623.391 1233.776 1623.391 1233.776 1666.681 1233.776 1709.973 1277.067 1709.973 1320.357 1709.973 1320.357 1753.263 1320.357 1796.553 1363.648 1796.553 1450.228 1796.553 1450.228 1753.263 1363.647 1753.263 1363.648 1709.973 1363.647 1666.681 1320.357 1666.681 1277.067 1666.681 1277.067 1623.391 1277.067 1580.1 1190.486 1580.1 1190.486 1493.52 1147.196 1493.52 1147.196 1580.1 1147.196 1580.1" fill="#78350f" fill-rule="evenodd" opacity=".6" stroke-width="0"/>
  <polygon points="2922.104 671.001 2922.104 714.292 2965.391 714.292 3008.684 714.292 3008.684 757.583 3008.684 800.873 3051.975 800.873 3095.263 800.873 3095.263 844.164 3095.263 887.453 3138.555 887.453 3225.134 887.453 3225.134 844.164 3138.555 844.164 3138.555 800.873 3138.555 757.583 3095.263 757.583 3051.975 757.583 3051.975 714.292 3051.975 671.001 2965.391 671.001 2965.391 584.421 2922.104 584.421 2922.104 671.001 2922.104 671.001" fill="#78350f" fill-rule="evenodd" opacity=".6" stroke-width="0"/>
  <polygon points="2922.104 1580.1 2922.104 1623.391 2965.391 1623.391 3008.684 1623.391 3008.684 1666.681 3008.684 1709.973 3051.975 1709.973 3095.263 1709.973 3095.263 1753.263 3095.263 1796.553 3138.555 1796.553 3225.134 1796.553 3225.134 1753.263 3138.555 1753.263 3138.555 1709.973 3138.555 1666.681 3095.263 1666.681 3051.975 1666.681 3051.975 1623.391 3051.975 1580.1 2965.391 1580.1 2965.391 1493.52 2922.104 1493.52 2922.104 1580.1 2922.104 1580.1" fill="#78350f" fill-rule="evenodd" opacity=".6" stroke-width="0"/>
  <polygon points="1103.905 454.549 1103.905 497.84 1060.614 497.84 1060.614 541.131 1017.324 541.131 1017.324 497.84 974.034 497.84 974.034 454.549 1017.324 454.549 1017.324 411.259 1060.614 411.259 1060.614 454.549 1103.905 454.549 1103.905 454.549" fill="#1f2937" fill-rule="evenodd" opacity=".6" stroke-width="0"/>
  <polygon points="1103.905 1363.647 1103.905 1406.939 1060.614 1406.939 1060.614 1450.23 1017.324 1450.23 1017.324 1406.939 974.034 1406.939 974.034 1363.647 1017.324 1363.647 1017.324 1320.358 1060.614 1320.358 1060.614 1363.647 1103.905 1363.647 1103.905 1363.647" fill="#1f2937" fill-rule="evenodd" opacity=".6" stroke-width="0"/>
  <polygon points="2878.811 454.549 2878.811 497.84 2835.523 497.84 2835.523 541.131 2792.232 541.131 2792.232 497.84 2748.94 497.84 2748.94 454.549 2792.232 454.549 2792.232 411.259 2835.523 411.259 2835.523 454.549 2878.811 454.549 2878.811 454.549" fill="#1f2937" fill-rule="evenodd" opacity=".6" stroke-width="0"/>
  <polygon points="2878.811 1363.647 2878.811 1406.939 2835.523 1406.939 2835.523 1450.23 2792.232 1450.23 2792.232 1406.939 2748.94 1406.939 2748.94 1363.647 2792.232 1363.647 2792.232 1320.358 2835.523 1320.358 2835.523 1363.647 2878.811 1363.647 2878.811 1363.647" fill="#1f2937" fill-rule="evenodd" opacity=".6" stroke-width="0"/>
  <path d="M1277.067,497.84c59.771,0,108.226,48.455,108.226,108.227s-48.454,108.226-108.226,108.226v-43.291c35.862,0,64.935-29.072,64.935-64.935s-29.072-64.936-64.935-64.936v-43.291h0Z" fill="#1f2937" fill-rule="evenodd" opacity=".6" stroke-width="0"/>
  <path d="M1277.067,1406.939c59.771,0,108.226,48.456,108.226,108.227s-48.454,108.225-108.226,108.225v-43.291c35.862,0,64.935-29.071,64.935-64.934s-29.072-64.936-64.935-64.936v-43.291h0Z" fill="#1f2937" fill-rule="evenodd" opacity=".6" stroke-width="0"/>
  <path d="M3051.975,497.84c59.773,0,108.224,48.455,108.224,108.227s-48.45,108.226-108.224,108.226v-43.291c35.861,0,64.936-29.072,64.936-64.935s-29.074-64.936-64.936-64.936v-43.291h0Z" fill="#1f2937" fill-rule="evenodd" opacity=".6" stroke-width="0"/>
  <path d="M3051.975,1406.939c59.773,0,108.224,48.456,108.224,108.227s-48.45,108.225-108.224,108.225v-43.291c35.861,0,64.936-29.071,64.936-64.934s-29.074-64.936-64.936-64.936v-43.291h0Z" fill="#1f2937" fill-rule="evenodd" opacity=".6" stroke-width="0"/>
  <polygon points="1277.067 541.131 1233.776 541.131 1233.776 497.84 1277.067 497.84 1277.067 541.131 1277.067 541.131" fill="#1f2937" fill-rule="evenodd" opacity=".6" stroke-width="0"/>
  <polygon points="1277.067 1450.23 1233.776 1450.23 1233.776 1406.939 1277.067 1406.939 1277.067 1450.23 1277.067 1450.23" fill="#1f2937" fill-rule="evenodd" opacity=".6" stroke-width="0"/>
  <polygon points="3051.975 541.131 3008.684 541.131 3008.684 497.84 3051.975 497.84 3051.975 541.131 3051.975 541.131" fill="#1f2937" fill-rule="evenodd" opacity=".6" stroke-width="0"/>
  <polygon points="3051.975 1450.23 3008.684 1450.23 3008.684 1406.939 3051.975 1406.939 3051.975 1450.23 3051.975 1450.23" fill="#1f2937" fill-rule="evenodd" opacity=".6" stroke-width="0"/>
  <path d="M1082.292,844.164h194.806v43.289h-194.806c-59.773,0-108.227-48.453-108.227-108.226s48.454-108.226,108.227-108.226v43.291c-35.864,0-64.936,29.072-64.936,64.935s29.071,64.936,64.936,64.936h0Z" fill="#1f2937" fill-rule="evenodd" opacity=".6" stroke-width="0"/>
  <path d="M1082.292,1753.263h194.806v43.29h-194.806c-59.773,0-108.227-48.455-108.227-108.226s48.454-108.226,108.227-108.226v43.289c-35.864,0-64.936,29.073-64.936,64.936s29.071,64.936,64.936,64.936h0Z" fill="#1f2937" fill-rule="evenodd" opacity=".6" stroke-width="0"/>
  <path d="M2857.198,844.164h194.808v43.289h-194.808c-59.769,0-108.228-48.453-108.228-108.226s48.459-108.226,108.228-108.226v43.291c-35.86,0-64.937,29.072-64.937,64.935s29.076,64.936,64.937,64.936h0Z" fill="#1f2937" fill-rule="evenodd" opacity=".6" stroke-width="0"/>
  <path d="M2857.198,1753.263h194.808v43.29h-194.808c-59.769,0-108.228-48.455-108.228-108.226s48.459-108.226,108.228-108.226v43.289c-35.86,0-64.937,29.073-64.937,64.936s29.076,64.936,64.937,64.936h0Z" fill="#1f2937" fill-rule="evenodd" opacity=".6" stroke-width="0"/>
  <polygon points="1103.936 671.002 1103.936 714.293 1082.292 714.293 1082.292 671.002 1103.936 671.002 1103.936 671.002" fill="#1f2937" fill-rule="evenodd" opacity=".6" stroke-width="0"/>
  <polygon points="1103.936 1580.102 1103.936 1623.391 1082.292 1623.391 1082.292 1580.102 1103.936 1580.102 1103.936 1580.102" fill="#1f2937" fill-rule="evenodd" opacity=".6" stroke-width="0"/>
  <polygon points="2878.842 671.002 2878.842 714.293 2857.198 714.293 2857.198 671.002 2878.842 671.002 2878.842 671.002" fill="#1f2937" fill-rule="evenodd" opacity=".6" stroke-width="0"/>
  <polygon points="2878.842 1580.102 2878.842 1623.391 2857.198 1623.391 2857.198 1580.102 2878.842 1580.102 2878.842 1580.102" fill="#1f2937" fill-rule="evenodd" opacity=".6" stroke-width="0"/>
  <path d="M1190.486,779.227h0c0,11.906-9.74,21.646-21.645,21.646h-86.58c-11.906,0-21.646-9.74-21.646-21.646h0c0-11.905,9.74-21.645,21.646-21.645h86.58c11.905,0,21.645,9.739,21.645,21.645h0Z" fill="#1f2937" fill-rule="evenodd" opacity=".6" stroke-width="0"/>
  <path d="M1190.486,1688.327h0c0,11.904-9.74,21.645-21.645,21.645h-86.58c-11.906,0-21.646-9.741-21.646-21.645h0c0-11.907,9.74-21.646,21.646-21.646h86.58c11.905,0,21.645,9.739,21.645,21.646h0Z" fill="#1f2937" fill-rule="evenodd" opacity=".6" stroke-width="0"/>
  <path d="M2965.391,779.227h0c0,11.906-9.739,21.646-21.644,21.646h-86.579c-11.904,0-21.645-9.74-21.645-21.646h0c0-11.905,9.74-21.645,21.645-21.645h86.579c11.904,0,21.644,9.739,21.644,21.645h0Z" fill="#1f2937" fill-rule="evenodd" opacity=".6" stroke-width="0"/>
  <path d="M2965.391,1688.327h0c0,11.904-9.739,21.645-21.644,21.645h-86.579c-11.904,0-21.645-9.741-21.645-21.645h0c0-11.907,9.74-21.646,21.645-21.646h86.579c11.904,0,21.644,9.739,21.644,21.646h0Z" fill="#1f2937" fill-rule="evenodd" opacity=".6" stroke-width="0"/>
  <polygon points="714.292 238.098 714.292 194.807 757.581 194.807 800.872 194.807 800.872 151.518 800.872 108.226 844.163 108.226 887.453 108.226 887.453 64.936 887.453 21.646 930.744 21.646 1125.55 21.646 1125.55 64.936 930.744 64.936 930.744 108.226 930.744 151.518 887.453 151.518 844.163 151.518 844.163 194.807 844.163 238.098 757.581 238.097 757.583 324.679 714.292 324.679 714.292 238.098 714.292 238.098" fill="#1f2937" fill-rule="evenodd" opacity=".6" stroke-width="0"/>
  <polygon points="714.292 1147.197 714.292 1103.905 757.581 1103.905 800.872 1103.905 800.872 1060.615 800.872 1017.326 844.163 1017.326 887.453 1017.326 887.453 974.033 887.453 930.744 930.744 930.744 1125.55 930.744 1125.55 974.033 930.744 974.033 930.744 1017.326 930.744 1060.615 887.453 1060.615 844.163 1060.615 844.163 1103.905 844.163 1147.197 757.581 1147.197 757.583 1233.777 714.292 1233.777 714.292 1147.197 714.292 1147.197" fill="#1f2937" fill-rule="evenodd" opacity=".6" stroke-width="0"/>
  <polygon points="2489.197 238.098 2489.197 194.807 2532.489 194.807 2575.781 194.807 2575.781 151.518 2575.781 108.226 2619.068 108.226 2662.36 108.226 2662.36 64.936 2662.36 21.646 2705.652 21.646 2900.459 21.646 2900.459 64.936 2705.652 64.936 2705.652 108.226 2705.652 151.518 2662.36 151.518 2619.068 151.518 2619.068 194.807 2619.068 238.098 2532.489 238.097 2532.489 324.679 2489.197 324.679 2489.197 238.098 2489.197 238.098" fill="#1f2937" fill-rule="evenodd" opacity=".6" stroke-width="0"/>
  <polygon points="2489.197 1147.197 2489.197 1103.905 2532.489 1103.905 2575.781 1103.905 2575.781 1060.615 2575.781 1017.326 2619.068 1017.326 2662.36 1017.326 2662.36 974.033 2662.36 930.744 2705.652 930.744 2900.459 930.744 2900.459 974.033 2705.652 974.033 2705.652 1017.326 2705.652 1060.615 2662.36 1060.615 2619.068 1060.615 2619.068 1103.905 2619.068 1147.197 2532.489 1147.197 2532.489 1233.777 2489.197 1233.777 2489.197 1147.197 2489.197 1147.197" fill="#1f2937" fill-rule="evenodd" opacity=".6" stroke-width="0"/>
  <path d="M1233.776,129.872c0,59.772-48.454,108.225-108.227,108.225s-108.226-48.453-108.226-108.225,48.455-108.226,108.226-108.226,108.227,48.455,108.227,108.226h0ZM1190.486,129.872c0,35.864-29.072,64.936-64.936,64.936s-64.935-29.072-64.935-64.936,29.073-64.936,64.935-64.936,64.936,29.073,64.936,64.936h0Z" fill="#1f2937" fill-rule="evenodd" opacity=".6" stroke-width="0"/>
  <path d="M1233.776,1038.97c0,59.773-48.454,108.228-108.227,108.228s-108.226-48.455-108.226-108.228,48.455-108.226,108.226-108.226,108.227,48.454,108.227,108.226h0ZM1190.486,1038.97c0,35.865-29.072,64.936-64.936,64.936s-64.935-29.07-64.935-64.936,29.073-64.936,64.935-64.936,64.936,29.074,64.936,64.936h0Z" fill="#1f2937" fill-rule="evenodd" opacity=".6" stroke-width="0"/>
  <path d="M3008.684,129.872c0,59.772-48.455,108.225-108.225,108.225s-108.227-48.453-108.227-108.225,48.454-108.226,108.227-108.226,108.225,48.455,108.225,108.226h0ZM2965.391,129.872c0,35.864-29.07,64.936-64.932,64.936s-64.936-29.072-64.936-64.936,29.071-64.936,64.936-64.936,64.932,29.073,64.932,64.936h0Z" fill="#1f2937" fill-rule="evenodd" opacity=".6" stroke-width="0"/>
  <path d="M3008.684,1038.97c0,59.773-48.455,108.228-108.225,108.228s-108.227-48.455-108.227-108.228,48.454-108.226,108.227-108.226,108.225,48.454,108.225,108.226h0ZM2965.391,1038.97c0,35.865-29.07,64.936-64.932,64.936s-64.936-29.07-64.936-64.936,29.071-64.936,64.936-64.936,64.932,29.074,64.932,64.936h0Z" fill="#1f2937" fill-rule="evenodd" opacity=".6" stroke-width="0"/>
  <path d="M1147.196,129.872c0,11.954-9.692,21.646-21.646,21.646s-21.644-9.692-21.644-21.646,9.69-21.645,21.644-21.645,21.646,9.691,21.646,21.645h0Z" fill="#1f2937" fill-rule="evenodd" opacity=".6" stroke-width="0"/>
  <path d="M1147.196,1038.97c0,11.956-9.692,21.646-21.646,21.646s-21.644-9.689-21.644-21.646,9.69-21.643,21.644-21.643,21.646,9.689,21.646,21.643h0Z" fill="#1f2937" fill-rule="evenodd" opacity=".6" stroke-width="0"/>
  <path d="M2922.104,129.872c0,11.954-9.691,21.646-21.645,21.646s-21.647-9.692-21.647-21.646,9.692-21.645,21.647-21.645,21.645,9.691,21.645,21.645h0Z" fill="#1f2937" fill-rule="evenodd" opacity=".6" stroke-width="0"/>
  <path d="M2922.104,1038.97c0,11.956-9.691,21.646-21.645,21.646s-21.647-9.689-21.647-21.646,9.692-21.643,21.647-21.643,21.645,9.689,21.645,21.643h0Z" fill="#1f2937" fill-rule="evenodd" opacity=".6" stroke-width="0"/>
  <path d="M714.292,324.679v64.936c0,35.714,29.221,64.935,64.935,64.935h0c35.714,0,64.935-29.221,64.935-64.935v-108.226h-43.29v108.226c0,11.819-9.826,21.645-21.645,21.645s-21.645-9.826-21.645-21.645v-64.936h-43.289Z" fill="#78350f" fill-rule="evenodd" opacity=".6" stroke-width="0"/>
  <path d="M714.292,1233.777v64.936c0,35.715,29.221,64.934,64.935,64.934h0c35.714,0,64.935-29.22,64.935-64.934v-108.227h-43.29v108.227c0,11.819-9.826,21.645-21.645,21.645s-21.645-9.826-21.645-21.645v-64.936h-43.289Z" fill="#78350f" fill-rule="evenodd" opacity=".6" stroke-width="0"/>
  <path d="M2489.197,324.679v64.936c0,35.714,29.223,64.935,64.935,64.935h0c35.717,0,64.936-29.221,64.936-64.935v-108.226h-43.287v108.226c0,11.819-9.826,21.645-21.649,21.645s-21.643-9.826-21.643-21.645v-64.936h-43.292Z" fill="#78350f" fill-rule="evenodd" opacity=".6" stroke-width="0"/>
  <path d="M2489.197,1233.777v64.936c0,35.715,29.223,64.934,64.935,64.934h0c35.717,0,64.936-29.22,64.936-64.934v-108.227h-43.287v108.227c0,11.819-9.826,21.645-21.649,21.645s-21.643-9.826-21.643-21.645v-64.936h-43.292Z" fill="#78350f" fill-rule="evenodd" opacity=".6" stroke-width="0"/>
  <path d="M887.453,887.453h-108.226c-35.714,0-64.936-29.221-64.936-64.935h0c0-35.715,29.222-64.936,64.936-64.936h86.582c11.818,0,21.644-9.827,21.644-21.645s-9.826-21.646-21.644-21.646h-21.646c-35.714,0-64.935-29.221-64.935-64.936h0c0-35.714,29.222-64.935,64.935-64.935h259.743v43.29h-259.743c-11.818,0-21.644,9.826-21.644,21.645s9.826,21.645,21.644,21.645h21.646c35.714,0,64.935,29.222,64.935,64.937h0c0,35.714-29.222,64.935-64.935,64.935h-86.582c-11.82,0-21.645,9.825-21.645,21.645s9.825,21.645,21.645,21.645h108.226v43.289h0Z" fill="#1f2937" fill-rule="evenodd" opacity=".6" stroke-width="0"/>
  <path d="M887.453,1796.553h-108.226c-35.714,0-64.936-29.221-64.936-64.937h0c0-35.713,29.222-64.936,64.936-64.936h86.582c11.818,0,21.644-9.824,21.644-21.643s-9.826-21.646-21.644-21.646h-21.646c-35.714,0-64.935-29.221-64.935-64.935h0c0-35.715,29.222-64.936,64.935-64.936h259.743v43.29h-259.743c-11.818,0-21.644,9.826-21.644,21.645s9.826,21.644,21.644,21.644h21.646c35.714,0,64.935,29.223,64.935,64.937h0c0,35.713-29.222,64.935-64.935,64.935h-86.582c-11.82,0-21.645,9.824-21.645,21.644s9.825,21.647,21.645,21.647h108.226v43.29h0Z" fill="#1f2937" fill-rule="evenodd" opacity=".6" stroke-width="0"/>
  <path d="M2662.36,887.453h-108.228c-35.713,0-64.935-29.221-64.935-64.935h0c0-35.715,29.223-64.936,64.935-64.936h86.584c11.817,0,21.644-9.827,21.644-21.645s-9.826-21.646-21.644-21.646h-21.648c-35.713,0-64.936-29.221-64.936-64.936h0c0-35.714,29.223-64.935,64.936-64.935h259.743v43.29h-259.743c-11.817,0-21.644,9.826-21.644,21.645s9.826,21.645,21.644,21.645h21.648c35.713,0,64.935,29.222,64.935,64.937h0c0,35.714-29.223,64.935-64.935,64.935h-86.584c-11.817,0-21.643,9.825-21.643,21.645s9.826,21.645,21.643,21.645h108.228v43.289h0Z" fill="#1f2937" fill-rule="evenodd" opacity=".6" stroke-width="0"/>
  <path d="M2662.36,1796.553h-108.228c-35.713,0-64.935-29.221-64.935-64.937h0c0-35.713,29.223-64.936,64.935-64.936h86.584c11.817,0,21.644-9.824,21.644-21.643s-9.826-21.646-21.644-21.646h-21.648c-35.713,0-64.936-29.221-64.936-64.935h0c0-35.715,29.223-64.936,64.936-64.936h259.743v43.29h-259.743c-11.817,0-21.644,9.826-21.644,21.645s9.826,21.644,21.644,21.644h21.648c35.713,0,64.935,29.223,64.935,64.937h0c0,35.713-29.223,64.935-64.935,64.935h-86.584c-11.817,0-21.643,9.824-21.643,21.644s9.826,21.647,21.643,21.647h108.228v43.29h0Z" fill="#1f2937" fill-rule="evenodd" opacity=".6" stroke-width="0"/>
  <path d="M952.389,865.808c0,11.955-9.69,21.645-21.645,21.645s-21.646-9.69-21.646-21.645,9.692-21.644,21.646-21.644,21.645,9.69,21.645,21.644h0Z" fill="#78350f" fill-rule="evenodd" opacity=".6" stroke-width="0"/>
  <path d="M952.389,1774.906c0,11.956-9.69,21.647-21.645,21.647s-21.646-9.69-21.646-21.647,9.692-21.644,21.646-21.644,21.645,9.689,21.645,21.644h0Z" fill="#78350f" fill-rule="evenodd" opacity=".6" stroke-width="0"/>
  <path d="M2727.297,865.808c0,11.955-9.692,21.645-21.645,21.645s-21.648-9.69-21.648-21.645,9.692-21.644,21.648-21.644,21.645,9.69,21.645,21.644h0Z" fill="#78350f" fill-rule="evenodd" opacity=".6" stroke-width="0"/>
  <path d="M2727.297,1774.906c0,11.956-9.692,21.647-21.645,21.647s-21.648-9.69-21.648-21.647,9.692-21.644,21.648-21.644,21.645,9.689,21.645,21.644h0Z" fill="#78350f" fill-rule="evenodd" opacity=".6" stroke-width="0"/>
  <polygon points="757.581 714.292 757.581 541.131 887.453 541.131 887.453 497.84 757.581 497.84 714.291 497.84 714.291 541.131 714.291 714.292 757.581 714.292 757.581 714.292" fill="#1f2937" fill-rule="evenodd" opacity=".6" stroke-width="0"/>
  <polygon points="757.581 1623.391 757.581 1450.23 887.453 1450.23 887.453 1406.939 757.581 1406.939 714.291 1406.939 714.291 1450.23 714.291 1623.391 757.581 1623.391 757.581 1623.391" fill="#1f2937" fill-rule="evenodd" opacity=".6" stroke-width="0"/>
  <polygon points="2532.489 714.292 2532.489 541.131 2662.36 541.131 2662.36 497.84 2532.489 497.84 2489.197 497.84 2489.197 541.131 2489.197 714.292 2532.489 714.292 2532.489 714.292" fill="#1f2937" fill-rule="evenodd" opacity=".6" stroke-width="0"/>
  <polygon points="2532.489 1623.391 2532.489 1450.23 2662.36 1450.23 2662.36 1406.939 2532.489 1406.939 2489.197 1406.939 2489.197 1450.23 2489.197 1623.391 2532.489 1623.391 2532.489 1623.391" fill="#1f2937" fill-rule="evenodd" opacity=".6" stroke-width="0"/>
  <path d="M584.42,887.453h-21.646c-35.714,0-64.936-29.221-64.936-64.935h0c0-35.715,29.221-64.936,64.936-64.936h21.646v43.291h-21.646c-11.82,0-21.645,9.825-21.645,21.645s9.825,21.645,21.645,21.645h21.646v43.289h0Z" fill="#1f2937" fill-rule="evenodd" opacity=".6" stroke-width="0"/>
  <path d="M584.42,800.873h-21.646c-35.714,0-64.936-29.222-64.936-64.935h0c0-35.715,29.221-64.937,64.936-64.937h21.646v43.291h-21.646c-11.82,0-21.645,9.826-21.645,21.646s9.825,21.645,21.645,21.645h21.646v43.291h0Z" fill="#1f2937" fill-rule="evenodd" opacity=".6" stroke-width="0"/>
  <path d="M584.42,714.292h-21.646c-35.714,0-64.936-29.221-64.936-64.936h0c0-35.714,29.221-64.935,64.936-64.935h21.646v43.29h-21.646c-11.82,0-21.645,9.826-21.645,21.645s9.825,21.645,21.645,21.645h21.646v43.291h0Z" fill="#1f2937" fill-rule="evenodd" opacity=".6" stroke-width="0"/>
  <path d="M584.42,1796.553h-21.646c-35.714,0-64.936-29.221-64.936-64.937h0c0-35.715,29.221-64.936,64.936-64.936h21.646v43.292h-21.646c-11.82,0-21.645,9.824-21.645,21.644s9.825,21.647,21.645,21.647h21.646v43.29h0Z" fill="#1f2937" fill-rule="evenodd" opacity=".6" stroke-width="0"/>
  <path d="M584.42,1709.973h-21.646c-35.714,0-64.936-29.223-64.936-64.935h0c0-35.715,29.221-64.937,64.936-64.937h21.646v43.291h-21.646c-11.82,0-21.645,9.827-21.645,21.646s9.825,21.643,21.645,21.643h21.646v43.292h0Z" fill="#1f2937" fill-rule="evenodd" opacity=".6" stroke-width="0"/>
  <path d="M584.42,1623.391h-21.646c-35.714,0-64.936-29.221-64.936-64.935h0c0-35.715,29.221-64.936,64.936-64.936h21.646v43.29h-21.646c-11.82,0-21.645,9.826-21.645,21.645s9.825,21.644,21.645,21.644h21.646v43.291h0Z" fill="#1f2937" fill-rule="evenodd" opacity=".6" stroke-width="0"/>
  <path d="M2359.326,887.453h-21.645c-35.713,0-64.935-29.221-64.935-64.935h0c0-35.715,29.223-64.936,64.935-64.936h21.645v43.291h-21.645c-11.817,0-21.644,9.825-21.644,21.645s9.826,21.645,21.644,21.645h21.645v43.289h0Z" fill="#1f2937" fill-rule="evenodd" opacity=".6" stroke-width="0"/>
  <path d="M2359.326,800.873h-21.645c-35.713,0-64.935-29.222-64.935-64.935h0c0-35.715,29.223-64.937,64.935-64.937h21.645v43.291h-21.645c-11.817,0-21.644,9.826-21.644,21.646s9.826,21.645,21.644,21.645h21.645v43.291h0Z" fill="#1f2937" fill-rule="evenodd" opacity=".6" stroke-width="0"/>
  <path d="M2359.326,714.292h-21.645c-35.713,0-64.935-29.221-64.935-64.936h0c0-35.714,29.223-64.935,64.935-64.935h21.645v43.29h-21.645c-11.817,0-21.644,9.826-21.644,21.645s9.826,21.645,21.644,21.645h21.645v43.291h0Z" fill="#1f2937" fill-rule="evenodd" opacity=".6" stroke-width="0"/>
  <path d="M2359.326,1796.553h-21.645c-35.713,0-64.935-29.221-64.935-64.937h0c0-35.715,29.223-64.936,64.935-64.936h21.645v43.292h-21.645c-11.817,0-21.644,9.824-21.644,21.644s9.826,21.647,21.644,21.647h21.645v43.29h0Z" fill="#1f2937" fill-rule="evenodd" opacity=".6" stroke-width="0"/>
  <path d="M2359.326,1709.973h-21.645c-35.713,0-64.935-29.223-64.935-64.935h0c0-35.715,29.223-64.937,64.935-64.937h21.645v43.291h-21.645c-11.817,0-21.644,9.827-21.644,21.646s9.826,21.643,21.644,21.643h21.645v43.292h0Z" fill="#1f2937" fill-rule="evenodd" opacity=".6" stroke-width="0"/>
  <path d="M2359.326,1623.391h-21.645c-35.713,0-64.935-29.221-64.935-64.935h0c0-35.715,29.223-64.936,64.935-64.936h21.645v43.29h-21.645c-11.817,0-21.644,9.826-21.644,21.645s9.826,21.644,21.644,21.644h21.645v43.291h0Z" fill="#1f2937" fill-rule="evenodd" opacity=".6" stroke-width="0"/>
  <path d="M714.291,129.872c0,59.772-48.454,108.225-108.226,108.225s-108.227-48.453-108.227-108.225,48.456-108.226,108.227-108.226,108.226,48.455,108.226,108.226h0Z" fill="#1f2937" fill-rule="evenodd" opacity=".6" stroke-width="0"/>
  <path d="M557.228,108.226h-124.324c-35.714,0-64.936,29.222-64.936,64.936h0c0,35.714,29.221,64.935,64.936,64.935h43.289c11.82,0,21.645,9.827,21.645,21.646s-9.825,21.645-21.645,21.645h-43.289c-35.715,0-64.936,29.222-64.936,64.935h0c0,35.715,29.221,64.936,64.936,64.936h108.226v-43.291h-108.226c-11.82,0-21.645-9.825-21.645-21.645s9.825-21.645,21.645-21.645h43.289c35.715,0,64.936-29.221,64.936-64.936h0c0-35.715-29.222-64.936-64.936-64.936h-43.289c-11.82,0-21.645-9.826-21.645-21.645s9.825-21.645,21.645-21.645h124.324v-43.291h0Z" fill="#1f2937" fill-rule="evenodd" opacity=".6" stroke-width="0"/>
  <path d="M671.001,129.872c0,35.864-29.073,64.936-64.936,64.936s-64.936-29.072-64.936-64.936,29.073-64.936,64.936-64.936,64.936,29.073,64.936,64.936h0Z" fill="#111827" fill-rule="evenodd" stroke-width="0"/>
  <path d="M627.71,129.872c0,11.954-9.691,21.646-21.645,21.646s-21.645-9.692-21.645-21.646,9.691-21.645,21.645-21.645,21.645,9.691,21.645,21.645h0Z" fill="#78350f" fill-rule="evenodd" opacity=".6" stroke-width="0"/>
  <path d="M714.291,1038.97c0,59.773-48.454,108.228-108.226,108.228s-108.227-48.455-108.227-108.228,48.456-108.226,108.227-108.226,108.226,48.454,108.226,108.226h0Z" fill="#1f2937" fill-rule="evenodd" opacity=".6" stroke-width="0"/>
  <path d="M557.228,1017.326h-124.324c-35.714,0-64.936,29.221-64.936,64.935h0c0,35.713,29.221,64.936,64.936,64.936h43.289c11.82,0,21.645,9.824,21.645,21.644s-9.825,21.645-21.645,21.645h-43.289c-35.715,0-64.936,29.221-64.936,64.936h0c0,35.715,29.221,64.936,64.936,64.936h108.226v-43.29h-108.226c-11.82,0-21.645-9.826-21.645-21.645s9.825-21.645,21.645-21.645h43.289c35.715,0,64.936-29.221,64.936-64.936h0c0-35.713-29.222-64.935-64.936-64.935h-43.289c-11.82,0-21.645-9.824-21.645-21.644s9.825-21.646,21.645-21.646h124.324v-43.289h0Z" fill="#1f2937" fill-rule="evenodd" opacity=".6" stroke-width="0"/>
  <path d="M671.001,1038.97c0,35.865-29.073,64.936-64.936,64.936s-64.936-29.07-64.936-64.936,29.073-64.936,64.936-64.936,64.936,29.074,64.936,64.936h0Z" fill="#111827" fill-rule="evenodd" stroke-width="0"/>
  <path d="M627.71,1038.97c0,11.956-9.691,21.646-21.645,21.646s-21.645-9.689-21.645-21.646,9.691-21.643,21.645-21.643,21.645,9.689,21.645,21.643h0Z" fill="#78350f" fill-rule="evenodd" opacity=".6" stroke-width="0"/>
  <path d="M2489.197,129.872c0,59.772-48.455,108.225-108.224,108.225s-108.227-48.453-108.227-108.225,48.455-108.226,108.227-108.226,108.224,48.455,108.224,108.226h0Z" fill="#1f2937" fill-rule="evenodd" opacity=".6" stroke-width="0"/>
  <path d="M2332.133,108.226h-124.322c-35.713,0-64.935,29.222-64.935,64.936h0c0,35.714,29.223,64.935,64.935,64.935h43.292c11.817,0,21.644,9.827,21.644,21.646s-9.826,21.645-21.644,21.645h-43.292c-35.713,0-64.935,29.222-64.935,64.935h0c0,35.715,29.223,64.936,64.935,64.936h108.228v-43.291h-108.228c-11.817,0-21.644-9.825-21.644-21.645s9.826-21.645,21.644-21.645h43.292c35.713,0,64.936-29.221,64.936-64.936h0c0-35.715-29.223-64.936-64.936-64.936h-43.292c-11.817,0-21.644-9.826-21.644-21.645s9.826-21.645,21.644-21.645h124.322v-43.291h0Z" fill="#1f2937" fill-rule="evenodd" opacity=".6" stroke-width="0"/>
  <path d="M2445.909,129.872c0,35.864-29.075,64.936-64.936,64.936s-64.935-29.072-64.935-64.936,29.071-64.936,64.935-64.936,64.936,29.073,64.936,64.936h0Z" fill="#111827" fill-rule="evenodd" stroke-width="0"/>
  <path d="M2402.617,129.872c0,11.954-9.691,21.646-21.644,21.646s-21.647-9.692-21.647-21.646,9.691-21.645,21.647-21.645,21.644,9.691,21.644,21.645h0Z" fill="#78350f" fill-rule="evenodd" opacity=".6" stroke-width="0"/>
  <path d="M2489.197,1038.97c0,59.773-48.455,108.228-108.224,108.228s-108.227-48.455-108.227-108.228,48.455-108.226,108.227-108.226,108.224,48.454,108.224,108.226h0Z" fill="#1f2937" fill-rule="evenodd" opacity=".6" stroke-width="0"/>
  <path d="M2332.133,1017.326h-124.322c-35.713,0-64.935,29.221-64.935,64.935h0c0,35.713,29.223,64.936,64.935,64.936h43.292c11.817,0,21.644,9.824,21.644,21.644s-9.826,21.645-21.644,21.645h-43.292c-35.713,0-64.935,29.221-64.935,64.936h0c0,35.715,29.223,64.936,64.935,64.936h108.228v-43.29h-108.228c-11.817,0-21.644-9.826-21.644-21.645s9.826-21.645,21.644-21.645h43.292c35.713,0,64.936-29.221,64.936-64.936h0c0-35.713-29.223-64.935-64.936-64.935h-43.292c-11.817,0-21.644-9.824-21.644-21.644s9.826-21.646,21.644-21.646h124.322v-43.289h0Z" fill="#1f2937" fill-rule="evenodd" opacity=".6" stroke-width="0"/>
  <path d="M2445.909,1038.97c0,35.865-29.075,64.936-64.936,64.936s-64.935-29.07-64.935-64.936,29.071-64.936,64.935-64.936,64.936,29.074,64.936,64.936h0Z" fill="#111827" fill-rule="evenodd" stroke-width="0"/>
  <path d="M2402.617,1038.97c0,11.956-9.691,21.646-21.644,21.646s-21.647-9.689-21.647-21.646,9.691-21.643,21.647-21.643,21.644,9.689,21.644,21.643h0Z" fill="#78350f" fill-rule="evenodd" opacity=".6" stroke-width="0"/>
  <path d="M757.581,324.679v64.936c0,35.714-29.221,64.935-64.934,64.935h0c-35.715,0-64.936-29.221-64.936-64.935v-108.226h43.291v108.226c0,11.819,9.825,21.645,21.645,21.645s21.645-9.826,21.645-21.645v-64.936h43.289Z" fill="#78350f" fill-rule="evenodd" opacity=".6" stroke-width="0"/>
  <path d="M757.581,1233.777v64.936c0,35.715-29.221,64.934-64.934,64.934h0c-35.715,0-64.936-29.22-64.936-64.934v-108.227h43.291v108.227c0,11.819,9.825,21.645,21.645,21.645s21.645-9.826,21.645-21.645v-64.936h43.289Z" fill="#78350f" fill-rule="evenodd" opacity=".6" stroke-width="0"/>
  <path d="M2532.489,324.679v64.936c0,35.714-29.223,64.935-64.936,64.935h0c-35.713,0-64.936-29.221-64.936-64.935v-108.226h43.292v108.226c0,11.819,9.827,21.645,21.645,21.645s21.644-9.826,21.644-21.645v-64.936h43.292Z" fill="#78350f" fill-rule="evenodd" opacity=".6" stroke-width="0"/>
  <path d="M2532.489,1233.777v64.936c0,35.715-29.223,64.934-64.936,64.934h0c-35.713,0-64.936-29.22-64.936-64.934v-108.227h43.292v108.227c0,11.819,9.827,21.645,21.645,21.645s21.644-9.826,21.644-21.645v-64.936h43.292Z" fill="#78350f" fill-rule="evenodd" opacity=".6" stroke-width="0"/>
  <polygon points="454.549 671.001 454.549 497.84 584.42 497.84 584.42 454.549 454.549 454.549 411.258 454.549 411.258 497.84 411.258 671.001 454.549 671.001 454.549 671.001" fill="#1f2937" fill-rule="evenodd" opacity=".6" stroke-width="0"/>
  <polygon points="454.549 1580.1 454.549 1406.939 584.42 1406.939 584.42 1363.647 454.549 1363.647 411.258 1363.647 411.258 1406.939 411.258 1580.1 454.549 1580.1 454.549 1580.1" fill="#1f2937" fill-rule="evenodd" opacity=".6" stroke-width="0"/>
  <polygon points="2229.454 671.001 2229.454 497.84 2359.326 497.84 2359.326 454.549 2229.454 454.549 2186.167 454.549 2186.167 497.84 2186.167 671.001 2229.454 671.001 2229.454 671.001" fill="#1f2937" fill-rule="evenodd" opacity=".6" stroke-width="0"/>
  <polygon points="2229.454 1580.1 2229.454 1406.939 2359.326 1406.939 2359.326 1363.647 2229.454 1363.647 2186.167 1363.647 2186.167 1406.939 2186.167 1580.1 2229.454 1580.1 2229.454 1580.1" fill="#1f2937" fill-rule="evenodd" opacity=".6" stroke-width="0"/>
  <polygon points="454.549 822.519 411.259 822.519 411.259 541.131 454.549 541.131 454.549 822.519 454.549 822.519" fill="#1f2937" fill-rule="evenodd" opacity=".6" stroke-width="0"/>
  <path d="M389.613,887.453c35.863,0,64.935-29.072,64.935-64.935s-29.073-64.936-64.935-64.936-64.936,29.072-64.936,64.936,29.073,64.935,64.936,64.935h0Z" fill="#78350f" fill-rule="evenodd" opacity=".6" stroke-width="0"/>
  <path d="M389.613,800.873c11.954,0,21.646,9.691,21.646,21.645s-9.692,21.645-21.646,21.645-21.645-9.691-21.645-21.645,9.691-21.645,21.645-21.645h0Z" fill="#111827" fill-rule="evenodd" stroke-width="0"/>
  <polygon points="454.549 1731.616 411.259 1731.616 411.259 1450.23 454.549 1450.23 454.549 1731.616 454.549 1731.616" fill="#1f2937" fill-rule="evenodd" opacity=".6" stroke-width="0"/>
  <path d="M389.613,1796.553c35.863,0,64.935-29.073,64.935-64.937s-29.073-64.936-64.935-64.936-64.936,29.073-64.936,64.936,29.073,64.937,64.936,64.937h0Z" fill="#78350f" fill-rule="evenodd" opacity=".6" stroke-width="0"/>
  <path d="M389.613,1709.973c11.954,0,21.646,9.69,21.646,21.644s-9.692,21.647-21.646,21.647-21.645-9.692-21.645-21.647,9.691-21.644,21.645-21.644h0Z" fill="#111827" fill-rule="evenodd" stroke-width="0"/>
  <polygon points="2229.454 822.519 2186.167 822.519 2186.167 541.131 2229.454 541.131 2229.454 822.519 2229.454 822.519" fill="#1f2937" fill-rule="evenodd" opacity=".6" stroke-width="0"/>
  <path d="M2164.519,887.453c35.864,0,64.936-29.072,64.936-64.935s-29.071-64.936-64.936-64.936-64.936,29.072-64.936,64.936,29.075,64.935,64.936,64.935h0Z" fill="#78350f" fill-rule="evenodd" opacity=".6" stroke-width="0"/>
  <path d="M2164.519,800.873c11.956,0,21.648,9.691,21.648,21.645s-9.692,21.645-21.648,21.645-21.644-9.691-21.644-21.645,9.691-21.645,21.644-21.645h0Z" fill="#111827" fill-rule="evenodd" stroke-width="0"/>
  <polygon points="2229.454 1731.616 2186.167 1731.616 2186.167 1450.23 2229.454 1450.23 2229.454 1731.616 2229.454 1731.616" fill="#1f2937" fill-rule="evenodd" opacity=".6" stroke-width="0"/>
  <path d="M2164.519,1796.553c35.864,0,64.936-29.073,64.936-64.937s-29.071-64.936-64.936-64.936-64.936,29.073-64.936,64.936,29.075,64.937,64.936,64.937h0Z" fill="#78350f" fill-rule="evenodd" opacity=".6" stroke-width="0"/>
  <path d="M2164.519,1709.973c11.956,0,21.648,9.69,21.648,21.644s-9.692,21.647-21.648,21.647-21.644-9.692-21.644-21.647,9.691-21.644,21.644-21.644h0Z" fill="#111827" fill-rule="evenodd" stroke-width="0"/>
  <polygon points="584.42 367.968 584.42 454.549 541.13 454.549 541.13 367.968 584.42 367.968 584.42 367.968" fill="#78350f" fill-rule="evenodd" opacity=".6" stroke-width="0"/>
  <polygon points="584.42 1277.068 584.42 1363.647 541.13 1363.647 541.13 1277.068 584.42 1277.068 584.42 1277.068" fill="#78350f" fill-rule="evenodd" opacity=".6" stroke-width="0"/>
  <polygon points="2359.326 367.968 2359.326 454.549 2316.038 454.549 2316.038 367.968 2359.326 367.968 2359.326 367.968" fill="#78350f" fill-rule="evenodd" opacity=".6" stroke-width="0"/>
  <polygon points="2359.326 1277.068 2359.326 1363.647 2316.038 1363.647 2316.038 1277.068 2359.326 1277.068 2359.326 1277.068" fill="#78350f" fill-rule="evenodd" opacity=".6" stroke-width="0"/>
  <polygon points="367.968 714.292 367.968 454.549 324.678 454.549 324.678 714.292 367.968 714.292 367.968 714.292" fill="#1f2937" fill-rule="evenodd" opacity=".6" stroke-width="0"/>
  <polygon points="367.968 1623.391 367.968 1363.647 324.678 1363.647 324.678 1623.391 367.968 1623.391 367.968 1623.391" fill="#1f2937" fill-rule="evenodd" opacity=".6" stroke-width="0"/>
  <polygon points="2142.875 714.292 2142.875 454.549 2099.583 454.549 2099.583 714.292 2142.875 714.292 2142.875 714.292" fill="#1f2937" fill-rule="evenodd" opacity=".6" stroke-width="0"/>
  <polygon points="2142.875 1623.391 2142.875 1363.647 2099.583 1363.647 2099.583 1623.391 2142.875 1623.391 2142.875 1623.391" fill="#1f2937" fill-rule="evenodd" opacity=".6" stroke-width="0"/>
  <polygon points="454.549 21.646 454.549 64.936 238.097 64.936 238.097 108.226 281.387 108.226 324.678 108.226 324.678 151.518 324.678 194.807 324.678 238.098 281.387 238.098 238.097 238.098 238.097 281.388 281.387 281.388 324.678 281.388 324.678 324.679 324.678 367.968 324.678 411.259 281.387 411.259 194.807 411.259 194.807 367.968 281.387 367.968 281.387 324.679 238.097 324.679 194.807 324.679 194.807 281.388 194.807 238.098 194.807 194.807 238.097 194.807 281.387 194.807 281.387 151.518 238.097 151.518 194.807 151.518 194.807 108.226 194.807 64.936 194.807 21.646 238.097 21.646 454.549 21.646 454.549 21.646" fill="#78350f" fill-rule="evenodd" opacity=".6" stroke-width="0"/>
  <polygon points="454.549 930.744 454.549 974.033 238.097 974.033 238.097 1017.326 281.387 1017.326 324.678 1017.326 324.678 1060.615 324.678 1103.905 324.678 1147.197 281.387 1147.197 238.097 1147.197 238.097 1190.486 281.387 1190.486 324.678 1190.486 324.678 1233.777 324.678 1277.068 324.678 1320.358 281.387 1320.358 194.807 1320.358 194.807 1277.068 281.387 1277.068 281.387 1233.777 238.097 1233.777 194.807 1233.777 194.807 1190.486 194.807 1147.197 194.807 1103.905 238.097 1103.905 281.387 1103.905 281.387 1060.615 238.097 1060.615 194.807 1060.615 194.807 1017.326 194.807 974.033 194.807 930.744 238.097 930.744 454.549 930.744 454.549 930.744" fill="#78350f" fill-rule="evenodd" opacity=".6" stroke-width="0"/>
  <polygon points="2229.454 21.646 2229.454 64.936 2013.003 64.936 2013.003 108.226 2056.295 108.226 2099.583 108.226 2099.583 151.518 2099.583 194.807 2099.583 238.098 2056.295 238.098 2013.003 238.098 2013.003 281.388 2056.295 281.388 2099.583 281.388 2099.583 324.679 2099.583 367.968 2099.583 411.259 2056.295 411.259 1969.716 411.259 1969.716 367.968 2056.295 367.968 2056.295 324.679 2013.003 324.679 1969.716 324.679 1969.716 281.388 1969.716 238.098 1969.716 194.807 2013.003 194.807 2056.295 194.807 2056.295 151.518 2013.003 151.518 1969.716 151.518 1969.716 108.226 1969.716 64.936 1969.716 21.646 2013.003 21.646 2229.454 21.646 2229.454 21.646" fill="#78350f" fill-rule="evenodd" opacity=".6" stroke-width="0"/>
  <polygon points="2229.454 930.744 2229.454 974.033 2013.003 974.033 2013.003 1017.326 2056.295 1017.326 2099.583 1017.326 2099.583 1060.615 2099.583 1103.905 2099.583 1147.197 2056.295 1147.197 2013.003 1147.197 2013.003 1190.486 2056.295 1190.486 2099.583 1190.486 2099.583 1233.777 2099.583 1277.068 2099.583 1320.358 2056.295 1320.358 1969.716 1320.358 1969.716 1277.068 2056.295 1277.068 2056.295 1233.777 2013.003 1233.777 1969.716 1233.777 1969.716 1190.486 1969.716 1147.197 1969.716 1103.905 2013.003 1103.905 2056.295 1103.905 2056.295 1060.615 2013.003 1060.615 1969.716 1060.615 1969.716 1017.326 1969.716 974.033 1969.716 930.744 2013.003 930.744 2229.454 930.744 2229.454 930.744" fill="#78350f" fill-rule="evenodd" opacity=".6" stroke-width="0"/>
  <path d="M194.807,887.453c59.771,0,108.225-48.453,108.225-108.226s-48.454-108.226-108.225-108.226v43.29c35.863,0,64.935,29.073,64.935,64.935s-29.072,64.936-64.935,64.936v43.289h0Z" fill="#1f2937" fill-rule="evenodd" opacity=".6" stroke-width="0"/>
  <path d="M194.807,1796.553c59.771,0,108.225-48.455,108.225-108.226s-48.454-108.226-108.225-108.226v43.289c35.863,0,64.935,29.073,64.935,64.936s-29.072,64.936-64.935,64.936v43.29h0Z" fill="#1f2937" fill-rule="evenodd" opacity=".6" stroke-width="0"/>
  <path d="M1969.716,887.453c59.769,0,108.224-48.453,108.224-108.226s-48.455-108.226-108.224-108.226v43.29c35.86,0,64.936,29.073,64.936,64.935s-29.075,64.936-64.936,64.936v43.289h0Z" fill="#1f2937" fill-rule="evenodd" opacity=".6" stroke-width="0"/>
  <path d="M1969.716,1796.553c59.769,0,108.224-48.455,108.224-108.226s-48.455-108.226-108.224-108.226v43.289c35.86,0,64.936,29.073,64.936,64.936s-29.075,64.936-64.936,64.936v43.29h0Z" fill="#1f2937" fill-rule="evenodd" opacity=".6" stroke-width="0"/>
  <path d="M194.807,671.002c59.771,0,108.225-48.454,108.225-108.227s-48.454-108.226-108.225-108.226v43.291c35.863,0,64.935,29.072,64.935,64.935s-29.072,64.936-64.935,64.936v43.291h0Z" fill="#1f2937" fill-rule="evenodd" opacity=".6" stroke-width="0"/>
  <path d="M194.807,1580.102c59.771,0,108.225-48.455,108.225-108.225s-48.454-108.229-108.225-108.229v43.292c35.863,0,64.935,29.071,64.935,64.937s-29.072,64.934-64.935,64.934v43.292h0Z" fill="#1f2937" fill-rule="evenodd" opacity=".6" stroke-width="0"/>
  <path d="M1969.716,671.002c59.769,0,108.224-48.454,108.224-108.227s-48.455-108.226-108.224-108.226v43.291c35.86,0,64.936,29.072,64.936,64.935s-29.075,64.936-64.936,64.936v43.291h0Z" fill="#1f2937" fill-rule="evenodd" opacity=".6" stroke-width="0"/>
  <path d="M1969.716,1580.102c59.769,0,108.224-48.455,108.224-108.225s-48.455-108.229-108.224-108.229v43.292c35.86,0,64.936,29.071,64.936,64.937s-29.075,64.934-64.936,64.934v43.292h0Z" fill="#1f2937" fill-rule="evenodd" opacity=".6" stroke-width="0"/>
  <polygon points="194.807 541.131 194.807 800.873 151.517 800.873 151.517 541.131 194.807 541.131 194.807 541.131" fill="#1f2937" fill-rule="evenodd" opacity=".6" stroke-width="0"/>
  <polygon points="194.807 1450.23 194.807 1709.973 151.517 1709.973 151.517 1450.23 194.807 1450.23 194.807 1450.23" fill="#1f2937" fill-rule="evenodd" opacity=".6" stroke-width="0"/>
  <polygon points="1969.716 541.131 1969.716 800.873 1926.424 800.873 1926.424 541.131 1969.716 541.131 1969.716 541.131" fill="#1f2937" fill-rule="evenodd" opacity=".6" stroke-width="0"/>
  <polygon points="1969.716 1450.23 1969.716 1709.973 1926.424 1709.973 1926.424 1450.23 1969.716 1450.23 1969.716 1450.23" fill="#1f2937" fill-rule="evenodd" opacity=".6" stroke-width="0"/>
  <path d="M21.645,21.646h86.581c35.714,0,64.936,29.221,64.936,64.936h0c0,35.715-29.221,64.936-64.936,64.936h-21.645c-11.82,0-21.646,9.825-21.646,21.645s9.826,21.645,21.646,21.645h21.645c35.715,0,64.936,29.221,64.936,64.936h0c0,35.715-29.221,64.936-64.936,64.936h-48.702v-43.291h48.702c11.82,0,21.645-9.825,21.645-21.645s-9.825-21.645-21.645-21.645h-21.645c-35.715,0-64.936-29.222-64.936-64.936h0c0-35.714,29.22-64.936,64.936-64.936h21.645c11.82,0,21.645-9.825,21.645-21.645s-9.825-21.646-21.645-21.646H21.645V21.646h0Z" fill="#1f2937" fill-rule="evenodd" opacity=".6" stroke-width="0"/>
  <path d="M21.645,930.744h86.581c35.714,0,64.936,29.221,64.936,64.936h0c0,35.715-29.221,64.936-64.936,64.936h-21.645c-11.82,0-21.646,9.827-21.646,21.646s9.826,21.644,21.646,21.644h21.645c35.715,0,64.936,29.223,64.936,64.935h0c0,35.716-29.221,64.936-64.936,64.936h-48.702v-43.291h48.702c11.82,0,21.645-9.826,21.645-21.645s-9.825-21.644-21.645-21.644h-21.645c-35.715,0-64.936-29.223-64.936-64.936h0c0-35.715,29.22-64.935,64.936-64.935h21.645c11.82,0,21.645-9.826,21.645-21.647s-9.825-21.646-21.645-21.646H21.645v-43.289h0Z" fill="#1f2937" fill-rule="evenodd" opacity=".6" stroke-width="0"/>
  <path d="M1796.553,21.646h86.579c35.713,0,64.936,29.221,64.936,64.936h0c0,35.715-29.219,64.936-64.936,64.936h-21.643c-11.822,0-21.645,9.825-21.645,21.645s9.822,21.645,21.645,21.645h21.643c35.717,0,64.936,29.221,64.936,64.936h0c0,35.715-29.219,64.936-64.936,64.936h-48.702v-43.291h48.702c11.821,0,21.644-9.825,21.644-21.645s-9.822-21.645-21.644-21.645h-21.643c-35.713,0-64.936-29.222-64.936-64.936h0c0-35.714,29.223-64.936,64.936-64.936h21.643c11.821,0,21.644-9.825,21.644-21.645s-9.822-21.646-21.644-21.646h-86.579V21.646h0Z" fill="#1f2937" fill-rule="evenodd" opacity=".6" stroke-width="0"/>
  <path d="M1796.553,930.744h86.579c35.713,0,64.936,29.221,64.936,64.936h0c0,35.715-29.219,64.936-64.936,64.936h-21.643c-11.822,0-21.645,9.827-21.645,21.646s9.822,21.644,21.645,21.644h21.643c35.717,0,64.936,29.223,64.936,64.935h0c0,35.716-29.219,64.936-64.936,64.936h-48.702v-43.291h48.702c11.821,0,21.644-9.826,21.644-21.645s-9.822-21.644-21.644-21.644h-21.643c-35.713,0-64.936-29.223-64.936-64.936h0c0-35.715,29.223-64.935,64.936-64.935h21.643c11.821,0,21.644-9.826,21.644-21.647s-9.822-21.646-21.644-21.646h-86.579v-43.289h0Z" fill="#1f2937" fill-rule="evenodd" opacity=".6" stroke-width="0"/>
  <polygon points="64.935 281.388 64.935 541.131 21.645 541.131 21.645 281.388 64.935 281.388 64.935 281.388" fill="#1f2937" fill-rule="evenodd" opacity=".6" stroke-width="0"/>
  <polygon points="64.935 1190.486 64.935 1450.23 21.645 1450.23 21.645 1190.486 64.935 1190.486 64.935 1190.486" fill="#1f2937" fill-rule="evenodd" opacity=".6" stroke-width="0"/>
  <polygon points="1839.844 281.388 1839.844 541.131 1796.553 541.131 1796.553 281.388 1839.844 281.388 1839.844 281.388" fill="#1f2937" fill-rule="evenodd" opacity=".6" stroke-width="0"/>
  <polygon points="1839.844 1190.486 1839.844 1450.23 1796.553 1450.23 1796.553 1190.486 1839.844 1190.486 1839.844 1190.486" fill="#1f2937" fill-rule="evenodd" opacity=".6" stroke-width="0"/>
  <polygon points="194.807 411.259 194.807 454.549 151.517 454.549 151.517 497.84 108.226 497.84 108.226 454.549 64.935 454.549 64.935 411.259 108.226 411.259 108.226 367.968 151.517 367.968 151.517 411.259 194.807 411.259 194.807 411.259" fill="#1f2937" fill-rule="evenodd" opacity=".6" stroke-width="0"/>
  <polygon points="194.807 1320.358 194.807 1363.647 151.517 1363.647 151.517 1406.939 108.226 1406.939 108.226 1363.647 64.935 1363.647 64.935 1320.358 108.226 1320.358 108.226 1277.068 151.517 1277.068 151.517 1320.358 194.807 1320.358 194.807 1320.358" fill="#1f2937" fill-rule="evenodd" opacity=".6" stroke-width="0"/>
  <polygon points="1969.716 411.259 1969.716 454.549 1926.424 454.549 1926.424 497.84 1883.132 497.84 1883.132 454.549 1839.844 454.549 1839.844 411.259 1883.132 411.259 1883.132 367.968 1926.424 367.968 1926.424 411.259 1969.716 411.259 1969.716 411.259" fill="#1f2937" fill-rule="evenodd" opacity=".6" stroke-width="0"/>
  <polygon points="1969.716 1320.358 1969.716 1363.647 1926.424 1363.647 1926.424 1406.939 1883.132 1406.939 1883.132 1363.647 1839.844 1363.647 1839.844 1320.358 1883.132 1320.358 1883.132 1277.068 1926.424 1277.068 1926.424 1320.358 1969.716 1320.358 1969.716 1320.358" fill="#1f2937" fill-rule="evenodd" opacity=".6" stroke-width="0"/>
  <polygon points="64.935 844.164 64.935 800.873 108.226 800.873 108.226 757.583 64.935 757.583 64.935 714.292 108.226 714.292 108.226 671.001 64.935 671.001 64.935 627.711 108.226 627.711 108.226 584.421 64.935 584.421 21.645 584.421 21.645 627.711 21.645 671.001 21.645 714.292 21.645 757.583 21.645 800.873 21.645 844.164 21.645 887.453 64.935 887.453 151.517 887.453 151.517 844.164 64.935 844.164 64.935 844.164" fill="#1f2937" fill-rule="evenodd" opacity=".6" stroke-width="0"/>
  <polygon points="64.935 1753.263 64.935 1709.973 108.226 1709.973 108.226 1666.681 64.935 1666.681 64.935 1623.391 108.226 1623.391 108.226 1580.1 64.935 1580.1 64.935 1536.81 108.226 1536.81 108.226 1493.52 64.935 1493.52 21.645 1493.52 21.645 1536.81 21.645 1580.1 21.645 1623.391 21.645 1666.681 21.645 1709.973 21.645 1753.263 21.645 1796.553 64.935 1796.553 151.517 1796.553 151.517 1753.263 64.935 1753.263 64.935 1753.263" fill="#1f2937" fill-rule="evenodd" opacity=".6" stroke-width="0"/>
  <polygon points="1839.844 844.164 1839.844 800.873 1883.132 800.873 1883.132 757.583 1839.844 757.583 1839.844 714.292 1883.132 714.292 1883.132 671.001 1839.844 671.001 1839.844 627.711 1883.132 627.711 1883.132 584.421 1839.844 584.421 1796.553 584.421 1796.553 627.711 1796.553 671.001 1796.553 714.292 1796.553 757.583 1796.553 800.873 1796.553 844.164 1796.553 887.453 1839.844 887.453 1926.424 887.453 1926.424 844.164 1839.844 844.164 1839.844 844.164" fill="#1f2937" fill-rule="evenodd" opacity=".6" stroke-width="0"/>
  <polygon points="1839.844 1753.263 1839.844 1709.973 1883.132 1709.973 1883.132 1666.681 1839.844 1666.681 1839.844 1623.391 1883.132 1623.391 1883.132 1580.1 1839.844 1580.1 1839.844 1536.81 1883.132 1536.81 1883.132 1493.52 1839.844 1493.52 1796.553 1493.52 1796.553 1536.81 1796.553 1580.1 1796.553 1623.391 1796.553 1666.681 1796.553 1709.973 1796.553 1753.263 1796.553 1796.553 1839.844 1796.553 1926.424 1796.553 1926.424 1753.263 1839.844 1753.263 1839.844 1753.263" fill="#1f2937" fill-rule="evenodd" opacity=".6" stroke-width="0"/>
  <polygon points="844.162 21.646 844.162 64.936 800.872 64.936 800.872 108.226 757.581 108.226 757.581 64.936 757.581 21.646 800.872 21.646 844.162 21.646 844.162 21.646" fill="#78350f" fill-rule="evenodd" opacity=".6" stroke-width="0"/>
  <polygon points="844.162 930.744 844.162 974.033 800.872 974.033 800.872 1017.326 757.581 1017.326 757.581 974.033 757.581 930.744 800.872 930.744 844.162 930.744 844.162 930.744" fill="#78350f" fill-rule="evenodd" opacity=".6" stroke-width="0"/>
  <polygon points="2619.068 21.646 2619.068 64.936 2575.781 64.936 2575.781 108.226 2532.489 108.226 2532.489 64.936 2532.489 21.646 2575.781 21.646 2619.068 21.646 2619.068 21.646" fill="#78350f" fill-rule="evenodd" opacity=".6" stroke-width="0"/>
  <polygon points="2619.068 930.744 2619.068 974.033 2575.781 974.033 2575.781 1017.326 2532.489 1017.326 2532.489 974.033 2532.489 930.744 2575.781 930.744 2619.068 930.744 2619.068 930.744" fill="#78350f" fill-rule="evenodd" opacity=".6" stroke-width="0"/>
  <polygon points="671.001 844.164 671.001 887.453 627.71 887.453 627.71 844.164 671.001 844.164 671.001 844.164" fill="#1f2937" fill-rule="evenodd" opacity=".6" stroke-width="0"/>
  <polygon points="671.001 1753.263 671.001 1796.553 627.71 1796.553 627.71 1753.263 671.001 1753.263 671.001 1753.263" fill="#1f2937" fill-rule="evenodd" opacity=".6" stroke-width="0"/>
  <polygon points="2445.909 844.164 2445.909 887.453 2402.617 887.453 2402.617 844.164 2445.909 844.164 2445.909 844.164" fill="#1f2937" fill-rule="evenodd" opacity=".6" stroke-width="0"/>
  <polygon points="2445.909 1753.263 2445.909 1796.553 2402.617 1796.553 2402.617 1753.263 2445.909 1753.263 2445.909 1753.263" fill="#1f2937" fill-rule="evenodd" opacity=".6" stroke-width="0"/>
  <polygon points="671.001 497.84 671.001 541.131 627.71 541.131 627.71 497.84 671.001 497.84 671.001 497.84" fill="#1f2937" fill-rule="evenodd" opacity=".6" stroke-width="0"/>
  <polygon points="671.001 1406.939 671.001 1450.23 627.71 1450.23 627.71 1406.939 671.001 1406.939 671.001 1406.939" fill="#1f2937" fill-rule="evenodd" opacity=".6" stroke-width="0"/>
  <polygon points="2445.909 497.84 2445.909 541.131 2402.617 541.131 2402.617 497.84 2445.909 497.84 2445.909 497.84" fill="#1f2937" fill-rule="evenodd" opacity=".6" stroke-width="0"/>
  <polygon points="2445.909 1406.939 2445.909 1450.23 2402.617 1450.23 2402.617 1406.939 2445.909 1406.939 2445.909 1406.939" fill="#1f2937" fill-rule="evenodd" opacity=".6" stroke-width="0"/>
  <polygon points="671.001 757.583 671.001 800.873 627.71 800.873 627.71 757.583 671.001 757.583 671.001 757.583" fill="#1f2937" fill-rule="evenodd" opacity=".6" stroke-width="0"/>
  <polygon points="671.001 1666.681 671.001 1709.973 627.71 1709.973 627.71 1666.681 671.001 1666.681 671.001 1666.681" fill="#1f2937" fill-rule="evenodd" opacity=".6" stroke-width="0"/>
  <polygon points="2445.909 757.583 2445.909 800.873 2402.617 800.873 2402.617 757.583 2445.909 757.583 2445.909 757.583" fill="#1f2937" fill-rule="evenodd" opacity=".6" stroke-width="0"/>
  <polygon points="2445.909 1666.681 2445.909 1709.973 2402.617 1709.973 2402.617 1666.681 2445.909 1666.681 2445.909 1666.681" fill="#1f2937" fill-rule="evenodd" opacity=".6" stroke-width="0"/>
  <polygon points="671.001 671.001 671.001 714.292 627.71 714.292 627.71 671.001 671.001 671.001 671.001 671.001" fill="#1f2937" fill-rule="evenodd" opacity=".6" stroke-width="0"/>
  <polygon points="671.001 1580.1 671.001 1623.391 627.71 1623.391 627.71 1580.1 671.001 1580.1 671.001 1580.1" fill="#1f2937" fill-rule="evenodd" opacity=".6" stroke-width="0"/>
  <polygon points="2445.909 671.001 2445.909 714.292 2402.617 714.292 2402.617 671.001 2445.909 671.001 2445.909 671.001" fill="#1f2937" fill-rule="evenodd" opacity=".6" stroke-width="0"/>
  <polygon points="2445.909 1580.1 2445.909 1623.391 2402.617 1623.391 2402.617 1580.1 2445.909 1580.1 2445.909 1580.1" fill="#1f2937" fill-rule="evenodd" opacity=".6" stroke-width="0"/>
  <polygon points="671.001 584.421 671.001 627.711 627.71 627.711 627.71 584.421 671.001 584.421 671.001 584.421" fill="#1f2937" fill-rule="evenodd" opacity=".6" stroke-width="0"/>
  <polygon points="671.001 1493.52 671.001 1536.81 627.71 1536.81 627.71 1493.52 671.001 1493.52 671.001 1493.52" fill="#1f2937" fill-rule="evenodd" opacity=".6" stroke-width="0"/>
  <polygon points="2445.909 584.421 2445.909 627.711 2402.617 627.711 2402.617 584.421 2445.909 584.421 2445.909 584.421" fill="#1f2937" fill-rule="evenodd" opacity=".6" stroke-width="0"/>
  <polygon points="2445.909 1493.52 2445.909 1536.81 2402.617 1536.81 2402.617 1493.52 2445.909 1493.52 2445.909 1493.52" fill="#1f2937" fill-rule="evenodd" opacity=".6" stroke-width="0"/>
  <path d="M1277.067,606.066c0,11.954-9.691,21.645-21.645,21.645s-21.645-9.691-21.645-21.645,9.691-21.645,21.645-21.645,21.645,9.69,21.645,21.645h0Z" fill="#1f2937" fill-rule="evenodd" opacity=".6" stroke-width="0"/>
  <path d="M1277.067,1515.166c0,11.954-9.691,21.644-21.645,21.644s-21.645-9.689-21.645-21.644,9.691-21.646,21.645-21.646,21.645,9.691,21.645,21.646h0Z" fill="#1f2937" fill-rule="evenodd" opacity=".6" stroke-width="0"/>
  <path d="M3051.975,606.066c0,11.954-9.691,21.645-21.648,21.645s-21.643-9.691-21.643-21.645,9.691-21.645,21.643-21.645,21.648,9.69,21.648,21.645h0Z" fill="#1f2937" fill-rule="evenodd" opacity=".6" stroke-width="0"/>
  <path d="M3051.975,1515.166c0,11.954-9.691,21.644-21.648,21.644s-21.643-9.689-21.643-21.644,9.691-21.646,21.643-21.646,21.648,9.691,21.648,21.646h0Z" fill="#1f2937" fill-rule="evenodd" opacity=".6" stroke-width="0"/>
  <path d="M1233.776,324.679c-59.77,0-108.227,48.455-108.227,108.226s48.456,108.226,108.227,108.226v-43.291c-35.862,0-64.936-29.073-64.936-64.935s29.073-64.936,64.936-64.936v-43.29h0Z" fill="#1f2937" fill-rule="evenodd" opacity=".6" stroke-width="0"/>
  <path d="M1233.776,1233.777c-59.77,0-108.227,48.454-108.227,108.225s48.456,108.228,108.227,108.228v-43.291c-35.862,0-64.936-29.071-64.936-64.937s29.073-64.934,64.936-64.934v-43.291h0Z" fill="#1f2937" fill-rule="evenodd" opacity=".6" stroke-width="0"/>
  <path d="M3008.684,324.679c-59.77,0-108.225,48.455-108.225,108.226s48.455,108.226,108.225,108.226v-43.291c-35.861,0-64.936-29.073-64.936-64.935s29.075-64.936,64.936-64.936v-43.29h0Z" fill="#1f2937" fill-rule="evenodd" opacity=".6" stroke-width="0"/>
  <path d="M3008.684,1233.777c-59.77,0-108.225,48.454-108.225,108.225s48.455,108.228,108.225,108.228v-43.291c-35.861,0-64.936-29.071-64.936-64.937s29.075-64.934,64.936-64.934v-43.291h0Z" fill="#1f2937" fill-rule="evenodd" opacity=".6" stroke-width="0"/>
  <polygon points="324.678 108.226 324.678 238.098 281.387 238.098 281.387 108.226 324.678 108.226 324.678 108.226" fill="#1f2937" fill-rule="evenodd" opacity=".6" stroke-width="0"/>
  <polygon points="324.678 1017.326 324.678 1147.197 281.387 1147.197 281.387 1017.326 324.678 1017.326 324.678 1017.326" fill="#1f2937" fill-rule="evenodd" opacity=".6" stroke-width="0"/>
  <polygon points="2099.583 108.226 2099.583 238.098 2056.295 238.098 2056.295 108.226 2099.583 108.226 2099.583 108.226" fill="#1f2937" fill-rule="evenodd" opacity=".6" stroke-width="0"/>
  <polygon points="2099.583 1017.326 2099.583 1147.197 2056.295 1147.197 2056.295 1017.326 2099.583 1017.326 2099.583 1017.326" fill="#1f2937" fill-rule="evenodd" opacity=".6" stroke-width="0"/>
  <polygon points="324.678 281.388 324.678 411.259 281.387 411.259 281.387 281.388 324.678 281.388 324.678 281.388" fill="#1f2937" fill-rule="evenodd" opacity=".6" stroke-width="0"/>
  <polygon points="324.678 1190.486 324.678 1320.358 281.387 1320.358 281.387 1190.486 324.678 1190.486 324.678 1190.486" fill="#1f2937" fill-rule="evenodd" opacity=".6" stroke-width="0"/>
  <polygon points="2099.583 281.388 2099.583 411.259 2056.295 411.259 2056.295 281.388 2099.583 281.388 2099.583 281.388" fill="#1f2937" fill-rule="evenodd" opacity=".6" stroke-width="0"/>
  <polygon points="2099.583 1190.486 2099.583 1320.358 2056.295 1320.358 2056.295 1190.486 2099.583 1190.486 2099.583 1190.486" fill="#1f2937" fill-rule="evenodd" opacity=".6" stroke-width="0"/>
  <path d="M1342.002,497.84c35.863,0,64.935-29.073,64.935-64.935s-29.072-64.936-64.935-64.936-64.935,29.073-64.935,64.936,29.072,64.935,64.935,64.935h0Z" fill="#78350f" fill-rule="evenodd" opacity=".6" stroke-width="0"/>
  <path d="M1342.002,411.259c11.954,0,21.646,9.691,21.646,21.645s-9.692,21.644-21.646,21.644-21.645-9.69-21.645-21.644,9.69-21.645,21.645-21.645h0Z" fill="#111827" fill-rule="evenodd" stroke-width="0"/>
  <path d="M1342.002,1406.939c35.863,0,64.935-29.071,64.935-64.937s-29.072-64.934-64.935-64.934-64.935,29.071-64.935,64.934,29.072,64.937,64.935,64.937h0Z" fill="#78350f" fill-rule="evenodd" opacity=".6" stroke-width="0"/>
  <path d="M1342.002,1320.358c11.954,0,21.646,9.689,21.646,21.643s-9.692,21.645-21.646,21.645-21.645-9.69-21.645-21.645,9.69-21.643,21.645-21.643h0Z" fill="#111827" fill-rule="evenodd" stroke-width="0"/>
  <path d="M3116.91,497.84c35.861,0,64.935-29.073,64.935-64.935s-29.074-64.936-64.935-64.936-64.936,29.073-64.936,64.936,29.071,64.935,64.936,64.935h0Z" fill="#78350f" fill-rule="evenodd" opacity=".6" stroke-width="0"/>
  <path d="M3116.91,411.259c11.953,0,21.645,9.691,21.645,21.645s-9.691,21.644-21.645,21.644-21.648-9.69-21.648-21.644,9.691-21.645,21.648-21.645h0Z" fill="#111827" fill-rule="evenodd" stroke-width="0"/>
  <path d="M3116.91,1406.939c35.861,0,64.935-29.071,64.935-64.937s-29.074-64.934-64.935-64.934-64.936,29.071-64.936,64.934,29.071,64.937,64.936,64.937h0Z" fill="#78350f" fill-rule="evenodd" opacity=".6" stroke-width="0"/>
  <path d="M3116.91,1320.358c11.953,0,21.645,9.689,21.645,21.643s-9.691,21.645-21.645,21.645-21.648-9.69-21.648-21.645,9.691-21.643,21.648-21.643h0Z" fill="#111827" fill-rule="evenodd" stroke-width="0"/>
  <polygon points="1017.324 367.968 1017.324 281.388 1060.614 281.388 1060.614 367.968 1017.324 367.968 1017.324 367.968" fill="#1f2937" fill-rule="evenodd" opacity=".6" stroke-width="0"/>
  <polygon points="1017.324 1277.068 1017.324 1190.486 1060.614 1190.486 1060.614 1277.068 1017.324 1277.068 1017.324 1277.068" fill="#1f2937" fill-rule="evenodd" opacity=".6" stroke-width="0"/>
  <polygon points="2792.232 367.968 2792.232 281.388 2835.523 281.388 2835.523 367.968 2792.232 367.968 2792.232 367.968" fill="#1f2937" fill-rule="evenodd" opacity=".6" stroke-width="0"/>
  <polygon points="2792.232 1277.068 2792.232 1190.486 2835.523 1190.486 2835.523 1277.068 2792.232 1277.068 2792.232 1277.068" fill="#1f2937" fill-rule="evenodd" opacity=".6" stroke-width="0"/>
</svg>