<?xml version="1.0" encoding="UTF-8"?>
<svg id="pattern" xmlns="http://www.w3.org/2000/svg" version="1.1" xmlns:xlink="http://www.w3.org/1999/xlink" viewBox="0 0 1000 1000">
  <defs>
    <style>
      .cls-1 {
        fill: #46758c;
      }

      .cls-1, .cls-2, .cls-3, .cls-4, .cls-5, .cls-6 {
        stroke-width: 0px;
      }

      .cls-2 {
        fill: none;
      }

      .cls-3 {
        fill: #686773;
      }

      .cls-7 {
        clip-path: url(#clippath);
      }

      .cls-4 {
        fill: #d9c7b8;
      }

      .cls-5 {
        fill: #293033;
      }

      .cls-6 {
        fill: #4c4c59;
      }
    </style>
    <clipPath id="clippath">
      <rect class="cls-2" width="1000" height="1000"/>
    </clipPath>
  </defs>
  <rect class="cls-2" width="1000" height="1000"/>
  <g class="cls-7">
    <rect class="cls-6" width="1000" height="1000"/>
    <path class="cls-1" d="M1025,888.6c-51.6,0-93.6-42-93.6-93.6s42-93.6,93.6-93.6,93.6,42,93.6,93.6-42,93.6-93.6,93.6ZM1025,731.4c-35.1,0-63.6,28.5-63.6,63.6s28.5,63.6,63.6,63.6,63.6-28.5,63.6-63.6-28.5-63.6-63.6-63.6Z"/>
    <path class="cls-1" d="M25,888.6c-51.6,0-93.6-42-93.6-93.6s42-93.6,93.6-93.6,93.6,42,93.6,93.6-42,93.6-93.6,93.6ZM25,731.4c-35.1,0-63.6,28.5-63.6,63.6s28.5,63.6,63.6,63.6,63.6-28.5,63.6-63.6-28.5-63.6-63.6-63.6Z"/>
    <path class="cls-1" d="M871.6,319.6c-51.6,0-93.6-42-93.6-93.6s42-93.6,93.6-93.6,93.6,42,93.6,93.6-42,93.6-93.6,93.6ZM871.6,162.5c-35.1,0-63.6,28.5-63.6,63.6s28.5,63.6,63.6,63.6,63.6-28.5,63.6-63.6-28.5-63.6-63.6-63.6Z"/>
    <path class="cls-1" d="M225,659.3c-101.6,0-184.3-82.7-184.3-184.3s82.7-184.3,184.3-184.3,184.3,82.7,184.3,184.3-82.7,184.3-184.3,184.3ZM225,330.7c-79.6,0-144.3,64.7-144.3,144.3s64.7,144.3,144.3,144.3,144.3-64.7,144.3-144.3-64.7-144.3-144.3-144.3Z"/>
    <path class="cls-1" d="M848,642.1c-64.6,0-117.1-52.6-117.1-117.1s52.6-117.1,117.1-117.1,117.1,52.6,117.1,117.1-52.6,117.1-117.1,117.1ZM848,427.9c-53.6,0-97.1,43.6-97.1,97.1s43.6,97.1,97.1,97.1,97.1-43.6,97.1-97.1-43.6-97.1-97.1-97.1Z"/>
    <path class="cls-5" d="M110,434.3c-101.6,0-184.3-82.7-184.3-184.3S8.4,65.7,110,65.7s184.3,82.7,184.3,184.3-82.7,184.3-184.3,184.3ZM110,105.7c-79.6,0-144.3,64.7-144.3,144.3S30.4,394.3,110,394.3s144.3-64.7,144.3-144.3S189.6,105.7,110,105.7Z"/>
    <path class="cls-5" d="M1110,434.3c-101.6,0-184.3-82.7-184.3-184.3s82.7-184.3,184.3-184.3,184.3,82.7,184.3,184.3-82.7,184.3-184.3,184.3ZM1110,105.7c-79.6,0-144.3,64.7-144.3,144.3s64.7,144.3,144.3,144.3,144.3-64.7,144.3-144.3-64.7-144.3-144.3-144.3Z"/>
    <path class="cls-3" d="M740,773.6c-48.8,0-88.6-39.7-88.6-88.6s39.7-88.6,88.6-88.6,88.6,39.7,88.6,88.6-39.7,88.6-88.6,88.6ZM740,616.4c-37.8,0-68.6,30.8-68.6,68.6s30.8,68.6,68.6,68.6,68.6-30.8,68.6-68.6-30.8-68.6-68.6-68.6Z"/>
    <path class="cls-3" d="M740,358.3c-96.1,0-174.3-78.2-174.3-174.3S643.9,9.7,740,9.7s174.3,78.2,174.3,174.3-78.2,174.3-174.3,174.3ZM740,29.7c-85.1,0-154.3,69.2-154.3,154.3s69.2,154.3,154.3,154.3,154.3-69.2,154.3-154.3S825.1,29.7,740,29.7Z"/>
    <path class="cls-3" d="M445,880c-30.3,0-55-24.7-55-55s24.7-55,55-55,55,24.7,55,55-24.7,55-55,55ZM445,780c-24.8,0-45,20.2-45,45s20.2,45,45,45,45-20.2,45-45-20.2-45-45-45Z"/>
    <path class="cls-1" d="M556.4,873.6c-51.6,0-93.6-42-93.6-93.6s42-93.6,93.6-93.6,93.6,42,93.6,93.6-42,93.6-93.6,93.6ZM556.4,716.4c-35.1,0-63.6,28.5-63.6,63.6s28.5,63.6,63.6,63.6,63.6-28.5,63.6-63.6-28.5-63.6-63.6-63.6Z"/>
    <path class="cls-3" d="M40,942.1c-61.8,0-112.1-50.3-112.1-112.1s50.3-112.1,112.1-112.1,112.1,50.3,112.1,112.1-50.3,112.1-112.1,112.1ZM40,727.9c-56.3,0-102.1,45.8-102.1,102.1s45.8,102.1,102.1,102.1,102.1-45.8,102.1-102.1-45.8-102.1-102.1-102.1Z"/>
    <path class="cls-5" d="M168,937.1c-70.1,0-127.1-57-127.1-127.1s57-127.1,127.1-127.1,127.1,57,127.1,127.1-57,127.1-127.1,127.1ZM168,722.9c-48.1,0-87.1,39.1-87.1,87.1s39.1,87.1,87.1,87.1,87.1-39.1,87.1-87.1-39.1-87.1-87.1-87.1Z"/>
    <path class="cls-3" d="M1040,942.1c-61.8,0-112.1-50.3-112.1-112.1s50.3-112.1,112.1-112.1,112.1,50.3,112.1,112.1-50.3,112.1-112.1,112.1ZM1040,727.9c-56.3,0-102.1,45.8-102.1,102.1s45.8,102.1,102.1,102.1,102.1-45.8,102.1-102.1-45.8-102.1-102.1-102.1Z"/>
    <path class="cls-1" d="M485,250.7c-77.6,0-140.7-63.1-140.7-140.7S407.4-30.7,485-30.7s140.7,63.1,140.7,140.7-63.1,140.7-140.7,140.7ZM485-20.7c-72.1,0-130.7,58.6-130.7,130.7s58.6,130.7,130.7,130.7,130.7-58.6,130.7-130.7S557.1-20.7,485-20.7Z"/>
    <path class="cls-1" d="M485,250.7c-77.6,0-140.7-63.1-140.7-140.7S407.4-30.7,485-30.7s140.7,63.1,140.7,140.7-63.1,140.7-140.7,140.7ZM485-20.7c-72.1,0-130.7,58.6-130.7,130.7s58.6,130.7,130.7,130.7,130.7-58.6,130.7-130.7S557.1-20.7,485-20.7Z"/>
    <path class="cls-1" d="M485,1250.7c-77.6,0-140.7-63.1-140.7-140.7s63.1-140.7,140.7-140.7,140.7,63.1,140.7,140.7-63.1,140.7-140.7,140.7ZM485,979.3c-72.1,0-130.7,58.6-130.7,130.7s58.6,130.7,130.7,130.7,130.7-58.6,130.7-130.7-58.6-130.7-130.7-130.7Z"/>
    <path class="cls-4" d="M135,834.3c-93.3,0-169.3-75.9-169.3-169.3s75.9-169.3,169.3-169.3,169.3,75.9,169.3,169.3-75.9,169.3-169.3,169.3ZM135,505.7c-87.8,0-159.3,71.5-159.3,159.3s71.5,159.3,159.3,159.3,159.3-71.5,159.3-159.3-71.5-159.3-159.3-159.3Z"/>
    <path class="cls-4" d="M1135,834.3c-93.3,0-169.3-75.9-169.3-169.3s75.9-169.3,169.3-169.3,169.3,75.9,169.3,169.3-75.9,169.3-169.3,169.3ZM1135,505.7c-87.8,0-159.3,71.5-159.3,159.3s71.5,159.3,159.3,159.3,159.3-71.5,159.3-159.3-71.5-159.3-159.3-159.3Z"/>
    <path class="cls-4" d="M675.1,672.9c-109.1,0-197.9-88.8-197.9-197.9s88.8-197.9,197.9-197.9,197.9,88.8,197.9,197.9-88.8,197.9-197.9,197.9ZM675.1,287.1c-103.6,0-187.9,84.3-187.9,187.9s84.3,187.9,187.9,187.9,187.9-84.3,187.9-187.9-84.3-187.9-187.9-187.9Z"/>
    <path class="cls-3" d="M340,616.4c-60.5,0-117.3-23.6-160.1-66.3-42.8-42.8-66.3-99.6-66.3-160.1s23.6-117.3,66.3-160.1c42.8-42.8,99.6-66.3,160.1-66.3s117.3,23.6,160.1,66.3c42.8,42.8,66.3,99.6,66.3,160.1s-23.6,117.3-66.3,160.1c-42.8,42.8-99.6,66.3-160.1,66.3ZM340,173.6c-119.3,0-216.4,97.1-216.4,216.4s97.1,216.4,216.4,216.4,216.4-97.1,216.4-216.4-97.1-216.4-216.4-216.4Z"/>
    <path class="cls-4" d="M280,235.7c-80.3,0-145.7-65.4-145.7-145.7S199.7-55.7,280-55.7,425.7,9.7,425.7,90s-65.4,145.7-145.7,145.7ZM280-35.7c-69.3,0-125.7,56.4-125.7,125.7s56.4,125.7,125.7,125.7,125.7-56.4,125.7-125.7-56.4-125.7-125.7-125.7Z"/>
    <path class="cls-4" d="M280,1235.7c-80.3,0-145.7-65.4-145.7-145.7s65.4-145.7,145.7-145.7,145.7,65.4,145.7,145.7-65.4,145.7-145.7,145.7ZM280,964.3c-69.3,0-125.7,56.4-125.7,125.7s56.4,125.7,125.7,125.7,125.7-56.4,125.7-125.7-56.4-125.7-125.7-125.7Z"/>
    <path class="cls-5" d="M690,1104.3c-96.1,0-174.3-78.2-174.3-174.3s78.2-174.3,174.3-174.3,174.3,78.2,174.3,174.3-78.2,174.3-174.3,174.3ZM690,775.7c-85.1,0-154.3,69.2-154.3,154.3s69.2,154.3,154.3,154.3,154.3-69.2,154.3-154.3-69.2-154.3-154.3-154.3Z"/>
    <path class="cls-5" d="M690,104.3c-96.1,0-174.3-78.2-174.3-174.3s78.2-174.3,174.3-174.3,174.3,78.2,174.3,174.3-78.2,174.3-174.3,174.3ZM690-224.3c-85.1,0-154.3,69.2-154.3,154.3s69.2,154.3,154.3,154.3,154.3-69.2,154.3-154.3-69.2-154.3-154.3-154.3Z"/>
    <path class="cls-4" d="M860,1092.1c-67.3,0-122.1-54.8-122.1-122.1s54.8-122.1,122.1-122.1,122.1,54.8,122.1,122.1-54.8,122.1-122.1,122.1ZM860,877.9c-50.8,0-92.1,41.3-92.1,92.1s41.3,92.1,92.1,92.1,92.1-41.3,92.1-92.1-41.3-92.1-92.1-92.1Z"/>
    <path class="cls-4" d="M860,92.1c-67.3,0-122.1-54.8-122.1-122.1s54.8-122.1,122.1-122.1,122.1,54.8,122.1,122.1-54.8,122.1-122.1,122.1ZM860-122.1c-50.8,0-92.1,41.3-92.1,92.1s41.3,92.1,92.1,92.1,92.1-41.3,92.1-92.1-41.3-92.1-92.1-92.1Z"/>
    <path class="cls-5" d="M500,704.3c-98.9,0-179.3-80.4-179.3-179.3s80.4-179.3,179.3-179.3,179.3,80.4,179.3,179.3-80.4,179.3-179.3,179.3ZM500,375.7c-82.3,0-149.3,67-149.3,149.3s67,149.3,149.3,149.3,149.3-67,149.3-149.3-67-149.3-149.3-149.3Z"/>
    <path class="cls-1" d="M150,193.6c-46.1,0-83.6-37.5-83.6-83.6S103.9,26.4,150,26.4s83.6,37.5,83.6,83.6-37.5,83.6-83.6,83.6ZM150,36.4c-40.6,0-73.6,33-73.6,73.6s33,73.6,73.6,73.6,73.6-33,73.6-73.6-33-73.6-73.6-73.6Z"/>
  </g>
</svg>