<?xml version="1.0" encoding="UTF-8"?>
<svg id="Layer_1" data-name="Layer 1" xmlns="http://www.w3.org/2000/svg" version="1.1" xmlns:xlink="http://www.w3.org/1999/xlink" viewBox="0 0 1200 1200">
  <defs>
    <style>
      .cls-1 {
        fill: none;
      }

      .cls-1, .cls-2, .cls-3, .cls-4, .cls-5, .cls-6 {
        stroke-width: 0px;
      }

      .cls-2 {
        fill: #101c24;
      }

      .cls-3 {
        fill: #f8efd8;
      }

      .cls-4 {
        fill: #e8b55e;
      }

      .cls-5 {
        fill: #87afae;
      }

      .cls-7 {
        clip-path: url(#clippath);
      }

      .cls-6 {
        fill: #e5d3a8;
      }
    </style>
    <clipPath id="clippath">
      <rect class="cls-1" width="1200" height="1200"/>
    </clipPath>
  </defs>
  <rect id="background" class="cls-3" width="1200" height="1200"/>
  <g id="pattern">
    <g class="cls-7">
      <path class="cls-6" d="M1516.5,1152.3c-7.1.4-13.7,1.3-19.6,2.6-4,.9-7.6,2.4-10.6,4.4-9.1,6-12,15.8-12,26.2-.2,29.9-.2,94.3,0,123.2,0,5.3,4.8,34.5,5.6,46,.6,8.3.3,16.2-.8,23.6.8,3.4,1.1,6.1,1.1,8,0,39.2,0,78.3-.1,117.5,0,5.8-.3,10.8-1,15.1-1.4,9.4-7.3,18.5-17.1,20.3-7.6,1.4-15-1.6-19.6-7.7-5.1-6.7-6.3-15.6-6.4-24.1-.2-22.4-.3-55.9-.1-100.7,0-15.1-5.3-27.8-15.9-38-7.6-7.3-13.4-15.2-15-25.5-.7-4.4-1.1-9.3-1-14.7.2-45,.2-90,0-134.9,0-16.6-13.6-30.1-30.2-30.1h0c-16.7,0-30.2,13.5-30.2,30.2,0,47.5,0,94.9,0,142.4,0,12,2.3,22.2,12.8,29,9.6,6.2,20.3,7.1,30.4,10.5,12.6,4.3,20.9,12.5,24.8,24.6,1.8,5.7,1.8,12.1,1.9,18,0,17.7.1,34.7.2,51.1,0,4.9-.3,8.7-1.1,11.5-2.6,10.1-10.8,16.6-20.6,20.2-11.3,4.2-24.8,6.7-35,13.8-12.1,8.4-18.2,19.9-18.2,34.6-.2,35.4-.2,73.1-.2,113.4,0,9.8-.8,18.7-2.5,26.7h-.2c-3.4,9.5-9.1,17.2-17.3,23.1-7.2,5.2-15.1,8.8-23.7,10.8-.3,62.6-.4,125.3-.4,188.2,0,8-.3,13.5-.9,16.6-2.6,14.4-18.6,23.2-32.5,17.8-12.2-4.8-16.1-15.7-16.1-28.6.1-61.5.1-123,0-184.5v3.8c-.2.4-.4.7-.8.7-15.5,3-29.7,9.9-38.6,23-11.2,16.5-11.8,39.9-6.5,58.6,1.9,6.7,6,12.4,9.3,18.3,5.4,9.8,8.2,20.1,8.2,30.9,0,23,0,46.9,0,71.7,0,22.4,8.4,39.9,25.4,52.3,8.9,6.6,20.2,10.8,31.1,13.6,17.5,4.5,32.7,6.6,50.3,9.3,7.1,1.1,15,2.8,21.4,5.8,6.3,2.9,13.4,9,15.8,16,.8,2.2,1.3,4.3,1.6,6.2,1,5.6,1.5,5.6,1.5-.1,0-9.7,0-19.5,0-29.2,0-2.9.7-5.6,2-8.2,2.6-5.1,6.1-9.5,10.5-13,0,0,2.2-1.5,6.7-4.4,9.2-6,13.9-14.9,14.1-26.7.5-34.9.7-66.7.3-95.4-.1-9.2.2-17.7.8-25.3,1.3-14.7,12.1-25.1,26.2-27.6,8.3-1.5,17.2-2.2,27-2.1,4-5.1,6.6-9.3,7.8-12.7,4.5-12.1,4.3-23.5-.5-34.1-1.9-4.2-5.3-9.2-10.2-15.1-9.8-.2-19.4-.4-28.7-.6-3.1,0-6.8-.7-11.1-2-15.8-4.5-20.8-17.5-21.2-32.6-.2-8.1-.3-16.3-.4-24.4h.3c0-10.1,0-20.1-.1-30.2,0-5.5.3-11.1,1.1-16.6,2.6-18.7,16.1-26.5,32.6-30.7,9.5-2.4,19.2-4.9,29.1-7.5,12.1-3.2,24.5-7.7,33.8-15.8,13.2-11.5,16.8-26.5,16.7-43.7-.2-39.2-.3-78.8-.3-118.9,0-8.7.4-16.3,1.2-22.8.8-6.1,4.1-12.7,7.4-18.2,4.1-6.8,5.4-13.8,5.4-21.9,0-48.8,0-131.9,0-179.1,0-1.3.2-4.2.7-8.6,1.3-12.8,8.6-20.4,21.9-23-5.9-.6-12.7-.6-20.4-.2Z"/>
      <g>
        <path class="cls-2" d="M735.2,1689.6c0-26.5,0-52.9,0-79.4,0-15.3-5.4-28.7-18.5-37.3-6.5-4.2-15.1-7.3-20.7-11.9-9.5-7.9-14.4-18.3-14.6-31.1-.3-18.6-.3-47-.2-85.2.2-20.2.9-40.6.9-60.7.1-209,0-372.6,0-491,0-15.9,4.4-29.6,19.2-37.6,3.9-2.1,7.7-3.6,11.3-4.3,6.6-3.2,11.8-7.5,15.5-13,4.9-7.2,6.2-16.7,6.1-25.1,0-14.9,0-30.4.2-46.5,0-10.4-.5-17.8-1.7-22.1-5.3-18.7-20.6-25.3-38.2-29.3-3.6-.8-7.1-2.4-10.5-4.7.3,15.1.3,30.2.1,45.2-.2,16.4-3.5,31.2-17.9,40.4-3.1,1.9-6.4,4-10,6.2-16.5,9.9-25.2,24.8-26.3,44.6-.2,3.3-.2,6.5-.2,9.7,0,48.5,0,97.1,0,145.6.1,166.2.1,278.7,0,337.4,0,11.9-2.8,23.8-8.3,35.7-2.5,6.4-3.7,12.7-3.7,18.8.1,83.8.1,141.5,0,173.1,0,16,.5,28.6,12,40.7,4.7,4.4,10.1,7.7,16.3,9.9,5.9,2.1,10.7,4.1,14.6,5.9,13.9,6.4,21.4,17.3,22.7,32.5v33.4h0l-.3,69.8c0,0,.1.2.2.4.1.3.3.4.4,0,.6-1.1,1.2-2.2,1.9-3.4,2.9-5.1,8.7-9.5,13.7-11.7,6.2-2.7,13.2-4.7,18.7-8.7,15.3-11.4,17.6-28.2,17-46.3h.2Z"/>
        <path class="cls-2" d="M592.6,1092.5c-5.8-8.4-13.4-12-23-10.8-6.2.8-11.3,4.1-15.4,9.9-.1,17.5-.2,35.1,0,53,0,14.1-6.4,23.6-19.4,28.6-7.1,2.7-14.2,5.2-21.3,7.6-12.2,4.1-22,11.7-24.4,24.7-.3,1.7-.5,7.2-.5,16.4,0,20.3,0,40.2,0,59.7,0,9.8-.1,19.3-5.3,27.8-6.4,10.6-18.1,13-29.7,11.3-2.9-.4-5.6-1.8-7.9-4.2.5,3.7.5,7.4.2,11.1-1,10.5-5,19.5-11.9,27.2-7.2,7.9-14.1,13.8-16.1,25-.5,2.6-.7,5.3-.6,8,.1,85.2.1,147.9,0,188,0,18.7-4.1,34-21.7,43.2-6,3.2-12.4,5.7-19.2,7.6-35.6,9.9-66.3,18.7-91.9,26.2-20.1,5.9-37.5,15.6-44.8,36.7h-.2c-3.2,12.2-3.7,24.2-1.5,36,1.4,8,5,15.8,10.5,23.5,4.9,5.9,8.4,10.9,10.2,15.1,4.8,10.6,4.9,22,.5,34.1-1.2,3.4-3.8,7.6-7.8,12.7-8.9,12.1-14.8,23.5-14.9,39-.2,43.1-.2,86.1.2,129.2,0,2.4,0,4.7,0,7,0,17.4,0,34.4.3,51,3.1,10.7,9.2,17.4,18.5,20.1,13.5,3.9,28.5-2.9,31.6-17.8,0-13.2-.1-26.4-.6-39.6-.3-9.6-.5-17.4-.5-23.5,0-26.9,0-53.8,0-80.7,0-18.2,2.9-38.7,18.7-50.5,9.5-7,21.6-10.8,32.8-14.9,19.2-7.1,32.3-20.5,34.3-41.6,1.8-19.5-7.8-36-24.4-45.6-5.2-3-11.5-6.1-18.7-9.3-6.4-2.8-11.7-6.2-16-10.3-9.1-8.8-7.7-22,2.7-29,3.4-2.3,6.9-4,10.5-5.1h1.9l-.5-.2c-.6-.2-.5-.4,0-.6,30.4-9.6,60.9-19,91.4-28.5,22.5-6.9,42.8-16.4,45.1-43.1.4-4.6.6-9.4.6-14.4,0-66.7,0-133.4,0-200.1s-.2-9.2.8-13.4c2.4-10,11-15.7,20.1-18.9,15.3-5.4,28.9-12.5,35.6-27.9,5-11.7,5.2-25.3,5.2-38.2,0-19.6,0-39.5,0-59.8,0-10.8,1.8-21.2,10.6-28.2,10.1-8,22.9-10.9,34.3-15.1,13.8-5.1,21-15.1,21.7-30,.5-11,.5-37.3,0-78.9Z"/>
        <path class="cls-6" d="M296.9,1154.9c-4,.9-7.6,2.4-10.6,4.4-9.1,6-12,15.8-12,26.2-.2,29.9-.2,94.3,0,123.2,0,5.3,4.8,34.5,5.6,46,.6,8.3.3,16.2-.8,23.6.8,3.4,1.1,6.1,1.1,8,0,39.2,0,78.3-.1,117.5,0,5.8-.3,10.8-1,15.1-1.4,9.4-7.3,18.5-17.1,20.3-7.6,1.4-15-1.6-19.6-7.7-5.1-6.7-6.3-15.6-6.4-24.1-.2-22.4-.3-55.9-.1-100.7,0-15.1-5.3-27.8-15.9-38-7.6-7.3-13.4-15.2-15-25.5-.7-4.4-1.1-9.3-1-14.7.2-45,.2-90,0-134.9,0-16.6-13.6-30.1-30.2-30.1h0c-16.7,0-30.2,13.5-30.2,30.2,0,47.5,0,94.9,0,142.4,0,12,2.3,22.2,12.8,29,9.6,6.2,20.3,7.1,30.4,10.5,12.6,4.3,20.9,12.5,24.7,24.6,1.8,5.7,1.8,12.1,1.9,18,0,17.7.1,34.7.2,51.1,0,4.9-.3,8.7-1.1,11.5-2.6,10.1-10.8,16.6-20.6,20.2-11.3,4.2-24.8,6.7-35,13.8-12.1,8.4-18.2,19.9-18.2,34.6-.2,35.4-.2,73.1-.2,113.4,0,9.8-.8,18.7-2.5,26.7h-.2c-3.4,9.5-9.1,17.2-17.3,23.1-7.2,5.2-15.1,8.8-23.7,10.8-.3,62.6-.4,125.3-.4,188.2,0,8-.3,13.5-.9,16.6-2.6,14.4-18.6,23.2-32.5,17.8-12.2-4.8-16.1-15.7-16.1-28.6.1-61.5.1-123,0-184.5v3.8c-.2.4-.4.7-.8.7-15.5,3-29.7,9.9-38.6,23-11.2,16.5-11.8,39.9-6.5,58.6,1.9,6.7,6,12.4,9.3,18.3,5.4,9.8,8.2,20.1,8.2,30.9,0,23,0,46.9,0,71.7,0,22.4,8.4,39.9,25.4,52.3,8.9,6.6,20.2,10.8,31.1,13.6,17.5,4.5,32.7,6.6,50.3,9.3,7.1,1.1,15,2.8,21.4,5.8,6.3,2.9,13.4,9,15.8,16,.7,2.2,1.3,4.3,1.6,6.2,1,5.6,1.5,5.6,1.5-.1,0-9.7,0-19.5,0-29.2,0-2.9.7-5.6,2-8.2,2.6-5.1,6.1-9.5,10.5-13,0,0,2.2-1.5,6.7-4.4,9.2-6,13.9-14.9,14.1-26.7.5-34.9.7-66.7.3-95.4-.1-9.2.2-17.7.8-25.3,1.3-14.7,12.1-25.1,26.2-27.6,8.3-1.5,17.2-2.2,27-2.1,4-5.1,6.6-9.3,7.8-12.7,4.5-12.1,4.3-23.5-.5-34.1-1.9-4.2-5.3-9.2-10.2-15.1-9.8-.2-19.4-.4-28.7-.6-3.1,0-6.8-.7-11.1-2-15.8-4.5-20.8-17.5-21.2-32.6-.2-8.1-.3-16.3-.4-24.4h.3c0-10.1,0-20.1-.1-30.2,0-5.5.3-11.1,1.1-16.6,2.6-18.7,16.1-26.5,32.6-30.7,9.5-2.4,19.2-4.9,29.1-7.5,12.1-3.2,24.5-7.7,33.7-15.8,13.2-11.5,16.8-26.5,16.7-43.7-.2-39.2-.3-78.8-.3-118.9,0-8.7.4-16.3,1.2-22.8.8-6.1,4.1-12.7,7.4-18.2,4.1-6.8,5.4-13.8,5.4-21.9,0-48.8,0-131.9,0-179.1,0-1.3.2-4.2.7-8.6,1.8-17.7,37.2-32.9-18.2-20.6Z"/>
        <path class="cls-2" d="M1288,980.3c-16-.2-35.7-2.6-42.7,15.8-.9,3-1.3,5.4-1.3,7.3,0,52.8,0,101.5-.2,146.2,0,5.7-.4,11-1.1,15.8-2.7,18.9-15.6,28.5-33.9,33.3-7.9,2.1-16,4.2-24,6.2-16,5.8-28.1,14.9-30.4,33.2-.6,4.8-.9,12.8-.8,24.3.6,3.3,1,7.3,1,12.1,0,115.5-.2,231-.4,346.4,0,12.9-2.1,25.2-12.7,33.5-18.6,14.6-44.7,1.1-44.8-22.2-.1-43-.1-88.2,0-135.7,0-19.2-2.9-35.8-13.2-52.4v-.7c-7.7-10.9-15.8-19.6-24.3-26.3-14.6-11.4-32-21.1-52.4-29-7-2.7-14.5-5.5-22.3-8.3-14.5-5.1-25.7-16-26.4-31.5-.4-8.5-.4-14.7,0-18.5.4-4.7,2.1-9.2,5-13.7-.2-2.2-.4-4.3-.6-6.3-1-10.4-5.5-19.8-12.9-27.4-3-3.1-6-6.1-8.9-9-5-5-8.5-10.7-10.4-17.3-1.1-3.7-1.6-10.2-1.7-19.5-.2-27.3-.2-50.6,0-69.9,0-5.5-.9-10.6-2.9-15.2-4.1,8.4-10.7,15-14.6,23.2-4.9,10.3-6.4,21.9-6.4,33.7,0,50.4,0,100.9,0,151.5,0,15.8,1.3,29.6,10.3,42.8,10.3,13.5,24.9,20.9,40.7,26.1,20.5,6.7,42.1,12.4,60.2,23.9,17.2,12.2,27,29.1,29.4,50.7.9,8.2,1.2,16.4.9,24.5,0,35.2.1,70.3,0,105.3,0,8-.3,14.5-.8,19.6-1.1,11.5-5.2,21.6-12.4,30.2l-6.7,6.7h-.3l-8.2,6.7c-3.9,3.6-7.3,7.6-10,11.9-3.3,7.9-4.9,15.9-4.9,23.9.4,183.3.4,366.6,0,549.9,0,31.4,44,36.4,51.4,6.4,1.1-4.5.9-10.3.9-15.2,0-159.6,0-322.6,0-489,0-9.1.2-19.9,2.6-28,3.7-12.7,12.2-21.6,25.3-26.6h0c22.6-6.3,50.9,1.8,58,26,1.2,4.1,1.8,11.3,1.8,21.6,0,59,0,119.9-.1,182.8,0,4.6,1,9,3.1,12.9,3.9,4.9,8.3,8,13.5,9.3,6,1.5,13.6,1.2,19.3-1.3,8.3-3.6,13.1-10.5,14.4-20.7,0-32.4,0-64.9,0-97.4,0-6.7-.3-11.8-.9-15.3-1.7-9.9-6.1-18.8-11-27.7-2.6-4.8-4.8-9.5-6.4-14.1-8-23-4.9-48.8,10.5-67.4,3.1-3.8,5.9-7.5,8.2-11.2,7.2-11.1,9.7-24.2,9.9-37.6h.2c0-136.5,0-273,0-409.6,0-15.1,3.4-28.4,17.4-36.4,4.9-2.8,9.6-4.8,14.1-6,8.8-2.3,17.9-4.6,27.3-7.1,18.4-4.8,32.6-14.6,36.7-34,.9-4.4,1.4-8,1.4-10.9,0-52.6,0-105.3,0-157.9,0-14.1,2.3-27.1,6.9-39.1-4.4-6.7-11.8-8.3-19.5-8.4Z"/>
      </g>
      <path class="cls-2" d="M88,980.3c-16-.2-35.7-2.6-42.7,15.8-.9,3-1.3,5.4-1.3,7.3,0,52.8,0,101.5-.2,146.2,0,5.7-.4,11-1.1,15.8-2.7,18.9-15.6,28.5-33.9,33.3-7.9,2.1-16,4.2-24,6.2-16,5.8-28.1,14.9-30.4,33.2-.6,4.8-.9,12.8-.8,24.3.6,3.3,1,7.3,1,12.1,0,115.5-.2,231-.4,346.4,0,12.9-2.1,25.2-12.7,33.5-18.6,14.6-44.7,1.1-44.8-22.2-.1-43-.1-88.2,0-135.7,0-19.2-2.9-35.8-13.2-52.4v-.7c-7.7-10.9-15.8-19.6-24.3-26.3-14.6-11.4-32-21.1-52.4-29-7-2.7-14.5-5.5-22.3-8.3-14.5-5.1-25.7-16-26.4-31.5-.4-8.5-.4-14.7,0-18.5.4-4.7,2.1-9.2,5-13.7-.2-2.2-.4-4.3-.6-6.3-1-10.4-5.5-19.8-12.9-27.4-3-3.1-6-6.1-8.9-9-5-5-8.5-10.7-10.4-17.3-1.1-3.7-1.6-10.2-1.7-19.5-.2-27.3-.2-50.6,0-69.9,0-5.5-.9-10.6-2.9-15.2-4.1,8.4-10.7,15-14.6,23.2-4.9,10.3-6.4,21.9-6.4,33.7,0,50.4,0,100.9,0,151.5,0,15.8,1.3,29.6,10.3,42.8,10.3,13.5,24.9,20.9,40.7,26.1,20.5,6.7,42.1,12.4,60.2,23.9,17.2,12.2,27,29.1,29.4,50.7.9,8.2,1.2,16.4.9,24.5,0,35.2.1,70.3,0,105.3,0,8-.3,14.5-.8,19.6-1.1,11.5-5.2,21.6-12.4,30.2l-6.7,6.7h-.3l-8.2,6.7c-3.9,3.6-7.3,7.6-10,11.9-3.3,7.9-4.9,15.9-4.9,23.9.4,183.3.4,366.6,0,549.9,0,31.4,44,36.4,51.4,6.4,1.1-4.5.9-10.3.9-15.2,0-159.6,0-322.6,0-489,0-9.1.2-19.9,2.6-28,3.7-12.7,12.2-21.6,25.3-26.6h0c22.6-6.3,50.9,1.8,58,26,1.2,4.1,1.8,11.3,1.8,21.6,0,59,0,119.9-.1,182.8,0,4.6,1,9,3.1,12.9,3.9,4.9,8.3,8,13.5,9.3,6,1.5,13.6,1.2,19.3-1.3,8.3-3.6,13.1-10.5,14.4-20.7,0-32.4,0-64.9,0-97.4,0-6.7-.3-11.8-.9-15.3-1.7-9.9-6.1-18.8-11-27.7-2.6-4.8-4.8-9.5-6.4-14.1-8-23-4.9-48.8,10.5-67.4,3.1-3.8,5.9-7.5,8.2-11.2,7.2-11.1,9.7-24.2,9.9-37.6h.2c0-136.5,0-273,0-409.6,0-15.1,3.4-28.4,17.4-36.4,4.9-2.8,9.6-4.8,14.1-6,8.8-2.3,17.9-4.6,27.3-7.1,18.4-4.8,32.6-14.6,36.7-34,.9-4.4,1.4-8,1.4-10.9,0-52.6,0-105.3,0-157.9,0-14.1,2.3-27.1,6.9-39.1-4.4-6.7-11.8-8.3-19.5-8.4Z"/>
      <g>
        <path class="cls-5" d="M1144.1,1252.3c-6-5-12.8-7.6-19.9-10.3-1.9-.7-3.8-1.5-5.8-2.3-14.7-6-23.5-16.3-26.3-30.7-1.6-8.3-.8-16.8,2.4-25.3,2.9-7.7,8.8-14,17.5-19,2.6-1.5,5.5-2.8,8.5-4.2,4.2-1.9,8.6-3.9,12.3-6.4,17.9-11.9,20.4-29.9,20.4-47.7.1-56.4.2-115.5.2-175.7,0-13.6,7.1-23.9,18.6-26.8,2.4-.6,4.9-1,7.4-1,10.6,0,19.6,6,23.4,15.7,1.2,3.1,1.8,7.3,1.8,12.7-.2,78.3-.2,157.4,0,235.1,0,12.3,0,22.9-8.3,33.8-.9,1.2-2,2.2-3.3,3-.5.3-1.3.7-4.2,1.5-1.2.3-2.2.8-3,1.5l-.3.2h-.3c-18.2,6.7-27.2,16.5-29,31.6-.6,4.6-.9,12.7-.8,24,0,0-8.3-7.5-11.4-10Z"/>
        <path class="cls-6" d="M1516.5-47.7c-7.1.4-13.7,1.3-19.6,2.6-4,.9-7.6,2.4-10.6,4.4-9.1,6-12,15.8-12,26.2-.2,29.9-.2,94.3,0,123.2,0,5.3,4.8,34.5,5.6,46,.6,8.3.3,16.2-.8,23.6.8,3.4,1.1,6.1,1.1,8,0,39.2,0,78.3-.1,117.5,0,5.8-.3,10.8-1,15.1-1.4,9.4-7.3,18.5-17.1,20.3-7.6,1.4-15-1.6-19.6-7.7-5.1-6.7-6.3-15.6-6.4-24.1-.2-22.4-.3-55.9-.1-100.7,0-15.1-5.3-27.8-15.9-38-7.6-7.3-13.4-15.2-15-25.5-.7-4.4-1.1-9.3-1-14.7.2-45,.2-90,0-134.9,0-16.6-13.6-30.1-30.2-30.1h0c-16.7,0-30.2,13.5-30.2,30.2,0,47.5,0,94.9,0,142.4,0,12,2.3,22.2,12.8,29,9.6,6.2,20.3,7.1,30.4,10.5,12.6,4.3,20.9,12.5,24.8,24.6,1.8,5.7,1.8,12.1,1.9,18,0,17.7.1,34.7.2,51.1,0,4.9-.3,8.7-1.1,11.5-2.6,10.1-10.8,16.6-20.6,20.2-11.3,4.2-24.8,6.7-35,13.8-12.1,8.4-18.2,19.9-18.2,34.6-.2,35.4-.2,73.1-.2,113.4,0,9.8-.8,18.7-2.5,26.7h-.2c-3.4,9.5-9.1,17.2-17.3,23.1-7.2,5.2-15.1,8.8-23.7,10.8-.3,62.6-.4,125.3-.4,188.2,0,8-.3,13.5-.9,16.6-2.6,14.4-18.6,23.2-32.5,17.8-12.2-4.8-16.1-15.7-16.1-28.6.1-61.5.1-123,0-184.5v3.8c-.2.4-.4.7-.8.7-15.5,3-29.7,9.9-38.6,23-11.2,16.5-11.8,39.9-6.5,58.6,1.9,6.7,6,12.4,9.3,18.3,5.4,9.8,8.2,20.1,8.2,30.9,0,23,0,46.9,0,71.7,0,22.4,8.4,39.9,25.4,52.3,8.9,6.6,20.2,10.8,31.1,13.6,17.5,4.5,32.7,6.6,50.3,9.3,7.1,1.1,15,2.8,21.4,5.8,6.3,2.9,13.4,9,15.8,16,.8,2.2,1.3,4.3,1.6,6.2,1,5.6,1.5,5.6,1.5-.1,0-9.7,0-19.5,0-29.2,0-2.9.7-5.6,2-8.2,2.6-5.1,6.1-9.5,10.5-13,0,0,2.2-1.5,6.7-4.4,9.2-6,13.9-14.9,14.1-26.7.5-34.9.7-66.7.3-95.4-.1-9.2.2-17.7.8-25.3,1.3-14.7,12.1-25.1,26.2-27.6,8.3-1.5,17.2-2.2,27-2.1,4-5.1,6.6-9.3,7.8-12.7,4.5-12.1,4.3-23.5-.5-34.1-1.9-4.2-5.3-9.2-10.2-15.1-9.8-.2-19.4-.4-28.7-.6-3.1,0-6.8-.7-11.1-2-15.8-4.5-20.8-17.5-21.2-32.6-.2-8.1-.3-16.3-.4-24.4h.3c0-10.1,0-20.1-.1-30.2,0-5.5.3-11.1,1.1-16.6,2.6-18.7,16.1-26.5,32.6-30.7,9.5-2.4,19.2-4.9,29.1-7.5,12.1-3.2,24.5-7.7,33.8-15.8,13.2-11.5,16.8-26.5,16.7-43.7-.2-39.2-.3-78.8-.3-118.9,0-8.7.4-16.3,1.2-22.8.8-6.1,4.1-12.7,7.4-18.2,4.1-6.8,5.4-13.8,5.4-21.9,0-48.8,0-131.9,0-179.1,0-1.3.2-4.2.7-8.6,1.3-12.8,8.6-20.4,21.9-23-5.9-.6-12.7-.6-20.4-.2Z"/>
      </g>
      <g>
        <path class="cls-6" d="M718,535.9c-5.5,4.1-12.5,6-18.7,8.7-5,2.2-10.8,6.6-13.7,11.7-.7,1.2-1.3,2.3-1.9,3.4-.2.3-.3.3-.4,0,0-.2-.1-.3-.2-.4-.7,1.3-.1,3.1,0,4.2.2,12.4.1,23.6-.3,33.8-.2,5.7.1,11.1,1.1,16.1,0,.1.2.1.3,0,.4-1.4.8-2.7,1.2-4,5.3-20.2,23-25.7,41.8-26.7,11.2-.6,23.3-.7,36.3-.3,5.8.2,10.6,1.6,14.5,4.1,0,0,.1,0,.2,0,4.8-5,8.5-10.3,11.1-16.2,3.7-13.6,3.9-29.8,1.7-43.7-2.3-14.4-11.8-37.3-29.3-37.3h-26.4c0,0-.1,0-.1.1.6,18.1-1.8,34.8-17,46.2Z"/>
        <path class="cls-6" d="M492.1,516c-2.1-6.8-9.1-11.2-15.7-12.8-29.4-7.1-61.5,1-74.3,30-4.4,9.9-5.4,21.9-5.4,32.7,0,19,.2,37.7.5,55.9,0,5.2.3,11.3,1.6,16.1,2.9,10.9,9.1,19.4,18.6,25.5-.2-18.5-.1-36.6,0-54.3,0-2.7.2-5.5.4-8.2,1.4-14.1,8.7-23.5,22-28,2.8-1,6.9-1.7,12.2-2.3,9.8-1.1,19.5-1.5,29.2-1.4-1.3-2.6-.8-4.9,1.3-6.9-8.3.2-15.5-3.7-15.9-12.8-.3-6.3-.3-12.7-.2-19.3.2-8.4,7.3-14.5,15.7-12.5,4.1,1,7.3,4.3,9.7,9.9,1.1-4.6,1.2-8.5.2-11.7Z"/>
        <path class="cls-6" d="M482.2,517.8c-8.5-2.1-15.6,4.1-15.7,12.5-.2,6.5,0,12.9.2,19.3.4,9.1,7.5,13,15.9,12.8,5.9-2.5,9.1-7,9.5-13.6.4-6.4.4-13.4-.2-21-2.4-5.6-5.6-8.9-9.7-9.9Z"/>
        <path class="cls-5" d="M535,568.9c-.3-9.4-.3-18.8-.2-27.8,0-3.9,0-7.9,0-11.8,0-.5,0-1.1,0-1.6,0-4.6.3-10.1,1.6-15.4,1.8-7.3,6.4-13.9,12.7-18.1,7.1-4.7,15.7-6.1,24.1-6.8,1.6-.1,3.2-.2,4.8-.2.9,0,1.9,0,2.7.2,2.2.7,2.4,3,2.4,5h0c-.4,10.2-.7,19.2-.9,28.3,0,1.6,0,3.3,0,4.9,0,5,0,10.2-1.1,15.3-1.6,7.6-5.6,14.2-11.5,18.8-7.2,5.6-15.7,9.1-25.3,10.2-2.3.3-4.6.6-7,.9l-2.2.3v-2.2Z"/>
        <path class="cls-2" d="M570.7,602.3c5.4-7.2,8.4-14.7,9-22.5.4-5.3.6-15.7.5-31.2l-.4-7.8c-2.4,7.5-6.2,13.3-11.4,17.4-6.9,5.4-15,8.7-24.3,9.8-2.3.3-4.6.6-7,.9l-55.8.3c-9.6-.1-19.4.3-29.2,1.4-5.3.6-9.4,1.3-12.2,2.3-13.3,4.6-20.6,13.9-22,28-.3,2.7-.4,5.4-.4,8.2-.2,17.7-.2,35.8,0,54.3,0,98.1,0,196.6,0,295.5,0,20.3-2.6,38.9-14.2,55.7-9.9,13.8-23.9,23.1-39.9,28.1-5.4,1.7-10.9,3.3-16.5,4.8-25.8,6.9-50.6,13.7-74.4,20.4-4.2,1.2-8.9,2.6-13.9,4.4-25.7,9-45.8,27.9-52.5,54.9-2.4,12.3-2.3,22.6-2.2,36.5.3,54.9.3,109.9.1,165,0,5.4.3,10.2,1,14.7,1.7,10.3,7.4,18.2,15,25.5,10.7,10.2,16,22.9,15.9,38-.2,44.8-.1,78.3.1,100.7,0,8.5,1.2,17.5,6.4,24.1,4.6,6,12,9.1,19.6,7.7,9.8-1.9,15.7-10.9,17.1-20.3.6-4.3,1-9.4,1-15.1,0-39.2,0-78.3.1-117.5,0-1.9-.4-4.6-1.1-8-2.9-6.5-6.5-11-11-13.6-6-3.6-12.9-7-17.6-11.5-10-9.6-14.2-22.7-14.8-36.3-.4-7.9-.3-15.8.3-23.7-.2-5.4-.3-10.8-.3-16.2,0-35,0-69.6,0-103.7,0-12.7,4.3-23.7,12.8-32.9,9-9.8,22.6-15.1,35.8-18.4,8.7-2.2,16.9-4.1,24.6-5.8,37-8,73.9-16.5,110.7-25.4,14-3.4,25.7-8,35-13.8,18.8-11.6,28.3-29,28.3-52,0-89.8,0-179.5,0-269.3,0-25.6,0-51.1,0-76.7,0-8.2.6-15.6,1.8-22.3,1.1-6.4,4.1-12,8.7-17.1,4.1-4.4,10.1-7.8,18.1-10.2,8.7-2.6,17.5-5.2,26.2-7.7,1.5-.6,3-1.2,4.6-1.7,10.3-3.3,22.1-9.6,28.4-17.9Z"/>
        <path class="cls-5" d="M607.4,568.1c-6.6-.6-11.1-1.7-13.7-3.2-3.4-2-5.7-4-7-6-2-3.1-4.2-6.6-6.5-10.3,0,15.6-.1,26-.5,31.2-.6,7.8-3.6,15.3-9,22.5-6.3,8.4-18.2,14.7-28.4,17.9-1.6.5-3.1,1.1-4.6,1.7-.2,16.8,3.9,31,20.5,37.8,22.8,9.3,45.4-6,45.9-30.7.2-13.2.3-27.3.1-42.3,0-6,0-13.4,3.2-18.7Z"/>
        <path class="cls-5" d="M763.4,582.6c-13-.4-25.1-.3-36.3.3-18.8,1-36.5,6.5-41.8,26.7-.4,1.4-.8,2.9-1.3,4.5-.1,3.6-.2,7.4-.3,11.4-.3,28.4-.2,56.7.2,84.9,3.4,2.3,6.9,3.8,10.5,4.7,17.7,4,32.9,10.6,38.2,29.3,1.2,4.3,1.8,11.7,1.7,22.1-.1,16-.2,31.5-.2,46.5,0,8.5-1.2,17.9-6.1,25.1-3.7,5.4-8.9,9.8-15.5,13,11.5-1.3,19.6-1.8,24.3-1.6,18.5,1,31,9.8,37.3,26.7,11.4-3.2,23.7-4.2,37.1-3,7.4.6,13.4,2,17.9,4.1,7.6,3.6,12.7,8.7,15.2,15.2,1.4,3.7,2,9.4,1.9,17.3-.1,9.5-.2,19,0,28.4.1,13.9,2.4,25.6,16.9,30.8,2.4.9,4,1.5,4.9,1.9,8.7,1.3,17.5,2.8,26.5,4.4,22.3,4,33.5,17.4,33.6,40.1.2,64.8.3,105.7,0,122.8,0,3.4-.8,7.7-2.4,13.2,2,4.6,2.9,9.7,2.9,15.2-.2,19.3-.2,42.6,0,69.9,0,9.3.6,15.8,1.7,19.5,1.9,6.6,5.4,12.4,10.4,17.3,2.9,2.9,5.9,5.9,8.9,9,7.3,7.6,11.8,17,12.9,27.4.2,2,.4,4.1.6,6.3,5-3.9,10.5-6.4,16.3-7.5,5.1-.9,8.7-1.5,10.8-1.6,10.6-.5,21.1-1.1,31.5-1.7,18-1.2,35.6-6.3,44.1-23.3,3.4-6.9,4.6-14.4,3.6-22.8-2.3-18.7-16.3-31.4-33.7-36.8-8.8-2.7-18.2-4.8-26.2-9.7-10.4-6.4-15.9-15.6-16.4-27.4-.3-7.2-2-13.9-5.1-20-3.3-6.5-8.3-12-11.2-18.6-4.9-11.5-5-22.1-5.1-35.5-.2-71.7-.4-141-.4-207.8,0-6.6-.3-13.8-1.7-19.7-6.4-25.5-30.3-31.5-53.3-33.1-12.1-.9-25.1-1.9-39-3.2-15.6-1.5-33-4.2-40-20.5-.7-1.6-1.2-3.6-1.6-5.8-3.8-6.5-6.4-12.6-7.6-18.4-1.3-6.2-1.9-13.4-1.9-21.4.1-20.9.2-41.8.2-62.7,0-3.5,0-7-.2-10.5-3,4.8-6.9,8.2-11.7,10.4-8.9,4.1-18.2,6.5-27.7,7.3,0,0,0,0,0,0-.4,0-.7-.3-.7-.7,0-41,0-81.7-.1-122,0-6.3-2.7-11.8-8-16.4-3.9-2.6-8.8-4-14.6-4.2Z"/>
        <path class="cls-2" d="M683.9,755.6c-.2,16.4-3.5,31.2-17.9,40.4-3.1,1.9-6.4,4-10,6.2-16.5,9.9-25.2,24.8-26.3,44.6-.2,3.3-.2,6.5-.2,9.7,0,48.5,0,97.1,0,145.6.1,166.2.1,278.7,0,337.4,0,11.9-2.8,23.8-8.3,35.7-2.5,6.4-3.7,12.7-3.7,18.8.1,83.8.1,141.5,0,173.1,0,16,.5,28.6,12,40.7,4.7,4.4,10.1,7.7,16.3,9.9,5.9,2.1,10.7,4.1,14.6,5.9,13.9,6.4,21.4,17.3,22.7,32.5v33.4h51.8c0-26.5,0-52.9,0-79.4,0-15.3-5.4-28.7-18.5-37.3-6.5-4.2-15.1-7.3-20.7-11.9-9.5-7.9-14.4-18.3-14.6-31.1-.3-18.6-.3-47-.2-85.2.2-20.2.9-40.6.9-60.7.1-209,0-372.6,0-491,0-15.9,4.4-29.6,19.2-37.6,3.9-2.1,7.7-3.6,11.3-4.3,6.6-3.2,11.8-7.5,15.5-13,4.9-7.2,6.2-16.7,6.1-25.1,0-14.9,0-30.4.2-46.5,0-10.4-.5-17.8-1.7-22.1-5.3-18.7-20.6-25.3-38.2-29.3-3.6-.8-7.1-2.4-10.5-4.7.3,15.1.3,30.2.1,45.2Z"/>
        <path class="cls-5" d="M1178.9,781c-5.7,2.5-13.3,2.7-19.3,1.3-5.1-1.3-9.6-4.4-13.5-9.3-.5,21.5-.6,35.9-.2,43,.2,3.9.7,7.1,1.4,9.6,4.5,15.9,23.2,21.3,36.3,11.8,6.5-4.7,9.8-11.6,10.1-20.9.4-15.9.3-34.7-.3-56.3-1.3,10.2-6.1,17.1-14.4,20.7Z"/>
        <path class="cls-5" d="M592.7,823.2c0-11.9-5.5-24.5-19.3-24.6-12.1-.1-19.1,10.1-19.3,21.8v270.7c0,.2,0,.4,0,.6,4-5.8,9.2-9.1,15.4-9.9,9.5-1.2,17.2,2.4,23,10.8l.2-63.8c0-68.5,0-137,0-205.4Z"/>
        <path class="cls-6" d="M517.5,859.6c-.3,64.5-.2,128.7.2,191.9,0,18-2.3,34.3-15.2,48-3.5,3.7-8.5,7.3-15,10.7,8.1,1.1,10.7,5.6,11.3,13.4.5,7.1.6,14.1-3.2,20.5,4.3-.8,8.7-2.6,13.2-5.5,6.3-4,11.2-8.5,14.7-13.6.8-1.1,1.7-2.1,2.3-3.3.8-1.6,1.4-3.3,2.2-5,1.5-3.3,3.1-6.5,5.1-9.6,1.9-2.9,4.2-5.6,6.8-7.9,2.8-2.4,5.7-3.7,9-5.2,1.1-.5,2.3-1.1,3.4-1.6.5-.2,1.7-.9,1.7-1.5,0,0,0-231.3,0-231.3,0-10.2-8.3-18.4-18.5-18.3-9.9.2-17.9,8.2-18,18.2Z"/>
        <path class="cls-4" d="M223.2,858.2c-5.9,3.3-14,6.3-24.3,8.9-32,8.1-64.1,15.8-96.1,23.1-25.8,5.8-49.9,15-56.8,43-1.2,4.8-1.8,12.6-1.9,23.3,0,11.6,0,23.2.2,34.6,0,1.7.3,3.3.8,5,7-18.4,26.8-16,42.7-15.8,7.7,0,15.1,1.6,19.5,8.4.8-.9,1.5-2,2.1-3.2,9.5-16.9,26.9-25.3,46-27.7,13-1.6,26.3-2,40.1-1.1.1,0,169.6,79.1,179.3-18.4,2.3-23-2.1-41.8-22.7-55.2-11.7-7.5-25-10.9-38.4-15.5-12.9-4.4-24.9-13.9-26.8-28-3.1,14.9-18.1,21.7-31.6,17.8-9.3-2.7-15.4-9.4-18.5-20.1-1.9,9.8-6.5,16.7-13.7,20.8Z"/>
        <path class="cls-5" d="M-55.9,1252.3c-6-5-12.8-7.6-19.9-10.3-1.9-.7-3.8-1.5-5.8-2.3-14.7-6-23.5-16.3-26.3-30.7-1.6-8.3-.8-16.8,2.4-25.3,2.9-7.7,8.8-14,17.5-19,2.6-1.5,5.5-2.8,8.5-4.2,4.2-1.9,8.6-3.9,12.3-6.4,17.9-11.9,20.4-29.9,20.4-47.7.1-56.4.2-115.5.2-175.7,0-13.6,7.1-23.9,18.6-26.8,2.4-.6,4.9-1,7.4-1,10.6,0,19.6,6,23.4,15.7,1.2,3.1,1.8,7.3,1.8,12.7-.2,78.3-.2,157.4,0,235.1,0,12.3,0,22.9-8.3,33.8-.9,1.2-2,2.2-3.3,3-.5.3-1.3.7-4.2,1.5-1.2.3-2.2.8-3,1.5l-.3.2h-.3c-18.2,6.7-27.2,16.5-29,31.6-.6,4.6-.9,12.7-.8,24,0,0-8.3-7.5-11.4-10Z"/>
        <path class="cls-6" d="M822.5,1013.1c-.4,5.7-.7,11.1-.7,16.1,0,31.3-.1,62.7-.1,94.2,0,6.6-.6,12.9-1.9,18.9-1.1,5.4-3.4,10.4-6.7,14.8-.8.7-1.3,1.3-1.3,1.8v57.3c.1,3.1,1.1,6.1,2.7,8.7h0c1.2,2,1.9,3.1,2.2,3.4,11.7,14.5,33.3,14.1,47.9,4.3,1.3-.9,3.2-2.9,5.7-6.2,2.1-2.8,3.2-6.2,3.2-9.6,0-65.4,0-130.9-.3-196.7,0-4.8-.4-8.4-1.2-10.9-3.4-11.1-10.5-17.5-21.4-19.3-7.2-1.2-12.5-2.4-15.7-3.6-7.5,6.7-11.6,15.6-12.5,26.7Z"/>
        <path class="cls-2" d="M569.5,1081.7c-6.2.8-11.3,4.1-15.4,9.9-.1,17.5-.2,35.1,0,53,0,14.1-6.4,23.6-19.4,28.6-7.1,2.7-14.2,5.2-21.3,7.6-12.2,4.1-22,11.7-24.4,24.7-.3,1.7-.5,7.2-.5,16.4,0,20.3,0,40.2,0,59.7,0,9.8-.1,19.3-5.3,27.8-6.4,10.6-18.1,13-29.7,11.3-2.9-.4-5.6-1.8-7.9-4.2.5,3.7.5,7.4.2,11.1-1,10.5-5,19.5-11.9,27.2-7.2,7.9-14.1,13.8-16.1,25-.5,2.6-.7,5.3-.6,8,.1,85.2.1,147.9,0,188,0,18.7-4.1,34-21.7,43.2-6,3.2-12.4,5.7-19.2,7.6-35.6,9.9-66.3,18.7-91.9,26.2-20.1,5.9-37.5,15.6-44.8,36.7h88.1l-.5-.2c-.6-.2-.5-.4,0-.6,30.4-9.6,60.9-19,91.4-28.5,22.5-6.9,42.8-16.4,45.1-43.1.4-4.6.6-9.4.6-14.4,0-66.7,0-133.4,0-200.1s-.2-9.2.8-13.4c2.4-10,11-15.7,20.1-18.9,15.3-5.4,28.9-12.5,35.6-27.9,5-11.7,5.2-25.3,5.2-38.2,0-19.6,0-39.5,0-59.8,0-10.8,1.8-21.2,10.6-28.2,10.1-8,22.9-10.9,34.3-15.1,13.8-5.1,21-15.1,21.7-30,.5-11,.5-37.3,0-78.9-5.8-8.4-13.4-12-23-10.8Z"/>
        <path class="cls-6" d="M279.7,1354.7c.6,8.3.3,16.2-.8,23.6.8,3.4,1.1,6.1,1.1,8,0,39.2,0,78.3-.1,117.5,0,5.8-.3,10.8-1,15.1-1.4,9.4-7.3,18.5-17.1,20.3-7.6,1.4-15-1.6-19.6-7.7-5.1-6.7-6.3-15.6-6.4-24.1-.2-22.4-.3-55.9-.1-100.7,0-15.1-5.3-27.8-15.9-38-7.6-7.3-13.4-15.2-15-25.5-.7-4.4-1.1-9.3-1-14.7.2-45,.2-90,0-134.9,0-16.6-13.6-30.1-30.2-30.1h0c-16.7,0-30.2,13.5-30.2,30.2,0,47.5,0,94.9,0,142.4,0,12,2.3,22.2,12.8,29,9.6,6.2,20.3,7.1,30.4,10.5,12.6,4.3,20.9,12.5,24.7,24.6,1.8,5.7,1.8,12.1,1.9,18,0,17.7.1,34.7.2,51.1,0,4.9-.3,8.7-1.1,11.5-2.6,10.1-10.8,16.6-20.6,20.2-11.3,4.2-24.8,6.7-35,13.8-12.1,8.4-18.2,19.9-18.2,34.6-.2,35.4-.2,73.1-.2,113.4,0,9.8-.8,18.7-2.5,26.7h51.5c0-10.1,0-20.1-.1-30.2,0-5.5.3-11.1,1.1-16.6,2.6-18.7,16.1-26.5,32.6-30.7,9.5-2.4,19.2-4.9,29.1-7.5,12.1-3.2,24.5-7.7,33.7-15.8,13.2-11.5,16.8-26.5,16.7-43.7-.2-39.2-.3-78.8-.3-118.9,0-8.7.4-16.3,1.2-22.8.8-6.1,4.1-12.7,7.4-18.2,4.1-6.8,5.4-13.8,5.4-21.9,0-48.8,0-131.9,0-179.2,0-1.3.2-4.2.7-8.6,1.8-17.7,37.2-32.9-18.2-20.6-4,.9-7.6,2.4-10.6,4.4-9.1,6-12,15.8-12,26.2-.2,29.9-.2,94.3,0,123.2l5.6,46Z"/>
        <path class="cls-5" d="M444.4,1125.2c-6.7,2.4-12.7,5.2-18,8.4-11,6.6-18,16.3-21.2,29-.7,3.1-1.4,5.7-1.8,8-.3,5-.4,9.5-.4,13.7,0,62.8,0,117.5.2,164.1,0,9.7,2.8,16.8,7.7,25.1,1.2,2,2.3,4.5,3.4,7.5.8,2.3,1.8,4.6,2.9,6.9,0-2.7.1-5.4.6-8,2.1-11.2,9-17.1,16.1-25,6.9-7.6,10.9-16.7,11.9-27.2.4-3.7.3-7.5-.2-11.1-.3-38.8-.3-77.7,0-116.6.2-23.2,10.3-40.6,32.8-48.2,3.7-1.2,7.3-2.5,11-3.8,2.1-.7,4.1-2,6.2-3.8,3.7-6.5,3.7-13.4,3.2-20.5-.6-7.9-3.2-12.4-11.3-13.4-14.2,4.8-28.6,9.7-43.1,14.9Z"/>
        <path class="cls-4" d="M813.1,1157.1c3.4-4.5,5.6-9.4,6.7-14.8,1.3-6,1.9-12.3,1.9-18.9,0-31.5,0-62.9.1-94.2,0-5,.2-10.3.7-16.1.8-11.1,5-20,12.5-26.7,5.1-4.8,10.5-8.4,16.4-10.8,1.6-.7,4.4-1.5,8.2-2.4,2.7-.6,5.5-1.4,8.3-2.3-.9-.4-2.5-1.1-4.9-1.9-14.5-5.2-16.8-17-16.9-30.8,0-9.4,0-18.9,0-28.4.1-7.9-.5-13.6-1.9-17.3-2.5-6.5-7.6-11.6-15.2-15.2-4.5-2.1-10.4-3.5-17.9-4.1-13.4-1.2-25.7-.2-37.1,3,1.9,7.8,2.8,14,2.8,18.6,0,73.1,0,146.3,0,219.4,0,12.5-2.1,22.7-10.2,32.2l45.2,12.5c0-.5.4-1.1,1.3-1.8Z"/>
        <path class="cls-4" d="M917.9,1541.6c0-3.2-.3-7.1-.7-11.7-.7-7.7-3.3-15.2-7.7-22.5-4.5-6.5-10.1-11.3-16.9-14.4-7.9-3.6-17.8-6.4-29.5-8.3-13.7-2.3-28.4-4.5-44-6.6-18.1-2.5-35.8-8.9-43.8-26.2-3.1-6.8-4.6-15.1-4.4-24.9v-48.8c0-2.6-.2-5.2-.2-7.7,0-48.7-.2-96.5-.3-143.3,0-8.4.6-16.6,1.8-24.9,1.9-13.1,8.7-26.2,20.8-32.1,3.5-1.7,7.2-3.5,11.1-5.2,3.2-1.4,5-4,7.8-6.2l-45.2-12.5c-6.8,7.3-15.3,10.8-24.2,15.1-3.7,1.8-7.6,4.9-11.8,9.3-7.7,8.1-9.9,19.7-9.9,30.7,0,62.7,0,125.4,0,188.1,0,7,0,13.9-.1,20.8,0,23.5,0,38.6.1,45.4,0,4.2.6,8.8,1.6,14,3.6,19.1,14,30,31.7,37.1,7.4,3,16.7,5.2,27.8,6.5,16.1,2,33.1,3.7,51.1,5.1,5.4.4,11.7,1.2,18.7,2.4,2.8.5,5.5,1.2,8.1,2.1.9.3,1.7.7,2.5,1,2.9,1.3,5.5,2.9,7.9,4.9.7.6,1.3,1.1,1.9,1.8,1.5,1.5,2.9,3.2,4,5.1,2.3,3.7,3.7,8.1,4.1,13.2,0,1.5.2,3.1.2,4.7.2,4.8.2,9.9,0,15.2,12.2,1.3,24.7,1.6,37.3.8.2-10.6.2-20,0-28.1Z"/>
        <path class="cls-2" d="M1287.9,980.3c-16-.2-35.7-2.6-42.7,15.8-.9,3-1.3,5.4-1.3,7.3,0,52.8,0,101.5-.2,146.2,0,5.7-.4,11-1.1,15.8-2.7,18.9-15.6,28.5-33.9,33.3-7.9,2.1-16,4.2-24,6.2-16,5.8-28.1,14.9-30.4,33.2-1.8,14.7-.3,29.7.2,44.4.3,8.9,0,18,0,27,0,9.3,0,18.5,0,27.8,0,18.5,0,37,0,55.5s0,37,0,55.5c0,18.5,0,37,0,55.5,0,18.5,0,37,0,55.5,0,18.5,0,37,0,55.5,0,1.9,0,3.9,0,5.8,0,12.9-2.1,25.2-12.7,33.5-18.6,14.6-44.7,1.1-44.8-22.2-.1-43-.1-88.2,0-135.7,0-19.2-2.9-35.8-13.2-52.4v-.7c-7.7-10.9-15.8-19.6-24.3-26.3-14.6-11.4-32-21.1-52.4-29-7-2.7-14.5-5.5-22.3-8.3-14.5-5.1-25.7-16-26.4-31.5-.4-8.5-.4-14.7,0-18.5.4-4.7,2.1-9.2,5-13.7-.2-2.2-.4-4.3-.6-6.3-1-10.4-5.5-19.8-12.9-27.4-3-3.1-6-6.1-8.9-9-5-5-8.5-10.7-10.4-17.3-1.1-3.7-1.6-10.2-1.7-19.5-.2-27.3-.2-50.6,0-69.9,0-5.5-.9-10.6-2.9-15.2-4.1,8.4-10.7,15-14.6,23.2-4.9,10.3-6.4,21.9-6.4,33.7,0,50.4,0,100.9,0,151.5,0,15.8,1.3,29.6,10.3,42.8,10.3,13.5,24.9,20.9,40.7,26.1,20.5,6.7,42.1,12.4,60.2,23.9,17.2,12.2,27,29.1,29.4,50.7.9,8.2,1.2,16.4.9,24.5,0,35.2.1,70.3,0,105.3,0,8-.3,14.5-.8,19.6-1.1,11.5-5.2,21.6-12.4,30.2l-6.7,6.7h177.1c0-136.5,0-273,0-409.6,0-15.1,3.4-28.4,17.4-36.4,4.9-2.8,9.6-4.8,14.1-6,8.8-2.3,17.9-4.6,27.3-7.1,18.4-4.8,32.6-14.6,36.7-34,.9-4.4,1.4-8,1.4-10.9,0-52.6,0-105.3,0-157.9,0-14.1,2.3-27.1,6.9-39.1-4.4-6.7-11.8-8.3-19.5-8.4Z"/>
        <path class="cls-2" d="M735.2,489.6c0-26.5,0-52.9,0-79.4,0-15.3-5.4-28.7-18.5-37.3-6.5-4.2-15.1-7.3-20.7-11.9-9.5-7.9-14.4-18.3-14.6-31.1-.3-18.6-.3-47-.2-85.2.2-20.2.9-40.6.9-60.7.1-209,0-372.6,0-491,0-15.9,4.4-29.6,19.2-37.6,3.9-2.1,7.7-3.6,11.3-4.3,6.6-3.2,11.8-7.5,15.5-13,4.9-7.2,6.2-16.7,6.1-25.1,0-14.9,0-30.4.2-46.5,0-10.4-.5-17.8-1.7-22.1-5.3-18.7-20.6-25.3-38.2-29.3-3.6-.8-7.1-2.4-10.5-4.7.3,15.1.3,30.2.1,45.2-.2,16.4-3.5,31.2-17.9,40.4-3.1,1.9-6.4,4-10,6.2-16.5,9.9-25.2,24.8-26.3,44.6-.2,3.3-.2,6.5-.2,9.7,0,48.5,0,97.1,0,145.6.1,166.2.1,278.7,0,337.4,0,11.9-2.8,23.8-8.3,35.7-2.5,6.4-3.7,12.7-3.7,18.8.1,83.8.1,141.5,0,173.1,0,16,.5,28.6,12,40.7,4.7,4.4,10.1,7.7,16.3,9.9,5.9,2.1,10.7,4.1,14.6,5.9,13.9,6.4,21.4,17.3,22.7,32.5v33.4h0l-.3,69.8c0,0,.1.2.2.4.1.3.3.4.4,0,.6-1.1,1.2-2.2,1.9-3.4,2.9-5.1,8.7-9.5,13.7-11.7,6.2-2.7,13.2-4.7,18.7-8.7,15.3-11.4,17.6-28.2,17-46.3h.2Z"/>
        <path class="cls-2" d="M592.6-107.5c-5.8-8.4-13.4-12-23-10.8-6.2.8-11.3,4.1-15.4,9.9-.1,17.5-.2,35.1,0,53,0,14.1-6.4,23.6-19.4,28.6-7.1,2.7-14.2,5.2-21.3,7.6-12.2,4.1-22,11.7-24.4,24.7-.3,1.7-.5,7.2-.5,16.4,0,20.3,0,40.2,0,59.7,0,9.8-.1,19.3-5.3,27.8-6.4,10.6-18.1,13-29.7,11.3-2.9-.4-5.6-1.8-7.9-4.2.5,3.7.5,7.4.2,11.1-1,10.5-5,19.5-11.9,27.2-7.2,7.9-14.1,13.8-16.1,25-.5,2.6-.7,5.3-.6,8,.1,85.2.1,147.9,0,188,0,18.7-4.1,34-21.7,43.2-6,3.2-12.4,5.7-19.2,7.6-35.6,9.9-66.3,18.7-91.9,26.2-20.1,5.9-37.5,15.6-44.8,36.7h-.2c-3.2,12.2-3.7,24.2-1.5,36,1.4,8,5,15.8,10.5,23.5,4.9,5.9,8.4,10.9,10.2,15.1,4.8,10.6,4.9,22,.5,34.1-1.2,3.4-3.8,7.6-7.8,12.7-8.9,12.1-14.8,23.5-14.9,39-.2,43.1-.2,86.1.2,129.2,0,2.4,0,4.7,0,7,0,17.4,0,34.4.3,51,3.1,10.7,9.2,17.4,18.5,20.1,13.5,3.9,28.5-2.9,31.6-17.8,0-13.2-.1-26.4-.6-39.6-.3-9.6-.5-17.4-.5-23.5,0-26.9,0-53.8,0-80.7,0-18.2,2.9-38.7,18.7-50.5,9.5-7,21.6-10.8,32.8-14.9,19.2-7.1,32.3-20.5,34.3-41.6,1.8-19.5-7.8-36-24.4-45.6-5.2-3-11.5-6.1-18.7-9.3-6.4-2.8-11.7-6.2-16-10.3-9.1-8.8-7.7-22,2.7-29,3.4-2.3,6.9-4,10.5-5.1h1.9l-.5-.2c-.6-.2-.5-.4,0-.6,30.4-9.6,60.9-19,91.4-28.5,22.5-6.9,42.8-16.4,45.1-43.1.4-4.6.6-9.4.6-14.4,0-66.7,0-133.4,0-200.1s-.2-9.2.8-13.4c2.4-10,11-15.7,20.1-18.9,15.3-5.4,28.9-12.5,35.6-27.9,5-11.7,5.2-25.3,5.2-38.2,0-19.6,0-39.5,0-59.8,0-10.8,1.8-21.2,10.6-28.2,10.1-8,22.9-10.9,34.3-15.1,13.8-5.1,21-15.1,21.7-30,.5-11,.5-37.3,0-78.9Z"/>
        <path class="cls-6" d="M316.5-47.7c-7.1.4-13.7,1.3-19.6,2.6-4,.9-7.6,2.4-10.6,4.4-9.1,6-12,15.8-12,26.2-.2,29.9-.2,94.3,0,123.2,0,5.3,4.8,34.5,5.6,46,.6,8.3.3,16.2-.8,23.6.8,3.4,1.1,6.1,1.1,8,0,39.2,0,78.3-.1,117.5,0,5.8-.3,10.8-1,15.1-1.4,9.4-7.3,18.5-17.1,20.3-7.6,1.4-15-1.6-19.6-7.7-5.1-6.7-6.3-15.6-6.4-24.1-.2-22.4-.3-55.9-.1-100.7,0-15.1-5.3-27.8-15.9-38-7.6-7.3-13.4-15.2-15-25.5-.7-4.4-1.1-9.3-1-14.7.2-45,.2-90,0-134.9,0-16.6-13.6-30.1-30.2-30.1h0c-16.7,0-30.2,13.5-30.2,30.2,0,47.5,0,94.9,0,142.4,0,12,2.3,22.2,12.8,29,9.6,6.2,20.3,7.1,30.4,10.5,12.6,4.3,20.9,12.5,24.7,24.6,1.8,5.7,1.8,12.1,1.9,18,0,17.7.1,34.7.2,51.1,0,4.9-.3,8.7-1.1,11.5-2.6,10.1-10.8,16.6-20.6,20.2-11.3,4.2-24.8,6.7-35,13.8-12.1,8.4-18.2,19.9-18.2,34.6-.2,35.4-.2,73.1-.2,113.4,0,9.8-.8,18.7-2.5,26.7h-.2c-3.4,9.5-9.1,17.2-17.3,23.1-7.2,5.2-15.1,8.8-23.7,10.8-.3,62.6-.4,125.3-.4,188.2,0,8-.3,13.5-.9,16.6-2.6,14.4-18.6,23.2-32.5,17.8-12.2-4.8-16.1-15.7-16.1-28.6.1-61.5.1-123,0-184.5v3.8c-.2.4-.4.7-.8.7-15.5,3-29.7,9.9-38.6,23-11.2,16.5-11.8,39.9-6.5,58.6,1.9,6.7,6,12.4,9.3,18.3,5.4,9.8,8.2,20.1,8.2,30.9,0,23,0,46.9,0,71.7,0,22.4,8.4,39.9,25.4,52.3,8.9,6.6,20.2,10.8,31.1,13.6,1.8.5,122.7,46.6,124-44.4.5-34.9.7-66.7.3-95.4-.1-9.2.2-17.7.8-25.3,1.3-14.7,12.1-25.1,26.2-27.6,8.3-1.5,17.2-2.2,27-2.1,4-5.1,6.6-9.3,7.8-12.7,4.5-12.1,4.3-23.5-.5-34.1-1.9-4.2-5.3-9.2-10.2-15.1-9.8-.2-19.4-.4-28.7-.6-3.1,0-6.8-.7-11.1-2-15.8-4.5-20.8-17.5-21.2-32.6-.2-8.1-.3-16.3-.4-24.4h.3c0-10.1,0-20.1-.1-30.2,0-5.5.3-11.1,1.1-16.6,2.6-18.7,16.1-26.5,32.6-30.7,9.5-2.4,19.2-4.9,29.1-7.5,12.1-3.2,24.5-7.7,33.7-15.8,13.2-11.5,16.8-26.5,16.7-43.7-.2-39.2-.3-78.8-.3-118.9,0-8.7.4-16.3,1.2-22.8.8-6.1,4.1-12.7,7.4-18.2,4.1-6.8,5.4-13.8,5.4-21.9,0-48.8,0-131.9,0-179.1,0-1.3.2-4.2.7-8.6,1.3-12.8,8.6-20.4,21.9-23-5.9-.6-12.7-.6-20.4-.2Z"/>
        <path class="cls-2" d="M1288-219.7c-16-.2-35.7-2.6-42.7,15.8-.9,3-1.3,5.4-1.3,7.3,0,52.8,0,101.5-.2,146.2,0,5.7-.4,11-1.1,15.8-2.7,18.9-15.6,28.5-33.9,33.3-7.9,2.1-16,4.2-24,6.2-16,5.8-28.1,14.9-30.4,33.2-.6,4.8-.9,12.8-.8,24.3.6,3.3,1,7.3,1,12.1,0,115.5-.2,231-.4,346.4,0,12.9-2.1,25.2-12.7,33.5-18.6,14.6-44.7,1.1-44.8-22.2-.1-43-.1-88.2,0-135.7,0-19.2-2.9-35.8-13.2-52.4v-.7c-7.7-10.9-15.8-19.6-24.3-26.3-14.6-11.4-32-21.1-52.4-29-7-2.7-14.5-5.5-22.3-8.3-14.5-5.1-25.7-16-26.4-31.5-.4-8.5-.4-14.7,0-18.5.4-4.7,2.1-9.2,5-13.7-.2-2.2-.4-4.3-.6-6.3-1-10.4-5.5-19.8-12.9-27.4-3-3.1-6-6.1-8.9-9-5-5-8.5-10.7-10.4-17.3-1.1-3.7-1.6-10.2-1.7-19.5-.2-27.3-.2-50.6,0-69.9,0-5.5-.9-10.6-2.9-15.2-4.1,8.4-10.7,15-14.6,23.2-4.9,10.3-6.4,21.9-6.4,33.7,0,50.4,0,100.9,0,151.5,0,15.8,1.3,29.6,10.3,42.8,10.3,13.5,24.9,20.9,40.7,26.1,20.5,6.7,42.1,12.4,60.2,23.9,17.2,12.2,27,29.1,29.4,50.7.9,8.2,1.2,16.4.9,24.5,0,35.2.1,70.3,0,105.3,0,8-.3,14.5-.8,19.6-1.1,11.5-5.2,21.6-12.4,30.2l-6.7,6.7h-.3l-8.2,6.7c-3.9,3.6-7.3,7.6-10,11.9-3.3,7.9-4.9,15.9-4.9,23.9.4,183.3.4,366.6,0,549.9,0,31.4,44,36.4,51.4,6.4,1.1-4.5.9-10.3.9-15.2,0-159.6,0-322.6,0-489,0-9.1.2-19.9,2.6-28,3.7-12.7,12.2-21.6,25.3-26.6h0c22.6-6.3,50.9,1.8,58,26,1.2,4.1,1.8,11.3,1.8,21.6,0,59,0,119.9-.1,182.8,0,4.6,1,9,3.1,12.9,3.9,4.9,8.3,8,13.5,9.3,6,1.5,13.6,1.2,19.3-1.3,8.3-3.6,13.1-10.5,14.4-20.7,0-32.4,0-64.9,0-97.4,0-6.7-.3-11.8-.9-15.3-1.7-9.9-6.1-18.8-11-27.7-2.6-4.8-4.8-9.5-6.4-14.1-8-23-4.9-48.8,10.5-67.4,3.1-3.8,5.9-7.5,8.2-11.2,7.2-11.1,9.7-24.2,9.9-37.6h.2c0-136.5,0-273,0-409.6,0-15.1,3.4-28.4,17.4-36.4,4.9-2.8,9.6-4.8,14.1-6,8.8-2.3,17.9-4.6,27.3-7.1,18.4-4.8,32.6-14.6,36.7-34,.9-4.4,1.4-8,1.4-10.9,0-52.6,0-105.3,0-157.9,0-14.1,2.3-27.1,6.9-39.1-4.4-6.7-11.8-8.3-19.5-8.4Z"/>
        <path class="cls-5" d="M94.7,205.1c0-4.4-1.4-8.9-4.4-13.4-5.2-7.9-14.8-11.7-24.1-10.4-6.9.9-12.6,4.2-16.9,10-3.7,4.9-4.8,11.7-4.8,17.7,0,93.6,0,187.1,0,280.7v43.4c.3,61.5.3,123,.1,184.5,0,12.9,3.9,23.8,16.1,28.6,13.9,5.4,29.9-3.4,32.5-17.8.6-3.1.8-8.7.9-16.6,0-62.9.2-125.6.4-188.2v-33.9c0,0,0,0,0,0v-187c0,0,.3-76.7.3-76.7-.3-6.8-.4-13.7-.3-20.7Z"/>
        <path class="cls-4" d="M880.6,368.9c-.2,14.5-6.5,26.3-18.7,35.4-3.1,2.3-6.3,4.5-9.5,6.7-6.8,4.6-12.2,10.5-16.2,17.7-9.6,17.2-10.5,40.2-9.7,60.8h-.1v5.9s-.1,212.7-.1,212.7c.1,3.5.2,6.9.2,10.5,0,20.9-.1,41.8-.2,62.7,0,8,.6,15.2,1.9,21.4,1.2,5.8,3.7,11.9,7.6,18.4.7-14.5,11.2-20.2,21.6-27.2,15.9-10.8,22.4-27.2,22.5-45.9.1-69.7.2-139.4.2-209.1v-49.3h.2c0-14.6,3.7-26.7,15.9-35.7,4.3-3.1,7.3-5.5,9.2-7.1,9.8-8.3,12.5-19.9,12.5-32.6,0-14.6,0-29.5.1-44.5-12.6.8-25.1.5-37.3-.8Z"/>
        <path class="cls-6" d="M606.1,569.6c-8.2,0-16.2-3.8-21.3-10.1-3-3.7-5.1-8.3-6.4-13.9-.9-4.2-.9-8.5-.8-12.7,0-1,0-1.9,0-2.9,0-12.2.5-24.5,1.3-36.8.7-11.2,5.1-21.1,12-27,5.8-5,13.5-7.9,21.2-7.9s1.6,0,2.4,0c7.2.6,14.4,3.8,19.8,8.9,4.5,4.3,7.4,9.6,8.4,15.2,1,5.8-.7,11.1-5.1,16.2-1.4,1.6-2.9,3.1-4.4,4.5-1.2,1.2-2.5,2.4-3.6,3.7-8.8,9.8-12.4,24-9.4,36.9.2,1,.5,1.9.8,2.9.5,1.9,1.1,3.9,1.4,6,.5,3.9,0,7.4-1.7,10-2.9,4.7-8.5,6-11.5,6.4-1,.1-2.1.2-3.2.2h0Z"/>
      </g>
      <g>
        <path class="cls-2" d="M87.9,980.3c-16-.2-35.7-2.6-42.7,15.8-.9,3-1.3,5.4-1.3,7.3,0,52.8,0,101.5-.2,146.2,0,5.7-.4,11-1.1,15.8-2.7,18.9-15.6,28.5-33.9,33.3-7.9,2.1-16,4.2-24,6.2-16,5.8-28.1,14.9-30.4,33.2-1.8,14.7-.3,29.7.2,44.4.3,8.9,0,18,0,27,0,9.3,0,18.5,0,27.8,0,18.5,0,37,0,55.5s0,37,0,55.5c0,18.5,0,37,0,55.5,0,18.5,0,37,0,55.5,0,18.5,0,37,0,55.5,0,1.9,0,3.9,0,5.8,0,12.9-2.1,25.2-12.7,33.5-18.6,14.6-44.7,1.1-44.8-22.2-.1-43-.1-88.2,0-135.7,0-19.2-2.9-35.8-13.2-52.4v-.7c-7.7-10.9-15.8-19.6-24.3-26.3-14.6-11.4-32-21.1-52.4-29-7-2.7-14.5-5.5-22.3-8.3-14.5-5.1-25.7-16-26.4-31.5-.4-8.5-.4-14.7,0-18.5.4-4.7,2.1-9.2,5-13.7-.2-2.2-.4-4.3-.6-6.3-1-10.4-5.5-19.8-12.9-27.4-3-3.1-6-6.1-8.9-9-5-5-8.5-10.7-10.4-17.3-1.1-3.7-1.6-10.2-1.7-19.5-.2-27.3-.2-50.6,0-69.9,0-5.5-.9-10.6-2.9-15.2-4.1,8.4-10.7,15-14.6,23.2-4.9,10.3-6.4,21.9-6.4,33.7,0,50.4,0,100.9,0,151.5,0,15.8,1.3,29.6,10.3,42.8,10.3,13.5,24.9,20.9,40.7,26.1,20.5,6.7,42.1,12.4,60.2,23.9,17.2,12.2,27,29.1,29.4,50.7.9,8.2,1.2,16.4.9,24.5,0,35.2.1,70.3,0,105.3,0,8-.3,14.5-.8,19.6-1.1,11.5-5.2,21.6-12.4,30.2l-6.7,6.7H3.6c0-136.5,0-273,0-409.6,0-15.1,3.4-28.4,17.4-36.4,4.9-2.8,9.6-4.8,14.1-6,8.8-2.3,17.9-4.6,27.3-7.1,18.4-4.8,32.6-14.6,36.7-34,.9-4.4,1.4-8,1.4-10.9,0-52.6,0-105.3,0-157.9,0-14.1,2.3-27.1,6.9-39.1-4.4-6.7-11.8-8.3-19.5-8.4Z"/>
        <path class="cls-2" d="M88-219.7c-16-.2-35.7-2.6-42.7,15.8-.9,3-1.3,5.4-1.3,7.3,0,52.8,0,101.5-.2,146.2,0,5.7-.4,11-1.1,15.8C40.1-15.6,27.1-6,8.9-1.2.9.9-7.1,2.9-15.2,5c-16,5.8-28.1,14.9-30.4,33.2-.6,4.8-.9,12.8-.8,24.3.6,3.3,1,7.3,1,12.1,0,115.5-.2,231-.4,346.4,0,12.9-2.1,25.2-12.7,33.5-18.6,14.6-44.7,1.1-44.8-22.2-.1-43-.1-88.2,0-135.7,0-19.2-2.9-35.8-13.2-52.4v-.7c-7.7-10.9-15.8-19.6-24.3-26.3-14.6-11.4-32-21.1-52.4-29-7-2.7-14.5-5.5-22.3-8.3-14.5-5.1-25.7-16-26.4-31.5-.4-8.5-.4-14.7,0-18.5.4-4.7,2.1-9.2,5-13.7-.2-2.2-.4-4.3-.6-6.3-1-10.4-5.5-19.8-12.9-27.4-3-3.1-6-6.1-8.9-9-5-5-8.5-10.7-10.4-17.3-1.1-3.7-1.6-10.2-1.7-19.5-.2-27.3-.2-50.6,0-69.9,0-5.5-.9-10.6-2.9-15.2-4.1,8.4-10.7,15-14.6,23.2-4.9,10.3-6.4,21.9-6.4,33.7,0,50.4,0,100.9,0,151.5,0,15.8,1.3,29.6,10.3,42.8,10.3,13.5,24.9,20.9,40.7,26.1,20.5,6.7,42.1,12.4,60.2,23.9,17.2,12.2,27,29.1,29.4,50.7.9,8.2,1.2,16.4.9,24.5,0,35.2.1,70.3,0,105.3,0,8-.3,14.5-.8,19.6-1.1,11.5-5.2,21.6-12.4,30.2l-6.7,6.7h-.3l-8.2,6.7c-3.9,3.6-7.3,7.6-10,11.9-3.3,7.9-4.9,15.9-4.9,23.9.4,183.3.4,366.6,0,549.9,0,31.4,44,36.4,51.4,6.4,1.1-4.5.9-10.3.9-15.2,0-159.6,0-322.6,0-489,0-9.1.2-19.9,2.6-28,3.7-12.7,12.2-21.6,25.3-26.6h0c22.6-6.3,50.9,1.8,58,26,1.2,4.1,1.8,11.3,1.8,21.6,0,59,0,119.9-.1,182.8,0,4.6,1,9,3.1,12.9,3.9,4.9,8.3,8,13.5,9.3,6,1.5,13.6,1.2,19.3-1.3,8.3-3.6,13.1-10.5,14.4-20.7,0-32.4,0-64.9,0-97.4,0-6.7-.3-11.8-.9-15.3-1.7-9.9-6.1-18.8-11-27.7-2.6-4.8-4.8-9.5-6.4-14.1-8-23-4.9-48.8,10.5-67.4,3.1-3.8,5.9-7.5,8.2-11.2,7.2-11.1,9.7-24.2,9.9-37.6h.2c0-136.5,0-273,0-409.6,0-15.1,3.4-28.4,17.4-36.4,4.9-2.8,9.6-4.8,14.1-6,8.8-2.3,17.9-4.6,27.3-7.1,18.4-4.8,32.6-14.6,36.7-34,.9-4.4,1.4-8,1.4-10.9,0-52.6,0-105.3,0-157.9,0-14.1,2.3-27.1,6.9-39.1-4.4-6.7-11.8-8.3-19.5-8.4Z"/>
      </g>
      <path class="cls-5" d="M1144.1,52.3c-6-5-12.8-7.6-19.9-10.3-1.9-.7-3.8-1.5-5.8-2.3-14.7-6-23.5-16.3-26.3-30.7-1.6-8.3-.8-16.8,2.4-25.3,2.9-7.7,8.8-14,17.5-19,2.6-1.5,5.5-2.8,8.5-4.2,4.2-1.9,8.6-3.9,12.3-6.4,17.9-11.9,20.4-29.9,20.4-47.7.1-56.4.2-115.5.2-175.7,0-13.6,7.1-23.9,18.6-26.8,2.4-.6,4.9-1,7.4-1,10.6,0,19.6,6,23.4,15.7,1.2,3.1,1.8,7.3,1.8,12.7-.2,78.3-.2,157.4,0,235.1,0,12.3,0,22.9-8.3,33.8-.9,1.2-2,2.2-3.3,3-.5.3-1.3.7-4.2,1.5-1.2.3-2.2.8-3,1.5l-.3.2h-.3c-18.2,6.7-27.2,16.5-29,31.6-.6,4.6-.9,12.7-.8,24,0,0-8.3-7.5-11.4-10Z"/>
      <g>
        <path class="cls-2" d="M570.7-597.7c5.4-7.2,8.4-14.7,9-22.5.4-5.3.6-15.7.5-31.2l-.4-7.8c-2.4,7.5-6.2,13.3-11.4,17.4-6.9,5.4-15,8.7-24.3,9.8-2.3.3-4.6.6-7,.9l-55.8.3c-9.6-.1-19.4.3-29.2,1.4-5.3.6-9.4,1.3-12.2,2.3-13.3,4.6-20.6,13.9-22,28-.3,2.7-.4,5.4-.4,8.2-.2,17.7-.2,35.8,0,54.3,0,98.1,0,196.6,0,295.5,0,20.3-2.6,38.9-14.2,55.7-9.9,13.8-23.9,23.1-39.9,28.1-5.4,1.7-10.9,3.3-16.5,4.8-25.8,6.9-50.6,13.7-74.4,20.4-4.2,1.2-8.9,2.6-13.9,4.4-25.7,9-45.8,27.9-52.5,54.9-2.4,12.3-2.3,22.6-2.2,36.5.3,54.9.3,109.9.1,165,0,5.4.3,10.2,1,14.7,1.7,10.3,7.4,18.2,15,25.5,10.7,10.2,16,22.9,15.9,38-.2,44.8-.1,78.3.1,100.7,0,8.5,1.2,17.5,6.4,24.1,4.6,6,12,9.1,19.6,7.7,9.8-1.9,15.7-10.9,17.1-20.3.6-4.3,1-9.4,1-15.1,0-39.2,0-78.3.1-117.5,0-1.9-.4-4.6-1.1-8-2.9-6.5-6.5-11-11-13.6-6-3.6-12.9-7-17.6-11.5-10-9.6-14.2-22.7-14.8-36.3-.4-7.9-.3-15.8.3-23.7-.2-5.4-.3-10.8-.3-16.2,0-35,0-69.6,0-103.7,0-12.7,4.3-23.7,12.8-32.9,9-9.8,22.6-15.1,35.8-18.4,8.7-2.2,16.9-4.1,24.6-5.8,37-8,73.9-16.5,110.7-25.4,14-3.4,25.7-8,35-13.8,18.8-11.6,28.3-29,28.3-52,0-89.8,0-179.5,0-269.3,0-25.6,0-51.1,0-76.7,0-8.2.6-15.6,1.8-22.3,1.1-6.4,4.1-12,8.7-17.1,4.1-4.4,10.1-7.8,18.1-10.2,8.7-2.6,17.5-5.2,26.2-7.7,1.5-.6,3-1.2,4.6-1.7,10.3-3.3,22.1-9.6,28.4-17.9Z"/>
        <path class="cls-5" d="M763.4-617.4c-13-.4-25.1-.3-36.3.3-18.8,1-36.5,6.5-41.8,26.7-.4,1.4-.8,2.9-1.3,4.5-.1,3.6-.2,7.4-.3,11.4-.3,28.4-.2,56.7.2,84.9,3.4,2.3,6.9,3.8,10.5,4.7,17.7,4,32.9,10.6,38.2,29.3,1.2,4.3,1.8,11.7,1.7,22.1-.1,16-.2,31.5-.2,46.5,0,8.5-1.2,17.9-6.1,25.1-3.7,5.4-8.9,9.7-15.5,13,11.5-1.3,19.6-1.8,24.3-1.6,18.5,1,31,9.8,37.3,26.7,11.4-3.2,23.7-4.2,37.1-3,7.4.6,13.4,2,17.9,4.1,7.6,3.6,12.7,8.7,15.2,15.2,1.4,3.7,2,9.4,1.9,17.3-.1,9.5-.2,19,0,28.4.1,13.9,2.4,25.6,16.9,30.8,2.4.9,4,1.5,4.9,1.9,8.7,1.3,17.5,2.8,26.5,4.4,22.3,4,33.5,17.4,33.6,40.1.2,64.8.3,105.7,0,122.8,0,3.4-.8,7.7-2.4,13.2,2,4.6,2.9,9.7,2.9,15.2-.2,19.3-.2,42.6,0,69.9,0,9.3.6,15.8,1.7,19.5,1.9,6.6,5.4,12.4,10.4,17.3,2.9,2.9,5.9,5.9,8.9,9,7.3,7.6,11.8,17,12.9,27.4.2,2,.4,4.1.6,6.3,5-3.9,10.5-6.4,16.3-7.5,5.1-.9,8.7-1.5,10.8-1.6,10.6-.5,21.1-1.1,31.5-1.7,18-1.2,35.6-6.3,44.1-23.3,3.4-6.9,4.6-14.4,3.6-22.8-2.3-18.7-16.3-31.4-33.7-36.8-8.8-2.7-18.2-4.8-26.2-9.7-10.4-6.4-15.9-15.6-16.4-27.4-.3-7.2-2-13.9-5.1-20-3.3-6.5-8.3-12-11.2-18.6-4.9-11.5-5-22.1-5.1-35.5-.2-71.7-.4-141-.4-207.8,0-6.6-.3-13.8-1.7-19.7-6.4-25.5-30.3-31.5-53.3-33.1-12.1-.9-25.1-1.9-39-3.2-15.6-1.5-33-4.2-40-20.5-.7-1.6-1.2-3.6-1.6-5.8-3.8-6.5-6.4-12.6-7.6-18.4-1.3-6.2-1.9-13.4-1.9-21.4.1-20.9.2-41.8.2-62.7,0-3.5,0-7-.2-10.5-3,4.8-6.9,8.2-11.7,10.4-8.9,4.1-18.2,6.5-27.7,7.3,0,0,0,0,0,0-.4,0-.7-.3-.7-.7,0-41,0-81.7-.1-122,0-6.3-2.7-11.8-8-16.4-3.9-2.6-8.8-4-14.6-4.2Z"/>
        <path class="cls-2" d="M683.9-444.4c-.2,16.4-3.5,31.2-17.9,40.4-3.1,1.9-6.4,4-10,6.2-16.5,9.9-25.2,24.8-26.3,44.6-.2,3.3-.2,6.5-.2,9.7,0,48.5,0,97.1,0,145.6.1,166.2.1,278.7,0,337.4,0,11.9-2.8,23.8-8.3,35.7-2.5,6.4-3.7,12.7-3.7,18.8.1,83.8.1,141.5,0,173.1,0,16,.5,28.6,12,40.7,4.7,4.4,10.1,7.7,16.3,9.9,5.9,2.1,10.7,4.1,14.6,5.9,13.9,6.4,21.4,17.3,22.7,32.5v33.4h51.8c0-26.5,0-52.9,0-79.4,0-15.3-5.4-28.7-18.5-37.3-6.5-4.2-15.1-7.3-20.7-11.9-9.5-7.9-14.4-18.3-14.6-31.1-.3-18.6-.3-47-.2-85.2.2-20.2.9-40.6.9-60.7.1-209,0-372.6,0-491,0-15.9,4.4-29.6,19.2-37.6,3.9-2.1,7.7-3.6,11.3-4.3,6.6-3.2,11.8-7.5,15.5-13,4.9-7.2,6.2-16.7,6.1-25.1,0-14.9,0-30.4.2-46.5,0-10.4-.5-17.8-1.7-22.1-5.3-18.7-20.6-25.3-38.2-29.3-3.6-.8-7.1-2.4-10.5-4.7.3,15.1.3,30.2.1,45.2Z"/>
        <path class="cls-5" d="M-55.9,52.3c-6-5-12.8-7.6-19.9-10.3-1.9-.7-3.8-1.5-5.8-2.3-14.7-6-23.5-16.3-26.3-30.7-1.6-8.3-.8-16.8,2.4-25.3,2.9-7.7,8.8-14,17.5-19,2.6-1.5,5.5-2.8,8.5-4.2,4.2-1.9,8.6-3.9,12.3-6.4,17.9-11.9,20.4-29.9,20.4-47.7.1-56.4.2-115.5.2-175.7,0-13.6,7.1-23.9,18.6-26.8,2.4-.6,4.9-1,7.4-1,10.6,0,19.6,6,23.4,15.7,1.2,3.1,1.8,7.3,1.8,12.7-.2,78.3-.2,157.4,0,235.1,0,12.3,0,22.9-8.3,33.8-.9,1.2-2,2.2-3.3,3-.5.3-1.3.7-4.2,1.5-1.2.3-2.2.8-3,1.5l-.3.2h-.3c-18.2,6.7-27.2,16.5-29,31.6-.6,4.6-.9,12.7-.8,24,0,0-8.3-7.5-11.4-10Z"/>
        <path class="cls-6" d="M822.5-186.9c-.4,5.7-.7,11.1-.7,16.1,0,31.3-.1,62.7-.1,94.2,0,6.6-.6,12.9-1.9,18.9-1.1,5.4-3.4,10.4-6.7,14.8-.8.7-1.3,1.3-1.3,1.8V16.2c.1,3.1,1.1,6.1,2.7,8.7h0c1.2,2,1.9,3.1,2.2,3.4,11.7,14.5,33.3,14.1,47.9,4.3,1.3-.9,3.2-2.9,5.7-6.2,2.1-2.8,3.2-6.2,3.2-9.6,0-65.4,0-130.9-.3-196.7,0-4.8-.4-8.4-1.2-10.9-3.4-11.1-10.5-17.5-21.4-19.3-7.2-1.2-12.5-2.4-15.7-3.6-7.5,6.7-11.6,15.6-12.5,26.7Z"/>
        <path class="cls-2" d="M569.5-118.3c-6.2.8-11.3,4.1-15.4,9.9-.1,17.5-.2,35.1,0,53,0,14.1-6.4,23.6-19.4,28.6-7.1,2.7-14.2,5.2-21.3,7.6-12.2,4.1-22,11.7-24.4,24.7-.3,1.7-.5,7.2-.5,16.4,0,20.3,0,40.2,0,59.7,0,9.8-.1,19.3-5.3,27.8-6.4,10.6-18.1,13-29.7,11.3-2.9-.4-5.6-1.8-7.9-4.2.5,3.7.5,7.4.2,11.1-1,10.5-5,19.5-11.9,27.2-7.2,7.9-14.1,13.8-16.1,25-.5,2.6-.7,5.3-.6,8,.1,85.2.1,147.9,0,188,0,18.7-4.1,34-21.7,43.2-6,3.2-12.4,5.7-19.2,7.6-35.6,9.9-66.3,18.7-91.9,26.2-20.1,5.9-37.5,15.6-44.8,36.7h88.1l-.5-.2c-.6-.2-.5-.4,0-.6,30.4-9.6,60.9-19,91.4-28.5,22.5-6.9,42.8-16.4,45.1-43.1.4-4.6.6-9.4.6-14.4,0-66.7,0-133.4,0-200.1s-.2-9.2.8-13.4c2.4-10,11-15.7,20.1-18.9,15.3-5.4,28.9-12.5,35.6-27.9,5-11.7,5.2-25.3,5.2-38.2,0-19.6,0-39.5,0-59.8,0-10.8,1.8-21.2,10.6-28.2,10.1-8,22.9-10.9,34.3-15.1,13.8-5.1,21-15.1,21.7-30,.5-11,.5-37.3,0-78.9-5.8-8.4-13.4-12-23-10.8Z"/>
        <path class="cls-6" d="M279.7,154.7c.6,8.3.3,16.2-.8,23.6.8,3.4,1.1,6.1,1.1,8,0,39.2,0,78.3-.1,117.5,0,5.8-.3,10.8-1,15.1-1.4,9.4-7.3,18.5-17.1,20.3-7.6,1.4-15-1.6-19.6-7.7-5.1-6.7-6.3-15.6-6.4-24.1-.2-22.4-.3-55.9-.1-100.7,0-15.1-5.3-27.8-15.9-38-7.6-7.3-13.4-15.2-15-25.5-.7-4.4-1.1-9.3-1-14.7.2-45,.2-90,0-134.9,0-16.6-13.6-30.1-30.2-30.1h0c-16.7,0-30.2,13.5-30.2,30.2,0,47.5,0,94.9,0,142.4,0,12,2.3,22.2,12.8,29,9.6,6.2,20.3,7.1,30.4,10.5,12.6,4.3,20.9,12.5,24.7,24.6,1.8,5.7,1.8,12.1,1.9,18,0,17.7.1,34.7.2,51.1,0,4.9-.3,8.7-1.1,11.5-2.6,10.1-10.8,16.6-20.6,20.2-11.3,4.2-24.8,6.7-35,13.8-12.1,8.4-18.2,19.9-18.2,34.6-.2,35.4-.2,73.1-.2,113.4,0,9.8-.8,18.7-2.5,26.7h51.5c0-10.1,0-20.1-.1-30.2,0-5.5.3-11.1,1.1-16.6,2.6-18.7,16.1-26.5,32.6-30.7,9.5-2.4,19.2-4.9,29.1-7.5,12.1-3.2,24.5-7.7,33.7-15.8,13.2-11.5,16.8-26.5,16.7-43.7-.2-39.2-.3-78.8-.3-118.9,0-8.7.4-16.3,1.2-22.8.8-6.1,4.1-12.7,7.4-18.2,4.1-6.8,5.4-13.8,5.4-21.9,0-48.8,0-131.9,0-179.2,0-1.3.2-4.2.7-8.6,1.3-12.8,8.6-20.4,21.9-23-5.9-.6-12.7-.6-20.4-.2-7.1.4-13.7,1.3-19.6,2.6-4,.9-7.6,2.4-10.6,4.4-9.1,6-12,15.8-12,26.2-.2,29.9-.2,94.3,0,123.2l5.6,46Z"/>
        <path class="cls-5" d="M444.4-74.8c-6.7,2.4-12.7,5.2-18,8.4-11,6.6-18,16.3-21.2,29-.7,3.1-1.4,5.7-1.8,8-.3,5-.4,9.5-.4,13.7,0,62.8,0,117.5.2,164.1,0,9.7,2.8,16.8,7.7,25.1,1.2,2,2.3,4.5,3.4,7.5.8,2.3,1.8,4.6,2.9,6.9,0-2.7.1-5.4.6-8,2.1-11.2,9-17.1,16.1-25,6.9-7.6,10.9-16.7,11.9-27.2.4-3.7.3-7.5-.2-11.1-.3-38.8-.3-77.7,0-116.6.2-23.2,10.3-40.6,32.8-48.2,3.7-1.2,7.3-2.5,11-3.8,2.1-.7,4.1-2,6.2-3.8,3.7-6.5,3.7-13.4,3.2-20.5-.6-7.9-3.2-12.4-11.3-13.4-14.2,4.8-28.6,9.7-43.1,14.9Z"/>
        <path class="cls-4" d="M917.9,341.6c0-3.2-.3-7.1-.7-11.7-.7-7.7-3.3-15.2-7.7-22.5-4.5-6.5-10.1-11.3-16.9-14.4-7.9-3.6-17.8-6.4-29.5-8.3-13.7-2.3-28.4-4.5-44-6.6-18.1-2.5-35.8-8.9-43.8-26.2-3.1-6.8-4.6-15.1-4.4-24.9v-48.8c0-2.6-.2-5.2-.2-7.7,0-48.7-.2-96.5-.3-143.3,0-8.4.6-16.6,1.8-24.9,1.9-13.1,8.7-26.2,20.8-32.1,3.5-1.7,7.2-3.5,11.1-5.2,3.2-1.4,5-4,7.8-6.2l-45.2-12.5c-6.8,7.3-15.3,10.8-24.2,15.1-3.7,1.8-7.6,4.9-11.8,9.3-7.7,8.1-9.9,19.7-9.9,30.7,0,62.7,0,125.4,0,188.1,0,7,0,13.9-.1,20.8,0,23.5,0,38.6.1,45.4,0,4.2.6,8.8,1.6,14,3.6,19.1,14,30,31.7,37.1,7.4,3,16.7,5.2,27.8,6.5,16.1,2,33.1,3.7,51.1,5.1,5.4.4,11.7,1.2,18.7,2.4,2.8.5,5.5,1.2,8.1,2.1.9.3,1.7.7,2.5,1,2.9,1.3,5.5,2.9,7.9,4.9.7.6,1.3,1.1,1.9,1.8,1.5,1.5,2.9,3.2,4,5.1,2.3,3.7,3.7,8.1,4.1,13.2,0,1.5.2,3.1.2,4.7.2,4.8.2,9.9,0,15.2,12.2,1.3,24.7,1.6,37.3.8.2-10.6.2-20,0-28.1Z"/>
        <path class="cls-2" d="M1287.9-219.7c-16-.2-35.7-2.6-42.7,15.8-.9,3-1.3,5.4-1.3,7.3,0,52.8,0,101.5-.2,146.2,0,5.7-.4,11-1.1,15.8-2.7,18.9-15.6,28.5-33.9,33.3-7.9,2.1-16,4.2-24,6.2-16,5.8-28.1,14.9-30.4,33.2-1.8,14.7-.3,29.7.2,44.4.3,8.9,0,18,0,27,0,9.3,0,18.5,0,27.8,0,18.5,0,37,0,55.5s0,37,0,55.5c0,18.5,0,37,0,55.5,0,18.5,0,37,0,55.5,0,18.5,0,37,0,55.5,0,1.9,0,3.9,0,5.8,0,12.9-2.1,25.2-12.7,33.5-18.6,14.6-44.7,1.1-44.8-22.2-.1-43-.1-88.2,0-135.7,0-19.2-2.9-35.8-13.2-52.4v-.7c-7.7-10.9-15.8-19.6-24.3-26.3-14.6-11.4-32-21.1-52.4-29-7-2.7-14.5-5.5-22.3-8.3-14.5-5.1-25.7-16-26.4-31.5-.4-8.5-.4-14.7,0-18.5.4-4.7,2.1-9.2,5-13.7-.2-2.2-.4-4.3-.6-6.3-1-10.4-5.5-19.8-12.9-27.4-3-3.1-6-6.1-8.9-9-5-5-8.5-10.7-10.4-17.3-1.1-3.7-1.6-10.2-1.7-19.5-.2-27.3-.2-50.6,0-69.9,0-5.5-.9-10.6-2.9-15.2-4.1,8.4-10.7,15-14.6,23.2-4.9,10.3-6.4,21.9-6.4,33.7,0,50.4,0,100.9,0,151.5,0,15.8,1.3,29.6,10.3,42.8,10.3,13.5,24.9,20.9,40.7,26.1,20.5,6.7,42.1,12.4,60.2,23.9,17.2,12.2,27,29.1,29.4,50.7.9,8.2,1.2,16.4.9,24.5,0,35.2.1,70.3,0,105.3,0,8-.3,14.5-.8,19.6-1.1,11.5-5.2,21.6-12.4,30.2l-6.7,6.7h177.1c0-136.5,0-273,0-409.6,0-15.1,3.4-28.4,17.4-36.4,4.9-2.8,9.6-4.8,14.1-6,8.8-2.3,17.9-4.6,27.3-7.1,18.4-4.8,32.6-14.6,36.7-34,.9-4.4,1.4-8,1.4-10.9,0-52.6,0-105.3,0-157.9,0-14.1,2.3-27.1,6.9-39.1-4.4-6.7-11.8-8.3-19.5-8.4Z"/>
      </g>
      <path class="cls-2" d="M87.9-219.7c-16-.2-35.7-2.6-42.7,15.8-.9,3-1.3,5.4-1.3,7.3,0,52.8,0,101.5-.2,146.2,0,5.7-.4,11-1.1,15.8C40-15.6,27-6,8.7-1.2.8.9-7.2,2.9-15.3,5c-16,5.8-28.1,14.9-30.4,33.2-1.8,14.7-.3,29.7.2,44.4.3,8.9,0,18,0,27,0,9.3,0,18.5,0,27.8,0,18.5,0,37,0,55.5s0,37,0,55.5c0,18.5,0,37,0,55.5,0,18.5,0,37,0,55.5,0,18.5,0,37,0,55.5,0,1.9,0,3.9,0,5.8,0,12.9-2.1,25.2-12.7,33.5-18.6,14.6-44.7,1.1-44.8-22.2-.1-43-.1-88.2,0-135.7,0-19.2-2.9-35.8-13.2-52.4v-.7c-7.7-10.9-15.8-19.6-24.3-26.3-14.6-11.4-32-21.1-52.4-29-7-2.7-14.5-5.5-22.3-8.3-14.5-5.1-25.7-16-26.4-31.5-.4-8.5-.4-14.7,0-18.5.4-4.7,2.1-9.2,5-13.7-.2-2.2-.4-4.3-.6-6.3-1-10.4-5.5-19.8-12.9-27.4-3-3.1-6-6.1-8.9-9-5-5-8.5-10.7-10.4-17.3-1.1-3.7-1.6-10.2-1.7-19.5-.2-27.3-.2-50.6,0-69.9,0-5.5-.9-10.6-2.9-15.2-4.1,8.4-10.7,15-14.6,23.2-4.9,10.3-6.4,21.9-6.4,33.7,0,50.4,0,100.9,0,151.5,0,15.8,1.3,29.6,10.3,42.8,10.3,13.5,24.9,20.9,40.7,26.1,20.5,6.7,42.1,12.4,60.2,23.9,17.2,12.2,27,29.1,29.4,50.7.9,8.2,1.2,16.4.9,24.5,0,35.2.1,70.3,0,105.3,0,8-.3,14.5-.8,19.6-1.1,11.5-5.2,21.6-12.4,30.2l-6.7,6.7H3.6c0-136.5,0-273,0-409.6,0-15.1,3.4-28.4,17.4-36.4,4.9-2.8,9.6-4.8,14.1-6,8.8-2.3,17.9-4.6,27.3-7.1,18.4-4.8,32.6-14.6,36.7-34,.9-4.4,1.4-8,1.4-10.9,0-52.6,0-105.3,0-157.9,0-14.1,2.3-27.1,6.9-39.1-4.4-6.7-11.8-8.3-19.5-8.4Z"/>
    </g>
  </g>
</svg>