<?xml version="1.0" encoding="UTF-8"?>
<svg id="Layer_1" data-name="Layer 1" xmlns="http://www.w3.org/2000/svg" version="1.1" xmlns:xlink="http://www.w3.org/1999/xlink" viewBox="0 0 1200 800">
  <defs>
    <style>
      .cls-1 {
        clip-path: url(#clippath-20);
      }

      .cls-2 {
        clip-path: url(#clippath-11);
      }

      .cls-3 {
        clip-path: url(#clippath-16);
      }

      .cls-4 {
        fill: #097288;
      }

      .cls-4, .cls-5, .cls-6, .cls-7, .cls-8, .cls-9 {
        stroke-width: 0px;
      }

      .cls-10 {
        clip-path: url(#clippath-2);
      }

      .cls-11 {
        clip-path: url(#clippath-13);
      }

      .cls-12 {
        clip-path: url(#clippath-15);
      }

      .cls-13 {
        clip-path: url(#clippath-6);
      }

      .cls-5 {
        fill: none;
      }

      .cls-14 {
        clip-path: url(#clippath-7);
      }

      .cls-15 {
        clip-path: url(#clippath-21);
      }

      .cls-16 {
        clip-path: url(#clippath-1);
      }

      .cls-17 {
        clip-path: url(#clippath-4);
      }

      .cls-18 {
        clip-path: url(#clippath-12);
      }

      .cls-19 {
        clip-path: url(#clippath-24);
      }

      .cls-20 {
        clip-path: url(#clippath-22);
      }

      .cls-6 {
        fill: #484b4d;
      }

      .cls-21 {
        clip-path: url(#clippath-9);
      }

      .cls-7 {
        fill: #00b5af;
      }

      .cls-22 {
        clip-path: url(#clippath);
      }

      .cls-23 {
        clip-path: url(#clippath-19);
      }

      .cls-24 {
        clip-path: url(#clippath-3);
      }

      .cls-25 {
        clip-path: url(#clippath-8);
      }

      .cls-8 {
        fill: #49edb6;
      }

      .cls-26 {
        clip-path: url(#clippath-18);
      }

      .cls-27 {
        clip-path: url(#clippath-14);
      }

      .cls-28 {
        clip-path: url(#clippath-17);
      }

      .cls-29 {
        clip-path: url(#clippath-5);
      }

      .cls-9 {
        fill: #ffcf52;
      }

      .cls-30 {
        clip-path: url(#clippath-10);
      }

      .cls-31 {
        clip-path: url(#clippath-23);
      }
    </style>
    <clipPath id="clippath">
      <rect id="mask" class="cls-5" width="1200" height="800"/>
    </clipPath>
    <clipPath id="clippath-1">
      <rect class="cls-5" x="200" y="600" width="200" height="200"/>
    </clipPath>
    <clipPath id="clippath-2">
      <rect class="cls-5" x="1000" y="200" width="200" height="200"/>
    </clipPath>
    <clipPath id="clippath-3">
      <rect class="cls-5" x="600" y="400" width="200" height="200"/>
    </clipPath>
    <clipPath id="clippath-4">
      <rect class="cls-5" x="600" y="200" width="200" height="200"/>
    </clipPath>
    <clipPath id="clippath-5">
      <rect class="cls-5" y="400" width="200" height="200"/>
    </clipPath>
    <clipPath id="clippath-6">
      <rect class="cls-5" x="400" y="600" width="200" height="200"/>
    </clipPath>
    <clipPath id="clippath-7">
      <rect class="cls-5" x="400" y="400" width="200" height="200"/>
    </clipPath>
    <clipPath id="clippath-8">
      <rect class="cls-5" x="1000" y="600" width="200" height="200"/>
    </clipPath>
    <clipPath id="clippath-9">
      <rect class="cls-5" x="800" y="200" width="200" height="200"/>
    </clipPath>
    <clipPath id="clippath-10">
      <rect class="cls-5" x="600" y="600" width="200" height="200"/>
    </clipPath>
    <clipPath id="clippath-11">
      <rect class="cls-5" width="200" height="200"/>
    </clipPath>
    <clipPath id="clippath-12">
      <rect class="cls-5" x="200" width="200" height="200"/>
    </clipPath>
    <clipPath id="clippath-13">
      <rect class="cls-5" x="800" width="200" height="200"/>
    </clipPath>
    <clipPath id="clippath-14">
      <rect class="cls-5" x="200" y="400" width="200" height="200"/>
    </clipPath>
    <clipPath id="clippath-15">
      <rect class="cls-5" x="400" y="200" width="200" height="200"/>
    </clipPath>
    <clipPath id="clippath-16">
      <rect class="cls-5" x="1000" y="400" width="200" height="200"/>
    </clipPath>
    <clipPath id="clippath-17">
      <rect class="cls-5" x="800" y="600" width="200" height="200"/>
    </clipPath>
    <clipPath id="clippath-18">
      <rect class="cls-5" x="1000" width="200" height="200"/>
    </clipPath>
    <clipPath id="clippath-19">
      <rect class="cls-5" y="600" width="200" height="200"/>
    </clipPath>
    <clipPath id="clippath-20">
      <rect class="cls-5" x="800" y="400" width="200" height="200"/>
    </clipPath>
    <clipPath id="clippath-21">
      <rect class="cls-5" y="200" width="200" height="200"/>
    </clipPath>
    <clipPath id="clippath-22">
      <rect class="cls-5" x="200" y="200" width="200" height="200"/>
    </clipPath>
    <clipPath id="clippath-23">
      <rect class="cls-5" x="400" width="200" height="200"/>
    </clipPath>
    <clipPath id="clippath-24">
      <rect class="cls-5" x="600" width="200" height="200"/>
    </clipPath>
  </defs>
  <g class="cls-22">
    <rect class="cls-6" width="1200" height="800"/>
    <g class="cls-16">
      <path class="cls-7" d="M400,600c-110.5,0-200,89.5-200,200h200v-200Z"/>
      <path class="cls-8" d="M400,700c-55.2,0-100,44.8-100,100h100v-100Z"/>
    </g>
    <g class="cls-10">
      <path class="cls-4" d="M1200,400c0-110.5-89.5-200-200-200v200h200Z"/>
      <path class="cls-8" d="M1100,400c0-55.2-44.8-100-100-100v100h100Z"/>
    </g>
    <g class="cls-24">
      <path class="cls-4" d="M800,600h0c-110.5,0-200-89.5-200-200h0c110.5,0,200,89.5,200,200h0Z"/>
      <polygon class="cls-4" points="625.4 600 600 600 600 574.6 625.4 600"/>
      <polygon class="cls-4" points="698.5 600 647.6 600 600 552.4 600 501.5 698.5 600"/>
    </g>
    <g class="cls-17">
      <path class="cls-8" d="M600,400h0c0-110.5,89.5-200,200-200h0c0,110.5-89.5,200-200,200h0Z"/>
      <polygon class="cls-4" points="600 225.4 600 200 625.4 200 600 225.4"/>
      <polygon class="cls-4" points="600 298.5 600 247.6 647.6 200 698.5 200 600 298.5"/>
    </g>
    <g class="cls-29">
      <path class="cls-4" d="M0,600c110.5,0,200-89.5,200-200H0v200Z"/>
      <polygon class="cls-4" points="200 574.6 200 600 174.6 600 200 574.6"/>
      <polygon class="cls-4" points="200 501.5 200 552.4 152.4 600 101.5 600 200 501.5"/>
      <path class="cls-9" d="M0,500c55.2,0,100-44.8,100-100H0v100Z"/>
    </g>
    <g class="cls-13">
      <path class="cls-9" d="M600,800c0-110.5-89.5-200-200-200v200h200Z"/>
      <path class="cls-7" d="M500,800c0-55.2-44.8-100-100-100v100h100Z"/>
    </g>
    <g class="cls-14">
      <path class="cls-8" d="M400,600c110.5,0,200-89.5,200-200h-200v200Z"/>
      <path class="cls-7" d="M400,500c55.2,0,100-44.8,100-100h-100v100Z"/>
      <polygon class="cls-9" points="600 574.6 600 600 574.6 600 600 574.6"/>
      <polygon class="cls-9" points="600 501.5 600 552.4 552.4 600 501.5 600 600 501.5"/>
    </g>
    <g class="cls-25">
      <path class="cls-4" d="M1000,800c110.5,0,200-89.5,200-200h-200v200Z"/>
      <path class="cls-9" d="M1000,700c55.2,0,100-44.8,100-100h-100v100Z"/>
      <polygon class="cls-9" points="1200 774.6 1200 800 1174.6 800 1200 774.6"/>
      <polygon class="cls-9" points="1200 701.5 1200 752.4 1152.4 800 1101.5 800 1200 701.5"/>
    </g>
    <g class="cls-21">
      <path class="cls-7" d="M800,200c0,110.5,89.5,200,200,200v-200h-200Z"/>
      <path class="cls-9" d="M900,200c0,55.2,44.8,100,100,100v-100h-100Z"/>
      <polygon class="cls-9" points="825.4 400 800 400 800 374.6 825.4 400"/>
      <polygon class="cls-9" points="898.5 400 847.6 400 800 352.4 800 301.5 898.5 400"/>
    </g>
    <g class="cls-30">
      <path class="cls-7" d="M800,600c-110.5,0-200,89.5-200,200h200v-200Z"/>
      <path class="cls-9" d="M800,700c-55.2,0-100,44.8-100,100h100v-100Z"/>
      <polygon class="cls-8" points="600 625.4 600 600 625.4 600 600 625.4"/>
      <polygon class="cls-8" points="600 698.5 600 647.6 647.6 600 698.5 600 600 698.5"/>
    </g>
    <g class="cls-2">
      <polygon class="cls-8" points="200 174.6 200 0 25.4 0 200 174.6"/>
      <polygon class="cls-9" points="152.4 200 101.5 200 0 98.5 0 47.6 152.4 200"/>
      <polygon class="cls-9" points="200 200 174.5 200 0 25.5 0 0 25.4 0 200 174.6 200 200"/>
    </g>
    <g class="cls-18">
      <polygon class="cls-4" points="374.6 0 200 0 200 174.6 374.6 0"/>
      <polygon class="cls-8" points="400 47.6 400 98.5 298.5 200 247.6 200 400 47.6"/>
      <polygon class="cls-8" points="400 0 400 25.5 225.5 200 200 200 200 174.6 374.6 0 400 0"/>
    </g>
    <g class="cls-11">
      <polygon class="cls-4" points="1000 174.6 1000 0 825.4 0 1000 174.6"/>
      <polygon class="cls-7" points="952.4 200 901.5 200 800 98.5 800 47.6 952.4 200"/>
      <polygon class="cls-7" points="1000 200 974.5 200 800 25.5 800 0 825.4 0 1000 174.6 1000 200"/>
    </g>
    <g class="cls-27">
      <polygon class="cls-4" points="225.4 600 400 600 400 425.4 225.4 600"/>
      <polygon class="cls-8" points="200 552.4 200 501.5 301.5 400 352.4 400 200 552.4"/>
      <polygon class="cls-8" points="200 600 200 574.5 374.5 400 400 400 400 425.4 225.4 600 200 600"/>
    </g>
    <g class="cls-12">
      <polygon class="cls-9" points="425.4 400 600 400 600 225.4 425.4 400"/>
      <polygon class="cls-4" points="400 352.4 400 301.5 501.5 200 552.4 200 400 352.4"/>
      <polygon class="cls-4" points="400 400 400 374.5 574.5 200 600 200 600 225.4 425.4 400 400 400"/>
    </g>
    <g class="cls-3">
      <path class="cls-8" d="M1000,600c110.5,0,200-89.5,200-200h-200v200Z"/>
      <path class="cls-4" d="M1000,500c55.2,0,100-44.8,100-100h-100v100Z"/>
    </g>
    <g class="cls-28">
      <path class="cls-4" d="M800,800c110.5,0,200-89.5,200-200h-200v200Z"/>
      <path class="cls-7" d="M800,700c55.2,0,100-44.8,100-100h-100v100Z"/>
    </g>
    <g class="cls-26">
      <path class="cls-9" d="M1000,200h0c0-110.5,89.5-200,200-200h0c0,110.5-89.5,200-200,200h0Z"/>
      <polygon class="cls-8" points="1000 25.4 1000 0 1025.4 0 1000 25.4"/>
      <polygon class="cls-8" points="1000 98.5 1000 47.6 1047.6 0 1098.5 0 1000 98.5"/>
    </g>
    <g class="cls-23">
      <path class="cls-9" d="M0,600h0c110.5,0,200,89.5,200,200h0C89.5,800,0,710.5,0,600h0Z"/>
      <polygon class="cls-8" points="174.6 600 200 600 200 625.4 174.6 600"/>
      <polygon class="cls-8" points="101.5 600 152.4 600 200 647.6 200 698.5 101.5 600"/>
    </g>
    <g class="cls-1">
      <path class="cls-8" d="M1000,400c-110.5,0-200,89.5-200,200h200v-200Z"/>
      <polygon class="cls-7" points="800 425.4 800 400 825.4 400 800 425.4"/>
      <polygon class="cls-7" points="800 498.5 800 447.6 847.6 400 898.5 400 800 498.5"/>
    </g>
    <g class="cls-15">
      <path class="cls-8" d="M200,400c0-110.5-89.5-200-200-200v200h200Z"/>
      <polygon class="cls-7" points="174.6 200 200 200 200 225.4 174.6 200"/>
      <polygon class="cls-7" points="101.5 200 152.4 200 200 247.6 200 298.5 101.5 200"/>
    </g>
    <g class="cls-20">
      <polygon class="cls-7" points="400 400 374.5 400 200 225.5 200 200 225.4 200 400 374.6 400 400"/>
      <polygon class="cls-7" points="352.4 400 301.5 400 200 298.5 200 247.6 352.4 400"/>
      <polygon class="cls-7" points="400 352.4 247.6 200 298.5 200 400 301.5 400 352.4"/>
    </g>
    <g class="cls-31">
      <polygon class="cls-7" points="600 200 574.5 200 400 25.5 400 0 425.4 0 600 174.6 600 200"/>
      <polygon class="cls-7" points="552.4 200 501.5 200 400 98.5 400 47.6 552.4 200"/>
      <polygon class="cls-7" points="600 152.4 447.6 0 498.5 0 600 101.5 600 152.4"/>
    </g>
    <g class="cls-19">
      <polygon class="cls-9" points="800 0 800 25.5 625.5 200 600 200 600 174.6 774.6 0 800 0"/>
      <polygon class="cls-9" points="800 47.6 800 98.5 698.5 200 647.6 200 800 47.6"/>
      <polygon class="cls-9" points="752.4 0 600 152.4 600 101.5 701.5 0 752.4 0"/>
    </g>
  </g>
</svg>