<svg xmlns="http://www.w3.org/2000/svg" viewBox="0 0 2000 2000"><defs><style>.prefix__cls-1{fill:#2563eb;stroke-width:0}.prefix__cls-2,.prefix__cls-3,.prefix__cls-4{stroke-width:0}.prefix__cls-1,.prefix__cls-3{fill-rule:evenodd}.prefix__cls-2,.prefix__cls-3{fill:#60a5fa}.prefix__cls-4{fill:#3d7ef7}</style></defs><path class="prefix__cls-4" id="prefix__Background" d="M0 0h2000v2000H0z"/><g id="prefix__Pattern"><path class="prefix__cls-2" d="M1937.5 0h62.5v62.5h-62.5zm-125 0h62.5v62.5h-62.5zm-125 0h62.5v62.5h-62.5zm-125 374.9h62.5v62.5h-62.5zm-125 0h62.5v62.5h-62.5zm500-249.9h62.5v62.5h-62.5zm-125 0h62.5v62.5h-62.5zm-125 0h62.5v62.5h-62.5zm-125 374.9h62.5v62.5h-62.5zm-125 0h62.5v62.5h-62.5zm500-250h62.5v62.5h-62.5zm-125 0h62.5v62.5h-62.5zm-125 0h62.5v62.5h-62.5zm-125 374.9h62.5v62.5h-62.5zm-125 0h62.5v62.5h-62.5zm500-249.9h62.5v62.5h-62.5zm-125 0h62.5v62.5h-62.5zm-125 0h62.5v62.5h-62.5zm-125 374.9h62.5v62.5h-62.5zm-125 0h62.5v62.5h-62.5zm500-249.9h62.5v62.5h-62.5zm-125 0h62.5v62.5h-62.5zm-125 0h62.5v62.5h-62.5zm-125 374.9h62.5v62.5h-62.5zm-125 0h62.5v62.5h-62.5zM1375 437.4h62.5v62.5H1375zm125 0h62.5v62.5H1500zm125 0h62.5v62.5H1625zm125-374.9h62.5V125H1750zm125 0h62.5V125H1875zm-500 499.8h62.5v62.5H1375zm125 0h62.5v62.5H1500zm125 0h62.5v62.5H1625zm125-374.9h62.5v62.5H1750zm125 0h62.5v62.5H1875zm-500 499.9h62.5v62.5H1375zm125 0h62.5v62.5H1500zm125 0h62.5v62.5H1625zm125-374.9h62.5v62.5H1750zm125 0h62.5v62.5H1875zm-500 499.9h62.5v62.5H1375zm125 0h62.5v62.5H1500zm125 0h62.5v62.5H1625zm125-374.9h62.5v62.5H1750zm125 0h62.5v62.5H1875zm-500 499.8h62.5v62.5H1375zm125 0h62.5v62.5H1500zm125 0h62.5v62.5H1625zm125-374.9h62.5v62.5H1750zm125 0h62.5v62.5H1875z"/><path class="prefix__cls-4" d="M1000 0h687.5v187.7H1000zm0 187.7h375v812h-375z"/><path class="prefix__cls-3" d="M1375 374.9V187.7h312.5v187.2z"/><path class="prefix__cls-1" d="M1687.5 687.3v-62.5H2000v374.9h-312.5z"/><path class="prefix__cls-2" d="M1358.7 187.7h16.3v812h-16.3zm-32.6 0h16.3v812h-16.3zm-32.6 0h16.3v812h-16.3zm-32.6 0h16.3v812h-16.3zm-32.6 0h16.3v812h-16.3zm-32.6 0h16.3v812h-16.3zm-32.7 0h16.3v812H1163zm-32.6 0h16.3v812h-16.3zm-32.6 0h16.3v812h-16.3zm-32.6 0h16.3v812h-16.3zm-32.6 0h16.3v812h-16.3zm-32.6 0h16.3v812H1000z"/><path class="prefix__cls-3" d="M1687.5 624.8 2000 999.7h-312.5z"/><path class="prefix__cls-2" d="M1937.5 624.8h62.5v62.5h-62.5zm0 125h62.5v62.5h-62.5z"/><path class="prefix__cls-4" d="M1687.5 812.3h62.5v62.5h-62.5zm0 124.9h62.5v62.5h-62.5z"/><path class="prefix__cls-1" d="m1500.3 187.7 187.2 187.2h-187.2zM1000 .5l187.2 187.2H1000z"/><path class="prefix__cls-2" d="M937.5 937.8h62.5v62.5h-62.5zm-125 0H875v62.5h-62.5zm-125 0H750v62.5h-62.5zm-125-374.9H625v62.5h-62.5zm-125 0H500v62.5h-62.5zm500 249.9h62.5v62.5h-62.5zm-125 0H875v62.5h-62.5zm-125 0H750v62.5h-62.5zm-125-374.9H625v62.5h-62.5zm-125 0H500v62.5h-62.5zm500 250h62.5v62.5h-62.5zm-125 0H875v62.5h-62.5zm-125 0H750v62.5h-62.5zM562.5 313H625v62.5h-62.5zm-125 0H500v62.5h-62.5zm500 249.9h62.5v62.5h-62.5zm-125 0H875v62.5h-62.5zm-125 0H750v62.5h-62.5zM562.5 188H625v62.5h-62.5zm-125 0H500v62.5h-62.5zm500 249.9h62.5v62.5h-62.5zm-125 0H875v62.5h-62.5zm-125 0H750v62.5h-62.5zM562.5 63H625v62.5h-62.5zm-125 0H500v62.5h-62.5zM375 500.4h62.5v62.5H375zm125 0h62.5v62.5H500zm125 0h62.5v62.5H625zm125 374.9h62.5v62.5H750zm125 0h62.5v62.5H875zM375 375.4h62.5v62.5H375zm125 0h62.5v62.5H500zm125 0h62.5v62.5H625zm125 374.9h62.5v62.5H750zm125 0h62.5v62.5H875zM375 250.5h62.5V313H375zm125 0h62.5V313H500zm125 0h62.5V313H625zm125 374.9h62.5v62.5H750zm125 0h62.5v62.5H875zM375 125.5h62.5V188H375zm125 0h62.5V188H500zm125 0h62.5V188H625zm125 374.9h62.5v62.5H750zm125 0h62.5v62.5H875zM375 .5h62.5V63H375zm125 0h62.5V63H500zm125 0h62.5V63H625zm125 374.9h62.5v62.5H750zm125 0h62.5v62.5H875z"/><path class="prefix__cls-4" d="M0 812.6h687.5v187.7H0zM0 .5h375v812H0z"/><path class="prefix__cls-3" d="M375 625.4v187.2h312.5V625.4z"/><path class="prefix__cls-1" d="M687.5 313v62.4H1000V.5H687.5z"/><path class="prefix__cls-2" d="M358.7.5H375v812h-16.3zm-32.6 0h16.3v812h-16.3zm-32.6 0h16.3v812h-16.3zm-32.6 0h16.3v812h-16.3zm-32.6 0h16.3v812h-16.3zm-32.6 0H212v812h-16.3zM163 .5h16.3v812H163zm-32.6 0h16.3v812h-16.3zM97.8.5h16.3v812H97.8zM65.2.5h16.3v812H65.2zM32.6.5h16.3v812H32.6zM0 .5h16.3v812H0z"/><path class="prefix__cls-3" d="M687.5 375.4 1000 .5H687.5z"/><path class="prefix__cls-2" d="M937.5 313h62.5v62.5h-62.5zm0-125h62.5v62.5h-62.5z"/><path class="prefix__cls-4" d="M687.5 125.5H750V188h-62.5zm0-125H750V63h-62.5z"/><path class="prefix__cls-1" d="m500.3 812.6 187.2-187.2H500.3zM0 999.7l187.2-187.1H0z"/><path class="prefix__cls-2" d="M1937.5 999.7h62.5v62.5h-62.5zm-125 0h62.5v62.5h-62.5zm-125 0h62.5v62.5h-62.5zm-125 374.9h62.5v62.5h-62.5zm-125 0h62.5v62.5h-62.5zm500-249.9h62.5v62.5h-62.5zm-125 0h62.5v62.5h-62.5zm-125 0h62.5v62.5h-62.5zm-125 374.9h62.5v62.5h-62.5zm-125 0h62.5v62.5h-62.5zm500-249.9h62.5v62.5h-62.5zm-125 0h62.5v62.5h-62.5zm-125 0h62.5v62.5h-62.5zm-125 374.9h62.5v62.5h-62.5zm-125 0h62.5v62.5h-62.5zm500-250h62.5v62.5h-62.5zm-125 0h62.5v62.5h-62.5zm-125 0h62.5v62.5h-62.5zm-125 374.9h62.5v62.5h-62.5zm-125 0h62.5v62.5h-62.5zm500-249.9h62.5v62.5h-62.5zm-125 0h62.5v62.5h-62.5zm-125 0h62.5v62.5h-62.5zm-125 374.9h62.5v62.5h-62.5zm-125 0h62.5v62.5h-62.5zm-62.5-437.4h62.5v62.5H1375zm125 0h62.5v62.5H1500zm125 0h62.5v62.5H1625zm125-374.9h62.5v62.5H1750zm125 0h62.5v62.5H1875zm-500 499.9h62.5v62.5H1375zm125 0h62.5v62.5H1500zm125 0h62.5v62.5H1625zm125-374.9h62.5v62.5H1750zm125 0h62.5v62.5H1875zM1375 1687h62.5v62.5H1375zm125 0h62.5v62.5H1500zm125 0h62.5v62.5H1625zm125-374.9h62.5v62.5H1750zm125 0h62.5v62.5H1875zM1375 1812h62.5v62.5H1375zm125 0h62.5v62.5H1500zm125 0h62.5v62.5H1625zm125-374.9h62.5v62.5H1750zm125 0h62.5v62.5H1875zM1375 1937h62.5v62.5H1375zm125 0h62.5v62.5H1500zm125 0h62.5v62.5H1625zm125-374.9h62.5v62.5H1750zm125 0h62.5v62.5H1875z"/><path class="prefix__cls-4" d="M1000 999.7h687.5v187.7H1000zm0 187.7h375v812h-375z"/><path class="prefix__cls-3" d="M1375 1374.6v-187.2h312.5v187.2z"/><path class="prefix__cls-1" d="M1687.5 1687v-62.4H2000v374.9h-312.5z"/><path class="prefix__cls-2" d="M1358.7 1187.4h16.3v812h-16.3zm-32.6 0h16.3v812h-16.3zm-32.6 0h16.3v812h-16.3zm-32.6 0h16.3v812h-16.3zm-32.6 0h16.3v812h-16.3zm-32.6 0h16.3v812h-16.3zm-32.7 0h16.3v812H1163zm-32.6 0h16.3v812h-16.3zm-32.6 0h16.3v812h-16.3zm-32.6 0h16.3v812h-16.3zm-32.6 0h16.3v812h-16.3zm-32.6 0h16.3v812H1000z"/><path class="prefix__cls-3" d="m1687.5 1624.6 312.5 374.9h-312.5z"/><path class="prefix__cls-2" d="M1937.5 1624.6h62.5v62.5h-62.5zm0 124.9h62.5v62.5h-62.5z"/><path class="prefix__cls-4" d="M1687.5 1812h62.5v62.5h-62.5zm0 125h62.5v62.5h-62.5z"/><path class="prefix__cls-1" d="m1500.3 1187.4 187.2 187.2h-187.2zM1000 1000.3l187.2 187.1H1000z"/><path class="prefix__cls-2" d="M937.5 1937.5h62.5v62.5h-62.5zm-125 0H875v62.5h-62.5zm-125 0H750v62.5h-62.5zm-125-374.9H625v62.5h-62.5zm-125 0H500v62.5h-62.5zm500 250h62.5v62.5h-62.5zm-125 0H875v62.5h-62.5zm-125 0H750v62.5h-62.5zm-125-374.9H625v62.5h-62.5zm-125 0H500v62.5h-62.5zm500 249.9h62.5v62.5h-62.5zm-125 0H875v62.5h-62.5zm-125 0H750v62.5h-62.5zm-125-374.9H625v62.5h-62.5zm-125 0H500v62.5h-62.5zm500 249.9h62.5v62.5h-62.5zm-125 0H875v62.5h-62.5zm-125 0H750v62.5h-62.5zm-125-374.9H625v62.5h-62.5zm-125 0H500v62.5h-62.5zm500 250h62.5v62.5h-62.5zm-125 0H875v62.5h-62.5zm-125 0H750v62.5h-62.5zm-125-374.9H625v62.5h-62.5zm-125 0H500v62.5h-62.5zM375 1500.1h62.5v62.5H375zm125 0h62.5v62.5H500zm125 0h62.5v62.5H625zM750 1875h62.5v62.5H750zm125 0h62.5v62.5H875zm-500-499.8h62.5v62.5H375zm125 0h62.5v62.5H500zm125 0h62.5v62.5H625zm125 374.9h62.5v62.5H750zm125 0h62.5v62.5H875zm-500-499.9h62.5v62.5H375zm125 0h62.5v62.5H500zm125 0h62.5v62.5H625zm125 374.9h62.5v62.5H750zm125 0h62.5v62.5H875zm-500-499.9h62.5v62.5H375zm125 0h62.5v62.5H500zm125 0h62.5v62.5H625zm125 374.9h62.5v62.5H750zm125 0h62.5v62.5H875zm-500-499.8h62.5v62.5H375zm125 0h62.5v62.5H500zm125 0h62.5v62.5H625zm125 374.9h62.5v62.5H750zm125 0h62.5v62.5H875z"/><path class="prefix__cls-4" d="M0 1812.3h687.5V2000H0zm0-812h375v812H0z"/><path class="prefix__cls-3" d="M375 1625.1v187.2h312.5v-187.2z"/><path class="prefix__cls-1" d="M687.5 1312.7v62.5H1000v-374.9H687.5z"/><path class="prefix__cls-2" d="M358.7 1000.3H375v812h-16.3zm-32.6 0h16.3v812h-16.3zm-32.6 0h16.3v812h-16.3zm-32.6 0h16.3v812h-16.3zm-32.6 0h16.3v812h-16.3zm-32.6 0H212v812h-16.3zm-32.7 0h16.3v812H163zm-32.6 0h16.3v812h-16.3zm-32.6 0h16.3v812H97.8zm-32.6 0h16.3v812H65.2zm-32.6 0h16.3v812H32.6zm-32.6 0h16.3v812H0z"/><path class="prefix__cls-3" d="m687.5 1375.2 312.5-374.9H687.5z"/><path class="prefix__cls-2" d="M937.5 1312.7h62.5v62.5h-62.5zm0-125.3h62.5v62.5h-62.5z"/><path class="prefix__cls-4" d="M687.5 1125.2H750v62.5h-62.5zm0-124.9H750v62.5h-62.5z"/><path class="prefix__cls-1" d="m500.3 1812.3 187.2-187.2H500.3zM0 1999.5l187.2-187.2H0z"/></g></svg>