<svg id="prefix__Layer_1" data-name="Layer 1"
  xmlns="http://www.w3.org/2000/svg" version="1.1" viewBox="0 0 2000 2000">
  <defs>
    <style>
            .prefix__cls-1{fill:#fac713;stroke-width:0}.prefix__cls-3,.prefix__cls-4,.prefix__cls-5,.prefix__cls-6,.prefix__cls-7,.prefix__cls-8{stroke-width:0}.prefix__cls-3{fill:#18b05b}.prefix__cls-3,.prefix__cls-4,.prefix__cls-7{fill-rule:evenodd}.prefix__cls-4{fill:#36c2eb}.prefix__cls-5{fill:#211614}.prefix__cls-6{fill:#fab019}.prefix__cls-7{fill:#5132ce}.prefix__cls-8{fill:#ee3d7d}
    </style>
  </defs>
  <path stroke-width="0" fill="#ecd0aa" id="prefix__Background" d="M0 0h2000v2000H0z"/>
  <g id="prefix__Pattern">
    <path class="prefix__cls-5" d="M1937.5 0h62.5v62.5h-62.5zm-125 0h62.5v62.5h-62.5zm-125 0h62.5v62.5h-62.5zm-125 374.9h62.5v62.5h-62.5zm-125 0h62.5v62.5h-62.5zm500-249.9h62.5v62.5h-62.5zm-125 0h62.5v62.5h-62.5zm-125 0h62.5v62.5h-62.5zm-125 374.9h62.5v62.5h-62.5zm-125 0h62.5v62.5h-62.5zm500-250h62.5v62.5h-62.5zm-125 0h62.5v62.5h-62.5zm-125 0h62.5v62.5h-62.5zm-125 374.9h62.5v62.5h-62.5zm-125 0h62.5v62.5h-62.5zm500-249.9h62.5v62.5h-62.5zm-125 0h62.5v62.5h-62.5zm-125 0h62.5v62.5h-62.5zm-125 374.9h62.5v62.5h-62.5zm-125 0h62.5v62.5h-62.5zm500-249.9h62.5v62.5h-62.5zm-125 0h62.5v62.5h-62.5zm-125 0h62.5v62.5h-62.5zm-125 374.9h62.5v62.5h-62.5zm-125 0h62.5v62.5h-62.5zM1375 437.4h62.5v62.5H1375zm125 0h62.5v62.5H1500zm125 0h62.5v62.5H1625zm125-374.9h62.5V125H1750zm125 0h62.5V125H1875zm-500 499.8h62.5v62.5H1375zm125 0h62.5v62.5H1500zm125 0h62.5v62.5H1625zm125-374.9h62.5v62.5H1750zm125 0h62.5v62.5H1875zm-500 499.9h62.5v62.5H1375zm125 0h62.5v62.5H1500zm125 0h62.5v62.5H1625zm125-374.9h62.5v62.5H1750zm125 0h62.5v62.5H1875zm-500 499.9h62.5v62.5H1375zm125 0h62.5v62.5H1500zm125 0h62.5v62.5H1625zm125-374.9h62.5v62.5H1750zm125 0h62.5v62.5H1875zm-500 499.8h62.5v62.5H1375zm125 0h62.5v62.5H1500zm125 0h62.5v62.5H1625zm125-374.9h62.5v62.5H1750zm125 0h62.5v62.5H1875z"/>
    <path class="prefix__cls-8" d="M1000 0h687.5v187.7H1000z"/>
    <path class="prefix__cls-1" d="M1000 187.7h375v812h-375z"/>
    <path class="prefix__cls-4" d="M1437.5 374.9h250V187.7H1375v187.2z"/>
    <path class="prefix__cls-7" d="M1687.5 749.8v249.9H2000V624.8h-312.5z"/>
    <path class="prefix__cls-6" d="M1358.7 187.7h16.3v812h-16.3zm-32.6 0h16.3v812h-16.3zm-32.6 0h16.3v812h-16.3zm-32.6 0h16.3v812h-16.3zm-32.6 0h16.3v812h-16.3zm-32.6 0h16.3v812h-16.3zm-32.7 0h16.3v812H1163zm-32.6 0h16.3v812h-16.3zm-32.6 0h16.3v812h-16.3zm-32.6 0h16.3v812h-16.3zm-32.6 0h16.3v812h-16.3zm-32.6 0h16.3v812H1000z"/>
    <path class="prefix__cls-3" d="M1687.5 687.3v312.4H2000l-312.5-374.9z"/>
    <path class="prefix__cls-8" d="M1937.5 624.8h62.5v62.5h-62.5zm0 125h62.5v62.5h-62.5zm-250 62.5h62.5v62.5h-62.5zm0 124.9h62.5v62.5h-62.5z"/>
    <path class="prefix__cls-7" d="M1500.3 374.9h187.2l-187.2-187.2zM1000 187.7h187.2L1000 .5z"/>
    <path class="prefix__cls-5" d="M937.5 937.8h62.5v62.5h-62.5zm-125 0H875v62.5h-62.5zm-125 0H750v62.5h-62.5zm-125-374.9H625v62.5h-62.5zm-125 0H500v62.5h-62.5zm500 249.9h62.5v62.5h-62.5zm-125 0H875v62.5h-62.5zm-125 0H750v62.5h-62.5zm-125-374.9H625v62.5h-62.5zm-125 0H500v62.5h-62.5zm500 250h62.5v62.5h-62.5zm-125 0H875v62.5h-62.5zm-125 0H750v62.5h-62.5zM562.5 313H625v62.5h-62.5zm-125 0H500v62.5h-62.5zm500 249.9h62.5v62.5h-62.5zm-125 0H875v62.5h-62.5zm-125 0H750v62.5h-62.5zM562.5 188H625v62.5h-62.5zm-125 0H500v62.5h-62.5zm500 249.9h62.5v62.5h-62.5zm-125 0H875v62.5h-62.5zm-125 0H750v62.5h-62.5zM562.5 63H625v62.5h-62.5zm-125 0H500v62.5h-62.5zM375 500.4h62.5v62.5H375zm125 0h62.5v62.5H500zm125 0h62.5v62.5H625zm125 374.9h62.5v62.5H750zm125 0h62.5v62.5H875zM375 375.4h62.5v62.5H375zm125 0h62.5v62.5H500zm125 0h62.5v62.5H625zm125 374.9h62.5v62.5H750zm125 0h62.5v62.5H875zM375 250.5h62.5V313H375zm125 0h62.5V313H500zm125 0h62.5V313H625zm125 374.9h62.5v62.5H750zm125 0h62.5v62.5H875zM375 125.5h62.5V188H375zm125 0h62.5V188H500zm125 0h62.5V188H625zm125 374.9h62.5v62.5H750zm125 0h62.5v62.5H875zM375 .5h62.5V63H375zm125 0h62.5V63H500zm125 0h62.5V63H625zm125 374.9h62.5v62.5H750zm125 0h62.5v62.5H875z"/>
    <path class="prefix__cls-8" d="M0 812.6h687.5v187.7H0z"/>
    <path class="prefix__cls-1" d="M0 .5h375v812H0z"/>
    <path class="prefix__cls-4" d="M437.5 625.4h250v187.2H375V625.4z"/>
    <path class="prefix__cls-7" d="M687.5 250.5V.5H1000v374.9H687.5z"/>
    <path class="prefix__cls-6" d="M358.7.5H375v812h-16.3zm-32.6 0h16.3v812h-16.3zm-32.6 0h16.3v812h-16.3zm-32.6 0h16.3v812h-16.3zm-32.6 0h16.3v812h-16.3zm-32.6 0H212v812h-16.3zM163 .5h16.3v812H163zm-32.6 0h16.3v812h-16.3zM97.8.5h16.3v812H97.8zM65.2.5h16.3v812H65.2zM32.6.5h16.3v812H32.6zM0 .5h16.3v812H0z"/>
    <path class="prefix__cls-3" d="M687.5 313V.5H1000L687.5 375.4z"/>
    <path class="prefix__cls-8" d="M937.5 313h62.5v62.5h-62.5zm0-125h62.5v62.5h-62.5zm-250-62.5H750V188h-62.5zm0-125H750V63h-62.5z"/>
    <path class="prefix__cls-7" d="M500.3 625.4h187.2L500.3 812.6zM0 812.6h187.2L0 999.7z"/>
    <path class="prefix__cls-5" d="M1937.5 999.7h62.5v62.5h-62.5zm-125 0h62.5v62.5h-62.5zm-125 0h62.5v62.5h-62.5zm-125 374.9h62.5v62.5h-62.5zm-125 0h62.5v62.5h-62.5zm500-249.9h62.5v62.5h-62.5zm-125 0h62.5v62.5h-62.5zm-125 0h62.5v62.5h-62.5zm-125 374.9h62.5v62.5h-62.5zm-125 0h62.5v62.5h-62.5zm500-249.9h62.5v62.5h-62.5zm-125 0h62.5v62.5h-62.5zm-125 0h62.5v62.5h-62.5zm-125 374.9h62.5v62.5h-62.5zm-125 0h62.5v62.5h-62.5zm500-250h62.5v62.5h-62.5zm-125 0h62.5v62.5h-62.5zm-125 0h62.5v62.5h-62.5zm-125 374.9h62.5v62.5h-62.5zm-125 0h62.5v62.5h-62.5zm500-249.9h62.5v62.5h-62.5zm-125 0h62.5v62.5h-62.5zm-125 0h62.5v62.5h-62.5zm-125 374.9h62.5v62.5h-62.5zm-125 0h62.5v62.5h-62.5zm-62.5-437.4h62.5v62.5H1375zm125 0h62.5v62.5H1500zm125 0h62.5v62.5H1625zm125-374.9h62.5v62.5H1750zm125 0h62.5v62.5H1875zm-500 499.9h62.5v62.5H1375zm125 0h62.5v62.5H1500zm125 0h62.5v62.5H1625zm125-374.9h62.5v62.5H1750zm125 0h62.5v62.5H1875zM1375 1687h62.5v62.5H1375zm125 0h62.5v62.5H1500zm125 0h62.5v62.5H1625zm125-374.9h62.5v62.5H1750zm125 0h62.5v62.5H1875zM1375 1812h62.5v62.5H1375zm125 0h62.5v62.5H1500zm125 0h62.5v62.5H1625zm125-374.9h62.5v62.5H1750zm125 0h62.5v62.5H1875zM1375 1937h62.5v62.5H1375zm125 0h62.5v62.5H1500zm125 0h62.5v62.5H1625zm125-374.9h62.5v62.5H1750zm125 0h62.5v62.5H1875z"/>
    <path class="prefix__cls-8" d="M1000 999.7h687.5v187.7H1000z"/>
    <path class="prefix__cls-1" d="M1000 1187.4h375v812h-375z"/>
    <path class="prefix__cls-4" d="M1437.5 1374.6h250v-187.2H1375v187.2z"/>
    <path class="prefix__cls-7" d="M1687.5 1749.5v250H2000v-374.9h-312.5z"/>
    <path class="prefix__cls-6" d="M1358.7 1187.4h16.3v812h-16.3zm-32.6 0h16.3v812h-16.3zm-32.6 0h16.3v812h-16.3zm-32.6 0h16.3v812h-16.3zm-32.6 0h16.3v812h-16.3zm-32.6 0h16.3v812h-16.3zm-32.7 0h16.3v812H1163zm-32.6 0h16.3v812h-16.3zm-32.6 0h16.3v812h-16.3zm-32.6 0h16.3v812h-16.3zm-32.6 0h16.3v812h-16.3zm-32.6 0h16.3v812H1000z"/>
    <path class="prefix__cls-3" d="M1687.5 1687v312.5H2000l-312.5-374.9z"/>
    <path class="prefix__cls-8" d="M1937.5 1624.6h62.5v62.5h-62.5zm0 124.9h62.5v62.5h-62.5zm-250 62.5h62.5v62.5h-62.5zm0 125h62.5v62.5h-62.5z"/>
    <path class="prefix__cls-7" d="M1500.3 1374.6h187.2l-187.2-187.2zM1000 1187.4h187.2L1000 1000.3z"/>
    <path class="prefix__cls-5" d="M937.5 1937.5h62.5v62.5h-62.5zm-125 0H875v62.5h-62.5zm-125 0H750v62.5h-62.5zm-125-374.9H625v62.5h-62.5zm-125 0H500v62.5h-62.5zm500 250h62.5v62.5h-62.5zm-125 0H875v62.5h-62.5zm-125 0H750v62.5h-62.5zm-125-374.9H625v62.5h-62.5zm-125 0H500v62.5h-62.5zm500 249.9h62.5v62.5h-62.5zm-125 0H875v62.5h-62.5zm-125 0H750v62.5h-62.5zm-125-374.9H625v62.5h-62.5zm-125 0H500v62.5h-62.5zm500 249.9h62.5v62.5h-62.5zm-125 0H875v62.5h-62.5zm-125 0H750v62.5h-62.5zm-125-374.9H625v62.5h-62.5zm-125 0H500v62.5h-62.5zm500 250h62.5v62.5h-62.5zm-125 0H875v62.5h-62.5zm-125 0H750v62.5h-62.5zm-125-374.9H625v62.5h-62.5zm-125 0H500v62.5h-62.5zM375 1500.1h62.5v62.5H375zm125 0h62.5v62.5H500zm125 0h62.5v62.5H625zM750 1875h62.5v62.5H750zm125 0h62.5v62.5H875zm-500-499.8h62.5v62.5H375zm125 0h62.5v62.5H500zm125 0h62.5v62.5H625zm125 374.9h62.5v62.5H750zm125 0h62.5v62.5H875zm-500-499.9h62.5v62.5H375zm125 0h62.5v62.5H500zm125 0h62.5v62.5H625zm125 374.9h62.5v62.5H750zm125 0h62.5v62.5H875zm-500-499.9h62.5v62.5H375zm125 0h62.5v62.5H500zm125 0h62.5v62.5H625zm125 374.9h62.5v62.5H750zm125 0h62.5v62.5H875zm-500-499.8h62.5v62.5H375zm125 0h62.5v62.5H500zm125 0h62.5v62.5H625zm125 374.9h62.5v62.5H750zm125 0h62.5v62.5H875z"/>
    <path class="prefix__cls-8" d="M0 1812.3h687.5V2000H0z"/>
    <path class="prefix__cls-1" d="M0 1000.3h375v812H0z"/>
    <path class="prefix__cls-4" d="M437.5 1625.1h250v187.2H375v-187.2z"/>
    <path class="prefix__cls-7" d="M687.5 1250.2v-249.9H1000v374.9H687.5z"/>
    <path class="prefix__cls-6" d="M358.7 1000.3H375v812h-16.3zm-32.6 0h16.3v812h-16.3zm-32.6 0h16.3v812h-16.3zm-32.6 0h16.3v812h-16.3zm-32.6 0h16.3v812h-16.3zm-32.6 0H212v812h-16.3zm-32.7 0h16.3v812H163zm-32.6 0h16.3v812h-16.3zm-32.6 0h16.3v812H97.8zm-32.6 0h16.3v812H65.2zm-32.6 0h16.3v812H32.6zm-32.6 0h16.3v812H0z"/>
    <path class="prefix__cls-3" d="M687.5 1312.7v-312.4H1000l-312.5 374.9z"/>
    <path class="prefix__cls-8" d="M937.5 1312.7h62.5v62.5h-62.5zm0-125h62.5v62.5h-62.5zm-250-62.5H750v62.5h-62.5zm0-124.9H750v62.5h-62.5z"/>
    <path class="prefix__cls-7" d="M500.3 1625.1h187.2l-187.2 187.2zM0 1812.3h187.2L0 1999.5z"/>
  </g>
</svg>
