<?xml version="1.0" encoding="UTF-8"?>
<svg id="Layer_1" data-name="Layer 1" xmlns="http://www.w3.org/2000/svg" version="1.1" xmlns:xlink="http://www.w3.org/1999/xlink" viewBox="0 0 1625 900">
  <defs>
    <style>
      .cls-1 {
        fill: #478ba0;
      }

      .cls-1, .cls-2, .cls-3, .cls-4, .cls-5, .cls-6, .cls-7, .cls-8, .cls-9, .cls-10, .cls-11, .cls-12, .cls-13, .cls-14, .cls-15, .cls-16, .cls-17, .cls-18, .cls-19, .cls-20, .cls-21, .cls-22, .cls-23, .cls-24, .cls-25, .cls-26, .cls-27, .cls-28 {
        stroke-width: 0px;
      }

      .cls-2 {
        fill: #543b30;
      }

      .cls-3 {
        fill: #172554;
      }

      .cls-4 {
        fill: #8a824a;
      }

      .cls-5 {
        fill: #9fd4d6;
      }

      .cls-6 {
        fill: #844b38;
      }

      .cls-7 {
        fill: #3a2624;
      }

      .cls-8 {
        fill: url(#linear-gradient);
        opacity: .5;
      }

      .cls-8, .cls-29, .cls-16, .cls-21, .cls-24, .cls-26 {
        isolation: isolate;
      }

      .cls-8, .cls-16, .cls-21, .cls-24, .cls-26 {
        mix-blend-mode: screen;
      }

      .cls-9 {
        fill: #354e6d;
      }

      .cls-10 {
        fill: #97543d;
      }

      .cls-11 {
        fill: #dba049;
      }

      .cls-12 {
        fill: #929fa8;
      }

      .cls-13 {
        fill: #70838e;
      }

      .cls-14 {
        fill: #ecb380;
      }

      .cls-15 {
        fill: #bac1e5;
      }

      .cls-16 {
        fill: url(#linear-gradient-2);
      }

      .cls-16, .cls-21, .cls-24, .cls-26 {
        opacity: .3;
      }

      .cls-17 {
        fill: #142530;
      }

      .cls-18 {
        fill: #46688c;
      }

      .cls-19 {
        fill: #ab584a;
      }

      .cls-20 {
        fill: #3d7ef7;
      }

      .cls-21 {
        fill: url(#linear-gradient-3);
      }

      .cls-22 {
        fill: #c4f5f5;
      }

      .cls-23 {
        fill: #488eb3;
      }

      .cls-24 {
        fill: url(#linear-gradient-5);
      }

      .cls-25 {
        fill: #a3add6;
      }

      .cls-30 {
        display: none;
      }

      .cls-26 {
        fill: url(#linear-gradient-4);
      }

      .cls-27 {
        fill: #844840;
      }

      .cls-28 {
        fill: #a8573f;
      }
    </style>
    <linearGradient id="linear-gradient" x1="809.9" y1="347.3" x2="809.9" y2="259.4" gradientTransform="translate(0 902) scale(1 -1)" gradientUnits="userSpaceOnUse">
      <stop offset=".2" stop-color="#72f2dc"/>
      <stop offset=".8" stop-color="#000"/>
    </linearGradient>
    <linearGradient id="linear-gradient-2" x1="620.1" y1="674.9" x2="747.3" y2="312.4" gradientTransform="translate(0 902) scale(1 -1)" gradientUnits="userSpaceOnUse">
      <stop offset="0" stop-color="#7dc3c5"/>
      <stop offset="1" stop-color="#000"/>
    </linearGradient>
    <linearGradient id="linear-gradient-3" x1="367.5" y1="631.6" x2="510.9" y2="414.7" gradientTransform="translate(0 902) scale(1 -1)" gradientUnits="userSpaceOnUse">
      <stop offset="0" stop-color="#7dc3c5"/>
      <stop offset="1" stop-color="#000"/>
    </linearGradient>
    <linearGradient id="linear-gradient-4" x1="-3413.8" y1="674.9" x2="-3286.6" y2="312.4" gradientTransform="translate(-2410.5 902) rotate(-180)" gradientUnits="userSpaceOnUse">
      <stop offset="0" stop-color="#7dc3c5"/>
      <stop offset="1" stop-color="#000"/>
    </linearGradient>
    <linearGradient id="linear-gradient-5" x1="-3659.1" y1="631.6" x2="-3515.7" y2="414.7" gradientTransform="translate(-2410.5 902) rotate(-180)" gradientUnits="userSpaceOnUse">
      <stop offset="0" stop-color="#7dc3c5"/>
      <stop offset="1" stop-color="#000"/>
    </linearGradient>
  </defs>
  <g class="cls-29">
    <g id="paul_stage" data-name="paul stage">
      <g id="background">
        <rect class="cls-20" width="1625" height="836.6"/>
        <rect class="cls-3" y="587.8" width="1625" height="315.8"/>
      </g>
      <g id="structure_right" data-name="structure right">
        <polygon class="cls-17" points="1394.6 197 1474.7 197 1475.9 177.7 1395.8 177.7 1394.6 197"/>
        <path class="cls-17" d="M1438.8,657.9h0c-1,0-1.7-.9-1.7-1.9l28.3-447.4h-63l-28.4,447.7c0,1-.9,1.7-1.9,1.7s-1.7-.9-1.7-1.9l28.6-451h70.1v1.9c0,0-28.6,449.3-28.6,449.3,0,.9-.8,1.7-1.8,1.7h.2Z"/>
        <polygon class="cls-17" points="1370.9 622.2 1378.3 622.2 1376.2 655.9 1368.7 655.9 1370.9 622.2"/>
        <path class="cls-17" d="M1373,652.2c-.5,0-1-.2-1.4-.6-.6-.8-.5-1.9.2-2.5l68-56-61.3-70.6,69.4-57.2-61.3-70.6,69.4-57.2-61.3-70.6,70.8-58.3c.8-.6,1.9-.5,2.5.2.6.8.5,1.9-.2,2.5l-68,56,61.3,70.6-69.4,57.2,61.3,70.6-69.4,57.2,61.3,70.6-70.8,58.3c-.3.3-.7.4-1.1.4Z"/>
        <polygon class="cls-17" points="1437.3 622.2 1444.7 622.2 1442.6 655.9 1435.1 655.9 1437.3 622.2"/>
        <polygon class="cls-17" points="1398.1 197 1471.1 197 1470.3 209.5 1397.3 209.5 1398.1 197"/>
      </g>
      <g id="structure_left" data-name="structure left">
        <polygon class="cls-17" points="229.7 197 149.5 197 148.3 177.7 228.4 177.7 229.7 197"/>
        <path class="cls-17" d="M251.9,657.9c-.9,0-1.7-.7-1.8-1.7l-28.4-447.7h-63l28.3,447.4c0,1-.7,1.8-1.7,1.9-1,0-1.8-.7-1.9-1.7l-28.6-451.2h70.1l28.6,451c0,1-.7,1.8-1.7,1.9h-.1.2Z"/>
        <polygon class="cls-17" points="253.4 622.2 245.9 622.2 248.1 655.9 255.5 655.9 253.4 622.2"/>
        <path class="cls-17" d="M251.2,652.2c-.4,0-.8,0-1.1-.4l-70.8-58.3,61.3-70.6-69.4-57.2,61.3-70.6-69.4-57.2,61.3-70.6-68-56c-.8-.6-.9-1.7-.2-2.5.6-.8,1.7-.9,2.5-.2l70.8,58.3-61.3,70.6,69.4,57.2-61.3,70.6,69.4,57.2-61.3,70.6,68,56c.8.6.9,1.7.2,2.5-.4.4-.9.6-1.4.6h0Z"/>
        <polygon class="cls-17" points="186.9 622.2 179.5 622.2 181.6 655.9 189.1 655.9 186.9 622.2"/>
        <polygon class="cls-17" points="226.1 197 153.1 197 153.9 209.5 226.9 209.5 226.1 197"/>
      </g>
      <g id="structure_top" data-name="structure top">
        <path class="cls-17" d="M1546.6,180H75.6v-32.2h1470.9v32.2h0ZM79.9,175.7h1462.4v-23.7H79.9v23.7Z"/>
        <path class="cls-17" d="M1448.7,180.1l-47.3-28-47.3,28-47.3-28-47.3,28-47.3-28-47.3,28-47.3-28-47.3,28-47.3-28-47.3,28-47.3-28-47.3,28-47.3-28-47.3,28-47.3-28-47.3,28-47.3-28-47.3,28-47.3-28-47.3,28-47.3-28-47.3,28-47.3-28-47.3,28-47.3-28-47.3,28-47.3-28-47.3,28-48.4-28.7c-1-.6-1.3-1.8-.7-2.8.6-1,1.8-1.3,2.8-.7l46.3,27.4,47.3-28,47.3,28,47.3-28,47.3,28,47.3-28,47.3,28,47.3-28,47.3,28,47.3-28,47.3,28,47.3-28,47.3,28,47.3-28,47.3,28,47.3-28,47.3,28,47.3-28,47.3,28,47.3-28,47.3,28,47.3-28,47.3,28,47.3-28,47.3,28,47.3-28,47.3,28,47.3-28,47.3,28,47.3-28,48.4,28.7c1,.6,1.3,1.8.7,2.8-.6,1-1.8,1.3-2.8.7l-46.3-27.4-47.3,28h0Z"/>
      </g>
      <g id="screen">
        <polygon class="cls-22" points="1305 547.1 314.8 547.1 295 249.2 1324.9 249.2 1305 547.1"/>
        <rect class="cls-1" x="294.9" y="244.8" width="1030" height="4.3"/>
      </g>
      <polygon id="stage" class="cls-23" points="1447.2 642.2 174.4 642.2 311.9 564.6 1309.8 564.6 1447.2 642.2"/>
      <polygon id="stage_highlight" data-name="stage highlight" class="cls-8" points="1305 574.7 314.8 574.7 172.7 642 1447.2 642 1305 574.7"/>
      <g id="stairs">
        <polygon class="cls-17" points="1448.2 642.3 174.1 642.3 184.6 717.5 1437.7 717.5 1448.2 642.3"/>
        <g>
          <polygon class="cls-17" points="176.2 656.1 430.8 656.1 429.6 642.4 174.3 642.4 176.2 656.1"/>
          <polygon class="cls-17" points="155.2 676.8 408.6 676.8 407.4 663.2 153.3 663.2 155.2 676.8"/>
          <polygon class="cls-17" points="134.4 697.3 386.6 697.3 385.4 683.8 132.4 683.8 134.4 697.3"/>
          <polygon class="cls-17" points="113.8 717.6 364.9 717.6 363.6 704.2 111.7 704.2 113.8 717.6"/>
          <polygon class="cls-18" points="407.4 663.2 430.8 656.1 176.2 656.1 153.3 663.2 407.4 663.2"/>
          <polygon class="cls-18" points="385.6 684 408.9 677 155.5 677 132.7 684 385.6 684"/>
          <polygon class="cls-18" points="362.9 704.2 386 697.3 133.7 697.3 111 704.2 362.9 704.2"/>
        </g>
        <g>
          <polygon class="cls-17" points="1445.9 656.1 1191.3 656.1 1192.5 642.4 1447.8 642.4 1445.9 656.1"/>
          <polygon class="cls-17" points="1466.9 676.8 1213.5 676.8 1214.7 663.2 1468.8 663.2 1466.9 676.8"/>
          <polygon class="cls-17" points="1487.7 697.3 1235.5 697.3 1236.7 683.8 1489.7 683.8 1487.7 697.3"/>
          <polygon class="cls-17" points="1508.3 717.6 1257.2 717.6 1258.5 704.2 1510.4 704.2 1508.3 717.6"/>
          <polygon class="cls-18" points="1214.7 663.2 1191.3 656.1 1445.9 656.1 1468.8 663.2 1214.7 663.2"/>
          <polygon class="cls-18" points="1236.5 684 1213.2 677 1466.6 677 1489.4 684 1236.5 684"/>
          <polygon class="cls-18" points="1259.2 704.2 1236.1 697.3 1488.4 697.3 1511.1 704.2 1259.2 704.2"/>
        </g>
      </g>
      <g id="light_left_2" data-name="light left 2">
        <path class="cls-16" d="M878.6,617.6l-.3-.5v-.2c0-1.1-.7-2.2-2.1-3.3l-258.2-427.9-67.3,16.6,87.1,411.2c-1.5,1.1-2.3,2.2-2.3,3.4,0,9.7,54.3,17.6,121.4,17.6s118.7-7.5,121.3-16.9h.4,0Z"/>
        <polygon class="cls-17" points="620.9 185.7 613.3 177.7 613.3 197.4 620.9 202.8 620.9 185.7"/>
        <rect class="cls-17" x="546.1" y="177.7" width="67.2" height="19.7"/>
        <polygon class="cls-9" points="546.1 197.4 553.6 202.3 620.9 202.3 613.3 197.4 546.1 197.4"/>
        <path class="cls-9" d="M613.3,198.3c-.5,0-.9-.4-.9-.9v-19.7c0-.5.4-.9.9-.9s.9.4.9.9v19.7c0,.5-.4.9-.9.9Z"/>
        <path class="cls-9" d="M566,193.6h-13.2c-.5,0-.9-.4-.9-.9s.4-.9.9-.9c13.2,0,48.3,0,51.4-.9,2.7-.9,2.6-8,2.4-10.5,0-.5.3-.9.8-.9s.9.3.9.8c0,1.1.9,10.8-3.6,12.3-2.8.9-24.2,1.1-38.8,1.1h0Z"/>
      </g>
      <g id="light_left_1" data-name="light left 1">
        <path class="cls-21" d="M718.3,617.6l-.3-.4v-.3c0-1.7-1.7-3.4-5-5L340.8,185.7l-67.3,16.6,203.4,411.7c-1.1.9-1.7,1.9-1.7,2.9,0,9.7,54.3,17.6,121.4,17.6s118.7-7.5,121.3-16.9h.4Z"/>
        <polygon class="cls-25" points="340.8 185.7 333.2 177.7 333.2 197.4 340.8 202.8 340.8 185.7"/>
        <rect class="cls-25" x="266" y="177.7" width="67.2" height="19.7"/>
        <polygon class="cls-15" points="266 197.4 273.5 202.3 340.8 202.3 333.2 197.4 266 197.4"/>
        <path class="cls-15" d="M333.2,198.3c-.5,0-.9-.4-.9-.9v-19.7c0-.5.4-.9.9-.9s.9.4.9.9v19.7c0,.5-.4.9-.9.9Z"/>
        <polygon class="cls-17" points="340.8 185.7 333.2 177.7 333.2 197.4 340.8 202.8 340.8 185.7"/>
        <rect class="cls-17" x="266" y="177.7" width="67.2" height="19.7"/>
        <polygon class="cls-9" points="266 197.4 273.5 202.3 340.8 202.3 333.2 197.4 266 197.4"/>
        <path class="cls-9" d="M333.2,198.3c-.5,0-.9-.4-.9-.9v-19.7c0-.5.4-.9.9-.9s.9.4.9.9v19.7c0,.5-.4.9-.9.9Z"/>
        <path class="cls-9" d="M299.9,194.4c-13.2,0-26.8-.9-27-.9-.5,0-.8-.4-.8-.9s.4-.8.9-.8,30.9,1.9,44.6,0c4.3-.6,7.1-2.1,8.3-4.4,1.7-3.1,0-6.7,0-6.8-.2-.4,0-.9.4-1.2.4-.2.9,0,1.2.4,0,.2,2.1,4.5,0,8.3-1.5,2.8-4.8,4.6-9.6,5.3-4.6.7-11.2.9-17.9.9h-.1Z"/>
      </g>
      <g id="light_right_2" data-name="light right 2">
        <path class="cls-26" d="M744.8,617.6l.3-.5v-.2c0-1.1.7-2.2,2.1-3.3l258.2-427.9,67.3,16.6-87.1,411.2c1.5,1.1,2.3,2.2,2.3,3.4,0,9.7-54.3,17.6-121.4,17.6s-118.7-7.5-121.3-16.9h-.4,0Z"/>
        <polygon class="cls-17" points="1002.4 185.7 1010 177.7 1010 197.4 1002.4 202.8 1002.4 185.7"/>
        <rect class="cls-17" x="1010.1" y="177.7" width="67.2" height="19.7"/>
        <polygon class="cls-9" points="1077.3 197.4 1069.7 202.3 1002.4 202.3 1010 197.4 1077.3 197.4"/>
        <path class="cls-9" d="M1010,198.3c-.5,0-.9-.4-.9-.9v-19.7c0-.5.4-.9.9-.9s.9.4.9.9v19.7c0,.5-.4.9-.9.9Z"/>
        <path class="cls-9" d="M1057.4,193.6c-14.6,0-36-.2-38.8-1.1-4.5-1.5-3.7-11.2-3.6-12.3,0-.5.5-.8.9-.8s.8.5.8.9c-.2,2.4-.3,9.6,2.4,10.5,3.2,1,38.2,1,51.4.9.5,0,.9.4.9.9s-.4.9-.9.9h-13.2,0Z"/>
      </g>
      <g id="light_right_1" data-name="light right 1">
        <path class="cls-24" d="M897.8,617.6l.3-.4v-.3c0-1.7,1.7-3.4,5-5l372.2-426.2,67.3,16.6-203.4,411.7c1.1.9,1.7,1.9,1.7,2.9,0,9.7-54.3,17.6-121.4,17.6s-118.7-7.5-121.3-16.9h-.4Z"/>
        <polygon class="cls-25" points="1275.3 185.7 1283 177.7 1283 197.4 1275.3 202.8 1275.3 185.7"/>
        <rect class="cls-25" x="1282.9" y="177.7" width="67.2" height="19.7"/>
        <polygon class="cls-15" points="1350.2 197.4 1342.7 202.3 1275.3 202.3 1283 197.4 1350.2 197.4"/>
        <path class="cls-15" d="M1283,198.3c-.5,0-.9-.4-.9-.9v-19.7c0-.5.4-.9.9-.9s.9.4.9.9v19.7c0,.5-.4.9-.9.9Z"/>
        <polygon class="cls-17" points="1275.3 185.7 1283 177.7 1283 197.4 1275.3 202.8 1275.3 185.7"/>
        <rect class="cls-17" x="1282.9" y="177.7" width="67.2" height="19.7"/>
        <polygon class="cls-9" points="1350.2 197.4 1342.7 202.3 1275.3 202.3 1283 197.4 1350.2 197.4"/>
        <path class="cls-9" d="M1283,198.3c-.5,0-.9-.4-.9-.9v-19.7c0-.5.4-.9.9-.9s.9.4.9.9v19.7c0,.5-.4.9-.9.9Z"/>
        <path class="cls-9" d="M1316.2,194.4c-6.7,0-13.2-.2-17.9-.9-4.9-.7-8.1-2.5-9.6-5.3-2.1-3.9,0-8.1,0-8.3.2-.4.7-.6,1.2-.4.4.2.6.7.4,1.2h0s-1.7,3.7,0,6.8c1.2,2.3,4,3.8,8.3,4.4,13.7,1.9,44.2,0,44.6,0s.9.3.9.8-.3.9-.8.9-13.8.9-27,.9h0Z"/>
      </g>
      <g id="seats">
        <g>
          <g class="cls-30">
            <path class="cls-14" d="M1420,725l-26,1.1,2.9-14.6,14.9-5.2s3.1,17.9,8.2,18.6h0Z"/>
            <path class="cls-14" d="M937.4,691.5s-4-2.1-4.7,1.1c-.7,3.2,1.1,10.6,2.2,12s3.6,2.5,3.6,2.5l1.8-1.4-2.9-14.1h0Z"/>
            <path class="cls-14" d="M977.4,691.5s4-2.1,4.7,1.1c.7,3.2-1.1,10.6-2.2,12-1.1,1.4-3.6,2.5-3.6,2.5l-1.8-1.4,2.9-14.1h0Z"/>
            <path class="cls-14" d="M526.5,692.7s1.5-1.6,2.9-1,0,6.4-.8,7.2-2.1.4-2.1.4v-6.7h0Z"/>
            <path class="cls-14" d="M520,673.1s5.9,7.2,6.3,14.8c.4,7.6.2,16.6-.5,18.6s-5.6,11.2-7.1,11.9-5.3,1.5-7.5.7-10.2-5.6-11.5-7.4c-1.3-1.8-2.8-8-2.8-8,0,0-1.1.5-3.4-.5s-4-6.9-2.7-8.7c1.4-1.8,4.3-.6,5.1.7,0,0,2.9.3,3-.4,0-.7-2.4-9.3-.9-12.9,0,0,4.9.6,8.3-.4,3.4-1.1,13.7-8.4,13.7-8.4h0Z"/>
            <g>
              <path class="cls-11" d="M316.2,754.5s6.5-27.5,15.2-31.7,18.8-7,18.8-7l5-14.7,15.4.5s2.7,12.1,7.8,12.8c5.1.7,17,.5,22.2,4.8s14.6,36,14.6,36l-99.1-.7h.1Z"/>
              <g>
                <path class="cls-6" d="M393.1,729l-31.8,18-2.4-9.4-6.9-26.9-.5-1.8,2.8-4.9,1.7-3,19.8-35.5s3.1-1,6.1,1.7c2.6,2.4,6,16.5,5.9,31.4,0,1.2,0,2.4-.1,3.5-.3,5.1.1,9.4.8,13.1,1.6,9,4.8,13.8,4.8,13.8h-.2Z"/>
                <path class="cls-6" d="M361.3,701.2l-2.3,5.6s1.1,15.8,0,28.2c0,.8-.1,1.6-.2,2.6-.5,4.4-1.2,10.6-2.1,17.2-1.9,14.7-4.2,31-4.2,31-4.5-.8-9.9-5.6-13.8-9.7,1.6-6.1,2.9-14,3.4-17.4-1.8,4.6-3.8,9.3-6.1,14.5-1.5-1.7-2.4-2.9-2.4-2.9,0,0,2.2-7.1,4.6-15.6.7-2.4,1.3-4.8,1.9-7.3,1.2-4.5,1.6-16.2,1.8-29,.4-18.9.5-40.2,2.4-44,2-3.9,10.3-8.8,17-12,4.1-2,7.7-3.4,8.9-3.5,3-.3,5.2,6.2,5.3,6.6h0l-14.3,35.7h.1Z"/>
                <path class="cls-2" d="M346.5,768.1h-.1c-.3,0-.5-.4-.4-.7,0-.2,3.1-15.6,2.9-28,0-3.9-.4-10.1-.7-17.2-.7-15.8-1.6-35.4-.8-42.3,1.2-10.1,14.1-13,14.7-13.2.3,0,.6,0,.7.4,0,.3-.1.6-.4.7-.1,0-12.6,2.9-13.8,12.2-.8,6.8,0,26.3.8,42.1.3,7.1.6,13.3.7,17.2.2,12.6-2.9,28.1-2.9,28.3,0,.3-.3.5-.6.5h-.1Z"/>
              </g>
            </g>
            <path class="cls-28" d="M270.1,765.8l-99.1-.7s6.5-27.5,15.2-31.7,18.8-7,18.8-7l5-14.7,15.4.6s2.6,11.7,7.5,12.7h.8c5.4.6,16.6.6,21.6,4.8,5.2,4.3,14.6,36,14.6,36h.2Z"/>
            <path class="cls-12" d="M563.1,765.8l-99.1-.7s6.5-27.5,15.2-31.7,18.8-7,18.8-7l5-14.7,15.4.6s2.7,12.1,7.8,12.8,17,.5,22.2,4.8,14.6,36,14.6,36h.1Z"/>
            <path class="cls-4" d="M613,765.1s6.5-27.5,15.2-31.7,18.8-7,18.8-7l5-14.7,15.4.5s2.7,12.1,7.8,12.8,17,.5,22.2,4.8,14.6,36,14.6,36l-99.1-.7h0Z"/>
            <path class="cls-28" d="M761.9,765.1s6.5-27.5,15.2-31.7,18.8-7,18.8-7l5-14.7,15.4.5s2.7,12.1,7.8,12.8,17,.5,22.2,4.8,14.6,36,14.6,36l-99.1-.7h0Z"/>
            <path class="cls-12" d="M1208.8,765.1s6.5-27.5,15.2-31.7,18.8-7,18.8-7l5-14.7,15.4.5s2.7,12.1,7.8,12.8c5.1.7,17,.5,22.2,4.8s14.6,36,14.6,36l-99.1-.7h0Z"/>
            <path class="cls-11" d="M1456.9,765.8l-99.1-.7s6.5-27.5,15.2-31.7,21-7.4,21-7.4l26-1.1c5.1.7,17,.5,22.2,4.8s14.6,36,14.6,36h.1Z"/>
            <path class="cls-14" d="M233,724.9c-8-1.2-28,1.4-28,1.4l5-14.7,15.4.6s2.6,11.7,7.5,12.7h.1Z"/>
            <path class="cls-14" d="M233.8,725.1h-.6.6Z"/>
            <path class="cls-7" d="M238.5,706.1c-.9,3.4-1.6,5.7-1.6,5.7,0,0-5.6,5.1-8.8,7.6s-20.8-.9-20.8-.9c0,0-7-5.1-9.9-15.5s1.4-31,6.3-35.2c4.8-4.2,17.4-.9,17.4-.9,6-3.5,17.3-.4,20.2,10.8,2,7.7-.8,20.9-2.7,28.4h0Z"/>
            <path class="cls-4" d="M1007.7,765.8l-99.1-.7s6.5-27.5,15.2-31.7,18.8-7,18.8-7l5-14.7,15.4.6s2.6,11.7,7.5,12.7h.8c5.4.6,16.6.6,21.6,4.8,5.2,4.3,14.6,36,14.6,36h.2Z"/>
            <path class="cls-14" d="M970.6,724.9c-8-1.2-28,1.4-28,1.4l5-14.7,15.4.6s2.6,11.7,7.5,12.7h0Z"/>
            <path class="cls-7" d="M975.4,704.5s-4.7,11.5-8,14.1c-3.2,2.5-22.5,0-22.5,0,0,0-6-9.6-8.9-20.1-2.1-7.4,0-17.5,3.1-24.2,1.3-2.7,2.7-4.9,4.1-6.2,4.8-4.2,15.4-1.2,15.4-1.2,4.5-2.6,8.5-2,13.1,3.1,1.5,1.7,3.1,3.8,4.8,6.5,6.2,9.9-1.1,27.9-1.1,27.9h0Z"/>
            <path class="cls-2" d="M383.2,704.3c-.2,0-.4,0-.5-.3-1.4-2.3-1.6-5.1-1.7-7.8,0-.9,0-1.8-.1-2.8-.3-6.5-.5-13.2-3.3-19.1-.1-.3,0-.6.3-.8.3,0,.6,0,.8.3,2.9,6.1,3.2,12.9,3.4,19.5,0,.9,0,1.8.1,2.8.1,2.6.3,5.1,1.6,7.2.2.3,0,.6-.2.8h-.3v.2Z"/>
            <path class="cls-2" d="M379.2,724.7c-.2,0-.4,0-.5-.3-7.2-11.3-10.2-24.8-8.7-38,0-.3.3-.5.6-.5s.5.3.5.6c-1.5,12.9,1.5,26.2,8.5,37.2.2.3,0,.6-.2.8h-.3v.2Z"/>
            <path class="cls-2" d="M371.9,678.3c-.3,0-.6-.2-.6-.6,0-2.7-1.1-5.4-3.1-7.4s-.2-.6,0-.8.6-.2.8,0c2.1,2.2,3.3,5.2,3.4,8.2,0,.3-.2.6-.6.6h.1Z"/>
            <path class="cls-2" d="M366.8,706.8h0c-.3,0-.5-.3-.5-.6l.8-6.4c.8-6.6,1.9-14.8-1.6-21.5-.1-.3,0-.6.2-.8.3,0,.6,0,.8.2,3.6,7,2.6,15.4,1.7,22.2l-.8,6.4c0,.3-.3.5-.6.5h0Z"/>
            <path class="cls-14" d="M526.2,725c-12.5-1.1-28.2,1.4-28.2,1.4l5-14.7,15.4.6s2.7,12.1,7.8,12.8h0Z"/>
            <path class="cls-6" d="M530.7,680c0,.2,0,.4-.2.6-.6,1.7-2.3,3.9-2.3,3.9,0,0,0,5.6,0,6.6-.2,2.3-4.5,22-4.5,22l-4.2,1.4c-5,3-11.1,3.5-16.5,1.4l-5.4-2.1-4.5-15.8s-.5-11.5-.5-13.2.1-3.2.1-3.2c0,0-3.4-2.2-3.6-3.7-.2-1.4,7.7-9,10.2-11,1.2-1,2.5-1.7,3.9-2.4,5.1-2.3,10.5-2.5,11.5-2,1.2.6,4.4,3.3,4.6,3.5h0s2.5-1,4.3-.6,7.2,13,7,14.6h.1Z"/>
            <path class="cls-12" d="M1159,765.8l-99.1-.7s6.5-27.5,15.2-31.7,18.8-7,18.8-7l5-14.7,15.4.6s2.7,12.1,7.8,12.8c5.1.7,17,.5,22.2,4.8s14.6,36,14.6,36h0Z"/>
            <path class="cls-14" d="M1122.1,725c-12.5-1.1-28.2,1.4-28.2,1.4l5-14.7,15.4.6s2.7,12.1,7.8,12.8h0Z"/>
            <path class="cls-6" d="M1124,681.5s0,1.5,0,3.2c0,1.7-.5,13.2-.5,13.2l-4.5,15.8-5.4,2.1c-5.4,2.2-11.6,1.6-16.5-1.4l-4.2-1.4s-5.2-19.8-5.5-22.1v-6.6s-.6-1.3-1-2.7c-.2-.6-.3-1.2-.4-1.7-.9-7.9,8.9-14.8,10.7-15.2,1.8-.4,4.3.6,4.3.6h0c.2-.2,3.4-2.9,4.6-3.5s1.1-.2,2,0c2.2.4,5.7,1.8,9.6,5,2.5,2,10.4,9.5,10.2,11-.2,1.4-3.6,3.7-3.6,3.7h.1Z"/>
            <path class="cls-19" d="M694,721.9c-.7,8.5-1.4,35.9-1.4,35.9h-59.3s-1.4-34.5-1.4-45.8,8.7-43,12.3-47.2,13-3.5,13-3.5h0c.2,0,9.5-4.9,15.9-2.8,6.5,2.1,15.2,12.7,15.9,20.4.6,6.1,3.9,24.1,4.9,35.6.3,3,.4,5.6.2,7.4h-.1Z"/>
            <path class="cls-6" d="M840.4,697.5c0,.6-.2,1.3-.3,2-1.7,9.8-7.1,24.5-7.1,24.5,0,0-1.9.9-4.8,1.9l2.7-12.8-7.4,14.4c-4.2,1.3-9,2.5-12.8,2.5-5.9,0-14-2.3-18.5-3.7l-5-13.2,2.8,12.5c-.8-.3-1.2-.4-1.2-.4,0,0-9.5-14.9-9.5-23.3s10.3-36.1,10.3-36.1c4.9-8.4,12.4-3.6,16.1-4.8,3.7-2.8,15.3-6,23.9,2.4,8.7,8.4,12,24.5,10.7,34.1h0Z"/>
            <path class="cls-2" d="M830.9,691.5c-.3,0-.6-.3-.6-.6,0-4.4-.3-8.9-1.5-13.1-1.3-4.7-3.9-8.4-7.2-10.5-2.1-1.3-4.6-2.1-7.1-2.2-.4,0-.6-.3-.6-.7s.3-.6.7-.6c2.8,0,5.5.9,7.8,2.4,3.6,2.3,6.3,6.3,7.7,11.3,1.2,4.4,1.4,9,1.5,13.4,0,.4-.3.7-.6.7h-.1Z"/>
            <path class="cls-2" d="M821.4,721h-.2c-.3,0-.5-.5-.4-.8,2-6.4,4-13,4.6-19.7.7-7.4-.4-14.2-3.3-19.4-.2-.3,0-.7.3-.9s.7,0,.9.3c3,5.5,4.2,12.5,3.5,20.2-.7,6.9-2.7,13.5-4.7,20,0,.3-.3.5-.6.5v-.2Z"/>
            <path class="cls-2" d="M784.8,694h0c-.4,0-.6-.4-.6-.7.7-6.1,1.8-12.2,3.3-18.2.5-2.2,1.2-4.4,2.5-6.4,1.5-2.2,3.7-3.7,6-3.8.4,0,.7.2.7.6s-.2.7-.6.7c-1.9.2-3.7,1.4-5,3.3-1.2,1.8-1.8,3.8-2.3,6-1.5,5.9-2.6,12-3.3,18,0,.3-.3.6-.6.6h-.1Z"/>
            <path class="cls-2" d="M793.7,717.7c-.2,0-.4,0-.5-.3-3.9-5.5-4.6-11.9-4.4-16.3.2-6.1,1.9-12,3.4-16.5,0-.3.5-.5.8-.4s.5.5.4.8c-1.5,4.4-3.2,10.2-3.3,16.1,0,4.2.5,10.3,4.2,15.5.2.3,0,.7-.2.9,0,0-.2,0-.4,0h0Z"/>
            <path class="cls-2" d="M800,688.6h-.2c-.3,0-.5-.5-.4-.8.8-2.7,1-5.6,1.3-8.4.4-4.7.9-9.5,3.6-13.5.2-.3.6-.4.9-.2.3.2.4.6.2.9-2.5,3.7-2.9,8.2-3.4,12.9-.3,2.9-.5,5.8-1.3,8.6,0,.3-.3.5-.6.5h0Z"/>
            <path class="cls-2" d="M808.2,683.2h0c-.4,0-.6-.3-.6-.7.3-3.4,0-6.8-.5-10.1,0-.3.2-.7.5-.8.3,0,.7.2.8.5.7,3.4.8,6.9.5,10.4,0,.3-.3.6-.6.6h-.1Z"/>
            <path class="cls-27" d="M636,737.2h0c-.4,0-.7-.4-.7-.8.8-20.6,1.7-43.9,12.3-63.6.2-.4.7-.5,1-.3.4.2.5.7.3,1-10.4,19.4-11.3,42.5-12.1,62.9,0,.4-.3.7-.8.7h0Z"/>
            <path class="cls-27" d="M651.6,699.6h0c-.4,0-.7-.4-.7-.8.5-8.1.7-16.3.4-24.3,0-.4.3-.8.7-.8s.8.3.8.7c.2,8.1,0,16.4-.4,24.5,0,.4-.4.7-.8.7h0Z"/>
            <path class="cls-27" d="M683.6,721.9c-.3,0-.6-.2-.7-.5-2.3-7.7-3.6-15.7-3.8-23.7v-5.4c0-5.4,0-11-1.5-16.2-1.8-6.2-7.1-13.2-14.5-13.7-.4,0-.7-.4-.7-.8s.4-.7.8-.7c8.2.5,13.8,7.8,15.9,14.7,1.6,5.4,1.5,11.1,1.5,16.6v5.3c.2,7.9,1.5,15.7,3.8,23.3,0,.4,0,.8-.5.9h-.2v.2Z"/>
            <path class="cls-27" d="M678.7,734.3c-.4,0-.7-.3-.8-.7,0-11.9-1.5-23.9-4-35.5,0-.4.2-.8.6-.9.4,0,.8.2.9.6,2.6,11.8,4,23.8,4.1,35.8,0,.4-.3.8-.7.8h0Z"/>
            <path class="cls-27" d="M668.4,714.6c-.4,0-.8-.3-.8-.8v-30.5c0-.4.3-.8.8-.8s.8.3.8.8v30.5c0,.4-.3.8-.8.8Z"/>
            <path class="cls-27" d="M647.1,750.8h0c-.4,0-.8-.3-.8-.8,0-13.5-.2-27.3-.6-40.8,0-.4.3-.8.7-.8s.8.3.8.7c.4,13.6.7,27.3.6,40.9,0,.4-.3.8-.8.8h0Z"/>
            <path class="cls-7" d="M1288.4,719c-.5,2.8,5.1,2.3,5.3,5.6.2,3.3-4.8,7.5-4.8,7.5l-30.3,7.6-26-4.2h0c-.4-.6-14.2-20.3-12.5-25.8,1.7-5.6,7.7-7.7,7.7-12.2s6.8-31.3,10.4-35.1,12-5.2,20,3h0s10.6-.7,13.7,2.1,9.5,20.5,13.3,26.8c3.9,6.3,11.1,6.3,12.1,12.7,1,6.3-8.4,9.1-8.8,11.9h0Z"/>
            <path class="cls-10" d="M1430.8,667.1c0,1.8-1.9,3.2-4,3.7-.3,0-.6.2-.9.3-1.2.6-1.9,1.5-2.7,1.5s-.4,0-.5,0c-1.3-.7-9.8-11.8-9.8-11.8l-6-2.4h0c-.2-.3-1.3-2.9,1.6-4.1,0,0,.7-1,1.8-2.1,1.5-1.4,3.9-2.8,6.7-1.7,1.2.5,2.1,1.3,2.9,2.3,1.9,2.4,2.6,5.6,2.6,5.6,0,0,8.2,7,8.2,8.8h.1Z"/>
            <path class="cls-14" d="M1391.7,669.2s-4.1-.8-6.1,2.2-5.8,9.7-6.3,12.2c-.5,2.6,0,15.7.9,19.9.9,4.1,5.1,11.6,6.3,12.6,1.2,1,5.1,1.5,7.2.8s11.3-5.2,13.2-7.5c2-2.3,3.9-7.1,3.9-7.1,0,0-4.5-6.7-4.8-11.7-.3-4.9.7-14.2-.2-16.4-.9-2.1-5.7-6-7.6-6s-6.6,1-6.6,1h0Z"/>
            <path class="cls-10" d="M1426.4,699.6c-.8,1.3-2.8,2.4-4.7,3.2-2.1.9-4,1.4-4,1.4,0,0-.5,3.5-2.2,6.2s-4.4,6.1-4.4,9.6,6,6.2,6,6.2c0,0-3.9.5-5.6-.7s-1.4-7.7.3-14c.2-.9.5-1.7.7-2.4h0c1.2-4.4,1.3-5.8.3-7.3-1.3-1.8-5.8-5.4-6.4-11.2-.7-5.8-1.2-14.9-2.5-16.5s-5.4-5-7.7-4.7c-1.7.3-4.4,1.1-5.7,1.5-.5,0-.8.2-.8.2,0,0-.5-2.4-.7-3.9v-.8c0-.4,0-.9.4-1.6.6-1.5,1.7-3.4,2.5-3.9,1.2-.7,7.9-2.3,10.9-1.7h0c0,0,1.2-.5,2.6-.8.5,0,1-.2,1.5-.2h0c.8,0,1.7,0,2.6,0,3.3.4,9.5,2.7,11.4,6.4.7,1.4,1.5,4.6,2.3,8,1.2,5.3,2.5,11.3,3.5,13,1.7,2.9,1.4,11.3-.3,14h0Z"/>
            <path class="cls-10" d="M1416.1,698.4c0,1.7-1.2,5.6-3.5,10.6h0c-2.4,4.9-10.3.7-16.7.7s-9.8,5.1-13.9,7.9c-3.8,2.7-3,7.4-2.9,7.9-.2-.7-2.8-9.2-1.7-14,1.2-5.1,6.9-6.2,9.8-11.3s.6-7.9-2.9-13c-1.4-2.1-3.4-4.5-4.8-7.1-2-3.8-2.8-7.8,1.3-11.5,3-2.7,6-3.6,8.4-3.7,1.7,0,3.1,0,4.1.4.9.2,1.4.5,1.4.5,0,0,14.5,11.3,16.8,14.7s4.6,16.3,4.6,18h0Z"/>
            <path class="cls-5" d="M239.3,690.9c.5-5.6-1.4-16.7-6.3-21.1-4.8-4.5-12.1-2.8-12.1-2.8,6-3.5,17.3-.4,20.2,10.8,2,7.7-.8,20.9-2.7,28.4.2-4.5.5-11.6.8-15.3h.1Z"/>
            <path class="cls-5" d="M375.7,665.5c-2.5-5.6-10.7-4.1-14.2-3.1,4.1-2,7.7-3.4,8.9-3.5,3-.3,5.2,6.2,5.3,6.6h0Z"/>
            <path class="cls-5" d="M387.7,698.6c-1.1-5.3-4.1-20.1-4.9-26-1-7.3-7.1-7.1-7.1-7.1,0,0,3.1-1,6.1,1.7,2.6,2.4,6,16.5,5.9,31.4h0Z"/>
            <path class="cls-5" d="M514.8,662.5c1.2.6,4.4,3.3,4.6,3.5-.2,0-3.2-1.1-5.1-2.4-1.4-.9-7.3,0-10.9.9,5.1-2.3,10.5-2.5,11.5-2h-.1Z"/>
            <path class="cls-5" d="M530.7,680c0,.2,0,.4-.2.6-.9-2.3-6-12.9-7.2-13.7-1.3-.9-3.8-.9-3.9-.9,0,0,2.5-1,4.3-.6s7.2,13,7,14.6h0Z"/>
            <path class="cls-5" d="M693.7,714.5c-1.2-4.5-7.2-26.9-8.5-34.9-1.4-8.9-5.3-10.8-10.1-16s-18.1-2.3-18.1-2.3h0c.2,0,9.5-4.9,15.9-2.8,6.5,2.1,15.2,12.7,15.9,20.4.6,6.1,3.9,24.1,4.9,35.6h0Z"/>
            <path class="cls-5" d="M840.4,697.5c0,.6-.2,1.3-.3,2-1.9-9.2-5.2-24.7-6.8-27.7-2.4-4.3-9.9-10.3-13.3-11.7-3.4-1.4-14.2.9-14.2.9,3.7-2.8,15.3-6,23.9,2.4,8.7,8.4,12,24.5,10.7,34.1h0Z"/>
            <path class="cls-5" d="M971.7,670c-2.4-1.3-5.9-3-7.3-3-2.2,0-4.8,3.2-4.8,3.2,0,0-7.8-2.9-13.1-1.3-2.8.9-5.4,3.2-7.4,5.3,1.3-2.7,2.7-4.9,4.1-6.2,4.8-4.2,15.4-1.2,15.4-1.2,4.5-2.6,8.5-2,13.1,3.1h0Z"/>
            <path class="cls-5" d="M1101.2,665.4s-6.1,2.5-10.7,8.6c-2.2,2.9-3,4.3-3.8,7.8-.2-.6-.3-1.2-.4-1.7-.9-7.9,8.9-14.8,10.7-15.2,1.8-.4,4.3.6,4.3.6h0Z"/>
            <path class="cls-5" d="M1107.8,661.9l-6.6,3.5c.2-.2,3.4-2.9,4.6-3.5s1.1-.2,2,0Z"/>
            <path class="cls-5" d="M1258.1,665.4c-.3,0-10.8-6-14.6-2.3-3.9,3.8-11.6,31.9-12.5,33.8-1,1.9-9.6,8.5-8.2,13.1s9.5,24.8,9.7,25.4c-.4-.6-14.2-20.3-12.5-25.8,1.7-5.6,7.7-7.7,7.7-12.2s6.8-31.3,10.4-35.1,12-5.2,20,3h0Z"/>
            <path class="cls-5" d="M1420,652.7c-1.2.3-2.4.6-3.3.6-2.4,0-2.9,2.3-4.8,1.9-1.8-.4-4.6,2.7-4.9,3.1h0s-5.7,3-7.6,3-4.5,2.6-6,4c-.5.4-.8.7-.8.7,0,0-1.6.5-3.6,1.2-1.7.6-3.7,1.4-5.1,2.1-2.9,1.4-4.3,10.8-4.3,10.8h0c-2-3.8-2.8-7.8,1.3-11.5,3-2.7,6-3.6,8.4-3.7.6-1.5,1.7-3.4,2.5-3.9,1.2-.7,7.9-2.3,10.9-1.7h0c0,0,1.2-.5,2.6-.8.5,0,1-.2,1.5-.2-.2-.3-1.3-2.9,1.6-4.1,0,0,.7-1,1.8-2.1,1.5-1.4,3.9-2.8,6.7-1.7,1.2.5,2.1,1.3,2.9,2.3h.2Z"/>
          </g>
          <g>
            <path class="cls-9" d="M283.8,836.1h-115.3l-14.1-75.3c-1.6-6.8,3.4-12.6,10.8-12.6h98.1c7.4,0,13.9,5.8,14.2,12.6l1.9,22.5,4.4,52.8Z"/>
            <path class="cls-9" d="M430,836.1h-115.3l-11.6-75.3c-1.3-6.8,3.8-12.6,11.2-12.6h98.1c7.4,0,13.7,5.8,13.8,12.6l1.2,23.1,2.6,52.3h0Z"/>
            <path class="cls-9" d="M576.3,836.1h-115.3l-9-75.3c-1.1-6.8,4.3-12.6,11.7-12.6h98.1c7.4,0,13.5,5.8,13.4,12.6l.3,19.2.9,56.1h-.1Z"/>
            <path class="cls-9" d="M723.9,760.8l-.3,17.2-1,58.1h-115.3l-6.5-75.3c-.9-6.8,4.7-12.6,12.1-12.6h98.1c7.4,0,13.3,5.8,12.9,12.6Z"/>
            <path class="cls-9" d="M872.7,760.5h0v.3l-3.9,75.3h-115.3l-3.9-74.9v-.4c-.6-6.8,5.1-12.6,12.5-12.6h98.1c7.3,0,13,5.7,12.5,12.4h0Z"/>
            <path class="cls-9" d="M1009.4,748.1h-98.1c-7.4,0-13.3,5.8-12.9,12.6l1.4,75.3h115.3l6.5-75.3c.9-6.8-4.7-12.6-12.1-12.6h-.1Z"/>
            <path class="cls-9" d="M1158.6,748.1h-98.1c-7.4,0-13.5,5.8-13.4,12.6l-1.2,75.3h115.3l9-75.3c1.1-6.8-4.3-12.6-11.7-12.6h0Z"/>
            <path class="cls-9" d="M1307.9,748.1h-98.1c-7.4,0-13.7,5.8-13.8,12.6l-3.8,75.3h115.3l11.6-75.3c1.3-6.8-3.8-12.6-11.2-12.6Z"/>
            <path class="cls-9" d="M1457.1,748.1h-98.1c-7.4,0-13.9,5.8-14.2,12.6l-6.3,75.3h115.3l14.1-75.3c1.6-6.8-3.4-12.6-10.8-12.6Z"/>
            <path class="cls-5" d="M279.4,783.3h0s-2-9.7-5.8-22.7c-3.4-11.6-34.6-12.3-43.4-12.4h33.1c7.4,0,13.9,5.8,14.2,12.6l1.9,22.5h0Z"/>
            <path class="cls-5" d="M427.4,783.8c-.3-2.7-2.1-16.3-5.1-21.9-6.7-12.5-34.8-13.5-43.6-13.7h33.8c7.4,0,13.7,5.8,13.8,12.6l1.2,23.1h0Z"/>
            <path class="cls-5" d="M575.4,779.9c-.8-5.2-2.3-13.8-4.6-18.1-6.7-12.5-34.8-13.5-43.6-13.7h34.6c7.4,0,13.5,5.8,13.4,12.6l.3,19.2h-.1Z"/>
            <path class="cls-5" d="M723.9,760.8l-.3,17.2c-.9-5.2-2.3-12.4-4.3-16.1-6.7-12.5-34.8-13.5-43.6-13.7h35.3c7.4,0,13.3,5.8,12.9,12.6h0Z"/>
            <path class="cls-5" d="M1342.9,783.3h0s2-9.7,5.8-22.7c3.4-11.6,34.6-12.3,43.4-12.4h-33.1c-7.4,0-13.9,5.8-14.2,12.6l-1.9,22.5h0Z"/>
            <path class="cls-5" d="M1194.8,783.8c.3-2.7,2.1-16.3,5.1-21.9,6.7-12.5,34.8-13.5,43.6-13.7h-33.8c-7.4,0-13.7,5.8-13.8,12.6l-1.2,23.1h.1Z"/>
            <path class="cls-5" d="M1046.9,779.9c.8-5.2,2.3-13.8,4.6-18.1,6.7-12.5,34.8-13.5,43.6-13.7h-34.6c-7.4,0-13.5,5.8-13.4,12.6l-.3,19.2h.1Z"/>
            <path class="cls-5" d="M898.4,760.8l.3,17.2c.9-5.2,2.3-12.4,4.3-16.1,6.7-12.5,34.8-13.5,43.6-13.7h-35.3c-7.4,0-13.3,5.8-12.9,12.6h0Z"/>
            <path class="cls-5" d="M872.7,760.5c-7.9-11.2-34.3-12.2-42.8-12.4h30.3c7.3,0,13,5.7,12.5,12.4Z"/>
            <path class="cls-5" d="M792.8,748.1c-8.6.2-35.9,1.2-43.2,13v-.4c-.6-6.8,5.1-12.6,12.5-12.6h30.7Z"/>
          </g>
        </g>
        <g>
          <g class="cls-30">
            <path class="cls-14" d="M1169.4,756.3l-29.7,1.2,3.3-16.6,17-5.9s3.6,20.4,9.3,21.2h0Z"/>
            <path class="cls-14" d="M671.8,718.1s4.5-2.4,5.4,1.2c.8,3.6-1.2,12-2.5,13.6-1.2,1.6-4.1,2.8-4.1,2.8l-2.1-1.6,3.3-16.1h0Z"/>
            <path class="cls-14" d="M626.3,718.1s-4.5-2.4-5.4,1.2c-.8,3.6,1.2,12,2.5,13.6,1.2,1.6,4.1,2.8,4.1,2.8l2.1-1.6-3.3-16.1h0Z"/>
            <path class="cls-14" d="M970.4,719.5s-1.7-1.8-3.3-1.1,0,7.2.9,8.2,2.4.5,2.4.5v-7.6h0Z"/>
            <path class="cls-14" d="M977.8,697.1s-6.7,8.2-7.2,16.8-.2,18.9.6,21.2,6.4,12.7,8.1,13.5c1.7.8,6,1.7,8.6.8,2.5-.9,11.6-6.3,13.1-8.4,1.5-2.1,3.1-9.1,3.1-9.1,0,0,1.2.6,3.8-.5s4.6-7.9,3.1-9.9-4.9-.7-5.8.8c0,0-3.3.3-3.4-.4,0-.8,2.7-10.6,1-14.7,0,0-5.6.7-9.4-.5-3.9-1.2-15.6-9.6-15.6-9.6h0Z"/>
            <g>
              <path class="cls-4" d="M1379.9,789.9s-7.4-31.3-17.3-36.1-21.4-8-21.4-8l-5.7-16.8-17.5.6s-3.1,13.7-8.9,14.5-19.4.6-25.3,5.5c-6,4.9-16.7,41-16.7,41l112.9-.8h0Z"/>
              <g>
                <path class="cls-6" d="M1339.7,738l-.5,2-7.9,30.6-2.8,10.7-36.3-20.5s3.6-5.5,5.4-15.7c.7-4.2,1.1-9.2.9-15-.4-7.4,0-14.7,1-21.1,1.3-9.5,3.7-16.9,5.6-18.7,3.4-3.1,7-2,7-2l1.7,3,20.9,37.5,1.9,3.4,3.1,5.6v.2Z"/>
                <path class="cls-6" d="M1357.2,811.1c-2.6-5.9-4.9-11.2-6.9-16.5.5,3.8,2.1,12.9,3.9,19.8-4.4,4.6-10.6,10.2-15.7,11.1,0,0-2.6-18.5-4.8-35.3-1-7.4-1.8-14.6-2.4-19.6,0-1.1-.2-2.1-.3-2.9-1.2-14,0-32.1,0-32.1l-2.6-6.4-15.1-37.6-1.2-3.1s2.6-7.8,6-7.5c.8,0,2.6.7,4.9,1.6,7.8,3.2,21.8,10.5,24.6,16,2.2,4.3,2.3,28.5,2.7,50.1.3,14.5.7,27.9,2.1,33,.7,2.8,1.5,5.6,2.2,8.3,2.7,9.7,5.2,17.8,5.2,17.8,0,0-1,1.3-2.7,3.3h.1Z"/>
                <path class="cls-2" d="M1345.3,805.4c-.3,0-.6-.2-.6-.5s-3.6-17.9-3.3-32.2c0-4.5.4-11.5.8-19.7.8-17.9,1.8-40.3.9-48-1.3-10.6-15.6-13.9-15.7-13.9-.3,0-.6-.4-.5-.8,0-.3.4-.6.8-.5.6,0,15.3,3.4,16.7,15,1,7.8,0,30.2-.9,48.2-.4,8.1-.7,15.1-.8,19.6-.3,14.2,3.2,31.8,3.3,32,0,.3-.2.7-.5.8h-.2Z"/>
              </g>
            </g>
            <path class="cls-28" d="M758.9,802.8l112.9-.8s-7.4-31.3-17.3-36.1c-9.9-4.8-21.4-8-21.4-8l-5.7-16.8-17.5.6s-3,13.3-8.6,14.5h-1c-6.1.7-18.9.7-24.6,5.4-6,4.9-16.7,41-16.7,41v.2Z"/>
            <path class="cls-12" d="M928.7,802.8l112.9-.8s-7.4-31.3-17.3-36.1-21.4-8-21.4-8l-5.7-16.8-17.5.6s-3.1,13.7-8.9,14.5c-5.8.8-19.4.6-25.3,5.5-6,4.9-16.7,41-16.7,41h0Z"/>
            <path class="cls-4" d="M79.8,802s7.4-31.3,17.3-36.1,21.4-8,21.4-8l5.7-16.8,17.5.6s3.1,13.7,8.9,14.5c5.8.8,19.4.6,25.3,5.5,6,4.9,16.7,41,16.7,41l-112.9-.8h0Z"/>
            <path class="cls-4" d="M419.3,802s7.4-31.3,17.3-36.1,21.4-8,21.4-8l5.7-16.8,17.5.6s3.1,13.7,8.9,14.5,19.4.6,25.3,5.5c6,4.9,16.7,41,16.7,41l-112.9-.8h.1Z"/>
            <path class="cls-12" d="M1545.4,802s-7.4-31.3-17.3-36.1-21.4-8-21.4-8l-5.7-16.8-17.5.6s-3.1,13.7-8.9,14.5-19.4.6-25.3,5.5c-6,4.9-16.7,41-16.7,41l112.9-.8h0Z"/>
            <path class="cls-11" d="M1211.4,802.8l-112.9-.8s7.4-31.3,17.3-36.1,23.9-8.4,23.9-8.4l29.7-1.2c5.8.8,19.4.6,25.3,5.5,6,4.9,16.7,41,16.7,41Z"/>
            <path class="cls-14" d="M801.2,756.2c9.1-1.4,31.9,1.7,31.9,1.7l-5.7-16.8-17.5.6s-3,13.3-8.6,14.5h-.1Z"/>
            <path class="cls-14" d="M1473.8,756.4h.7-.7Z"/>
            <path class="cls-7" d="M841.8,731.3c-3.3,11.9-11.3,17.7-11.3,17.7,0,0-20,3.9-23.7,1s-10.1-8.7-10.1-8.7c0,0-8.3-26-4.9-38.8,3.3-12.8,16.3-16.3,23.1-12.3,0,0,14.3-3.7,19.8,1.1,4.1,3.6,7.8,17.3,8.2,29.1,0,4.1-.2,8-1,11.1v-.2Z"/>
            <path class="cls-11" d="M591.8,802.8l112.9-.8s-7.4-31.3-17.3-36.1c-9.9-4.8-21.4-8-21.4-8l-5.7-16.8-17.5.6s-3,13.3-8.6,14.5h-1c-6.1.7-18.9.7-24.6,5.4-6,4.9-16.7,41-16.7,41v.2Z"/>
            <path class="cls-14" d="M634.1,756.2c9.1-1.4,31.9,1.7,31.9,1.7l-5.7-16.8-17.5.6s-3,13.3-8.6,14.5h-.1Z"/>
            <path class="cls-7" d="M674.4,719.8c0,2.2-.4,4.4-.9,6.3-3.3,11.9-10.2,22.9-10.2,22.9,0,0-22,2.9-25.7,0s-9.1-16.1-9.1-16.1c0,0-8.3-20.6-1.2-31.8,7.7-12.3,13.5-14.9,20.3-11,0,0,12.1-3.5,17.6,1.3,4.6,4,9.6,17.2,9.2,28.3h0Z"/>
            <path class="cls-2" d="M1303.6,732.7h-.3c-.3-.2-.4-.6-.2-.9,1.4-2.4,1.7-5.3,1.8-8.3,0-1,0-2.1,0-3.1.3-7.5.6-15.3,3.9-22.2.2-.3.5-.5.9-.3.3.2.5.5.3.9-3.2,6.7-3.5,14.3-3.8,21.7,0,1.1,0,2.1,0,3.2,0,3-.4,6.2-2,8.9,0,.2-.3.3-.6.3v-.2Z"/>
            <path class="cls-2" d="M1308,756c0,0-.2,0-.3,0-.3-.2-.4-.6-.2-.9,8-12.6,11.4-27.7,9.7-42.4,0-.4.2-.7.6-.7s.7.2.7.6c1.8,15-1.7,30.4-9.9,43.3,0,.2-.3.3-.5.3h0Z"/>
            <path class="cls-2" d="M1316.4,703.1h0c-.4,0-.6-.3-.6-.7,0-3.4,1.4-6.8,3.8-9.3.2-.3.7-.3.9,0,.3.2.3.7,0,.9-2.2,2.3-3.4,5.3-3.5,8.4,0,.4-.3.6-.6.6h0Z"/>
            <path class="cls-2" d="M1322.2,735.5c-.3,0-.6-.2-.6-.6l-.9-7.3c-1-7.7-2.2-17.3,2-25.3.2-.3.6-.4.9-.3.3.2.4.6.3.9-4,7.6-2.8,17-1.8,24.5l.9,7.3c0,.4-.2.7-.6.7h-.2Z"/>
            <path class="cls-14" d="M970.8,756.3c14.3-1.2,32.1,1.6,32.1,1.6l-5.7-16.8-17.5.6s-3.1,13.7-8.9,14.5h0Z"/>
            <path class="cls-6" d="M1008.7,706.7s0,1.8,0,3.7c0,1.9-.5,15-.5,15l-5.1,18-6.1,2.4c-6.2,2.5-13.2,1.9-18.8-1.6l-4.8-1.6s-4.8-22.4-5.1-25.1c0-1.1,0-7.5,0-7.5,0,0-1.1-1.5-1.9-3-.4-.8-.7-1.5-.8-2.1-.3-1.9,5.9-16.2,8-16.7,2-.5,4.9.7,4.9.7,0,0,3.9-3.3,5.2-4,.7-.3,3.3-.4,6.7.2,3.4.7,7.6,2.1,10.9,4.7,2.9,2.3,11.8,10.9,11.6,12.5s-4.1,4.2-4.1,4.2l-.2.2Z"/>
            <path class="cls-12" d="M249.6,802.8l112.9-.8s-7.4-31.3-17.3-36.1-21.4-8-21.4-8l-5.7-16.8-17.5.6s-3.1,13.7-8.9,14.5-19.4.6-25.3,5.5c-6,4.9-16.7,41-16.7,41h-.1Z"/>
            <path class="cls-14" d="M291.6,756.3c14.3-1.2,32.1,1.6,32.1,1.6l-5.7-16.8-17.5.6s-3.1,13.7-8.9,14.5h0Z"/>
            <path class="cls-6" d="M332.4,705c0,.8-.4,1.8-.7,2.7-.4,1.3-.9,2.3-.9,2.3,0,0,.1,6.3,0,7.5-.3,2.7-6.2,25.2-6.2,25.2l-4.8,1.6c-5.7,3.5-12.7,4-18.8,1.6l-6.1-2.4-5.1-18s-.6-13.1-.5-15c0-1.9.1-3.7.1-3.7,0,0-3.9-2.5-4.1-4.2-.2-1.6,8.7-10.2,11.6-12.5,6.5-5.2,11.9-6.3,13.3-5.6s5.2,4,5.2,4c0,0,2.8-1.2,4.9-.7,2,.5,13.3,8.3,12.2,17.4v-.2Z"/>
            <path class="cls-19" d="M172.1,752.7c-.8,9.6-1.6,40.9-1.6,40.9h-67.6s-1.6-39.3-1.6-52.2,9.9-49,14-53.8,14.8-4,14.8-4h0c.3,0,10.8-5.6,18.1-3.2,7.4,2.4,17.3,14.4,18.1,23.3.5,4.8,2.4,16.2,3.9,27.1,1.3,8.9,2.2,17.5,1.9,21.9Z"/>
            <path class="cls-2" d="M509,722.8c0,.8-.1,1.5-.2,2.2-1.4,11-8.5,30.2-8.5,30.2,0,0-2.2,1-5.5,2.2l3.1-14.5-8.4,16.4c-4.8,1.5-10.2,2.9-14.6,2.9-6.8,0-16-2.6-21.1-4.2l-5.7-15,3.2,14.2c-.9-.3-1.4-.5-1.4-.5,0,0-10.8-16.9-10.8-26.5s11.7-41.2,11.7-41.2c5.6-9.6,14.1-4.1,18.3-5.5,4.2-3.2,17.4-6.9,27.3,2.7,9.2,9,13.1,25.6,12.4,36.7h.2Z"/>
            <path class="cls-6" d="M497.2,717.4c-.1-5-.3-10.1-1.7-14.9-1.5-5.3-4.4-9.6-8.2-12-2.4-1.5-5.3-2.4-8.1-2.5v-1.5c3.2,0,6.3,1,8.9,2.7,4.1,2.6,7.2,7.2,8.8,12.8,1.4,5,1.6,10.2,1.7,15.3h-1.5.1Z"/>
            <path class="cls-6" d="M487.9,751.3l-1.4-.4c2.2-7.3,4.5-14.8,5.3-22.5.8-8.5-.5-16.1-3.8-22.1l1.3-.7c3.5,6.3,4.8,14.2,4,23-.8,7.8-3.1,15.4-5.3,22.8h-.1Z"/>
            <path class="cls-6" d="M446.1,720.3l-1.5-.2c.8-6.9,2.1-13.9,3.8-20.7.6-2.5,1.4-5.1,2.8-7.3,1.7-2.5,4.2-4.2,6.8-4.4v1.5c-2,.2-4.1,1.6-5.6,3.7-1.3,2-2,4.4-2.6,6.8-1.7,6.7-3,13.6-3.7,20.5h0Z"/>
            <path class="cls-6" d="M454.9,747.6c-4.4-6.3-5.2-13.6-5.1-18.5.2-6.9,2.2-13.7,3.9-18.8l1.4.5c-1.7,5-3.6,11.6-3.8,18.4-.1,4.8.6,11.7,4.8,17.6l-1.2.9h0Z"/>
            <path class="cls-6" d="M463.4,714.3l-1.4-.4c.9-3,1.2-6.3,1.5-9.5.5-5.3,1-10.8,4.1-15.4l1.2.8c-2.9,4.2-3.3,9.3-3.8,14.6-.3,3.3-.6,6.6-1.5,9.8h-.1Z"/>
            <path class="cls-6" d="M472.8,707.9h-1.5c.4-4,.2-7.8-.6-11.6l1.5-.3c.8,3.9,1,7.9.6,11.9h0Z"/>
            <path class="cls-27" d="M106,770.2h0c-.5,0-.8-.4-.8-.9.9-23.4,1.9-50,14-72.5.2-.4.7-.6,1.2-.3.4.2.6.7.3,1.2-11.9,22.1-12.9,48.5-13.8,71.7,0,.5-.4.8-.9.8Z"/>
            <path class="cls-27" d="M123.7,727.3h0c-.5,0-.8-.4-.8-.9.6-9.2.8-18.5.5-27.7,0-.5.4-.9.8-.9s.9.4.9.8c.3,9.3,0,18.7-.5,27.9,0,.5-.4.8-.9.8h0Z"/>
            <path class="cls-27" d="M160.2,752.8c-.4,0-.7-.2-.8-.6-2.6-8.8-4.1-17.9-4.3-27v-6.1c0-6.2,0-12.5-1.7-18.4-2.1-7.1-8.1-15-16.5-15.6-.5,0-.8-.4-.8-.9s.4-.8.9-.8c9.3.6,15.8,8.9,18.1,16.8,1.8,6.2,1.8,12.7,1.7,18.9v6.1c.2,9,1.7,17.9,4.3,26.6.1.5-.1.9-.6,1.1h-.3Z"/>
            <path class="cls-27" d="M154.7,766.9c-.5,0-.9-.4-.9-.9-.1-13.6-1.7-27.2-4.6-40.5-.1-.5.2-.9.7-1s.9.2,1,.7c3,13.4,4.5,27.1,4.6,40.8,0,.5-.4.9-.9.9h0Z"/>
            <path class="cls-27" d="M143,744.5c-.5,0-.9-.4-.9-.9v-34.8c0-.5.4-.9.9-.9s.9.4.9.9v34.8c0,.5-.4.9-.9.9Z"/>
            <path class="cls-27" d="M118.6,785.7h0c-.5,0-.9-.4-.9-.9,0-15.4-.2-31.1-.7-46.5,0-.5.4-.9.8-.9s.9.4.9.8c.5,15.5.8,31.1.7,46.6,0,.5-.4.9-.9.9h0Z"/>
            <path class="cls-7" d="M1518.4,768.3l-29.7,4.8-34.5-8.7s-5.8-4.8-5.5-8.6c.3-3.7,6.6-3.2,6-6.4-.3-1.7-3.5-3.4-6.3-5.8-2.3-2-4.3-4.4-3.8-7.8,1.1-7.2,9.3-7.2,13.7-14.4,4.4-7.2,11.6-27.4,15.2-30.6,3.6-3.2,15.7-2.4,15.7-2.4,9.1-9.4,18.7-7.8,22.8-3.5.3.3.7.8,1,1.4,4.3,7.4,10.8,33.9,10.8,38.6s6.9,7.5,8.8,13.9-14.3,29.4-14.3,29.4h.1Z"/>
            <path class="cls-14" d="M1144.9,691.2s-4.6-1.2-7.1,2.1-7.2,10.7-7.9,13.6c-.8,2.9-.9,17.9,0,22.7.8,4.8,5.1,13.5,6.4,14.7s5.7,2,8.2,1.3,13.1-5.3,15.5-7.8,4.9-7.8,4.9-7.8c0,0-4.7-7.9-4.8-13.5,0-5.6,1.7-16.2.7-18.7-.9-2.5-6.2-7.2-8.2-7.2s-7.6.7-7.6.7h0Z"/>
            <path class="cls-2" d="M1178.3,750.5c-3.5,1.6-7.8-1.1-11.4,0-1.2.4-2.2,1.2-3.3,1.6-4.4,1.5-9-3.1-13.6-2.1-2.8.6-5,3.2-7.8,3.2s-4.9-2.6-7.6-2.9c-3.2-.3-6.3,2.4-9.3,1.5-1.9-.6-3.1-2.4-3.3-4.3-.2-1.9.4-3.8,1.3-5.5,1.3-2.5,3-4.7,5.2-6.4.8-.7,1.8-1.4,2.7-2,2.8-2,5.6-4.1,6.2-7.3.8-4.3-2.9-8.2-3.4-12.5-.4-3.2.9-6.7-.9-9.5-.4-.6-.8-1-1.3-1.5-1.2-1-2.6-1.8-3.5-3.1,0,0-.2-.3-.3-.4-1.4-2.3-.9-5.5.8-7.8,1.8-2.4,4.6-3.8,7.4-4.7,5.8-1.9,12-2,18.2-2.1,2.4,0,4.8,0,7.1.6,1.3.4,2.7,1,4.1,1.9,4.3,2.6,8.4,7.2,9.5,11.3.8,2.9.4,6-.3,9-.7,2.9-1.7,6.1-.2,8.7.8,1.4,2.1,2.3,2.9,3.6,2.4,3.6.7,8.3,1.2,12.6.4,3.2,2.1,6.2,2.8,9.3.7,3.2,0,7.1-3.1,8.5v.2Z"/>
            <path class="cls-13" d="M287.7,757l4.1-6.9s20.9-4.4,33.9,3.1l.4,5.3s-25.7-3.9-38.3-1.4h-.1Z"/>
            <path class="cls-5" d="M170.2,730.8c-2.4-10.2-5.7-23.1-7.1-26.4-2.4-5.6-9.6-17.8-14-19.7-4.3-1.9-19.1-1.1-19.1-1.1h0c.3,0,10.8-5.6,18.1-3.2,7.4,2.4,17.3,14.4,18.1,23.3.5,4.8,2.4,16.2,3.9,27.1h.1Z"/>
            <path class="cls-5" d="M332.4,705c0,.8-.4,1.8-.7,2.7-2-4.2-7.9-16.1-9.4-16.9-1.9-.9-8.2-.5-8.2-.5,0,0-3.9-1.4-7.2-1.4s-21.6,13.6-21.6,13.6c-.2-1.6,8.7-10.2,11.6-12.5,6.5-5.2,11.9-6.3,13.3-5.6s5.2,4,5.2,4c0,0,2.8-1.2,4.9-.7,2,.5,13.3,8.3,12.2,17.4h0Z"/>
            <path class="cls-5" d="M509,722.8c0-.3-.1-.6-.2-.9-1.4-8.9-13-32.4-18.3-37.6-5.3-5.2-21.2-.9-21.2-.9,4.2-3.2,17.4-6.9,27.3,2.7,9.2,9,13.1,25.6,12.4,36.7h0Z"/>
            <path class="cls-5" d="M674.4,719.8c-3-8.3-8.2-22.2-10.8-25.1-3.9-4.2-15.9-4.5-15.9-4.5,0,0,12.1-3.5,17.6,1.3,4.6,4,9.6,17.2,9.2,28.3h0Z"/>
            <path class="cls-5" d="M842.8,720.2c-3.1-8.1-8.8-22.7-10.5-26.1-2.4-4.7-17.5-4.1-17.5-4.1,0,0,14.3-3.7,19.8,1.1,4.1,3.6,7.8,17.3,8.2,29.1Z"/>
            <path class="cls-5" d="M990.4,685.3c-5.4,1.8-7.6,6.5-7.6,6.5,0,0-5.8,0-8.7,2.3-2,1.6-5.5,8.7-7.6,13-.4-.8-.7-1.5-.8-2.1-.3-1.9,5.9-16.2,8-16.7,2-.5,4.9.7,4.9.7,0,0,3.9-3.3,5.2-4,.7-.3,3.3-.4,6.7.2h-.1Z"/>
            <path class="cls-5" d="M1165.4,687.5c-1.6.2-3,.5-3.4,1.1-1,1.4-11.6-.5-14.5-.9-2.9-.5-8.2,3.3-14.5,5.6-3.3,1.2-4.7,4-5.3,6.3-1.4-2.3-.9-5.5.8-7.8,1.8-2.4,4.6-3.8,7.4-4.7,5.8-1.9,12-2,18.2-2.1,2.4,0,4.8,0,7.1.6,1.3.4,2.7,1,4.1,1.9h.1Z"/>
            <path class="cls-5" d="M1323.1,682.6h-.2c-4.8.5-7,8.7-7,8.7,0,0-.9,0-2.1.2h-.4c-1.6.3-3.7.9-5.2,2.1-1.6,1.3-5.4,8.6-8.6,15.4,1.3-9.5,3.7-16.9,5.6-18.7,3.4-3.1,7-2,7-2,0,0,2.6-7.8,6-7.5.8,0,2.6.7,4.9,1.6v.2Z"/>
            <path class="cls-5" d="M1489.2,688.4s-11.4,2.5-13.8,3.4-9.6,28.2-11.1,32.4c-1.4,4.2-13.5,9.4-16.4,12.2-1.6,1.6-.7,4.7.4,7.2-2.3-2-4.3-4.4-3.8-7.8,1.1-7.2,9.3-7.2,13.7-14.4,4.4-7.2,11.6-27.4,15.2-30.6,3.6-3.2,15.7-2.4,15.7-2.4h.1Z"/>
            <path class="cls-5" d="M1513,686.3c-3.6-1-7.8-2.1-9.6-2.1-3.4,0-14.2,4.1-14.2,4.1,9.1-9.4,18.7-7.8,22.8-3.5.3.3.7.8,1,1.4h0Z"/>
          </g>
          <g>
            <path class="cls-18" d="M208.7,839.5H77l-11.3-41c-2.1-7.6,3.3-14.2,11.7-14.2h111.4c8.4,0,16,6.5,16.6,14.2l1.1,13.5,2.2,27.5Z"/>
            <path class="cls-18" d="M375.8,839.5h-131.7l-9.4-41c-1.8-7.6,3.9-14.2,12.3-14.2h111.4c8.4,0,15.8,6.5,16,14.2l.5,15.4.9,25.7h0Z"/>
            <path class="cls-18" d="M543.2,798.5v13.2c0,0-.4,27.8-.4,27.8h-131.7l-7.6-41c-1.4-7.6,4.5-14.2,12.9-14.2h111.4c8.4,0,15.5,6.5,15.4,14.2Z"/>
            <path class="cls-18" d="M712.1,798.5l-.3,6.4-1.9,34.6h-131.7l-5.8-41c-1.1-7.6,5.1-14.2,13.5-14.2h111.4c8.4,0,15.2,6.5,14.8,14.2Z"/>
            <path class="cls-18" d="M881,797.6v.9l-4,41h-131.7l-4-40.5v-.5c-.8-7.6,5.7-14.2,14.1-14.2h111.4c8.1,0,14.4,6,14.2,13.3Z"/>
            <path class="cls-18" d="M1049.9,798.5l-5.8,41h-131.7l-1.8-33-.4-8.1c-.4-7.6,6.4-14.2,14.8-14.2h111.4c8.4,0,14.6,6.5,13.5,14.2h0Z"/>
            <path class="cls-18" d="M1218.7,798.5l-7.6,41h-131.7l-.2-25.4v-3h0v-12.6c0-2.1.4-4,1.3-5.8h0c2.5-4.9,7.9-8.3,14-8.3h111.4c8.4,0,14.3,6.5,12.9,14.2h-.1Z"/>
            <path class="cls-18" d="M1387.6,798.5l-9.4,41h-131.7l1.1-31.3.3-9.7c.3-7.6,7.6-14.2,16-14.2h111.4c8.4,0,14,6.5,12.3,14.2h0Z"/>
            <path class="cls-18" d="M1556.5,798.5l-11.2,41h-131.7l2.5-31.3.8-9.8c.6-7.6,8.3-14.2,16.6-14.2h111.4c8.4,0,13.7,6.5,11.7,14.2h-.1Z"/>
            <path class="cls-9" d="M198.5,840c-.5,0-1-.4-1-.9,0-.8-.6-20.2-.4-25.2v-1.9c.4-10.1.3-16.4-6.2-17.7-8.2-1.6-93.2-.6-94.1-.6s-1-.4-1-1,.4-1,1-1c3.5,0,86.1-1.1,94.5.6,8.4,1.7,8.1,10.4,7.8,19.6v1.9c-.2,4.9.4,24.9.4,25.1,0,.5-.4,1-.9,1h-.1Z"/>
            <path class="cls-9" d="M243.8,812.8c-.4,0-.8-.3-.9-.7-.2-.5-3.8-11.2,0-17.5,1.4-2.3,3.6-3.8,6.5-4.3,12-2.1,84.6,0,87.6,0,.5,0,1,.5.9,1,0,.5-.5,1-1,.9-.8,0-75.4-2.1-87.2,0-2.4.4-4.1,1.5-5.2,3.4-3.3,5.6.2,15.8.2,15.9.2.5,0,1.1-.6,1.2h-.3,0Z"/>
            <path class="cls-9" d="M536.7,809.2h0c-.5,0-1-.5-.9-1,.2-4-1.2-8.2-3.6-10.6-1.6-1.7-3.6-2.6-5.9-2.6h-111.4c-.5,0-1-.4-1-1s.4-1,1-1h111.4c2.8,0,5.4,1.1,7.3,3.2,2.7,2.8,4.3,7.5,4.1,12,0,.5-.5.9-1,.9h0Z"/>
            <path class="cls-9" d="M416.9,829.6c-.5,0-.9-.3-1-.8l-3.9-23.9c0-.5.3-1,.8-1.1.5,0,1,.3,1.1.8l3.9,23.9c0,.5-.3,1-.8,1.1h-.2.1Z"/>
            <path class="cls-9" d="M581.3,807.5c-.4,0-.7-.2-.9-.6,0-.2-2.5-6.1.5-10.5,2-3,6-4.6,11.7-4.6h89.3c.5,0,1,.4,1,1s-.4,1-1,1h-89.3c-5.1,0-8.5,1.2-10.1,3.7-2.4,3.5-.3,8.6-.3,8.7.2.5,0,1.1-.5,1.3h-.4Z"/>
            <path class="cls-9" d="M702.9,828.6h0c-.5,0-.9-.5-.9-1.1l2.2-25.3c0-.5.5-.9,1.1-.9s.9.5.9,1.1l-2.2,25.3c0,.5-.5.9-1,.9h0Z"/>
            <path class="cls-9" d="M754.4,839.5l-4.4-36.5s.6-5.4,2.5-7.5c2.1-2.3,6.6-4.9,16-4.6,13.9.5,65,0,65.5,0s1,.4,1,1-.4,1-1,1-51.7.5-65.6,0c-8.6-.3-12.6,2-14.5,4-1.5,1.6-2.2,3.7-2,5.9.5,4.8,4.5,36.7,4.5,36.7h-2Z"/>
            <path class="cls-9" d="M867.3,793.2h-14.2c-.5,0-1-.4-1-1s.4-1,1-1h14.2c.5,0,1,.4,1,1s-.4,1-1,1Z"/>
            <path class="cls-9" d="M920.4,839.5s-1.9-34.8-2.5-40.4c-.2-2.1.4-4,1.8-5.5,2.5-2.6,7.3-4,13.2-3.7,8.3.4,16.6.4,16.7.4.5,0,1,.4,1,1s-.4,1-1,1-8.5,0-16.8-.4c-5.4-.2-9.7.9-11.7,3.1s-1.5,2.4-1.3,4c.6,5.6,2.5,40.6,2.5,40.6h-1.9Z"/>
            <path class="cls-9" d="M960.6,792.2c-.5,0-1-.4-1-1s.4-1,1-1l67.8-.7c.5,0,1,.4,1,1s-.4,1-1,1l-67.8.7h0Z"/>
            <path class="cls-9" d="M1208.8,819.7h-.2c-.5,0-.9-.6-.8-1.1,0,0,1.8-9.9,2.9-17.3.3-1.8,0-3.4-1.3-4.7-2.4-2.8-7.3-3.8-9.1-3.8-2.9,0-82.6.4-83.4.4h0c-.5,0-1-.4-1-1s.4-1,1-1,80.6-.4,83.5-.4,7.7,1.1,10.6,4.4c1.5,1.8,2.1,3.9,1.7,6.3-1.1,7.4-2.9,17.2-2.9,17.3,0,.5-.5.8-1,.8h0Z"/>
            <path class="cls-9" d="M1253.7,837.7h0c-.5,0-1-.4-1-1s.3-29.5.5-35.8c.3-7.3,7.8-12.1,19-12.1s1,.4,1,1-.4,1-1,1c-10.1,0-16.8,4-17.1,10.2-.3,6.3-.5,35.5-.5,35.8,0,.5-.4,1-1,1h0Z"/>
            <path class="cls-9" d="M1371.9,837.2h-.3c-.5-.2-.8-.7-.6-1.2,0-.2,7-22.9,9.3-31.5,1.1-4.3.6-8.1-1.4-10.5-1.4-1.6-3.3-2.4-5.5-2.2-3.9.3-26.3,0-27.3,0s-1-.4-1-1,.4-1,1-1,0,0,0,0c.2,0,23.3.3,27.1,0,2.8-.2,5.4.8,7.1,2.9,2.4,2.9,3,7.3,1.8,12.3-2.2,8.6-9.2,31.4-9.3,31.6,0,.4-.5.7-.9.7h0Z"/>
            <path class="cls-9" d="M1420.5,839.4h0c-.5,0-.9-.5-.9-1s2.1-28.9,2.5-33.7c.7-7.7,7.7-15.6,16.9-15.1.5,0,.9.5.9,1s-.5.9-1,.9c-8-.4-14.2,6.7-14.9,13.3-.4,4.7-2.5,33.3-2.5,33.6,0,.5-.5.9-1,.9h0Z"/>
            <path class="cls-9" d="M1518.4,792.5h-61.7c-.5,0-1-.4-1-1s.4-1,1-1h61.7c.5,0,1,.4,1,1s-.4,1-1,1Z"/>
            <path class="cls-5" d="M206.5,812c-.7-2.5-2.4-15.5-9.2-19.9-8-5-26.7-6.5-41.3-7.8h32.9c8.4,0,16,6.5,16.6,14.2l1.1,13.5h-.1Z"/>
            <path class="cls-5" d="M374.9,813.9c-.9-3.8-3.6-16.7-9.9-20.8-8-5-25.1-7.4-39.8-8.8h33.2c8.4,0,15.8,6.5,16,14.2l.5,15.4h0Z"/>
            <path class="cls-5" d="M543.2,798.5v13.2c-1.4-5.2-4.1-15.2-9.6-18.6-8-5-25.1-7.4-39.8-8.8h33.9c8.4,0,15.5,6.5,15.4,14.2h0Z"/>
            <path class="cls-5" d="M712.1,798.5l-.3,6.4c-1.6-4.7-4-9.9-7.6-12.2-7.3-4.6-22.3-7-36-8.4h29.2c8.4,0,15.2,6.5,14.8,14.2h-.1Z"/>
            <path class="cls-5" d="M1465.8,784.3c-14.6,1.4-33.4,2.8-41.3,7.8-5.1,3.2-7.3,11.1-8.4,16.1l.8-9.8c.6-7.6,8.3-14.2,16.6-14.2h32.3Z"/>
            <path class="cls-5" d="M1297.3,784.3c-14.6,1.4-31.8,3.7-39.8,8.8-6.9,4.3-9.4,19-10.1,21.5v-6.4c0,0,.5-9.7.5-9.7.3-7.6,7.6-14.2,16-14.2h33.4Z"/>
            <path class="cls-5" d="M1128.2,784.3c-14.6,1.4-31.8,3.7-39.8,8.8-5.2,3.3-8,12.7-9.3,18v-12.6c0-2.1.4-4,1.3-5.8h0c2.5-4.9,7.9-8.3,14-8.3h33.8Z"/>
            <path class="cls-5" d="M954.7,784.3c-13.7,1.4-28.7,3.8-36,8.4-4,2.6-6.6,8.7-8.2,13.8l-.4-8.1c-.4-7.6,6.4-14.2,14.8-14.2h29.8Z"/>
            <path class="cls-5" d="M881,797.6c-1.2-1.9-2.5-3.5-4.2-4.5-8-5-25.1-7.4-39.8-8.8h29.7c8.1,0,14.4,6,14.2,13.3h0Z"/>
            <path class="cls-5" d="M786.1,784.3c-14.6,1.4-31.8,3.7-39.8,8.8-2,1.3-3.7,3.4-5,5.9v-.5c-.8-7.6,5.7-14.2,14.1-14.2h30.7Z"/>
          </g>
        </g>
      </g>
    </g>
  </g>
</svg>