<?xml version="1.0" encoding="UTF-8"?>
<svg xmlns="http://www.w3.org/2000/svg" version="1.1" xmlns:xlink="http://www.w3.org/1999/xlink" viewBox="0 0 1200 800">
  <defs>
    <style>
      .cls-1 {
        fill: #5787a5;
      }

      .cls-1, .cls-2, .cls-3, .cls-4, .cls-5, .cls-6 {
        stroke-width: 0px;
      }

      .cls-2 {
        fill: #081d26;
      }

      .cls-7 {
        stroke: #000;
        stroke-miterlimit: 10;
        stroke-width: 7px;
      }

      .cls-7, .cls-3 {
        fill: none;
      }

      .cls-8 {
        clip-path: url(#clippath);
      }

      .cls-4 {
        fill: #f2c7ae;
      }

      .cls-5 {
        fill: #f2c26a;
      }

      .cls-6 {
        fill: #a57b63;
      }
    </style>
    <clipPath id="clippath">
      <rect class="cls-3" width="1200" height="800"/>
    </clipPath>
  </defs>
  <g id="Background">
    <rect class="cls-1" width="1200" height="800"/>
  </g>
  <g id="Pattern">
    <g class="cls-8">
      <g>
        <path class="cls-4" d="M388.2,796.5h154c-27.7-10.5-47.6-37.1-48.1-68.3l-1.2-1.4h-104.7v69.7Z"/>
        <path class="cls-5" d="M135.4,87.9h-51.6l40.4,73.9c4.8,1,9.9,1.5,15,1.5,13.5,0,26.2-3.5,37.2-9.7,5-5.7,11.1-10.5,18.1-14,13.1-13.7,21.2-32.3,21.2-52.7,0-31.5-19.1-58.6-46.4-70.2h-33.8v71.2ZM189.3,60.4c12.2,0,22.1,9.9,22.1,22.1s-9.9,22.1-22.1,22.1-22.1-9.9-22.1-22.1,9.9-22.1,22.1-22.1Z"/>
        <path class="cls-5" d="M131.8,87.7c-23.9,0-45.7-9.5-61.7-24.9l13.7,25.1h51.6V16.7h-.1v71h-3.5Z"/>
        <path class="cls-6" d="M1180.8,152.2c-14.4,0-26.8-8.9-32-21.4h-39.5c1.4,4,2.2,8.2,2.2,12.7,0,19.2-14.7,35.1-33.5,36.8v43.6h118.5v-71.7h0s-15.7,0-15.7,0Z"/>
        <path class="cls-6" d="M954.7,175.5c7.5,27.9,32.9,48.4,63.1,48.4h53.1v-43.6c-18.8-1.8-33.5-17.6-33.5-36.8s.8-8.7,2.2-12.7h-85.3c-1.2,7-1.9,14.1-1.9,21.4s.8,15.7,2.2,23.3Z"/>
        <polygon class="cls-6" points="7.7 731.4 74 794.3 74 731.4 7.7 731.4"/>
        <polygon class="cls-5" points="580.7 514.2 621.5 514.2 667.2 466.7 580.7 466.7 580.7 514.2"/>
        <path class="cls-5" d="M834.2,264.6c0,33.3,22.4,61.4,52.9,70.1v-140.2c-30.5,8.7-52.9,36.8-52.9,70.1Z"/>
        <path class="cls-5" d="M978.3,280.2c1.1-5,1.7-10.2,1.7-15.6,0-40.3-32.6-72.9-72.9-72.9s-8.8.4-13,1.2v87.3h84.2Z"/>
        <polygon class="cls-4" points="902.7 518.8 902.7 466.7 848.1 466.7 801.3 513.5 801.3 517.7 801.3 521.2 801.3 570.9 902.7 570.9 902.7 522.7 902.7 518.8"/>
        <polygon class="cls-4" points="1053.5 577.9 1048 583.8 1048 695.9 1104.5 695.9 1104.5 577.9 1053.5 577.9"/>
        <polygon class="cls-4" points="228.5 269.3 3.5 269.3 3.5 318.4 191.1 318.4 228.5 269.3"/>
        <polygon class="cls-4" points="380 299.5 380 292 380 269.3 237.3 269.3 199.9 318.4 380 318.4 380 299.5"/>
        <polygon class="cls-5" points="162.1 356.4 3.5 356.4 3.5 403 126.5 403 162.1 356.4"/>
        <polygon class="cls-4" points="120.2 411.3 3.5 411.3 3.5 430.5 105.6 430.5 120.2 411.3"/>
        <path class="cls-6" d="M669.6,357.2c0-56.5-46-102.5-102.5-102.5s-102.5,46-102.5,102.5,46,102.5,102.5,102.5v-102.5h102.5Z"/>
        <path class="cls-4" d="M605.5,459.7h66.3v-70.8c-9.9,32.6-34.6,58.9-66.3,70.8Z"/>
        <path class="cls-4" d="M669.6,357.2h0s-102.5,0-102.5,0v102.5h0c56.5,0,102.5-46,102.5-102.5Z"/>
        <path class="cls-4" d="M761.8,270.2c-5,1.3-10.3,2-15.8,2-35.6,0-64.5-28.9-64.5-64.5s.2-4.9.4-7.3h-3.4v79.7h83.2v-9.9Z"/>
        <path class="cls-4" d="M689,200.4c-.3,2.4-.5,4.8-.5,7.3,0,31.7,25.8,57.5,57.5,57.5s10.8-.8,15.8-2.2v-62.6h-72.8Z"/>
        <polygon class="cls-4" points="342.1 626.2 311.3 626.2 311.3 716.8 311.6 717.8 342.1 626.2"/>
        <polygon class="cls-4" points="349.5 626.2 316.5 725.2 381.2 725.2 381.2 626.2 349.5 626.2"/>
        <rect class="cls-4" x="105.6" y="578.2" width="64" height="41.1"/>
        <rect class="cls-4" x="176.7" y="578.2" width="34.6" height="41.1"/>
        <polygon class="cls-5" points="1146.2 274.2 1149.7 274.2 1196.5 274.2 1196.5 223.9 1146.2 223.9 1146.2 274.2"/>
        <rect class="cls-4" x="418.3" y=".9" width="35" height="71.8"/>
        <rect class="cls-6" x="459.2" y="94.5" width="113.3" height="40"/>
        <polygon class="cls-6" points="277.8 72.7 277.8 136.7 360.9 136.7 325.1 72.7 277.8 72.7"/>
        <rect class="cls-6" x="304.7" y="257.2" width="40" height="113.3"/>
        <polygon class="cls-5" points="380 242.7 380.8 243.1 452.2 243.1 452.2 140.2 410.1 140.2 350.2 243.1 380 243.1 380 242.7"/>
        <path class="cls-4" d="M1074.5,113.5c-12,0-22.4,7.1-27.2,17.3h54.4c-4.8-10.2-15.2-17.3-27.2-17.3Z"/>
        <path class="cls-4" d="M1044.5,143.5c0,16.5,13.5,30,30,30s30-13.5,30-30-1-8.8-2.8-12.7h-54.4c-1.8,3.9-2.8,8.1-2.8,12.7Z"/>
        <path class="cls-4" d="M327.4,490.5c0-16.5-13.5-30-30-30s-30,13.5-30,30,2.8,14.4,7.4,19.7l20.3-18.6,4.7,5.2-19.8,18.2c4.9,3.5,10.9,5.6,17.4,5.6,16.5,0,30-13.5,30-30Z"/>
        <path class="cls-4" d="M674.8,583.2c-15.6,0-28.4,12.7-28.4,28.4s12.7,28.4,28.4,28.4,28.4-12.7,28.4-28.4-12.7-28.4-28.4-28.4Z"/>
        <polygon class="cls-4" points="654.8 570.9 716.2 570.9 687.5 521.2 683.5 521.2 654.8 570.9"/>
        <polygon class="cls-4" points="772.2 607.1 789.1 577.9 755.4 577.9 772.2 607.1"/>
        <polygon class="cls-4" points="737.1 607.1 754 577.9 720.2 577.9 737.1 607.1"/>
        <polygon class="cls-4" points="932.9 425 912.9 459.7 952.9 459.7 932.9 425"/>
        <polygon class="cls-4" points="978.9 425 958.9 459.7 998.9 459.7 978.9 425"/>
        <polygon class="cls-4" points="1026.7 425 1006.7 459.7 1046.7 459.7 1026.7 425"/>
        <polygon class="cls-4" points="558.6 31.7 576.1 .9 541.2 .9 558.6 31.7"/>
        <polygon class="cls-4" points="633.2 161.8 585.3 185.7 630.3 215.8 633.2 161.8"/>
        <polygon class="cls-4" points="597.5 31.7 615 .9 580 .9 597.5 31.7"/>
        <polygon class="cls-4" points="498.1 66 537.9 .9 458.2 .9 498.1 66"/>
        <polygon class="cls-5" points="428.5 508.8 456.5 520.2 456.5 478.5 421.7 464.3 387 450.1 387 487.6 387 491.7 428.5 508.8"/>
        <polygon class="cls-5" points="387 491.7 428.5 508.8 387 491.7 387 491.7"/>
        <path class="cls-6" d="M1111.5,358.6v100.6h35.3c27.4,0,49.7-22.3,49.7-49.7v-50.9h-85Z"/>
        <path class="cls-5" d="M169.1,16.7c-9.2-3.9-19.4-6.1-30-6.1s-2.5,0-3.7,0v6h33.8Z"/>
        <rect class="cls-6" x="1055" y="702.9" width="141.5" height="97"/>
        <path class="cls-4" d="M829.2,131.5c0-.4,0-.8-.2-1.2,0-.4,0-.7-.2-1.1,0-.4-.1-.8-.2-1.2,0-.3-.1-.7-.2-1,0-.4-.2-.8-.3-1.2,0-.3-.2-.7-.3-1-.1-.4-.2-.8-.3-1.1,0-.3-.2-.7-.3-1-.1-.4-.3-.8-.4-1.1-.1-.3-.2-.7-.3-1-.1-.4-.3-.7-.4-1.1-.1-.3-.3-.6-.4-1-.2-.4-.3-.7-.5-1.1-.1-.3-.3-.6-.4-.9-.2-.4-.4-.7-.6-1.1-.1-.3-.3-.6-.4-.9-.2-.4-.5-.8-.7-1.2-.2-.3-.4-.6-.6-.9-.3-.5-.7-1-1-1.6-.2-.3-.4-.5-.5-.8-.2-.3-.5-.7-.7-1-.2-.3-.4-.5-.6-.8-.2-.3-.5-.6-.7-.9-.2-.3-.4-.5-.7-.8-.2-.3-.5-.6-.7-.9-.2-.3-.5-.5-.7-.8-.3-.3-.5-.5-.8-.8-.2-.3-.5-.5-.8-.7-.3-.3-.5-.5-.8-.8-.3-.2-.5-.5-.8-.7-.3-.2-.6-.5-.8-.7-.3-.2-.5-.4-.8-.7-.3-.2-.6-.5-.9-.7-.3-.2-.6-.4-.9-.6-.3-.2-.6-.4-.9-.7-.3-.2-.6-.4-.9-.6-.3-.2-.6-.4-1-.6-.3-.2-.6-.4-.9-.5-.3-.2-.7-.4-1-.6-.3-.2-.6-.3-.9-.5-.3-.2-.7-.4-1-.5-.3-.2-.6-.3-.9-.5-.3-.2-.7-.3-1.1-.5-.3-.1-.6-.3-1-.4-.4-.1-.7-.3-1.1-.4-.3-.1-.7-.3-1-.4-.4-.1-.7-.3-1.1-.4-.3-.1-.7-.2-1-.3-.4-.1-.8-.2-1.2-.3-.3,0-.7-.2-1-.3-.4-.1-.8-.2-1.2-.3-.3,0-.7-.2-1-.2-.4,0-.8-.2-1.3-.2-.3,0-.6-.1-1-.2-.4,0-.9-.1-1.4-.2-.3,0-.6,0-.9-.1-.5,0-1,0-1.5-.1-.3,0-.5,0-.8,0-.8,0-1.6,0-2.3,0s-1.6,0-2.3,0c-.3,0-.5,0-.8,0-.5,0-1,0-1.5.1-.3,0-.6,0-.9.1-.5,0-.9.1-1.4.2-.3,0-.6.1-1,.2-.4,0-.8.1-1.3.2-.3,0-.7.1-1,.2-.4,0-.8.2-1.2.3-.3,0-.7.2-1,.3-.4.1-.8.2-1.2.3-.3.1-.7.2-1,.3-.4.1-.7.2-1.1.4-.3.1-.7.2-1,.4-.4.1-.7.3-1.1.4-.3.1-.7.3-1,.4-.4.2-.7.3-1,.5-.3.2-.6.3-1,.5-.3.2-.7.3-1,.5-.3.2-.6.3-.9.5-.3.2-.7.4-1,.6-.3.2-.6.4-.9.6-.3.2-.6.4-.9.6-.3.2-.6.4-.9.6-.3.2-.6.4-.9.6-.3.2-.6.4-.9.6-.3.2-.6.5-.9.7-.3.2-.6.4-.8.7-.3.2-.6.5-.8.7-.3.2-.5.5-.8.7-.3.2-.5.5-.8.8-.3.2-.5.5-.8.8-.3.3-.5.5-.8.8-.2.3-.5.5-.7.8-.2.3-.5.6-.7.8-.2.3-.5.5-.7.8-.2.3-.5.6-.7.9-.2.3-.4.5-.6.8-.2.3-.5.7-.7,1-.2.3-.4.5-.6.8-.3.5-.6.9-.9,1.4-.2.4-.5.8-.7,1.1-.2.4-.5.8-.7,1.2-.2.3-.3.6-.5.9-.2.4-.4.7-.6,1.1-.1.3-.3.6-.4.9-.2.4-.3.7-.5,1.1-.1.3-.3.6-.4,1-.1.4-.3.7-.4,1.1-.1.3-.2.7-.3,1-.1.4-.3.7-.4,1.1-.1.3-.2.7-.3,1-.1.4-.2.8-.3,1.1,0,.3-.2.7-.3,1,0,.4-.2.8-.3,1.2,0,.3-.1.7-.2,1,0,.4-.1.8-.2,1.2,0,.3-.1.7-.2,1.1,0,.4-.1.8-.2,1.2,0,.4,0,.7-.1,1.1,0,.2,0,.4,0,.7h92.7c0-.2,0-.4,0-.7,0-.4,0-.7-.1-1.1Z"/>
        <path class="cls-4" d="M828.6,128c0,.4.1.8.2,1.2,0-.4-.1-.8-.2-1.2Z"/>
        <path class="cls-4" d="M828.2,125.8c0,.4.2.8.3,1.2,0-.4-.2-.8-.3-1.2Z"/>
        <path class="cls-4" d="M780.6,90.3c.8,0,1.6,0,2.3,0-.8,0-1.6,0-2.3,0Z"/>
        <path class="cls-4" d="M821.5,110.8c.3.5.7,1,1,1.6-.3-.5-.7-1-1-1.6Z"/>
        <path class="cls-4" d="M736.6,133.2h0c0-.2,0-.4,0-.7,0,.2,0,.4,0,.7Z"/>
        <path class="cls-4" d="M826.1,119.4c.1.4.3.7.4,1.1-.1-.4-.3-.7-.4-1.1Z"/>
        <path class="cls-4" d="M825.2,117.4c.2.4.3.7.5,1.1-.2-.4-.3-.7-.5-1.1Z"/>
        <path class="cls-4" d="M778.3,90.5c.5,0,1,0,1.5-.1-.5,0-1,0-1.5.1Z"/>
        <path class="cls-4" d="M824.2,115.4c.2.4.4.7.6,1.1-.2-.4-.4-.7-.6-1.1Z"/>
        <path class="cls-4" d="M776.1,90.8c.4,0,.9-.1,1.4-.2-.5,0-.9.1-1.4.2Z"/>
        <path class="cls-4" d="M823.1,113.3c.2.4.5.8.7,1.2-.2-.4-.5-.8-.7-1.2Z"/>
        <path class="cls-4" d="M773.8,91.2c.4,0,.8-.2,1.3-.2-.4,0-.8.1-1.3.2Z"/>
        <path class="cls-4" d="M750.7,103.3c.3-.3.5-.5.8-.8-.3.3-.5.5-.8.8Z"/>
        <path class="cls-4" d="M737.1,129.2c0-.4.1-.8.2-1.2,0,.4-.1.8-.2,1.2Z"/>
        <path class="cls-4" d="M827.6,123.7c.1.4.2.8.3,1.1-.1-.4-.2-.8-.3-1.1Z"/>
        <path class="cls-4" d="M757.5,97.9c.3-.2.6-.4.9-.6-.3.2-.6.4-.9.6Z"/>
        <path class="cls-4" d="M755.7,99.1c.3-.2.6-.4.9-.6-.3.2-.6.4-.9.6Z"/>
        <path class="cls-4" d="M759.4,96.7c.3-.2.6-.4,1-.6-.3.2-.7.4-1,.6Z"/>
        <path class="cls-4" d="M807.5,97.3c.3.2.6.4,1,.6-.3-.2-.6-.4-1-.6Z"/>
        <path class="cls-4" d="M736.8,131.5c0-.4,0-.8.2-1.2,0,.4-.1.8-.2,1.2Z"/>
        <path class="cls-4" d="M763.3,94.6c.3-.2.7-.3,1-.5-.4.2-.7.3-1,.5Z"/>
        <path class="cls-4" d="M761.3,95.6c.3-.2.7-.3,1-.5-.3.2-.7.3-1,.5Z"/>
        <path class="cls-4" d="M829.3,132.6c0,.2,0,.4,0,.7h0c0-.2,0-.4,0-.7Z"/>
        <path class="cls-4" d="M740.2,118.5c.2-.4.3-.7.5-1.1-.2.4-.3.7-.5,1.1Z"/>
        <path class="cls-4" d="M771.6,91.7c.4-.1.8-.2,1.2-.3-.4,0-.8.2-1.2.3Z"/>
        <path class="cls-4" d="M765.3,93.8c.4-.1.7-.3,1.1-.4-.4.1-.7.3-1.1.4Z"/>
        <path class="cls-4" d="M754,100.4c.3-.2.6-.5.9-.7-.3.2-.6.5-.9.7Z"/>
        <path class="cls-4" d="M752.3,101.8c.3-.2.6-.5.8-.7-.3.2-.6.5-.8.7Z"/>
        <path class="cls-4" d="M767.4,93c.4-.1.7-.3,1.1-.4-.4.1-.7.2-1.1.4Z"/>
        <path class="cls-4" d="M826.9,121.5c.1.4.3.7.4,1.1-.1-.4-.3-.8-.4-1.1Z"/>
        <path class="cls-4" d="M769.5,92.3c.4-.1.8-.2,1.2-.3-.4.1-.8.2-1.2.3Z"/>
        <path class="cls-4" d="M741.1,116.5c.2-.4.4-.7.6-1.1-.2.4-.4.7-.6,1.1Z"/>
        <path class="cls-4" d="M803.6,95.1c.3.2.7.3,1,.5-.3-.2-.7-.4-1-.5Z"/>
        <path class="cls-4" d="M739.4,120.5c.1-.4.3-.7.4-1.1-.1.4-.3.7-.4,1.1Z"/>
        <path class="cls-4" d="M749.2,104.9c.3-.3.5-.5.8-.8-.3.3-.5.5-.8.8Z"/>
        <path class="cls-4" d="M818.9,107.3c.2.3.5.6.7.9-.2-.3-.5-.6-.7-.9Z"/>
        <path class="cls-4" d="M817.5,105.6c.3.3.5.6.7.9-.2-.3-.5-.6-.7-.9Z"/>
        <path class="cls-4" d="M797.5,92.6c.4.1.8.2,1.1.4-.4-.1-.7-.3-1.1-.4Z"/>
        <path class="cls-4" d="M801.6,94.2c.4.2.7.3,1.1.5-.3-.2-.7-.3-1.1-.5Z"/>
        <path class="cls-4" d="M746.3,108.2c.2-.3.5-.6.7-.9-.2.3-.5.6-.7.9Z"/>
        <path class="cls-4" d="M738.7,122.7c.1-.4.2-.7.4-1.1-.1.4-.3.7-.4,1.1Z"/>
        <path class="cls-4" d="M799.6,93.3c.4.1.7.3,1.1.4-.4-.1-.7-.3-1.1-.4Z"/>
        <path class="cls-4" d="M783,90.2c.8,0,1.6,0,2.3,0-.8,0-1.6,0-2.3,0Z"/>
        <path class="cls-4" d="M738.1,124.8c.1-.4.2-.8.3-1.1-.1.4-.2.8-.3,1.1Z"/>
        <path class="cls-4" d="M747.7,106.5c.2-.3.5-.6.7-.8-.2.3-.5.6-.7.8Z"/>
        <path class="cls-4" d="M805.6,96.1c.3.2.7.4,1,.6-.3-.2-.7-.4-1-.6Z"/>
        <path class="cls-4" d="M811.1,99.7c.3.2.6.5.9.7-.3-.2-.6-.5-.9-.7Z"/>
        <path class="cls-4" d="M816,104.1c.3.3.5.5.8.8-.3-.3-.5-.5-.8-.8Z"/>
        <path class="cls-4" d="M812.8,101.1c.3.2.6.5.8.7-.3-.2-.6-.5-.8-.7Z"/>
        <path class="cls-4" d="M814.4,102.5c.3.3.5.5.8.8-.3-.3-.5-.5-.8-.8Z"/>
        <path class="cls-4" d="M809.3,98.5c.3.2.6.4.9.7-.3-.2-.6-.4-.9-.7Z"/>
        <path class="cls-4" d="M829,130.3c0,.4.1.8.2,1.2,0-.4,0-.8-.2-1.2Z"/>
        <path class="cls-4" d="M790.9,90.9c.4,0,.9.1,1.3.2-.4,0-.8-.2-1.3-.2Z"/>
        <path class="cls-4" d="M820.3,109c.2.3.5.7.7,1-.2-.3-.5-.7-.7-1Z"/>
        <path class="cls-4" d="M743.5,112.2c.3-.5.6-1,.9-1.4-.3.5-.6.9-.9,1.4Z"/>
        <path class="cls-4" d="M786.1,90.4c.5,0,1,0,1.5.1-.5,0-1,0-1.5-.1Z"/>
        <path class="cls-4" d="M788.5,90.6c.5,0,.9.1,1.4.2-.4,0-.9-.1-1.4-.2Z"/>
        <path class="cls-4" d="M742.2,114.5c.2-.4.4-.8.7-1.2-.2.4-.5.8-.7,1.2Z"/>
        <path class="cls-4" d="M793.1,91.4c.4,0,.8.2,1.2.3-.4-.1-.8-.2-1.2-.3Z"/>
        <path class="cls-4" d="M795.3,91.9c.4.1.8.2,1.2.3-.4-.1-.8-.2-1.2-.3Z"/>
        <path class="cls-4" d="M745,110c.2-.3.5-.7.7-1-.2.3-.5.7-.7,1Z"/>
        <path class="cls-4" d="M737.5,127c0-.4.2-.8.3-1.2,0,.4-.2.8-.3,1.2Z"/>
        <path class="cls-4" d="M636.1,726.9c0-36-28.4-65.6-64-67.4v134.8c35.6-1.8,64-31.4,64-67.4Z"/>
        <rect class="cls-5" x="909.7" y="466.7" width="138.3" height="49.1"/>
        <path class="cls-5" d="M381.2,790.1c-2.9-32.7-30.3-58.3-63.8-58.3s-64,28.7-64,64,0,.4,0,.7h127.8v-6.4Z"/>
        <path class="cls-3" d="M128.3,80.6V3.4H49.9c2.4,41.9,36.3,75.4,78.4,77.2Z"/>
        <path class="cls-6" d="M3.5,3.4v84.5h46.7l15.9-29.2c-13.5-14.8-22.1-34.1-23.3-55.3H3.5Z"/>
        <rect class="cls-6" x="135.3" y="3.4" width=".1" height="6.3"/>
        <polygon class="cls-3" points="621 3.4 621 116 660.1 3.4 621 3.4"/>
      </g>
      <line class="cls-7" x1="864.9" y1="-22.8" x2="864.9" y2=".4"/>
      <g>
        <path class="cls-2" d="M746,272.2c5.4,0,10.7-.7,15.8-2,28-7.1,48.7-32.4,48.7-62.5s-28.9-64.5-64.5-64.5-60.4,25.1-64.1,57.2c-.3,2.4-.4,4.8-.4,7.3,0,35.6,28.9,64.5,64.5,64.5ZM689,200.4c3.6-28.3,27.8-50.2,57-50.2s57.5,25.8,57.5,57.5-17.7,48.4-41.7,55.3c-5,1.4-10.3,2.2-15.8,2.2-31.7,0-57.5-25.8-57.5-57.5s.2-4.9.5-7.3Z"/>
        <circle class="cls-2" cx="499.2" cy="175.6" r="28.9"/>
        <path class="cls-2" d="M189.3,104.7c12.2,0,22.1-9.9,22.1-22.1s-9.9-22.1-22.1-22.1-22.1,9.9-22.1,22.1,9.9,22.1,22.1,22.1Z"/>
        <circle class="cls-2" cx="998.2" cy="699.4" r="34.4" transform="translate(-135.6 252) rotate(-13.5)"/>
        <circle class="cls-2" cx="767.4" cy="667.3" r="34.4" transform="translate(-2.3 2.6) rotate(-.2)"/>
        <path class="cls-2" d="M1196.5-353V-3.6h-141.5v-100.7h-7V-3.6h-452.8c1.7-.6,3.3-1.3,4.9-2.1h-9.5c-2.6.8-5.2,1.5-7.9,2.1h-194.5v-218.3h-7V-3.6H74v-2.1L7.7-68.6h66.4v-2.7H31.6l-.3.8-2.5-.8h-.3l-2.5.8-.3-.8H3.5v-319.2c0,13.6-2.5,26.4-7,37.5V-3.6h-1196.5V3.4H-3.5v793h-1196.5v7H-3.5v355.2H3.5v-355.2h883.6v129.8h7v-129.8h153.9c0,.1,7,.1,7,.1h0c0-.1,91.2-.1,91.2-.1v41.6c23.2,15.6,41.1,38.4,50.3,65.3v248.3h7v-355.2h0v-444.8h0v-108.5h0v-7h0V3.4h0v-393.9c0,13.6-2.5,26.4-7,37.5ZM1196.5,152.2v122h-118.5v-93.9c18.8-1.8,33.5-17.6,33.5-36.8s-.8-8.7-2.2-12.7c-5.2-14.2-18.8-24.3-34.8-24.3s-29.6,10.2-34.8,24.3c-1.4,4-2.2,8.2-2.2,12.7,0,19.2,14.7,35.1,33.5,36.8v93.9c-57.8-1.6-105.6-43.6-116.3-98.7-1.5-7.5-2.2-15.3-2.2-23.3s.6-14.5,1.9-21.4c0-.1,0-.2,0-.3,4.7-25.9,17.5-49,35.8-66.4,1.1-1.1,2.3-2.1,3.4-3.1,2.8-2.5,5.7-4.8,8.7-7,19.3-14.2,43-22.9,68.6-23.6,1.2,0,2.3,0,3.5,0s2.3,0,3.5,0c25.4.7,48.9,9.3,68.2,23.3v64c0,4.7.9,9.1,2.6,13.2,5.2,12.6,17.5,21.4,32,21.4h15.7ZM572.1,659.4c35.6,1.8,64,31.4,64,67.4s-28.4,65.6-64,67.4v-134.8ZM565.1,794.3c-35.6-1.8-64-31.4-64-67.4s28.4-65.6,64-67.4v134.8ZM199.9,318.4l37.4-49.1,14.6-19.2h128v202.8c-13.6-32.2-45.5-54.9-82.6-54.9s-81.9,32.9-88.6,75.8h-127.5l118.6-155.5ZM216.4,140.5v102.4c-26.6-2.5-47.5-24.5-47.5-51.2s20.9-48.7,47.5-51.2ZM585.3,185.7l47.9-23.9,38.7-19.4v183.1c-13.6-45-55.5-77.8-104.8-77.8s-88.7,30.9-103.5,73.8v-44.5l-65.6-26.9h61.4v-1.3l126.1-63.1ZM1047.3,130.8c4.8-10.2,15.2-17.3,27.2-17.3s22.4,7.1,27.2,17.3c1.8,3.9,2.8,8.1,2.8,12.7,0,16.5-13.5,30-30,30s-30-13.5-30-30,1-8.8,2.8-12.7ZM1104.5,459.7h-210.4v-101.1h210.4v101.1ZM909.7,570.9v-48.1h145.3v-56.1h49.5v104.2h-194.8ZM456.5,569.4l-69.5-28.5v-41.7l34.8,14.2,34.8,14.2v41.7ZM380,545.7v25.5h-50.1c22.6-8.8,40.7-26.5,50.1-48.8v23.3ZM245.5,619.2h-68.9v-41.1h95.9v14c0,14.9-12.1,27-27,27ZM381.2,626.2v98.9h-64.7l33-98.9h31.8ZM342.1,626.2l-30.5,91.5-.3-.9-30.2-90.6h61ZM273,626.2l-30.5,91.5-30.5-91.5h61ZM173.5,717.8l-30.5-91.5h61l-30.5,91.5ZM104.4,717.8l-30.5-91.5h61l-30.5,91.5ZM223.4,140.3c28.1,1,50.6,23.7,50.6,51.4s-22.5,50.4-50.6,51.4v-102.8ZM274,164.2c-5.5-10.1-14-18.5-24.3-24h24.3v24ZM281,191.7v-51.4h171.2v102.9h-71.4l-.8-.3v.3h-99v-51.4ZM779.5,287.2v50.9c0,13.1-5.1,25.1-13.5,34l-84.9-84.9h98.4ZM678.9,294.8l82,82c-8.5,6.8-19.3,10.9-31.1,10.9h-50.9v-92.9ZM387,450.1l34.8,14.2,34.8,14.2v41.7l-28-11.5-41.5-17h0v-41.7ZM567,459.7c-56.5,0-102.5-46-102.5-102.5s46-102.5,102.5-102.5,102.5,46,102.5,102.5h0c0,56.5-46,102.5-102.5,102.5h0ZM671.9,394.8v64.9h-66.3c31.7-11.9,56.4-38.2,66.3-70.8v5.9ZM580.7,466.7h86.5l-45.7,47.6h-40.8v-47.6ZM456.5,323.3l-34.8-14.2-34.8-14.2v-41.7l69.5,28.5v41.7ZM387,302.4l28,11.5,41.5,17v41.7l-34.8-14.2-34.8-14.2v-41.7ZM387,351.6l34.8,14.2,34.8,14.2v41.7l-34.8-14.2-34.8-14.2v-41.7ZM387,400.9l34.8,14.2,34.8,14.2v41.7l-34.8-14.2-34.8-14.2v-41.7ZM297.3,570.3h-77.8l55.1-50.6c6.3,4.9,14.1,7.8,22.7,7.8,20.4,0,37-16.6,37-37s-16.6-37-37-37-37,16.6-37,37,3.5,17.9,9.2,24.4l-54.8,50.3v-77.5c0-45.6,37.1-82.6,82.6-82.6s82.6,37.1,82.6,82.6-37.1,82.6-82.6,82.6ZM295,491.5l-20.3,18.6c-4.6-5.3-7.4-12.1-7.4-19.7,0-16.5,13.5-30,30-30s30,13.5,30,30-13.5,30-30,30-12.5-2.1-17.4-5.6l19.8-18.2-4.7-5.2ZM463.5,459.7v-66.8c10.6,30.8,34.6,55.4,65,66.8h-65ZM676.9,466.7h117.5v47.6h-163.1l45.7-47.6ZM909.7,466.7h138.3v49.1h-138.3v-49.1ZM902.7,466.7v104.2h-101.4v-104.2h101.4ZM887.1,280.2v179.5h-208.2v-64.9h50.9c13.7,0,26.2-4.9,36-13l9.1,9.1c-5.2,6.3-8.3,14.4-8.3,23.2,0,20.1,16.3,36.4,36.4,36.4s36.4-16.3,36.4-36.4-16.3-36.4-36.4-36.4-16.9,3.1-23.2,8.3l-8.9-8.9c9.6-10.2,15.5-23.9,15.5-38.9v-53.3l100.6-137.4v132.7ZM801.1,417.1l5-5-21.2-21.2c5-3.9,11.3-6.3,18.2-6.3,16.2,0,29.4,13.2,29.4,29.4s-13.2,29.4-29.4,29.4-29.4-13.2-29.4-29.4,2.4-13.2,6.3-18.2l21.2,21.2ZM836.3,133.2c0-.4,0-.7,0-1.1,0-.4,0-.8-.1-1.2,0-.5-.1-1-.2-1.4,0-.4-.1-.8-.2-1.2,0-.5-.2-1-.3-1.5,0-.4-.1-.7-.2-1.1-.1-.5-.2-1-.3-1.5,0-.3-.2-.7-.2-1-.1-.5-.3-1-.4-1.5,0-.3-.2-.6-.3-.9-.2-.6-.4-1.2-.6-1.7,0-.2-.2-.5-.2-.7-.6-1.6-1.3-3.2-2-4.7-.1-.2-.2-.5-.3-.7-.3-.5-.5-1.1-.8-1.6-.2-.3-.3-.5-.5-.8-.3-.5-.5-.9-.8-1.4-.2-.3-.4-.6-.5-.9-.3-.4-.5-.9-.8-1.3-.2-.3-.4-.6-.6-.9-.3-.4-.6-.8-.8-1.2-.2-.3-.4-.6-.7-.9-.3-.4-.6-.8-.9-1.1-.2-.3-.5-.6-.7-.8-.3-.4-.6-.7-.9-1.1-.3-.3-.5-.6-.8-.8-.3-.3-.6-.7-1-1-.3-.3-.5-.5-.8-.8-.3-.3-.7-.6-1-1-.3-.3-.6-.5-.9-.8-.3-.3-.7-.6-1-.9-.3-.2-.6-.5-.9-.7-.4-.3-.7-.6-1.1-.8-.3-.2-.6-.5-.9-.7-.4-.3-.7-.5-1.1-.8-.3-.2-.6-.4-1-.7-.4-.3-.8-.5-1.2-.7-.3-.2-.7-.4-1-.6-.4-.2-.8-.5-1.2-.7-.3-.2-.7-.4-1-.6-.4-.2-.8-.4-1.2-.6-.3-.2-.7-.3-1.1-.5-.4-.2-.8-.4-1.3-.6-.4-.2-.7-.3-1.1-.5-.4-.2-.9-.3-1.3-.5-.4-.1-.7-.3-1.1-.4-.4-.2-.9-.3-1.3-.5-.4-.1-.7-.2-1.1-.4-.5-.1-.9-.3-1.4-.4-.4-.1-.7-.2-1.1-.3-.5-.1-.9-.2-1.4-.3-.4,0-.7-.2-1.1-.2-.5,0-1-.2-1.5-.3-.4,0-.7-.1-1.1-.2-.5,0-1-.1-1.6-.2-.4,0-.7,0-1.1-.1-.6,0-1.2,0-1.8-.1-.3,0-.6,0-.9,0-.9,0-1.8,0-2.7,0s-1.8,0-2.7,0c-.3,0-.6,0-.9,0-.6,0-1.2,0-1.8.1-.4,0-.7,0-1.1.1-.5,0-1.1.1-1.6.2-.4,0-.7.1-1.1.2-.5,0-1,.2-1.5.3-.4,0-.7.2-1.1.2-.5.1-1,.2-1.4.3-.4,0-.7.2-1.1.3-.5.1-.9.3-1.4.4-.4.1-.7.2-1.1.4-.4.1-.9.3-1.3.5-.4.1-.7.3-1.1.4-.4.2-.9.3-1.3.5-.4.1-.7.3-1.1.5-.4.2-.8.4-1.3.6-.4.2-.7.3-1.1.5-.4.2-.8.4-1.2.6-.3.2-.7.4-1,.6-.4.2-.8.4-1.2.7-.3.2-.7.4-1,.6-.4.2-.8.5-1.2.7-.3.2-.6.4-1,.7-.4.3-.7.5-1.1.8-.3.2-.6.5-.9.7-.4.3-.7.6-1.1.8-.3.2-.6.5-.9.7-.4.3-.7.6-1,.9-.3.3-.6.5-.8.8-.3.3-.7.6-1,1-.3.3-.5.5-.8.8-.3.3-.6.7-1,1-.3.3-.5.5-.8.8-.3.3-.6.7-.9,1.1-.2.3-.5.6-.7.8-.3.4-.6.7-.9,1.1-.2.3-.4.6-.7.9-.3.4-.6.8-.8,1.2-.2.3-.4.6-.6.9-.3.4-.5.8-.8,1.3-.2.3-.4.6-.5.9-.3.5-.5.9-.8,1.4-.2.3-.3.5-.5.8-.3.5-.5,1.1-.8,1.6-.1.2-.2.4-.3.7-.7,1.5-1.4,3.1-2,4.7,0,.2-.2.5-.2.7-.2.6-.4,1.1-.6,1.7,0,.3-.2.6-.3.9-.2.5-.3,1-.4,1.5,0,.3-.2.7-.2,1-.1.5-.2,1-.3,1.5,0,.4-.1.7-.2,1.1,0,.5-.2,1-.3,1.5,0,.4-.1.8-.2,1.2,0,.5-.1,1-.2,1.4,0,.4,0,.8-.1,1.2,0,.4,0,.7,0,1.1h-50.7c1.9-55.8,47.8-100.6,104.1-100.6s102.2,44.8,104.1,100.6h-50.7ZM829.3,133.2h-92.7c0-.2,0-.4,0-.7,0-.4,0-.7.1-1.1,0-.4,0-.8.2-1.2,0-.4,0-.7.2-1.1,0-.4.1-.8.2-1.2,0-.3.1-.7.2-1,0-.4.2-.8.3-1.2,0-.3.2-.7.3-1,.1-.4.2-.8.3-1.1,0-.3.2-.7.3-1,.1-.4.2-.7.4-1.1.1-.3.2-.7.3-1,.1-.4.3-.7.4-1.1.1-.3.3-.6.4-1,.2-.4.3-.7.5-1.1.1-.3.3-.6.4-.9.2-.4.4-.7.6-1.1.2-.3.3-.6.5-.9.2-.4.4-.8.7-1.2.2-.4.5-.8.7-1.1.3-.5.6-1,.9-1.4.2-.3.4-.5.6-.8.2-.3.5-.7.7-1,.2-.3.4-.5.6-.8.2-.3.5-.6.7-.9.2-.3.5-.5.7-.8.2-.3.5-.6.7-.8.2-.3.5-.5.7-.8.3-.3.5-.5.8-.8.3-.3.5-.5.8-.8.3-.3.5-.5.8-.8.3-.2.5-.5.8-.7.3-.2.6-.5.8-.7.3-.2.6-.5.8-.7.3-.2.6-.5.9-.7.3-.2.6-.4.9-.6.3-.2.6-.4.9-.6.3-.2.6-.4.9-.6.3-.2.6-.4.9-.6.3-.2.6-.4.9-.6.3-.2.6-.4,1-.6.3-.2.6-.3.9-.5.3-.2.7-.3,1-.5.3-.2.6-.3,1-.5.3-.2.7-.3,1-.5.3-.1.6-.3,1-.4.4-.1.7-.3,1.1-.4.3-.1.7-.3,1-.4.4-.1.7-.3,1.1-.4.3-.1.7-.2,1-.3.4-.1.8-.2,1.2-.3.3,0,.7-.2,1-.3.4-.1.8-.2,1.2-.3.3,0,.7-.2,1-.2.4,0,.8-.2,1.3-.2.3,0,.6-.1,1-.2.4,0,.9-.1,1.4-.2.3,0,.6,0,.9-.1.5,0,1,0,1.5-.1.3,0,.5,0,.8,0,.8,0,1.6,0,2.3,0s1.6,0,2.3,0c.3,0,.5,0,.8,0,.5,0,1,0,1.5.1.3,0,.6,0,.9.1.5,0,.9.1,1.4.2.3,0,.6.1,1,.2.4,0,.9.1,1.3.2.3,0,.7.1,1,.2.4,0,.8.2,1.2.3.3,0,.7.2,1,.3.4.1.8.2,1.2.3.3.1.7.2,1,.3.4.1.8.2,1.1.4.3.1.7.2,1,.4.4.1.7.3,1.1.4.3.1.6.3,1,.4.4.2.7.3,1.1.5.3.1.6.3.9.5.3.2.7.3,1,.5.3.2.6.3.9.5.3.2.7.4,1,.6.3.2.6.4.9.5.3.2.6.4,1,.6.3.2.6.4.9.6.3.2.6.4.9.7.3.2.6.4.9.6.3.2.6.5.9.7.3.2.6.4.8.7.3.2.6.5.8.7.3.2.5.5.8.7.3.3.5.5.8.8.3.2.5.5.8.7.3.3.5.5.8.8.2.3.5.5.7.8.3.3.5.6.7.9.2.3.5.5.7.8.2.3.5.6.7.9.2.3.4.5.6.8.2.3.5.7.7,1,.2.3.4.5.5.8.3.5.7,1,1,1.6.2.3.4.6.6.9.2.4.5.8.7,1.2.2.3.3.6.4.9.2.4.4.7.6,1.1.1.3.3.6.4.9.2.4.3.7.5,1.1.1.3.3.6.4,1,.1.4.3.7.4,1.1.1.3.2.7.3,1,.1.4.3.7.4,1.1.1.3.2.7.3,1,.1.4.2.8.3,1.1,0,.3.2.7.3,1,0,.4.2.8.3,1.2,0,.3.1.7.2,1,0,.4.1.8.2,1.2,0,.3.1.7.2,1.1,0,.4.1.8.2,1.2,0,.4,0,.7.1,1.1,0,.2,0,.4,0,.7h0ZM729.5,140.2h154.2l-102.5,139.9h-102.3v-139.9h50.6ZM452.2,76.2v57h-171.2v-57h171.2ZM274,133.2h-50.4v-7.3c0-27.4,22.3-49.7,49.7-49.7h.7v57ZM274,219.1v24h-24.3c10.3-5.5,18.8-13.8,24.3-24ZM161.6,480.8v88.8H8.2l67.7-88.8h85.6ZM3.5,578.2h166.2v41.1H3.5v-41.1ZM65.9,626.2l-30.5,91.5-30.5-91.5h61ZM104.4,728.7h0l-3.4,1.1h0s3.4-1.1,3.4-1.1ZM107.8,729.8l1.5-4.6,29.6-88.9,29.6,88.9,1.5,4.6,3.4-1.1h0l-3.4,1.1-1.5-4.6h-59.2l-1.5,4.6-2.2-.7,2.2.7ZM176.8,729.8l1.5-4.6,29.6-88.9,29.6,88.9,1.5,4.6,3.4-1.1,3.4,1.1,1.5-4.6,29.6-88.9,29.6,88.9h-59.2l-1.5,4.6-3.4-1.1-3.4,1.1-1.5-4.6h-59.2l-1.5,4.6-2.2-.7,2.2.7ZM308.2,729.8l3.2-1.1h0l-3.2,1.1-.4-1.2.4,1.2ZM315,729.8l.4-1.1-.4,1.1-3.2-1.1,3.2,1.1ZM381.2,619.2h-115c8.1-6.2,13.4-16,13.4-27v-14h101.6v41.1ZM387,548.5l55.2,22.6h-55.2v-22.6ZM495.4,522.3h37.8v-7h-37.8v-48.6h78.3v54.6h41.1l-47.7,49.6h-71.8v-48.6ZM624.5,521.2h169.8v49.6h-217.5l47.7-49.6ZM703.1,611.6c0,15.6-12.7,28.4-28.4,28.4s-28.4-12.7-28.4-28.4,12.7-28.4,28.4-28.4,28.4,12.7,28.4,28.4ZM709.8,607.1c-1.8-13.8-11.5-25.1-24.4-29.2h162.7v95.3l-1.3,1.4-18.8,20.3c3-7.4,4.6-15.4,4.6-23.8s-1.8-17.2-5-24.9c-9.7-22.9-32.5-39-58.9-39h-58.9ZM711.8,614.1h56.9c22.5,0,41.9,13.1,51.2,32,3.7,7.5,5.7,16,5.7,24.9,0,31.4-25.5,56.9-56.9,56.9s-21.2-3.1-29.8-8.5c-16.3-10-27.1-28-27.1-48.5v-56.9ZM813.5,720.8l39.6-42.8h98.1l-39.6,42.8h-98.1ZM957.7,671h-98.1l39.6-42.8h98.1l-39.6,42.8ZM905.8,621.2l39.7-42.8h98.1l-39.7,42.8h-98.1ZM889.8,628.2h0l-34.6,37.4v-87.7h81.2l-46.6,50.3ZM1196.5,358.6v50.9c0,27.4-22.3,49.7-49.7,49.7h-35.3v-100.6h85ZM1196.5,351.6h-118.5v-70.4h118.5v70.4ZM1048,3.4h0c0,.1,7,.1,7,.1h0c0-.1,91.2-.1,91.2-.1v41.6c-19.6-13.2-43-21.1-68.2-21.8-1.2,0-2.3,0-3.5,0s-2.3,0-3.5,0c-30.4.8-58.2,12.2-79.9,30.6-1.5,1.3-3,2.6-4.4,3.9-1.1,1-2.2,2-3.2,3.1-18.6,18.5-31.5,42.6-36.1,69.6-1.2,7.1-1.8,14.3-1.8,21.8,0,65.5,49,119.7,112.3,127.9h-163.7v-143.4c0-1.2,0-2.3,0-3.5h0V3.4h153.9ZM887.1,3.4v94.5c-15.8-42.2-56.5-72.3-104.1-72.3s-32.3,3.6-46.4,10.2c-8.2,3.8-15.8,8.5-22.7,14-24.7,19.7-40.9,49.7-41.9,83.4h-49.5L667.2,4.4c0-.3.1-.6.2-1h219.7ZM617.5,136.7l-3.3-1.1,3.3,1.1h0ZM660.1,3.4l-39.1,112.5v17.2h0v-17.2h0V3.4h39.1ZM614,3.4v129.8h-154.8v7h201.3l-201.3,100.7V69.2h0V3.4h154.8ZM135.4,3.4h316.9v6.3h0v7h3.5v-7h0v7h-3.5v16.1h-64.5c-1.7-12-12-21.3-24.5-21.3s-24.8,11.1-24.8,24.8,11.1,24.8,24.8,24.8,22.8-9.3,24.5-21.3h64.5v29.4h-171.2v-31h-7v31h-.7c-31.3,0-56.7,25.4-56.7,56.7v7.3h-.2v.2c-7.9.7-15.3,2.8-22.1,6.2-6.9,3.5-13,8.3-18.1,14-8.9,10.2-14.4,23.5-14.4,38,0,22.2,12.7,41.5,31.3,51.4h-103v-79.8h34.7l-.8-1.5-40.4-73.9-13.7-25.1c16,15.4,37.8,24.9,61.7,24.9h3.5V16.7h.1v-7h-.1V3.4h.1ZM381,36.3c0,9.8-8,17.8-17.8,17.8s-17.8-8-17.8-17.8,8-17.8,17.8-17.8,17.8,8,17.8,17.8ZM3.5,87.9h0V3.4h39.4c1.1,21.3,9.7,40.6,23.3,55.3l.2-.4-.2.4-15.9,29.2L12.8,156.4H3.5v-68.4ZM70.4,58.3c1,1,2,2,3.1,3,1.1,1,2.1,1.9,3.2,2.9,12.7,10.7,28.5,17.7,45.8,19.6,1.5.2,3,.3,4.6.4-1.5,0-3.1-.2-4.6-.4-17.4-1.9-33.1-8.9-45.8-19.6-1.1-.9-2.2-1.9-3.2-2.9-1.1-1-2.1-2-3.1-3ZM128.3,16.7v63.9c-42-1.8-76-35.3-78.4-77.2h78.4v13.3ZM68.3-3.6H3.5v-61.3L68.3-3.6ZM3.5,163.4h79.7v79.7H3.5v-79.7ZM90.2,250.1h0s126.2,0,126.2,0h26.7l-14.6,19.2-37.4,49.1-16.1,21.1H3.5v-89.4h86.7ZM3.5,430.5v-71.8h0v-12.1h166.1l-7.6,9.9-35.6,46.6-6.3,8.3-14.6,19.1-33.1,43.4H3.5v-43.4ZM3.5,644.3l27,80.9H3.5v-80.9ZM49.8,796.4H3.5v-61.3l64.8,61.3h-18.5ZM253.5,796.4h-5.2v-2.9c-1.3-14.7-13.6-26.2-28.7-26.2s-28.8,12.9-28.8,28.8,0,.2,0,.3h-116.7v-2.1l-65.6-62.1h84.4s288.4,0,288.4,0v64.3h-127.8ZM452.3,796.4h-64v-13.2h0v-30.2h0v-24.3h0v-17.7h0v-117h0s0-9.8,0-9.8h.7l-.7-.7v-2.8h0v-2.6h71.7v-.3h105.1v74.5h0c-36.6,1.8-66.3,30-70.5,65.9l-70.8-79.2-6.3-7-28.6-32h-.7v9.8l104.7,117,1.2,1.4c.6,31.1,20.3,57.6,47.9,68.2h-89.8ZM662.6,796.4h-67.4c1.7-.6,3.3-1.3,4.9-2.1,25.4-11.9,43-37.7,43-67.5s-31.5-72.6-71-74.4h0v-74.6h92c-14.3,4.5-24.7,17.9-24.7,33.7s15.9,35.4,35.4,35.4,23.8-6.7,30-16.7v40.7c0,24.5,13.8,45.8,34.1,56.5,8.9,4.7,19.1,7.4,29.8,7.4s19.7-2.4,28.2-6.6l-25.5,27.6-13.6,14.7-6.5,7h110.1v18.8h-103v-18.8h-7v18.8h-88.8ZM894.1,796.4h-25.7v-18.8h0l6.5-7,4.5-4.9,41.6-44.9h0l44.9-48.5,47.4-51.1h0l34.6-37.4,5.5-5.9h51v118h-49.5v-.2h-7v100.7h-153.9ZM1196.5,725.2v71.3h-141.5v-48.6h0s0-44.9,0-44.9h141.5v22.3ZM1196.5,576.6v119.3h-85v-229.7h35.3c21.4,0,40-11.9,49.7-29.4v139.8ZM1203.5,411.3c-.1,6.6-.8,13-2.1,19.1h-1.4v-1.3c2.1-5.6,3.3-11.6,3.5-17.8h0Z"/>
      </g>
    </g>
  </g>
</svg>