<?xml version="1.0" encoding="UTF-8"?>
<svg id="Pattern" xmlns="http://www.w3.org/2000/svg" version="1.1" xmlns:xlink="http://www.w3.org/1999/xlink" viewBox="0 0 5000 3333">
  <defs>
    <style>
      .cls-1 {
        fill: #73cee2;
      }

      .cls-1, .cls-2, .cls-3, .cls-4, .cls-5, .cls-6 {
        stroke-width: 0px;
      }

      .cls-2 {
        fill: none;
      }

      .cls-3 {
        fill: #316672;
      }

      .cls-7 {
        clip-path: url(#clippath);
      }

      .cls-4 {
        fill: #f24510;
      }

      .cls-5 {
        fill: #ededed;
      }

      .cls-6 {
        fill: #5c9ead;
      }
    </style>
    <clipPath id="clippath">
      <polygon class="cls-2" points="2500 0 0 0 0 1666.5 0 3333 2500 3333 5000 3333 5000 1666.5 5000 0 2500 0"/>
    </clipPath>
  </defs>
  <g class="cls-7">
    <polygon id="Light_Gray" data-name="Light Gray" class="cls-5" points="2500 0 0 0 0 1666.5 0 3333 2500 3333 5000 3333 5000 1666.5 5000 0 2500 0"/>
    <g id="Dark_Blue" data-name="Dark Blue">
      <g>
        <polygon class="cls-3" points="3750 3888.5 5000 3888.5 3750 2777.5 3750 3888.5"/>
        <polygon class="cls-3" points="-1250 555.5 0 555.5 -1250 -555.5 -1250 555.5"/>
        <polygon class="cls-3" points="1250 555.5 0 555.5 0 -555.5 1250 555.5"/>
        <path class="cls-3" d="M1790-467.9c-258.4,0-467.9,209.5-467.9,467.9s209.5,467.8,467.9,467.8V-467.9Z"/>
        <polygon class="cls-3" points="3750 555.5 5000 555.5 3750 -555.5 3750 555.5"/>
        <polygon class="cls-3" points="6250 555.5 5000 555.5 5000 -555.5 6250 555.5"/>
        <polygon class="cls-3" points="1250 3888.5 0 3888.5 0 2777.5 1250 3888.5"/>
        <path class="cls-3" d="M1790,2865.1c-258.4,0-467.9,209.5-467.9,467.9s209.5,467.8,467.9,467.8v-935.7Z"/>
        <polygon class="cls-3" points="6250 3888.5 5000 3888.5 5000 2777.5 6250 3888.5"/>
        <path class="cls-3" d="M0,1666.5v1111h244.2c0-210.3,170.5-380.8,380.8-380.8s380.8,170.5,380.8,380.8h244.2v-1111H0Z"/>
        <path class="cls-3" d="M5000,1666.5v1111h244.2c0-210.3,170.5-380.8,380.8-380.8s380.8,170.5,380.8,380.8h244.2v-1111h-1250Z"/>
        <path class="cls-3" d="M3645.7,1063.3l-678.7,603.2h131v1701.5c8.9-.4,17.9-.6,27-.6,154.8,0,296.3,56.7,405,150.5v-1851.5h115.8v-603.2Z"/>
        <path class="cls-3" d="M3125,26c154.2,0,295.5,55.4,405,147.4v-1839.9h-431.9V26.6c8.9-.4,17.9-.6,27-.6Z"/>
        <polygon class="cls-3" points="1250 555.5 1250 1666.5 2500 555.5 1250 555.5"/>
        <polygon class="cls-3" points="-1250 3888.5 0 3888.5 -1250 2777.5 -1250 3888.5"/>
      </g>
    </g>
    <g id="Orange">
      <g>
        <path class="cls-4" d="M1250-566.6V555.5s1250,0,1250,0V-566.6s-1250,0-1250,0ZM1790,467.8c-258.4,0-467.9-209.5-467.9-467.8s209.5-467.9,467.9-467.9V467.8ZM1943,467.8V-467.9c258.4,0,467.9,209.5,467.9,467.9s-209.5,467.8-467.9,467.8Z"/>
        <polygon class="cls-4" points="5000 2777.5 3750 2777.5 3750 1666.5 5000 2777.5"/>
        <path class="cls-4" d="M5000,1023.3c258.4,0,467.8-209.5,467.8-467.8h-935.7c0,258.4,209.5,467.8,467.9,467.8Z"/>
        <path class="cls-4" d="M0,1023.3c258.4,0,467.8-209.5,467.8-467.8H-467.9c0,258.4,209.5,467.8,467.9,467.8Z"/>
        <path class="cls-4" d="M2500,2766.4h0c-73.6-624.3-606-1099.9-1250-1099.9v457.8c385.9,0,702.5,287.7,772.1,653.3h-771.8l-.3,1099.8h1250v-1111ZM1790,3800.8c-258.4,0-467.9-209.5-467.9-467.8s209.5-467.9,467.9-467.9v935.7ZM1943,3800.8v-935.7c2,0,4,0,6,0,.8,0,1.6,0,2.5,0,1.2,0,2.3,0,3.5,0,1,0,2.1,0,3.1,0,.9,0,1.8,0,2.7,0,1.2,0,2.4.1,3.6.2.8,0,1.5,0,2.3.1,1.3,0,2.7.1,4,.2.6,0,1.2,0,1.8.1,1.4,0,2.9.2,4.3.3.5,0,1,0,1.5.1,1.5.1,3.1.2,4.6.4.4,0,.8,0,1.2,0,1.6.1,3.2.3,4.8.4.3,0,.6,0,.9,0,1.7.2,3.4.3,5,.5.2,0,.4,0,.7,0,1.7.2,3.5.4,5.2.6.1,0,.3,0,.5,0,1.8.2,3.6.5,5.4.7,0,0,.2,0,.3,0,1.8.2,3.7.5,5.5.8,0,0,0,0,.1,0,1.9.3,3.7.6,5.6.9h0c67.2,10.8,129.6,36,184,72.2,0,0,0,0,0,0,11,7.3,21.7,15.1,32,23.3,0,0,0,0,.1.1,4.1,3.3,8.2,6.6,12.2,10,0,0,0,0,0,0,6,5.1,11.8,10.4,17.6,15.8,0,0,.2.2.2.2,3.8,3.6,7.5,7.2,11.1,10.9,0,0,.2.2.3.3,5.5,5.5,10.8,11.2,16,17,.1.1.2.2.3.4,3.4,3.8,6.8,7.7,10,11.6.1.2.3.4.4.5,3.3,3.9,6.5,7.9,9.6,11.9.1.1.2.3.3.4,1.5,1.9,3,3.8,4.4,5.8.1.2.2.3.3.4,3,4,6,8.1,8.9,12.3.2.3.4.5.5.8,2.9,4.1,5.7,8.3,8.5,12.5.2.3.3.5.5.8,1.3,1.9,2.5,3.9,3.8,5.9.1.2.2.3.3.5,1.4,2.2,2.7,4.3,4,6.5,0,.1.2.3.3.4,1.2,2,2.4,4,3.6,6,.2.3.4.7.6,1,2.5,4.3,4.9,8.6,7.3,13,.2.4.4.8.6,1.2,1.1,2,2.1,4,3.2,6.1,0,.2.2.3.3.5,1.1,2.2,2.3,4.5,3.4,6.7.2.3.3.6.5,1,1,1.9,1.9,3.9,2.8,5.8.2.4.4.8.6,1.2,1.1,2.3,2.1,4.5,3.1,6.8,0,0,0,0,0,.1,1,2.2,1.9,4.4,2.9,6.6.2.5.4,1,.6,1.4.9,2.1,1.8,4.3,2.7,6.4,0,.1,0,.2.1.4.9,2.3,1.9,4.6,2.8,6.9.2.5.4.9.5,1.4.8,1.9,1.5,3.9,2.2,5.8.2.4.3.9.5,1.3.9,2.3,1.7,4.6,2.5,7,.1.3.2.6.3.9.7,2,1.4,4.1,2.1,6.1.2.5.4,1.1.5,1.7,1.5,4.7,3,9.3,4.4,14.1.2.6.3,1.1.5,1.7.6,2,1.1,3.9,1.7,5.9.1.4.2.9.4,1.3.6,2.4,1.3,4.7,1.9,7.1.1.5.2.9.4,1.4.5,2,1,3.9,1.4,5.9.1.6.3,1.2.4,1.8.6,2.4,1.1,4.8,1.6,7.2,0,.1,0,.2,0,.3.5,2.3,1,4.6,1.4,6.9.1.6.3,1.3.4,1.9.4,2.1.8,4.1,1.2,6.2,0,.4.1.8.2,1.2.4,2.4.8,4.8,1.2,7.3,0,.6.2,1.2.3,1.8.3,2,.6,3.9.9,5.9,0,.6.2,1.2.3,1.8.3,2.4.7,4.9,1,7.3,0,.4,0,.7.1,1.1.3,2.1.5,4.3.7,6.4,0,.7.1,1.4.2,2.1.2,2.2.5,4.5.7,6.7,0,.3,0,.5,0,.8.2,2.5.4,5,.6,7.5,0,.7,0,1.3.1,2,.1,2,.3,4,.4,6,0,.6,0,1.2.1,1.8.1,2.5.2,5,.3,7.5,0,.5,0,1,0,1.5,0,2.1.1,4.1.2,6.2,0,.7,0,1.4,0,2.1,0,2.5,0,5.1,0,7.6,0,258.4-209.5,467.8-467.9,467.8Z"/>
      </g>
    </g>
    <g id="Blue">
      <g>
        <polygon class="cls-6" points="0 235.4 0 -555.5 -889.9 -555.5 0 235.4"/>
        <polygon class="cls-6" points="5000 235.4 5000 -555.5 4110.1 -555.5 5000 235.4"/>
        <path class="cls-6" d="M2500,639.7v-84.2l-1250,1111h1250v-561.1c258.9,51.5,471.7,231.2,569.4,470.1l356.5-316.9c-189.3-333.2-528.5-570.1-925.9-619Z"/>
        <polygon class="cls-6" points="0 3568.4 0 2777.5 -889.9 2777.5 0 3568.4"/>
        <polygon class="cls-6" points="5000 3568.4 5000 2777.5 4110.1 2777.5 5000 3568.4"/>
        <g>
          <polygon class="cls-6" points="3530 2777.5 3750 2777.5 3530 2581.9 3530 2777.5"/>
          <polygon class="cls-6" points="3098 2198 2500 1666.5 2500 2777.5 3098 2777.5 3098 2198"/>
        </g>
        <path class="cls-6" d="M5467.8,555.5c0,258.4-209.5,467.8-467.8,467.8s-467.9-209.5-467.9-467.8h-276c0,410.8,333,743.8,743.8,743.8s743.9-333,743.9-743.8h-276Z"/>
        <path class="cls-6" d="M467.8,555.5c0,258.4-209.5,467.8-467.8,467.8s-467.9-209.5-467.9-467.8h-276C-743.9,966.3-410.8,1299.3,0,1299.3s743.9-333,743.9-743.8h-276Z"/>
      </g>
    </g>
    <g id="Light_Blue" data-name="Light  Blue">
      <g>
        <polygon class="cls-1" points="3645.7 1063.3 3645.7 1666.5 4217 1666.5 4217 555.5 3645.7 1063.3"/>
        <path class="cls-1" d="M625,2396.7c-210.3,0-380.8,170.5-380.8,380.8h761.6c0-210.3-170.5-380.8-380.8-380.8Z"/>
        <path class="cls-1" d="M5625,2396.7c-210.3,0-380.8,170.5-380.8,380.8h761.6c0-210.3-170.5-380.8-380.8-380.8Z"/>
        <path class="cls-1" d="M3747.1,555.5c-48.2-300.2-308.3-529.5-622.1-529.5s-573.9,229.3-622.1,529.5h1244.1Z"/>
        <polygon class="cls-1" points="-1250 -555.5 0 555.5 0 235.4 -889.9 -555.5 -1250 -555.5"/>
        <polygon class="cls-1" points="3750 -555.5 5000 555.5 5000 235.4 4110.1 -555.5 3750 -555.5"/>
        <polygon class="cls-1" points="-1250 2777.5 0 3888.5 0 3568.4 -889.9 2777.5 -1250 2777.5"/>
        <polygon class="cls-1" points="3750 2777.5 5000 3888.5 5000 3568.4 4110.1 2777.5 3750 2777.5"/>
        <path class="cls-1" d="M743.8,555.5c0,410.8-333,743.8-743.8,743.8v367.2h1250V555.5h-506.2Z"/>
        <path class="cls-1" d="M5743.8,555.5c0,410.8-333,743.8-743.8,743.8v367.2h1250V555.5h-506.2Z"/>
      </g>
    </g>
    <g id="Light_Gray-2" data-name="Light Gray">
      <g>
        <path class="cls-5" d="M2410.8,0c0-258.4-209.5-467.9-467.9-467.9V467.8c258.4,0,467.9-209.5,467.9-467.8Z"/>
        <path class="cls-5" d="M2410.8,3333c0-258.4-209.5-467.9-467.9-467.9v935.7c258.4,0,467.9-209.5,467.9-467.8Z"/>
      </g>
    </g>
  </g>
</svg>